<svg width="620" height="600" viewBox="0 0 620 600" fill="none" xmlns="http://www.w3.org/2000/svg">
<path fill-rule="evenodd" clip-rule="evenodd" d="M271.267 123.408C266.811 119.479 263.631 111.328 260.858 96.6348C259.781 90.883 259.336 90.7312 254.989 94.819C251.681 97.9643 247.396 104.651 244.692 110.923C242.987 114.788 237.703 132.53 237.945 133.472C238.01 133.723 235.754 135.185 232.929 136.796C220.522 143.664 207.637 152.87 195.614 163.325C186.523 171.269 182.35 175.513 175.54 183.664C168.242 192.547 168.191 194.706 175.17 196.901C178.469 197.915 186.913 198.721 191.328 198.303C192.452 198.21 193.671 198.226 193.972 198.348C194.321 198.391 195.692 197.16 197.076 195.457C198.476 193.817 200.507 191.743 201.642 190.91C203.786 189.276 208.085 187.882 208.296 188.699C208.36 188.95 206.774 191.175 204.84 193.626C202.843 196.093 201.462 198.331 201.732 198.596C202.449 199.28 210.502 198.311 217.444 196.695C223.042 195.364 231.861 192.385 232.647 191.508C232.805 191.333 234.89 190.519 237.229 189.638C239.631 188.742 241.7 187.865 241.857 187.689C242.078 187.498 243.278 186.915 244.557 186.379C245.9 185.826 249.564 184.063 252.801 182.478C255.559 181.053 258.294 179.736 259.342 179.232C259.493 179.159 259.609 179.104 259.685 179.067C260.238 178.855 262.377 179.033 264.327 179.528C267.736 180.445 277.145 181.066 281.513 180.727C286.071 180.338 293.851 178.57 294.575 177.71C295.818 176.245 294.117 175.148 286.281 172.507C282.346 171.123 279.189 169.871 279.346 169.696C280.052 168.506 315.031 163.304 321.302 163.539C322.479 163.577 323.212 163.594 323.86 163.835C324.974 164.248 325.835 165.321 328.264 168.287C330.814 171.374 338.572 176.851 339.963 176.487C340.342 176.388 340.413 174.828 340.086 173.036C339.429 168.649 340.617 165.925 343.416 165.259C345.772 164.709 354.36 165.813 359.118 167.249C361.243 167.9 362.992 169.185 365.175 171.63C368.664 175.477 375.291 179.977 376.872 179.563C377.568 179.381 377.8 178.448 377.696 176.732C377.256 171.618 377.809 171.407 384.129 174.713C389.814 177.65 395.872 182.298 398.758 185.901C401.005 188.597 403.58 193.085 407.519 201.038C414.628 215.266 421.789 224.454 430.786 230.814C434.251 233.258 437.774 234.616 438.355 233.726C438.479 233.425 436.976 230.735 435.011 227.562C432.999 224.469 431.129 221.405 430.825 220.747C426.66 212.184 424.707 205.388 425.271 201.553C425.59 199.123 428.053 195.059 429.412 194.569C429.855 194.453 431.008 193.95 431.955 193.434C436.692 191.121 443.134 190.708 450.331 192.176C453.121 192.787 455.624 193.07 455.861 192.941C456.729 192.379 453.45 189.349 448.221 185.823C438.908 179.546 423.44 174.009 411.891 172.943C407.471 172.558 407.296 172.403 398.272 164.105C385.97 152.778 367.351 141.563 350.501 135.381C328.432 127.281 302.204 123.219 280.568 124.66C273.667 125.126 273.16 124.99 271.267 123.408Z" fill="#00497A"/>
<path d="M255.575 9.28936C255.333 13.1377 251.776 21.556 248.301 26.7674C241.754 36.709 232.944 42.9626 215.808 49.8576C207.564 53.1447 204.493 53.7059 204.493 51.7818C204.493 51.3809 207.16 48.9756 210.393 46.4101C216.859 41.1987 219.85 38.0719 229.468 26.4467C233.105 22.0371 238.359 16.505 241.107 14.18C246.199 9.85058 253.474 5.76168 255.009 6.24274C255.414 6.48327 255.737 7.76605 255.575 9.28936Z" fill="#A47923"/>
<path d="M210.07 28.8519C211.524 24.2819 212.171 17.6275 211.848 10.5721C211.767 6.9643 210.959 6.88413 205.624 9.69022C191.237 17.2266 181.376 31.9787 175.88 54.0266C172.566 67.0951 173.132 68.458 179.598 63.3269L180.512 62.6082C182.523 61.0274 185.438 58.7361 187.519 57.1534C198.511 48.8153 207.241 37.8314 210.07 28.8519Z" fill="#A47923"/>
<path d="M153.895 36.9495C154.865 39.4349 154.38 56.1913 153.167 61.2423C150.177 73.5891 141.367 84.0119 127.141 92.0293C122.696 94.5147 118.573 96.5992 118.088 96.5992C116.553 96.5992 117.118 88.3413 119.139 80.404C123.746 63.0863 132.799 49.3765 146.62 39.1944C151.712 35.4262 153.086 34.9451 153.895 36.9495Z" fill="#A47923"/>
<path d="M246.199 67.0149C245.391 65.7321 233.267 62.3648 226.073 61.4027C207.079 58.8371 185.983 63.7277 172.162 73.8297C166.423 77.9988 166.585 78.8005 173.617 79.3617C175.718 79.5221 177.981 79.8428 178.628 80.0833C189.378 83.8515 204.008 85.455 212.979 83.6912C215.243 83.2903 218.395 82.8092 220.092 82.5687C229.064 81.5264 248.139 70.1417 246.199 67.0149Z" fill="#A47923"/>
<path d="M102.974 73.4288C103.701 77.2772 103.539 92.35 102.65 98.5234C101.276 107.904 97.3966 116.803 91.0921 125.382C86.9699 130.994 70.4004 147.911 68.9455 147.911C66.5207 147.911 70.1579 122.255 74.4417 108.946C77.3515 99.9665 79.6147 95.0759 84.3026 88.1809C88.1824 82.4886 99.4982 70.9434 101.276 70.9434C101.923 70.9434 102.65 71.9857 102.974 73.4288Z" fill="#A47923"/>
<path d="M192.934 109.748C193.985 106.862 182.346 98.8441 170.949 94.5147C160.523 90.6663 146.216 91.3077 133.769 96.1984C120.594 101.41 106.692 110.95 106.692 114.719C106.692 116.482 110.571 115.761 118.169 112.554C125.363 109.507 128.838 109.748 141.124 114.238C154.622 119.208 164.726 120.331 175.233 117.845C181.861 116.322 192.207 111.512 192.934 109.748Z" fill="#A47923"/>
<path d="M133.446 123.538C143.791 126.584 160.038 137.488 160.038 141.497C160.038 142.379 158.744 143.501 156.239 144.543C142.013 150.557 126.171 150.717 109.44 145.105C103.782 143.181 94.8102 143.421 90.203 145.506C82.2011 149.274 73.9568 159.215 69.1072 171.161C67.7331 174.448 66.359 177.655 66.0357 178.137C64.9042 179.9 62.2369 179.339 61.2669 177.174C59.9737 174.448 63.6917 164.747 69.0263 156.81C73.3102 150.476 83.8177 139.813 91.4155 134.121C104.267 124.5 121.645 120.09 133.446 123.538Z" fill="#A47923"/>
<path d="M51.9718 138.29C51.3252 135.003 50.1936 131.315 49.547 130.032C48.9812 128.829 48.0113 127.867 47.4455 127.867C44.5357 127.947 36.6955 141.336 33.6241 151.519C27.4004 172.043 29.0169 190.243 38.8778 211.89C40.8177 216.219 41.4643 216.941 43 216.7C44.5357 216.54 45.1015 215.578 46.2331 211.248C49.1429 200.104 53.3459 181.744 54.0733 176.774C54.8816 171.322 54.72 150.797 53.8308 146.708C53.6294 145.859 53.2396 144.076 52.7984 142.057L52.7957 142.044L52.7927 142.031C52.5275 140.817 52.244 139.52 51.9718 138.29Z" fill="#A47923"/>
<path d="M111.137 162.342C112.269 164.106 101.519 179.339 92.3854 188.88C87.7782 193.69 85.6767 195.133 78.8064 198.421C70.1579 202.429 58.5997 206.278 57.6297 205.316C56.9023 204.594 60.6203 197.138 65.0658 190.243C69.188 184.069 78.6448 173.887 83.9793 170.039C91.4963 164.587 109.44 159.536 111.137 162.342Z" fill="#A47923"/>
<path d="M37.1804 241.153C34.9173 223.515 26.7537 205.316 16.3271 194.252C12.7707 190.483 11.0733 189.601 10.1842 191.125C9.86091 191.526 8.89102 196.336 8.00189 201.788C5.98119 213.493 6.14286 231.613 8.406 239.63C10.4267 246.926 14.3872 255.745 18.1053 261.197C22.3891 267.611 34.9981 280.519 36.453 280.038C37.9079 279.557 38.4737 250.855 37.1804 241.153Z" fill="#A47923"/>
<path d="M86.9699 217.262C87.2124 217.903 86.1617 221.03 84.5451 224.317C80.9888 231.613 74.3609 238.107 64.985 243.238C61.5094 245.242 55.6898 248.69 52.0526 251.095C48.4963 253.42 45.1015 255.344 44.6166 255.344C42.7575 255.344 43.6466 251.737 47.3647 244.12C50.4361 237.866 52.2143 235.381 57.3064 230.49C61.2669 226.562 65.4699 223.435 69.3497 221.431C78.8064 216.46 86 214.776 86.9699 217.262Z" fill="#A47923"/>
<path d="M79.8572 268.814C79.6147 279.397 79.453 280.118 76.9474 285.249C74.1993 290.701 73.7143 291.182 61.5902 300.322C53.5884 306.335 50.9211 312.749 50.9211 326.218C50.9211 335.679 52.2951 342.734 56.094 353.879C57.3064 357.166 58.1955 360.132 58.1955 360.533C58.1955 360.854 57.3064 361.736 56.1748 362.457C54.4775 363.58 53.9117 363.58 52.7801 362.698C51.3252 361.495 47.203 352.917 45.6673 348.026C44.7782 345.059 44.5357 344.899 39.0395 343.456C21.4192 339.046 10.8308 327.742 4.12217 306.255C0.889105 295.832 0 289.9 0 278.354V268.894L3.39474 270.738C8.16354 273.384 18.671 283.405 24.0865 290.541C31.2801 300.002 39.6053 317.479 39.6053 323.092C39.6053 324.134 39.9286 325.176 40.3327 325.497C41.141 325.978 41.626 323.974 42.4342 316.197C43.8083 303.609 49.4662 288.055 56.4173 278.114C61.8327 270.257 75.6542 257.83 79.1297 257.75C80.0188 257.75 80.1805 259.834 79.8572 268.814Z" fill="#A47923"/>
<path d="M93.1936 346.342C96.2651 337.202 97.6391 322.931 96.5884 311.146C96.2651 306.816 95.6993 304.251 95.1335 304.251C93.3553 304.251 88.9906 307.378 84.2218 312.108C70.2387 325.978 65.0658 341.532 65.7124 368.31C65.8741 378.492 66.1165 379.935 67.4906 380.897C70.7237 383.303 73.4718 381.379 74.6843 375.927C75.0076 374.564 76.7049 372.078 78.4831 370.314C84.2218 364.862 90.5263 354.6 93.1936 346.342Z" fill="#A47923"/>
<path d="M14.953 347.946C30.4718 357.246 45.0207 372.559 55.3665 390.518C62.641 403.186 65.9549 408.076 68.4606 409.68C69.5113 410.401 70.6429 410.883 70.8045 410.642C70.9662 410.482 70.562 408.798 69.9154 406.874C68.1372 401.823 68.3797 399.097 70.7237 397.574C73.4718 395.81 74.6842 396.852 76.8665 403.507C80.5038 414.651 88.9906 429.323 91.8196 429.323C92.547 429.323 92.8703 429.082 92.6278 428.681C92.4662 428.361 91.9004 423.229 91.3346 417.216C90.0414 401.983 91.8196 388.995 96.4267 380.015C98.7707 375.365 104.105 367.749 107.743 363.82C111.38 359.892 120.271 353.718 121.321 354.44C122.615 355.161 122.211 381.218 120.756 388.033C118.735 397.814 111.218 413.929 107.015 417.377C99.7406 423.39 100.064 434.534 107.985 451.691C111.056 458.266 120.513 474.14 125.04 480.073C127.788 483.761 127.868 483.921 126.575 485.846C125.848 486.968 124.716 487.85 124.15 487.85C122.372 487.85 118.654 484.402 115.664 480.153L112.996 476.225L101.196 476.064C90.688 475.904 84.5451 475.343 76.3816 473.819C71.9361 473.018 62.3985 467.806 58.1955 463.958C49.3854 455.941 38.3929 437.42 40.4136 434.053C40.9793 433.171 42.3534 433.251 48.6579 434.454C64.2575 437.42 77.9173 444.877 89.6372 456.823C93.032 460.27 97.8008 464.519 100.306 466.203C104.671 469.249 109.117 471.013 109.117 469.811C109.117 469.49 107.904 467.165 106.368 464.68C102.165 457.704 99.4982 452.092 96.5884 444.235C94.3252 438.062 93.6786 436.939 92.062 436.699C86.0809 435.977 83.0094 433.492 77.1898 424.512C73.3102 418.499 73.0677 418.419 58.7613 415.693C44.0508 412.887 34.109 408.157 27.5621 400.781C19.8835 392.122 13.8214 378.171 10.9925 362.377C10.75 361.014 10.3459 359.09 10.0226 357.968C9.13347 353.959 8.64849 345.14 9.45677 345.14C9.86091 345.14 12.3665 346.422 14.953 347.946Z" fill="#A47923"/>
<path d="M175.395 446.159C172.808 438.302 164.079 421.145 158.017 411.845C155.026 407.355 152.117 403.667 151.47 403.667C149.934 403.667 148.479 407.275 146.701 415.212C144.761 423.871 145.408 440.868 147.994 448.965C150.338 456.422 155.754 467.085 160.28 473.098C164.726 478.951 176.526 490.255 178.143 490.255C180.002 490.255 180.487 485.846 180.002 474.06C179.517 462.515 178.143 454.337 175.395 446.159Z" fill="#A47923"/>
<path d="M131.506 438.302C132.476 439.344 136.598 446.961 140.801 455.379C152.682 479.271 154.056 481.276 165.857 492.821C175.88 502.602 177.82 505.488 175.071 506.531C170.464 508.294 151.147 497.31 141.447 487.529C131.506 477.427 125.363 464.599 124.878 452.573C124.635 446.48 125.201 441.108 126.494 437.5C127.06 435.977 129.727 436.378 131.506 438.302Z" fill="#A47923"/>
<path d="M221.466 497.23C219.203 486.888 211.686 472.537 205.058 465.561C202.957 463.397 199.643 462.034 199.643 463.397C199.643 463.586 199.19 465.373 198.602 467.693L198.35 468.688C198.271 469.003 198.189 469.325 198.107 469.65C195.44 479.512 194.389 492.821 195.521 501.079C196.733 509.978 197.946 513.506 203.118 523.768C207.564 532.507 213.868 541.166 215.808 541.166C216.455 541.166 217.829 539.562 218.799 537.558C223.164 528.418 224.376 510.299 221.466 497.23Z" fill="#A47923"/>
<path d="M117.199 494.986C131.586 498.994 137.406 502.041 152.521 513.345C163.271 521.443 165.695 522.726 172.162 523.447C185.579 524.89 189.459 526.895 186.872 530.904C185.983 532.267 184.124 532.427 176.203 531.705C171.192 531.224 167.07 531.465 161.25 532.347C140.962 535.554 139.669 535.554 131.586 533.629C119.867 530.743 113.32 526.494 101.196 513.907C93.032 505.488 87.2932 497.391 87.2932 494.504V492.42L99.2557 492.901C107.581 493.222 112.915 493.863 117.199 494.986Z" fill="#A47923"/>
<path d="M241.915 561.45C233.914 554.074 225.669 549.664 212.009 545.255C203.846 542.689 201.987 542.368 194.227 542.368C186.791 542.368 184.528 542.769 178.628 544.694C169.333 547.82 158.017 554.234 158.017 556.399C158.017 558.403 167.959 563.535 174.506 564.897C179.598 565.94 192.611 566.26 195.602 565.459C196.733 565.138 199.158 564.497 201.017 564.016C202.876 563.615 206.271 562.492 208.534 561.61C210.797 560.728 215.081 559.766 218.152 559.526C223.325 559.045 223.972 559.125 230.6 562.252C234.479 564.096 238.682 566.26 239.976 567.142C243.209 569.467 245.714 569.387 245.714 566.902C245.714 565.699 244.34 563.775 241.915 561.45Z" fill="#A47923"/>
<path fill-rule="evenodd" clip-rule="evenodd" d="M425.185 1.0973C416.787 5.5684 418.138 15.6055 428.526 25.9223C434.816 32.1701 441.696 38.2817 442.437 38.2817C442.758 38.2817 443.42 38.8925 443.907 39.6383C444.395 40.384 446.777 43.3407 449.202 46.2081C458.405 57.0916 465.032 75.1653 462.098 81.3764C461.039 83.618 461.018 83.627 453.909 84.623C444.675 85.9168 443.302 86.4064 440.422 89.4348C435.764 94.3315 434.547 98.2914 436.096 103.511C438.054 110.108 444.708 110.171 455.361 103.696C459.782 101.009 470.421 100.531 474.865 102.819C482.144 106.567 497.007 121.65 500.282 128.613C502.938 134.257 472.867 132.001 453.909 125.133C439.811 120.025 433.836 121.958 432.277 132.128C430.724 142.257 439.817 149.664 456.298 151.697C461.261 152.309 464.558 152.162 484.967 150.416C502.65 148.903 505.229 149.341 512.194 155.04C517.587 159.452 525.591 174.726 525.582 180.587C525.581 181.096 526.118 183.056 526.775 184.943C530.441 195.474 527.388 196.982 519.187 188.691C512.825 182.258 500.668 173.621 492.134 169.47C480.09 163.613 471.014 167.859 469.704 179.963C469.237 184.274 472.824 188.383 479.092 190.718C481.173 191.493 483.751 192.554 484.819 193.074C485.888 193.595 487.903 194.232 489.298 194.489C497.579 196.016 501.698 197.694 505.576 201.119C507.467 202.79 511.857 205.588 515.405 207.384C529.157 214.346 534.81 223.546 541.158 249.297C541.444 250.457 541.986 257.152 542.363 264.174C543.916 293.051 541.472 297.257 531.726 282.483C529.03 278.394 526.304 274.477 525.669 273.779C525.035 273.08 522.36 268.387 519.725 263.35C506.245 237.585 499.237 232.951 490.181 243.816C485.997 248.835 490.107 260.07 500.556 272.175C502.658 274.61 505.725 278.258 507.372 280.283C509.018 282.307 512.47 285.998 515.042 288.485C517.613 290.972 520.682 294.363 521.859 296.021C523.037 297.679 525.724 301.406 527.831 304.304C532.424 310.619 533.706 313.788 534.242 320.155C535.285 332.541 530.536 329.942 522.769 313.879C517.837 303.678 513.953 299.956 508.228 299.944C503.581 299.934 500.125 308.738 502.776 313.83C505.924 319.874 509.823 325.863 513.902 330.918C515.321 332.676 516.682 334.768 516.929 335.566C517.175 336.365 518.642 339.596 520.188 342.746C524.289 351.103 524.687 353.009 524.664 364.149C524.637 376.876 522.166 390.375 519.863 390.375C516.156 390.375 511.435 378.195 508.589 361.288C503.648 331.935 499.978 324.034 490.581 322.518C482.046 321.14 478.457 335.172 483.635 349.679C484.937 353.327 486.463 358.21 487.025 360.532C487.663 363.158 490.624 369.995 494.869 378.637C498.621 386.273 501.69 392.734 501.69 392.995C501.69 393.256 502.315 394.334 503.079 395.389C508.54 402.938 512.515 419.233 510.394 425.381C509.887 426.852 509.468 428.636 509.463 429.345C509.458 430.054 508.541 431.975 507.425 433.612C506.308 435.25 504.954 438.333 504.415 440.463C503.875 442.592 502.926 445.284 502.305 446.445C501.684 447.605 500.63 449.708 499.961 451.117C497.744 455.792 497.03 454.242 495.088 440.555C491.034 411.985 484.668 395.64 476.73 393.414C465.729 390.331 462.344 398.996 469.112 412.916C478.848 432.941 481.676 451.138 477.869 469.26C474.808 483.834 462.691 502.861 452.582 508.967C445.913 512.995 445.353 511.562 449.974 502.294C463.945 474.266 462.549 419.426 447.524 406.075C438.492 398.049 428.408 409.682 434.427 421.183C443.526 438.566 445.446 468.66 438.727 488.571C429.896 514.739 418.939 524.956 387.912 535.955C385.284 536.887 382.603 538.019 381.955 538.47C381.308 538.922 379.806 539.192 378.907 539.494C370.852 542.197 355.966 553.62 355.843 562.581C355.771 567.804 357.482 570.137 370.221 566.031C374.327 564.707 380.225 560.991 381.603 560C383.7 558.492 385.084 557.587 386.096 556.984C396.757 550.638 406.567 551.223 411.207 560.765C412.156 562.716 413.829 566.075 414.926 568.231C416.023 570.386 417.784 573.913 418.841 576.068C419.897 578.224 420.97 580.08 421.226 580.194C421.482 580.307 422.611 581.852 423.736 583.627C432.892 598.075 448.793 604.692 454.229 596.317C457.958 590.572 454.2 584.118 442.813 576.708C436.076 572.325 429.915 564.058 432.283 562.581C432.767 562.279 443.979 565.855 446.043 566.97C446.674 567.31 451.457 568.675 456.671 570.002C485.186 577.257 492.336 576.799 496.906 567.429C499.104 562.924 498.867 560.657 495.744 556.306C491.828 550.85 487.561 549.703 464.958 548.035C438.476 546.081 428.824 543.989 428.824 540.204C428.824 537.442 429.598 537.011 437.525 535.351C441.383 534.544 447.314 532.788 450.706 531.449C457.452 528.786 461.466 527.836 465.965 527.836C467.616 527.836 469.736 527.379 470.811 526.791C472.39 525.928 474.73 525.708 484.256 525.529C499.464 525.244 505.776 526.798 514.375 532.947C524.187 539.964 536.928 536.994 536.928 527.693C536.928 521.24 533.83 518.374 524.287 515.999C515.188 513.736 514.814 513.059 520.043 508.325C521.925 506.621 525.755 503.038 528.554 500.361C534.126 495.033 539.084 491.849 547.537 488.17C562.195 481.792 574.979 469.967 579.962 461.846C581.108 459.979 582.255 458.426 583.096 457.143C584.231 455.41 589.202 445.631 591.817 440.892C602.244 422.001 601.122 411.132 588.67 410.407C581.29 409.977 578.781 412.523 569.791 429.564C557.349 453.147 548.355 463.181 520.992 484.002C517.648 486.547 514.741 488.909 514.532 489.25C514.323 489.591 513.027 490.446 511.653 491.147C510.28 491.85 508.122 493.361 506.857 494.507C505.594 495.652 502.771 497.403 500.586 498.398C484.165 505.876 479.116 507.171 479.799 503.728C480.335 501.02 489.306 489.181 494.195 484.729C503.182 476.545 504.433 475.037 510.701 464.833C514.164 459.196 518.016 452.685 519.262 450.364C524.133 441.286 532.187 432.753 543.974 424.182C555.449 415.837 562.344 409.697 567.462 403.266C573.166 396.1 578.575 390.525 581.126 389.181C582.275 388.576 584.386 387.506 585.584 386.601C586.782 385.697 588.28 385.093 590.975 383.586C594.254 381.752 594.341 381.812 597.374 379.124C598.591 378.046 600.698 376.591 602.057 375.892C606.905 373.395 610.632 370.159 614.107 365.428C623.278 352.942 621.57 342.307 610.203 341.122C603.338 340.407 601.122 342.285 591.489 356.985C584.373 367.845 582.706 369.745 581.316 368.58C580.215 367.658 580.332 365.814 581.753 361.681C584.519 353.637 581.165 346.802 574.451 346.802C568.584 346.802 566.4 350.645 562.365 368.068C559.235 381.579 550.079 399.3 544.783 402.093C543.912 402.552 542.393 403.8 541.408 404.867C539.333 407.111 535.562 409.032 533.195 409.052C531.02 409.069 531.035 407.664 533.281 400.789C534.232 397.88 535.601 392.922 536.322 389.772C539.602 375.453 543.699 365.438 548.112 360.954C549.189 359.859 550.54 358.058 551.114 356.95C552.187 354.881 564.294 342.961 571.056 337.319C573.145 335.575 576.229 332.76 577.909 331.062C579.59 329.364 583.824 325.262 587.319 321.946C590.815 318.63 595.064 314.154 596.761 311.998C598.459 309.843 600.716 307.13 601.777 305.969C606.807 300.465 607.159 290.243 602.435 286.818C594.847 281.318 588.935 283.383 582.94 293.628C571.025 313.991 554.022 333.685 548.342 333.7C546.966 333.704 547.912 328.29 550.974 318.63C554.927 306.156 556.654 297.19 557.785 283.269C558.132 279.009 558.685 273.895 559.016 271.905C559.347 269.916 559.619 266.378 559.621 264.044C559.626 257.737 560.975 253.29 564.413 248.249C566.05 245.85 567.389 243.757 567.389 243.598C567.389 243.439 568.884 240.993 570.712 238.163C572.539 235.333 575.212 230.299 576.651 226.978C578.09 223.656 579.784 220.198 580.414 219.291C581.044 218.386 582.14 216.308 582.849 214.674C583.558 213.041 585.15 210.056 586.387 208.042C589.397 203.14 589.794 202.119 590.986 196.197C591.548 193.403 592.52 189.092 593.146 186.617C598.347 166.023 594.165 153.922 582.605 156.111C575.652 157.428 572.32 164.241 571.009 179.823C570.654 184.045 569.975 188.72 569.5 190.212C569.025 191.705 568.213 196.317 567.694 200.462C565.92 214.658 563.974 220.452 558.379 228.195C555.209 232.582 555.365 232.615 552.161 226.871C549.826 222.683 549.142 220.682 547.972 214.63C547.204 210.651 546.122 205.496 545.568 203.175C543.06 192.656 543.999 179.8 547.839 172.1C549.732 168.301 552.053 162.886 552.995 160.067C553.937 157.249 555.116 153.858 555.613 152.531C556.61 149.874 559.361 128.867 559.955 119.372C561.078 101.414 556.668 89.6259 547.907 87.1703C544.375 86.1803 543.697 86.3352 541.064 88.7366C534.908 94.3502 533.787 102.706 537.234 117.262C538.948 124.496 539.019 125.352 539.019 138.665C539.019 161.583 537.048 164.777 530.634 152.253C529.184 149.422 526.362 144.554 524.364 141.437C522.365 138.32 519.829 133.979 518.728 131.791C517.627 129.602 516.098 126.591 515.33 125.099C513.772 122.072 513.811 123.713 514.292 81.3891C514.495 63.489 514.447 62.4954 513.16 57.876C508.963 42.8137 502.389 36.8667 494.123 40.6553C488.312 43.319 487.919 58.14 493.313 71.2272C496.65 79.3223 499.814 96.2692 498.416 98.553C497.677 99.7594 495.841 99.1511 494.377 97.2152C493.561 96.1378 490.547 92.6784 487.678 89.5282C481.002 82.1975 479.619 80.0874 478.692 75.8243C476.99 67.989 470.567 48.8873 468.805 46.4209C468.569 46.0893 466.296 41.8841 463.754 37.0759C448.969 9.1032 434.863 -4.05508 425.185 1.0973ZM387.252 24.034C380.369 27.1956 380.14 40.7482 386.89 45.4249C387.681 45.9723 389.31 47.268 390.509 48.3037C393.879 51.2127 400.435 55.304 407.239 58.7435C421.997 66.2056 419.55 68.2682 395.079 68.9971C375.889 69.5686 372.538 70.7756 369.04 78.3746C366.817 83.202 368.896 90.2903 373.279 92.8303C377.144 95.0707 397.778 93.9402 403.861 91.1554C405.601 90.359 408.895 89.1026 411.18 88.3634C413.466 87.6242 416.14 86.4305 417.121 85.7113C418.985 84.3463 421.696 82.8077 426.734 80.2562C428.376 79.4248 432.748 78.058 436.449 77.2188C451.685 73.7654 450.887 69.606 431.868 53.3542C394.581 21.4928 393.842 21.0075 387.252 24.034ZM600.643 217.635C597.147 219.475 593.774 226.679 590.033 240.292C588.992 244.084 586.561 250.755 584.632 255.117C582.704 259.479 581.117 263.413 581.107 263.859C581.097 264.305 580.426 265.756 579.617 267.082C577.093 271.219 577.733 278.839 580.604 278.839C589.535 278.839 611.539 247.27 613.971 230.968C615.628 219.855 609.007 213.231 600.643 217.635Z" fill="#00497A"/>
<path d="M337.07 572.397L337.303 572.37C337.575 576.243 337.955 579.905 338.464 583.25C319.186 585.523 299.878 585.897 281.066 584.263C278.155 584.009 275.355 583.755 273.056 583.537C273.814 578.586 274.407 573.854 274.863 569.568C275.185 567.201 275.52 563.353 275.855 558.201C276.295 550.557 276.882 541.239 277.176 537.672C277.763 528.937 277.837 527.117 278.497 509.136L279.084 493.776L277.103 490.427C276.002 488.534 272.258 483.511 268.808 479.216C254.789 461.963 250.679 453.81 245.908 433.936C243.119 422.216 239.302 411.515 234.751 402.561C231.081 395.208 230.494 392.66 232.035 391.132C234.09 389.093 240.183 390.84 245.174 394.771C249.357 398.047 252.807 403.507 256.551 412.534C260.661 422.361 263.597 427.312 266.68 429.423C271.157 432.48 271.377 432.116 274.387 416.174C275.268 411.442 274.827 383.925 273.726 377.518C273.286 374.679 272.772 371.767 272.625 370.967C270.497 358.591 269.542 334.787 270.79 326.633C271.744 320.446 272.992 317.825 275.268 317.097C279.158 315.859 281.727 320.664 283.562 332.384C283.782 333.986 284.149 337.262 284.369 339.664C285.617 353.131 290.828 381.595 293.104 386.909C293.985 388.948 294.645 389.53 296.113 389.53C299.563 389.53 299.93 387.128 300.444 361.139C301.031 329.036 301.985 308.871 303.086 305.813C304.114 302.829 306.976 299.99 308.885 299.99C309.619 299.99 311.087 300.645 312.114 301.445C314.39 303.265 316.665 312.074 316.078 316.951C315.417 322.629 317.179 387.565 318.06 389.457C318.5 390.404 319.454 391.568 320.115 392.005C322.684 393.534 324.079 390.622 326.868 378.028C330.685 361.358 330.978 359.538 332.74 342.94C333.4 337.116 334.061 331.584 334.281 330.564C335.896 322.047 337.878 318.189 340.593 318.189C345.878 318.189 346.612 322.047 346.172 346.58C345.878 364.124 345.658 366.672 343.896 374.607C339.126 395.863 338.685 401.032 341.327 404.381C344.337 408.166 345.952 406.929 351.75 396.082C356.888 386.473 362.1 374.679 365.476 365.143C368.999 355.024 369.953 353.35 372.596 352.331C378.394 350.147 378.982 359.756 374.211 378.974C372.596 385.672 369.293 394.262 365.77 401.25C358.503 415.737 357.255 419.814 353.292 443.618C350.502 460.434 346.319 472.664 340.52 481.254L340.28 481.606C336.979 486.449 335.313 488.892 334.465 491.589C333.601 494.334 333.584 497.342 333.551 503.411L333.547 504.186C333.547 515.396 334.355 536.799 335.015 541.312C335.162 542.477 335.529 547.282 335.749 551.868C335.969 556.454 336.336 563.006 336.63 566.282L337.07 572.397Z" fill="#00497A"/>
<path d="M330 233.697C330 225.953 325.673 219.316 318.326 215.601C315.551 214.258 306.898 213.468 304.286 214.416C298.571 216.392 293.429 220.975 291.225 226.19C290.571 227.692 290 231.248 290 234.093C290 244.682 297.51 252.742 308.367 253.848C311.878 254.243 313.51 253.927 317.429 252.189C325.673 248.554 330 242.074 330 233.697Z" fill="#A47923"/>
</svg>
