<?xml version="1.0" encoding="UTF-8"?> <svg xmlns="http://www.w3.org/2000/svg" width="1645" height="350" viewBox="0 0 1645 350" fill="none"><path fill-rule="evenodd" clip-rule="evenodd" d="M154.4 75.0545C151.368 72.3843 149.204 66.8447 147.317 56.8586C146.584 52.9495 146.282 52.8462 143.324 55.6245C141.074 57.7621 138.158 62.3064 136.318 66.5693C135.158 69.1963 131.562 81.254 131.727 81.8943C131.771 82.065 130.236 83.0587 128.314 84.1537C119.872 88.8216 111.105 95.0781 102.924 102.184C96.7377 107.583 93.8987 110.467 89.2647 116.007C84.2993 122.044 84.2644 123.511 89.0131 125.003C91.2578 125.692 97.0032 126.24 100.007 125.956C100.772 125.893 101.602 125.903 101.807 125.987C102.044 126.016 102.977 125.179 103.918 124.022C104.871 122.907 106.253 121.498 107.025 120.931C108.484 119.821 111.41 118.874 111.553 119.429C111.597 119.599 110.517 121.112 109.201 122.777C107.842 124.454 106.903 125.975 107.087 126.155C107.574 126.62 113.054 125.962 117.778 124.863C121.587 123.958 127.587 121.934 128.122 121.338C128.229 121.219 129.648 120.666 131.24 120.067C132.874 119.458 134.282 118.862 134.389 118.743C134.539 118.612 135.356 118.216 136.226 117.852C137.14 117.476 139.633 116.278 141.835 115.201C143.712 114.232 145.573 113.338 146.286 112.995C146.389 112.945 146.468 112.907 146.52 112.882C146.896 112.738 148.351 112.859 149.678 113.196C151.998 113.819 158.4 114.241 161.372 114.011C164.473 113.747 169.767 112.545 170.259 111.96C171.105 110.964 169.948 110.219 164.616 108.424C161.939 107.484 159.79 106.633 159.897 106.514C160.378 105.705 184.178 102.17 188.445 102.329C189.246 102.355 189.745 102.367 190.186 102.53C190.943 102.811 191.53 103.54 193.182 105.556C194.918 107.654 200.196 111.377 201.143 111.129C201.401 111.062 201.449 110.001 201.227 108.784C200.779 105.802 201.587 103.951 203.492 103.498C205.095 103.125 210.939 103.875 214.176 104.851C215.622 105.293 216.812 106.166 218.297 107.828C220.671 110.442 225.181 113.501 226.257 113.219C226.73 113.096 226.888 112.462 226.817 111.296C226.518 107.82 226.894 107.676 231.194 109.924C235.062 111.919 239.185 115.079 241.148 117.527C242.678 119.36 244.429 122.41 247.109 127.815C251.947 137.485 256.819 143.729 262.941 148.051C265.299 149.713 267.696 150.635 268.091 150.031C268.176 149.826 267.153 147.998 265.816 145.842C264.447 143.739 263.175 141.657 262.967 141.21C260.134 135.39 258.805 130.771 259.189 128.165C259.406 126.513 261.082 123.751 262.006 123.418C262.308 123.339 263.092 122.998 263.737 122.647C266.96 121.075 271.343 120.794 276.24 121.792C278.138 122.207 279.842 122.4 280.003 122.312C280.593 121.93 278.362 119.87 274.805 117.475C268.467 113.208 257.942 109.445 250.084 108.72C247.077 108.459 246.958 108.353 240.818 102.714C232.447 95.0156 219.778 87.3931 208.313 83.192C193.296 77.687 175.451 74.9265 160.729 75.9056C156.033 76.2221 155.688 76.1301 154.4 75.0545Z" fill="#00497A"></path><path d="M149.085 5.41887C148.944 7.66374 146.869 12.5744 144.842 15.6144C141.023 21.4136 135.883 25.0616 125.888 29.0836C121.079 31.0011 119.287 31.3285 119.287 30.2061C119.287 29.9722 120.843 28.5692 122.729 27.0726C126.501 24.0327 128.245 22.2087 133.856 15.4273C135.978 12.855 139.042 9.62801 140.645 8.27173C143.616 5.74625 147.859 3.36106 148.755 3.64168C148.991 3.78199 149.179 4.53028 149.085 5.41887Z" fill="#6BA423"></path><path d="M122.54 16.8303C123.389 14.1645 123.766 10.2828 123.578 6.16716C123.53 4.06259 123.059 4.01582 119.947 5.65271C111.555 10.0489 105.802 18.6543 102.596 31.5156C100.663 39.1388 100.993 39.9339 104.765 36.9407L105.299 36.5215C106.472 35.5993 108.172 34.2628 109.386 33.3396C115.798 28.4756 120.89 22.0684 122.54 16.8303Z" fill="#6BA423"></path><path d="M89.7717 21.5539C90.3375 23.0037 90.0546 32.7783 89.3474 35.7247C87.6029 42.927 82.4636 49.007 74.1654 53.6838C71.5722 55.1336 69.1676 56.3495 68.8847 56.3495C67.9889 56.3495 68.3189 51.5324 69.4976 46.9024C72.1851 36.8004 77.4658 28.803 85.5283 22.8634C88.4987 20.6653 89.3002 20.3847 89.7717 21.5539Z" fill="#6BA423"></path><path d="M143.616 39.092C143.144 38.3437 136.072 36.3795 131.876 35.8183C120.796 34.3217 108.49 37.1746 100.427 43.0674C97.0798 45.4993 97.1741 45.967 101.276 46.2944C102.502 46.3879 103.822 46.575 104.199 46.7153C110.47 48.9134 119.004 49.8488 124.238 48.8199C125.558 48.586 127.397 48.3054 128.387 48.1651C133.62 47.5571 144.747 40.916 143.616 39.092Z" fill="#6BA423"></path><path d="M60.0678 42.8335C60.4922 45.0784 60.3979 53.8708 59.8792 57.472C59.0777 62.9439 56.8146 68.1352 53.1369 73.1394C50.7323 76.4131 41.0668 86.2813 40.2181 86.2813C38.8036 86.2813 40.9253 71.3154 43.4242 63.5519C45.1216 58.3138 46.4418 55.461 49.1764 51.4389C51.4396 48.1184 58.0404 41.3837 59.0777 41.3837C59.4549 41.3837 59.8792 41.9917 60.0678 42.8335Z" fill="#6BA423"></path><path d="M112.545 64.0195C113.158 62.3359 106.368 57.6591 99.7201 55.1336C93.6379 52.8887 85.2926 53.2628 78.0316 56.1157C70.3463 59.1556 62.2367 64.7211 62.2367 66.9192C62.2367 67.9481 64.4999 67.5272 68.9319 65.6565C73.1281 63.8792 75.1555 64.0196 82.3221 66.6386C90.196 69.5382 96.0897 70.193 102.219 68.7432C106.085 67.8546 112.12 65.0485 112.545 64.0195Z" fill="#6BA423"></path><path d="M77.843 72.0637C83.8781 73.8409 93.355 80.2014 93.355 82.5398C93.355 83.0543 92.6007 83.709 91.139 84.317C82.8408 87.8246 73.5996 87.9182 63.8397 84.6444C60.5393 83.5219 55.3058 83.6623 52.6183 84.8782C47.9505 87.0763 43.1413 92.8756 40.3124 99.8441C39.5109 101.762 38.7093 103.632 38.5207 103.913C37.8607 104.942 36.3047 104.614 35.7389 103.352C34.9846 101.762 37.1534 96.1026 40.2653 91.4726C42.7642 87.7779 48.8935 81.5577 53.3255 78.2371C60.8222 72.6249 70.9593 70.0527 77.843 72.0637Z" fill="#6BA423"></path><path d="M30.3168 80.6691C29.9396 78.7516 29.2795 76.6002 28.9023 75.8519C28.5723 75.1504 28.0065 74.5892 27.6765 74.5892C25.9791 74.636 21.4056 82.4463 19.614 88.3859C15.9835 100.359 16.9265 110.975 22.6787 123.602C23.8102 126.128 24.1874 126.549 25.0833 126.408C25.9791 126.315 26.3091 125.754 26.9692 123.228C28.6666 116.727 31.1183 106.017 31.5427 103.118C32.0142 99.9376 31.9199 87.9649 31.4012 85.5797C31.2837 85.0843 31.0564 84.0441 30.799 82.8664L30.7974 82.859L30.7957 82.8512C30.641 82.1434 30.4756 81.3866 30.3168 80.6691Z" fill="#6BA423"></path><path d="M64.8299 94.6996C65.49 95.7285 59.2191 104.614 53.8913 110.18C51.2038 112.986 49.9779 113.828 45.9703 115.745C40.9253 118.084 34.183 120.329 33.6172 119.767C33.1929 119.346 35.3618 114.997 37.955 110.975C40.3595 107.374 45.876 101.434 48.9878 99.1893C53.3727 96.0091 63.8397 93.0627 64.8299 94.6996Z" fill="#6BA423"></path><path d="M21.6885 140.673C20.3684 130.384 15.6063 119.767 9.52411 113.313C7.44953 111.115 6.45943 110.601 5.94077 111.489C5.75218 111.723 5.18641 114.529 4.66776 117.71C3.48902 124.538 3.58332 135.107 4.90348 139.784C6.08222 144.04 8.39252 149.185 10.5614 152.365C13.0603 156.106 20.4155 163.636 21.2642 163.355C22.1129 163.075 22.4429 146.332 21.6885 140.673Z" fill="#6BA423"></path><path d="M50.7323 126.736C50.8738 127.11 50.2608 128.934 49.3179 130.851C47.2433 135.107 43.3771 138.896 37.9078 141.889C35.8804 143.058 32.4857 145.069 30.3639 146.472C28.2894 147.828 26.3091 148.951 26.0262 148.951C24.9418 148.951 25.4605 146.846 27.6293 142.403C29.421 138.755 30.4583 137.305 33.4286 134.453C35.7389 132.161 38.1907 130.337 40.4539 129.168C45.9703 126.268 50.1665 125.286 50.7323 126.736Z" fill="#6BA423"></path><path d="M46.5832 156.808C46.4418 162.981 46.3475 163.402 44.8859 166.395C43.2828 169.576 42.9999 169.856 35.9275 175.188C31.2598 178.695 29.7039 182.437 29.7039 190.294C29.7039 195.813 30.5054 199.928 32.7214 206.429C33.4286 208.347 33.9473 210.077 33.9473 210.311C33.9473 210.498 33.4286 211.012 32.7686 211.433C31.7784 212.088 31.4484 212.088 30.7883 211.574C29.9396 210.872 27.535 205.868 26.6392 203.015C26.1205 201.285 25.9791 201.191 22.773 200.349C12.4945 197.777 6.31795 191.183 2.4046 178.649C0.518643 172.569 0 169.108 0 162.373V156.855L1.98026 157.93C4.76205 159.474 10.8914 165.32 14.0504 169.482C18.2467 175.001 23.103 185.196 23.103 188.47C23.103 189.078 23.2916 189.686 23.5274 189.873C23.9988 190.154 24.2817 188.984 24.7532 184.448C25.5548 177.105 28.8552 168.032 32.91 162.233C36.069 157.65 44.1315 150.401 46.1589 150.354C46.6775 150.354 46.7718 151.57 46.5832 156.808Z" fill="#6BA423"></path><path d="M54.3628 202.033C56.1545 196.701 56.956 188.376 56.3431 181.502C56.1545 178.976 55.8244 177.479 55.4944 177.479C54.4571 177.479 51.911 179.303 49.1293 182.063C40.9725 190.154 37.955 199.227 38.3322 214.847C38.4264 220.787 38.5679 221.629 39.3694 222.19C41.2554 223.593 42.8585 222.471 43.5657 219.29C43.7543 218.495 44.7444 217.045 45.7817 216.017C49.1293 212.836 52.8069 206.85 54.3628 202.033Z" fill="#6BA423"></path><path d="M8.72257 202.968C17.7752 208.393 26.262 217.326 32.2971 227.802C36.5405 235.192 38.4736 238.044 39.9352 238.98C40.5482 239.401 41.2082 239.681 41.3025 239.541C41.3968 239.447 41.1611 238.465 40.7839 237.343C39.7466 234.396 39.8881 232.806 41.2554 231.918C42.8585 230.889 43.5657 231.497 44.8387 235.379C46.9604 241.879 51.911 250.438 53.5613 250.438C53.9856 250.438 54.1742 250.298 54.0328 250.064C53.9385 249.877 53.6084 246.884 53.2784 243.376C52.524 234.49 53.5613 226.914 56.2488 221.675C57.6161 218.963 60.7279 214.52 62.8496 212.228C64.9713 209.937 70.1577 206.335 70.7707 206.756C71.5251 207.177 71.2893 222.377 70.4406 226.352C69.2619 232.058 64.877 241.459 62.4253 243.47C58.1819 246.977 58.3705 253.478 62.9911 263.486C64.7827 267.321 70.2992 276.581 72.9395 280.042C74.5426 282.194 74.5897 282.287 73.8353 283.41C73.411 284.064 72.7509 284.579 72.4209 284.579C71.3836 284.579 69.2148 282.568 67.4702 280.089L65.9143 277.797L59.0306 277.704C52.9012 277.61 49.3179 277.283 44.5558 276.394C41.9626 275.927 36.399 272.887 33.9473 270.642C28.808 265.965 22.3958 255.162 23.5745 253.197C23.9045 252.683 24.7061 252.73 28.3837 253.431C37.4835 255.162 45.4516 259.511 52.2882 266.48C54.2685 268.491 57.0503 270.969 58.5119 271.951C61.058 273.729 63.6512 274.758 63.6512 274.056C63.6512 273.869 62.9439 272.513 62.0481 271.063C59.5963 266.994 58.0404 263.72 56.3431 259.137C55.0229 255.536 54.6457 254.881 53.7027 254.741C50.2137 254.32 48.422 252.87 45.0273 247.632C42.7642 244.124 42.6227 244.078 34.2773 242.487C25.6962 240.85 19.8969 238.091 16.0778 233.788C11.5987 228.737 8.06248 220.6 6.41227 211.386C6.27084 210.591 6.03507 209.469 5.84648 208.814C5.32784 206.476 5.04494 201.331 5.51643 201.331C5.75218 201.331 7.21379 202.08 8.72257 202.968Z" fill="#6BA423"></path><path d="M102.313 260.259C100.805 255.676 95.7125 245.668 92.1763 240.243C90.4318 237.623 88.7344 235.472 88.3572 235.472C87.4614 235.472 86.6127 237.577 85.5754 242.207C84.4439 247.258 84.8211 257.173 86.3298 261.896C87.6972 266.246 90.8561 272.466 93.4965 275.974C96.0897 279.388 102.973 285.982 103.916 285.982C105.001 285.982 105.284 283.41 105.001 276.535C104.718 269.8 103.916 265.03 102.313 260.259Z" fill="#6BA423"></path><path d="M76.7114 255.676C77.2772 256.284 79.6818 260.727 82.1336 265.638C89.0645 279.575 89.866 280.744 96.7497 287.478C102.596 293.184 103.728 294.868 102.125 295.476C99.4372 296.505 88.1686 290.098 82.5108 284.392C76.7114 278.499 73.1281 271.016 72.8452 264.001C72.7038 260.446 73.0338 257.313 73.7882 255.208C74.1182 254.32 75.6742 254.554 76.7114 255.676Z" fill="#6BA423"></path><path d="M129.188 290.051C127.868 284.018 123.483 275.646 119.617 271.577C118.391 270.315 116.458 269.519 116.458 270.315C116.458 270.425 116.194 271.467 115.851 272.821L115.704 273.401C115.658 273.585 115.61 273.772 115.562 273.962C114.006 279.715 113.393 287.478 114.053 292.296C114.761 297.487 115.468 299.545 118.485 305.531C121.079 310.629 124.756 315.68 125.888 315.68C126.265 315.68 127.067 314.744 127.632 313.575C130.178 308.244 130.886 297.674 129.188 290.051Z" fill="#6BA423"></path><path d="M68.3661 288.741C76.7586 291.08 80.1533 292.857 88.9702 299.451C95.241 304.175 96.6554 304.923 100.427 305.344C108.254 306.186 110.517 307.355 109.009 309.693C108.49 310.489 107.405 310.582 102.785 310.161C99.8616 309.881 97.457 310.021 94.0623 310.535C82.2279 312.406 81.4735 312.406 76.7586 311.284C69.922 309.6 66.1029 307.121 59.0306 299.779C54.2685 294.868 50.9209 290.144 50.9209 288.461V287.245L57.899 287.525C62.7553 287.712 65.8672 288.087 68.3661 288.741Z" fill="#6BA423"></path><path d="M141.117 327.512C136.449 323.209 131.64 320.637 123.672 318.065C118.91 316.568 117.825 316.381 113.299 316.381C108.961 316.381 107.641 316.615 104.199 317.738C98.7772 319.562 92.1763 323.303 92.1763 324.566C92.1763 325.735 97.9756 328.728 101.795 329.523C104.765 330.131 112.356 330.318 114.101 329.851C114.761 329.663 116.175 329.289 117.26 329.009C118.344 328.775 120.324 328.12 121.644 327.606C122.965 327.091 125.463 326.53 127.255 326.39C130.273 326.109 130.65 326.156 134.516 327.98C136.779 329.056 139.231 330.318 139.985 330.833C141.871 332.189 143.333 332.142 143.333 330.692C143.333 329.991 142.531 328.868 141.117 327.512Z" fill="#6BA423"></path><path fill-rule="evenodd" clip-rule="evenodd" d="M248.025 0.640089C243.126 3.24823 243.914 9.10318 249.974 15.1213C253.643 18.7659 257.656 22.331 258.089 22.331C258.276 22.331 258.662 22.6873 258.946 23.1223C259.23 23.5573 260.62 25.282 262.035 26.9547C267.403 33.3034 271.269 43.8464 269.557 47.4695C268.94 48.7771 268.927 48.7824 264.78 49.3634C259.394 50.1181 258.593 50.4037 256.913 52.1702C254.196 55.0267 253.486 57.3366 254.39 60.3815C255.532 64.2297 259.413 64.2666 265.627 60.4891C268.206 58.9216 274.413 58.6427 277.005 59.9774C281.251 62.1642 289.921 70.9625 291.831 75.0242C293.38 78.3167 275.839 77.0007 264.78 72.9942C256.556 70.0147 253.071 71.1418 252.162 77.0749C251.256 82.9829 256.56 87.3038 266.174 88.4901C269.069 88.847 270.992 88.7612 282.897 87.7427C293.213 86.86 294.717 87.1156 298.78 90.4398C301.926 93.0139 306.595 101.923 306.589 105.342C306.589 105.639 306.902 106.783 307.285 107.883C309.424 114.026 307.643 114.906 302.859 110.069C299.148 106.317 292.056 101.279 287.078 98.8572C280.053 95.4405 274.758 97.9175 273.994 104.978C273.722 107.493 275.814 109.89 279.471 111.252C280.685 111.704 282.188 112.323 282.811 112.627C283.434 112.93 284.61 113.302 285.424 113.452C290.254 114.343 292.657 115.321 294.919 117.319C296.022 118.294 298.583 119.926 300.653 120.974C308.675 125.035 311.973 130.402 315.675 145.423C315.842 146.1 316.158 150.005 316.379 154.101C317.284 170.946 315.859 173.4 310.174 164.781C308.601 162.397 307.011 160.112 306.64 159.704C306.27 159.296 304.71 156.559 303.173 153.62C295.31 138.591 291.222 135.888 285.939 142.226C283.498 145.153 285.896 151.707 291.991 158.768C293.217 160.189 295.006 162.317 295.967 163.498C296.927 164.679 298.941 166.832 300.441 168.283C301.941 169.734 303.731 171.712 304.418 172.679C305.105 173.646 306.673 175.82 307.902 177.51C310.581 181.194 311.328 183.043 311.641 186.757C312.25 193.982 309.48 192.466 304.949 183.096C302.072 177.145 299.806 174.974 296.466 174.967C293.756 174.961 291.74 180.097 293.286 183.068C295.122 186.593 297.397 190.087 299.776 193.036C300.604 194.061 301.398 195.281 301.542 195.747C301.685 196.213 302.541 198.097 303.443 199.935C305.835 204.81 306.068 205.922 306.054 212.42C306.038 219.844 304.597 227.719 303.254 227.719C301.091 227.719 298.337 220.614 296.677 210.751C293.795 193.629 291.654 189.02 286.173 188.135C281.194 187.331 279.1 195.517 282.121 203.979C282.88 206.107 283.77 208.956 284.098 210.31C284.47 211.842 286.198 215.83 288.674 220.871C290.862 225.326 292.652 229.095 292.652 229.247C292.652 229.399 293.017 230.028 293.462 230.644C296.649 235.047 298.967 244.552 297.73 248.139C297.434 248.997 297.19 250.038 297.187 250.451C297.184 250.865 296.649 251.985 295.998 252.94C295.347 253.896 294.556 255.694 294.242 256.936C293.927 258.179 293.373 259.749 293.011 260.426C292.649 261.103 292.034 262.33 291.644 263.151C290.351 265.878 289.934 264.974 288.801 256.99C286.436 240.325 282.723 230.79 278.092 229.491C271.676 227.693 269.701 232.747 273.649 240.867C279.328 252.549 280.978 263.163 278.757 273.735C276.972 282.236 269.903 293.335 264.006 296.897C260.116 299.247 259.789 298.411 262.485 293.004C270.635 276.655 269.82 244.665 261.056 236.877C255.787 232.195 249.905 238.981 253.416 245.69C258.724 255.83 259.844 273.385 255.924 284.999C250.773 300.264 244.381 306.224 226.282 312.64C224.749 313.184 223.185 313.844 222.807 314.107C222.43 314.371 221.554 314.528 221.029 314.704C216.331 316.281 207.647 322.945 207.575 328.172C207.534 331.219 208.532 332.579 215.962 330.184C218.358 329.412 221.798 327.244 222.602 326.666C223.825 325.787 224.633 325.259 225.223 324.907C231.442 321.205 237.164 321.547 239.871 327.113C240.424 328.25 241.4 330.21 242.04 331.467C242.68 332.725 243.708 334.782 244.324 336.039C244.94 337.297 245.566 338.38 245.715 338.446C245.865 338.512 246.523 339.414 247.179 340.449C252.52 348.877 261.796 352.737 264.967 347.851C267.142 344.5 264.95 340.735 258.308 336.413C254.378 333.856 250.784 329.034 252.165 328.172C252.448 327.996 258.988 330.082 260.192 330.732C260.56 330.931 263.35 331.727 266.392 332.501C283.025 336.733 287.196 336.466 289.862 331C291.144 328.372 291.006 327.049 289.184 324.511C286.9 321.329 284.411 320.66 271.226 319.687C255.778 318.547 250.147 317.327 250.147 315.119C250.147 313.508 250.599 313.256 255.223 312.288C257.473 311.817 260.933 310.793 262.912 310.011C266.847 308.458 269.189 307.904 271.813 307.904C272.776 307.904 274.013 307.638 274.64 307.294C275.561 306.791 276.926 306.663 282.483 306.558C291.354 306.392 295.036 307.299 300.052 310.885C305.776 314.978 313.208 313.246 313.208 307.82C313.208 304.056 311.401 302.384 305.834 300.999C300.526 299.679 300.308 299.284 303.358 296.523C304.456 295.529 306.69 293.438 308.323 291.877C311.573 288.769 314.466 286.912 319.397 284.766C327.947 281.045 335.405 274.147 338.311 269.41C338.98 268.321 339.649 267.415 340.139 266.666C340.801 265.655 343.701 259.951 345.227 257.187C351.309 246.167 350.654 239.827 343.391 239.404C339.086 239.153 337.622 240.638 332.378 250.578C325.12 264.336 319.873 270.188 303.912 282.334C301.961 283.819 300.265 285.197 300.143 285.396C300.022 285.595 299.266 286.093 298.465 286.502C297.663 286.912 296.404 287.794 295.667 288.462C294.93 289.13 293.283 290.151 292.009 290.732C282.43 295.094 279.485 295.849 279.883 293.841C280.196 292.261 285.429 285.355 288.28 282.758C293.523 277.984 294.253 277.105 297.909 271.152C299.929 267.864 302.176 264.066 302.903 262.712C305.744 257.417 310.443 252.439 317.318 247.439C324.012 242.571 328.034 238.99 331.019 235.238C334.347 231.058 337.502 227.806 338.99 227.022C339.661 226.669 340.892 226.045 341.59 225.517C342.289 224.989 343.163 224.638 344.736 223.758C346.648 222.688 346.699 222.723 348.468 221.156C349.178 220.526 350.407 219.678 351.2 219.27C354.028 217.814 356.202 215.926 358.229 213.166C363.579 205.883 362.582 199.679 355.952 198.988C351.947 198.571 350.654 199.666 345.035 208.241C340.884 214.576 339.912 215.684 339.101 215.005C338.459 214.467 338.527 213.391 339.356 210.981C340.969 206.288 339.013 202.301 335.097 202.301C331.674 202.301 330.4 204.542 328.046 214.706C326.221 222.588 320.879 232.925 317.79 234.554C317.282 234.822 316.396 235.55 315.821 236.172C314.611 237.481 312.411 238.602 311.031 238.613C309.761 238.623 309.77 237.804 311.081 233.793C311.635 232.096 312.434 229.204 312.855 227.367C314.768 219.014 317.158 213.172 319.732 210.556C320.36 209.918 321.148 208.867 321.483 208.221C322.109 207.013 329.172 200.061 333.116 196.769C334.335 195.752 336.134 194.11 337.114 193.119C338.094 192.129 340.564 189.736 342.603 187.802C344.642 185.867 347.121 183.256 348.111 181.999C349.101 180.741 350.418 179.159 351.037 178.482C353.971 175.271 354.176 169.308 351.42 167.31C346.994 164.102 343.546 165.306 340.048 171.283C333.098 183.161 323.179 194.649 319.866 194.658C319.064 194.66 319.615 191.502 321.401 185.867C323.707 178.591 324.715 173.36 325.375 165.24C325.577 162.755 325.9 159.772 326.093 158.611C326.285 157.451 326.444 155.387 326.445 154.025C326.448 150.346 327.236 147.752 329.241 144.812C330.196 143.412 330.977 142.191 330.977 142.099C330.977 142.006 331.849 140.579 332.915 138.928C333.981 137.277 335.54 134.341 336.38 132.404C337.219 130.466 338.207 128.448 338.575 127.92C338.943 127.392 339.581 126.179 339.995 125.226C340.409 124.274 341.337 122.533 342.059 121.358C343.815 118.498 344.046 117.903 344.742 114.448C345.07 112.818 345.637 110.303 346.001 108.86C349.035 96.8466 346.596 89.7878 339.853 91.0648C335.797 91.8329 333.853 95.8073 333.088 104.897C332.881 107.36 332.485 110.087 332.208 110.957C331.931 111.828 331.457 114.518 331.155 116.936C330.12 125.217 328.984 128.597 325.721 133.114C323.872 135.673 323.963 135.692 322.094 132.341C320.732 129.898 320.333 128.731 319.65 125.201C319.202 122.879 318.571 119.873 318.248 118.518C316.785 112.383 317.333 104.883 319.572 100.392C320.677 98.1753 322.031 95.0167 322.581 93.3726C323.13 91.7284 323.817 89.7502 324.108 88.9764C324.689 87.4265 326.294 75.1726 326.64 69.6334C327.295 59.158 324.723 52.2817 319.612 50.8493C317.552 50.2718 317.157 50.3622 315.621 51.763C312.03 55.0375 311.376 59.912 313.386 68.4025C314.386 72.6228 314.428 73.1219 314.428 80.8876C314.428 94.2564 313.278 96.1196 309.537 88.8143C308.691 87.1628 307.045 84.3232 305.879 82.505C304.713 80.6864 303.233 78.1542 302.591 76.8779C301.949 75.6013 301.057 73.8449 300.609 72.9745C299.7 71.2087 299.723 72.1656 300.003 47.4769C300.122 37.0352 300.094 36.4556 299.343 33.7609C296.895 24.9746 293.06 21.5056 288.239 23.7156C284.849 25.2694 284.62 33.915 287.766 41.5491C289.713 46.2713 291.558 56.157 290.743 57.4892C290.312 58.1929 289.241 57.8381 288.387 56.7088C287.911 56.0803 286.153 54.0623 284.479 52.2247C280.585 47.9485 279.778 46.7176 279.237 44.2308C278.244 39.6602 274.498 28.5176 273.47 27.0788C273.332 26.8854 272.006 24.4323 270.523 21.6276C261.899 5.3102 253.67 -2.36546 248.025 0.640089ZM225.897 14.0198C221.882 15.8641 221.749 23.7698 225.686 26.4978C226.147 26.8172 227.098 27.5729 227.797 28.1771C229.763 29.8741 233.587 32.2606 237.556 34.267C246.165 38.6199 244.738 39.823 230.463 40.2482C219.269 40.5816 217.314 41.2857 215.273 45.7184C213.977 48.5344 215.19 52.6693 217.746 54.1509C220.001 55.4578 232.037 54.7984 235.586 53.1739C236.601 52.7094 238.522 51.9764 239.855 51.5453C241.189 51.1141 242.748 50.4177 243.321 49.9982C244.408 49.2019 245.989 48.3044 248.928 46.8161C249.886 46.3311 252.436 45.5338 254.595 45.0443C263.483 43.0298 263.017 40.6034 251.923 31.1233C230.172 12.5374 229.741 12.2543 225.897 14.0198ZM350.375 126.953C348.335 128.027 346.368 132.23 344.186 140.17C343.578 142.382 342.161 146.274 341.035 148.818C339.91 151.363 338.985 153.657 338.979 153.918C338.973 154.178 338.582 155.024 338.11 155.798C336.637 158.211 337.011 162.656 338.686 162.656C343.895 162.656 356.731 144.24 358.15 134.731C359.116 128.249 355.254 124.385 350.375 126.953Z" fill="#00497A"></path><path d="M196.623 333.898L196.759 333.882C196.917 336.141 197.139 338.278 197.436 340.229C186.19 341.555 174.927 341.773 163.954 340.82C162.256 340.672 160.622 340.523 159.281 340.397C159.723 337.508 160.069 334.748 160.335 332.248C160.523 330.867 160.718 328.622 160.914 325.617C161.171 321.158 161.513 315.723 161.685 313.642C162.027 308.546 162.07 307.485 162.455 296.996L162.798 288.036L161.642 286.082C160.999 284.978 158.816 282.048 156.803 279.543C148.625 269.478 146.228 264.722 143.445 253.129C141.818 246.293 139.591 240.05 136.937 234.827C134.796 230.538 134.453 229.052 135.352 228.16C136.551 226.971 140.105 227.99 143.017 230.283C145.457 232.194 147.469 235.379 149.653 240.645C152.051 246.377 153.763 249.265 155.562 250.497C158.174 252.28 158.302 252.068 160.057 242.768C160.571 240.008 160.314 223.956 159.672 220.219C159.415 218.563 159.116 216.864 159.03 216.397C157.788 209.178 157.232 195.292 157.959 190.536C158.516 186.927 159.244 185.398 160.571 184.973C162.841 184.251 164.339 187.054 165.41 193.891C165.538 194.825 165.752 196.736 165.881 198.137C166.608 205.993 169.648 222.597 170.976 225.697C171.489 226.886 171.875 227.226 172.731 227.226C174.744 227.226 174.958 225.824 175.257 210.664C175.6 191.937 176.156 180.175 176.799 178.391C177.398 176.65 179.068 174.994 180.181 174.994C180.609 174.994 181.466 175.376 182.065 175.843C183.392 176.905 184.72 182.043 184.377 184.888C183.992 188.2 185.019 226.079 185.533 227.183C185.79 227.735 186.347 228.415 186.732 228.67C188.231 229.561 189.044 227.863 190.671 220.516C192.898 210.792 193.069 209.73 194.097 200.048C194.482 196.651 194.867 193.424 194.996 192.829C195.938 187.861 197.094 185.61 198.678 185.61C201.761 185.61 202.189 187.861 201.932 202.171C201.761 212.406 201.632 213.892 200.605 218.52C197.822 230.92 197.565 233.935 199.106 235.889C200.862 238.097 201.804 237.375 205.186 231.048C208.183 225.442 211.223 218.563 213.193 213C215.248 207.097 215.805 206.121 217.346 205.526C220.728 204.252 221.071 209.858 218.288 221.068C217.346 224.975 215.419 229.986 213.364 234.063C209.125 242.513 208.397 244.891 206.085 258.777C204.458 268.587 202.018 275.721 198.635 280.732L198.495 280.937C196.569 283.762 195.598 285.187 195.103 286.76C194.599 288.361 194.589 290.116 194.57 293.656L194.568 294.108C194.568 300.648 195.039 313.132 195.424 315.765C195.51 316.445 195.724 319.247 195.852 321.923C195.98 324.598 196.195 328.42 196.366 330.331L196.623 333.898Z" fill="#00497A"></path><path d="M192.239 148.299C192.239 143.716 189.74 139.788 185.496 137.589C183.893 136.794 178.896 136.327 177.387 136.888C174.086 138.057 171.116 140.77 169.843 143.856C169.466 144.745 169.136 146.85 169.136 148.533C169.136 154.8 173.473 159.571 179.744 160.225C181.772 160.459 182.715 160.272 184.978 159.243C189.74 157.092 192.239 153.257 192.239 148.299Z" fill="#6BA423"></path><path d="M1579.99 240.08L1569.89 206.167H1491.41L1481.31 240.08H1415.97L1493.77 5.03687H1567.2L1645 240.08H1579.99ZM1506.91 154.457H1554.4L1530.48 74.5425L1506.91 154.457Z" fill="#00497A"></path><path d="M1278.86 245.116C1243.39 245.116 1213.97 233.476 1190.62 210.196C1167.49 186.691 1155.93 157.479 1155.93 122.558C1155.93 87.6375 1167.49 58.537 1190.62 35.2565C1213.97 11.7522 1243.39 0 1278.86 0C1300.19 0 1319.95 5.03664 1338.14 15.1099C1356.33 25.1832 1370.59 38.7262 1380.92 55.7388L1328.71 85.6229C1324.22 77.3404 1317.48 70.8487 1308.5 66.1479C1299.75 61.2232 1289.87 58.7608 1278.86 58.7608C1260 58.7608 1244.73 64.6928 1233.06 76.5569C1221.61 88.1972 1215.88 103.531 1215.88 122.558C1215.88 141.586 1221.61 157.031 1233.06 168.895C1244.73 180.536 1260 186.356 1278.86 186.356C1289.87 186.356 1299.75 184.005 1308.5 179.304C1317.48 174.38 1324.22 167.664 1328.71 159.158L1380.92 189.378C1370.59 206.614 1356.33 220.269 1338.14 230.342C1320.18 240.192 1300.42 245.116 1278.86 245.116Z" fill="#00497A"></path><path d="M1033.98 5.03687H1094.27V240.08H1033.98V5.03687Z" fill="#00497A"></path><path d="M946.013 5.03687V240.08H886.062V113.493L828.805 207.846H822.742L765.822 113.828V240.08H705.533V5.03687H765.822L825.773 105.434L886.062 5.03687H946.013Z" fill="#00497A"></path><path d="M607.844 209.86C584.043 233.364 554.853 245.116 520.274 245.116C485.695 245.116 456.393 233.364 432.368 209.86C408.567 186.132 396.666 157.031 396.666 122.558C396.666 88.0853 408.567 59.0966 432.368 35.5923C456.393 11.8641 485.695 0 520.274 0C554.853 0 584.043 11.8641 607.844 35.5923C631.87 59.0966 643.882 88.0853 643.882 122.558C643.882 157.031 631.87 186.132 607.844 209.86ZM474.805 168.56C486.93 180.424 502.087 186.356 520.274 186.356C538.462 186.356 553.618 180.424 565.743 168.56C577.868 156.472 583.931 141.138 583.931 122.558C583.931 103.979 577.868 88.7568 565.743 76.8927C553.618 64.8048 538.462 58.7608 520.274 58.7608C502.087 58.7608 486.93 64.8048 474.805 76.8927C462.68 88.7568 456.618 103.979 456.618 122.558C456.618 141.138 462.68 156.472 474.805 168.56Z" fill="#00497A"></path><path d="M1600.39 292.461C1605.83 292.461 1610.41 294.288 1614.13 297.941C1617.85 301.594 1619.71 306.08 1619.71 311.399C1619.71 316.717 1617.85 321.203 1614.13 324.857C1610.41 328.51 1605.83 330.336 1600.39 330.336H1590.44V348.871H1579.29V292.461H1600.39ZM1600.39 319.941C1602.76 319.941 1604.72 319.135 1606.29 317.523C1607.85 315.858 1608.63 313.816 1608.63 311.399C1608.63 308.927 1607.85 306.886 1606.29 305.274C1604.72 303.662 1602.76 302.857 1600.39 302.857H1590.44V319.941H1600.39Z" fill="#6BA423"></path><path d="M1321.24 350C1314.94 350 1309.77 348.227 1305.72 344.681C1301.68 341.135 1299.66 336.38 1299.66 330.417V292.461H1310.74V329.531C1310.74 332.485 1311.57 334.822 1313.24 336.542C1314.97 338.261 1317.63 339.12 1321.24 339.12C1324.85 339.12 1327.49 338.261 1329.17 336.542C1330.89 334.822 1331.75 332.485 1331.75 329.531V292.461H1342.91V330.417C1342.91 336.38 1340.89 341.135 1336.84 344.681C1332.8 348.227 1327.6 350 1321.24 350Z" fill="#6BA423"></path><path d="M1057.8 341.538C1052.08 347.179 1045.13 350 1036.94 350C1028.75 350 1021.8 347.179 1016.09 341.538C1010.43 335.843 1007.6 328.886 1007.6 320.666C1007.6 312.447 1010.43 305.516 1016.09 299.875C1021.8 294.18 1028.75 291.333 1036.94 291.333C1045.13 291.333 1052.08 294.18 1057.8 299.875C1063.51 305.516 1066.36 312.447 1066.36 320.666C1066.36 328.886 1063.51 335.843 1057.8 341.538ZM1023.93 333.963C1027.43 337.401 1031.77 339.121 1036.94 339.121C1042.11 339.121 1046.45 337.401 1049.95 333.963C1053.46 330.471 1055.21 326.039 1055.21 320.666C1055.21 315.294 1053.46 310.862 1049.95 307.37C1046.45 303.878 1042.11 302.132 1036.94 302.132C1031.77 302.132 1027.43 303.878 1023.93 307.37C1020.42 310.862 1018.67 315.294 1018.67 320.666C1018.67 326.039 1020.42 330.471 1023.93 333.963Z" fill="#6BA423"></path><path d="M765.872 348.871L754.475 329.289H745.987V348.871H734.832V292.461H757.465C762.693 292.461 767.139 294.288 770.803 297.941C774.467 301.594 776.3 305.999 776.3 311.157C776.3 314.649 775.303 317.899 773.309 320.908C771.315 323.863 768.674 326.092 765.387 327.597L777.916 348.871H765.872ZM745.987 302.857V319.538H757.465C759.567 319.538 761.372 318.732 762.881 317.12C764.39 315.455 765.145 313.467 765.145 311.157C765.145 308.847 764.39 306.886 762.881 305.274C761.372 303.662 759.567 302.857 757.465 302.857H745.987Z" fill="#6BA423"></path><path d="M500.562 318.571V322.923C500.562 330.981 497.975 337.509 492.802 342.505C487.628 347.502 480.946 350 472.755 350C464.025 350 456.777 347.179 451.011 341.538C445.299 335.843 442.442 328.913 442.442 320.747C442.442 312.527 445.272 305.57 450.93 299.875C456.642 294.18 463.702 291.333 472.108 291.333C477.389 291.333 482.213 292.542 486.578 294.959C490.943 297.323 494.338 300.493 496.763 304.469L487.224 309.948C485.877 307.638 483.829 305.758 481.081 304.307C478.386 302.857 475.369 302.132 472.028 302.132C466.639 302.132 462.193 303.904 458.69 307.45C455.241 310.942 453.517 315.375 453.517 320.747C453.517 326.066 455.268 330.471 458.771 333.963C462.327 337.401 467.016 339.121 472.836 339.121C477.147 339.121 480.704 338.18 483.506 336.3C486.362 334.366 488.302 331.734 489.326 328.403H472.189V318.571H500.562Z" fill="#6BA423"></path></svg> 