<svg width="2722" height="800" viewBox="0 0 2722 800" fill="none" xmlns="http://www.w3.org/2000/svg">
<path d="M828.55 347.75C810.85 347.75 794.2 346.1 778.6 342.8C763.3 339.8 750.85 335.45 741.25 329.75L733.6 254.15L734.5 253.7C747.1 270.5 760.6 282.65 775 290.15C789.7 297.35 806.05 300.95 824.05 300.95C861.25 300.95 879.85 287.45 879.85 260.45C879.85 250.85 877.3 242.75 872.2 236.15C867.1 229.25 860.65 223.7 852.85 219.5C845.35 215.3 835 210.5 821.8 205.1C804.1 197.9 789.7 191 778.6 184.4C767.8 177.5 758.5 167.9 750.7 155.6C742.9 143.3 739 127.4 739 107.9C739 92.6 743.2 78.5 751.6 65.6C760.3 52.4 772.75 41.9 788.95 34.1C805.15 26.3 824.5 22.4 847 22.4C869.8 22.4 893.35 25.55 917.65 31.85L923.5 105.65H922.6C913.6 91.85 903.1 82.25 891.1 76.85C879.4 71.45 866.2 68.75 851.5 68.75C817 68.75 799.75 80.3 799.75 103.4C799.75 111.5 802 118.4 806.5 124.1C811.3 129.8 817.15 134.6 824.05 138.5C831.25 142.1 841.3 146.6 854.2 152C872.5 159.5 887.5 166.85 899.2 174.05C910.9 181.25 920.95 191.45 929.35 204.65C937.75 217.85 941.95 234.95 941.95 255.95C941.95 273.35 937.6 288.95 928.9 302.75C920.5 316.55 907.75 327.5 890.65 335.6C873.55 343.7 852.85 347.75 828.55 347.75ZM1134.54 347.75C1102.74 347.75 1074.84 340.85 1050.84 327.05C1026.84 312.95 1008.39 293.75 995.486 269.45C982.586 244.85 976.136 217.25 976.136 186.65C976.136 153.35 983.036 124.25 996.836 99.35C1010.94 74.45 1030.74 55.4 1056.24 42.2C1081.74 28.7 1111.44 21.95 1145.34 21.95C1172.64 21.95 1199.04 25.7 1224.54 33.2L1231.74 111.05L1230.84 111.5C1221.84 97.7 1209.69 87.2 1194.39 80C1179.39 72.8 1162.89 69.2 1144.89 69.2C1113.39 69.2 1088.49 79.4 1070.19 99.8C1052.19 119.9 1043.19 147.35 1043.19 182.15C1043.19 217.55 1051.44 246.05 1067.94 267.65C1084.74 289.25 1108.44 300.05 1139.04 300.05C1162.14 300.05 1181.64 295.85 1197.54 287.45C1213.44 278.75 1227.69 266.15 1240.29 249.65L1241.19 250.1L1230.39 330.65C1197.99 342.05 1166.04 347.75 1134.54 347.75ZM1427.25 350C1394.55 350 1366.05 342.95 1341.75 328.85C1317.45 314.75 1298.85 295.4 1285.95 270.8C1273.35 246.2 1267.05 218.45 1267.05 187.55C1267.05 153.95 1273.65 124.55 1286.85 99.35C1300.35 73.85 1319.7 54.2 1344.9 40.4C1370.1 26.3 1399.8 19.25 1434 19.25C1465.8 19.25 1493.85 26 1518.15 39.5C1542.45 53 1561.2 72.05 1574.4 96.65C1587.9 121.25 1594.65 149.45 1594.65 181.25C1594.65 214.25 1587.6 243.65 1573.5 269.45C1559.7 294.95 1540.05 314.75 1514.55 328.85C1489.35 342.95 1460.25 350 1427.25 350ZM1431.75 303.2C1450.05 303.2 1466.4 298.4 1480.8 288.8C1495.5 279.2 1506.9 265.55 1515 247.85C1523.4 229.85 1527.6 209.15 1527.6 185.75C1527.6 147.95 1518.9 118.55 1501.5 97.55C1484.1 76.55 1460.1 66.05 1429.5 66.05C1410 66.05 1393.05 71 1378.65 80.9C1364.25 90.5 1353.15 104.15 1345.35 121.85C1337.85 139.25 1334.1 159.65 1334.1 183.05C1334.1 220.55 1342.5 249.95 1359.3 271.25C1376.1 292.55 1400.25 303.2 1431.75 303.2ZM1863.49 280.25C1880.89 308.15 1900.39 325.7 1921.99 332.9V333.8L1829.74 350.45C1824.04 333.35 1816.39 316.7 1806.79 300.5L1737.04 181.25H1758.64C1778.44 181.25 1793.44 176.9 1803.64 168.2C1813.84 159.2 1818.94 144.95 1818.94 125.45C1818.94 108.95 1813.69 95.9 1803.19 86.3C1792.69 76.7 1777.84 72.05 1758.64 72.35L1727.14 72.8V275.3C1727.14 291.5 1729.39 305.3 1733.89 316.7C1738.39 327.8 1743.64 335.6 1749.64 340.1V341H1641.19V340.1C1647.79 335.9 1653.49 328.1 1658.29 316.7C1663.09 305 1665.49 290.6 1665.49 273.5V93.95C1665.49 77.45 1663.09 63.65 1658.29 52.55C1653.49 41.15 1647.79 33.35 1641.19 29.15V28.25H1768.99C1804.69 28.25 1832.59 36.8 1852.69 53.9C1872.79 70.7 1882.84 93.8 1882.84 123.2C1882.84 146.6 1877.44 165.8 1866.64 180.8C1856.14 195.5 1841.14 206 1821.64 212.3L1863.49 280.25ZM2061.55 28.25C2097.55 28.25 2125.45 37.1 2145.25 54.8C2165.05 72.5 2174.95 97.55 2174.95 129.95C2174.95 165.95 2165.2 192.95 2145.7 210.95C2126.2 228.95 2098.15 237.95 2061.55 237.95H2024.65V275.3C2024.65 291.8 2027.05 305.75 2031.85 317.15C2036.65 328.25 2042.35 335.9 2048.95 340.1V341H1938.7V340.1C1945.3 335.6 1951 327.65 1955.8 316.25C1960.6 304.85 1963 290.6 1963 273.5V93.95C1963 77.45 1960.6 63.65 1955.8 52.55C1951 41.15 1945.3 33.35 1938.7 29.15V28.25H2061.55ZM2051.2 193.4C2091.1 193.7 2111.05 173.6 2111.05 133.1C2111.05 112.4 2106.1 97.25 2096.2 87.65C2086.6 77.75 2071.6 72.8 2051.2 72.8H2024.65V192.95L2051.2 193.4ZM2215.11 340.1C2221.71 335.6 2227.41 327.65 2232.21 316.25C2237.01 304.85 2239.41 290.6 2239.41 273.5V95.75C2239.41 78.35 2237.01 64.1 2232.21 53C2227.41 41.6 2221.71 33.65 2215.11 29.15V28.25H2325.81V29.15C2319.21 33.65 2313.51 41.6 2308.71 53C2303.91 64.4 2301.51 78.65 2301.51 95.75V273.5C2301.51 290.9 2303.91 305.3 2308.71 316.7C2313.51 327.8 2319.21 335.6 2325.81 340.1V341H2215.11V340.1ZM2532.48 350C2499.78 350 2471.28 342.95 2446.98 328.85C2422.68 314.75 2404.08 295.4 2391.18 270.8C2378.58 246.2 2372.28 218.45 2372.28 187.55C2372.28 153.95 2378.88 124.55 2392.08 99.35C2405.58 73.85 2424.93 54.2 2450.13 40.4C2475.33 26.3 2505.03 19.25 2539.23 19.25C2571.03 19.25 2599.08 26 2623.38 39.5C2647.68 53 2666.43 72.05 2679.63 96.65C2693.13 121.25 2699.88 149.45 2699.88 181.25C2699.88 214.25 2692.83 243.65 2678.73 269.45C2664.93 294.95 2645.28 314.75 2619.78 328.85C2594.58 342.95 2565.48 350 2532.48 350ZM2536.98 303.2C2555.28 303.2 2571.63 298.4 2586.03 288.8C2600.73 279.2 2612.13 265.55 2620.23 247.85C2628.63 229.85 2632.83 209.15 2632.83 185.75C2632.83 147.95 2624.13 118.55 2606.73 97.55C2589.33 76.55 2565.33 66.05 2534.73 66.05C2515.23 66.05 2498.28 71 2483.88 80.9C2469.48 90.5 2458.38 104.15 2450.58 121.85C2443.08 139.25 2439.33 159.65 2439.33 183.05C2439.33 220.55 2447.73 249.95 2464.53 271.25C2481.33 292.55 2505.48 303.2 2536.98 303.2ZM738.55 740.1C745.15 735.6 750.85 727.65 755.65 716.25C760.45 704.85 762.85 690.6 762.85 673.5V495.75C762.85 480.15 760.3 466.2 755.2 453.9C750.4 441.6 744.85 433.35 738.55 429.15V428.25H869.05C900.55 428.25 928 434.55 951.4 447.15C975.1 459.45 993.4 477.3 1006.3 500.7C1019.2 524.1 1025.65 552 1025.65 584.4C1025.65 634.5 1012 673.2 984.7 700.5C957.4 727.5 916.45 741 861.85 741H738.55V740.1ZM866.35 696.45C896.35 696.45 919.3 686.85 935.2 667.65C951.1 648.45 959.05 620.7 959.05 584.4C959.05 546.3 951.25 518.25 935.65 500.25C920.05 481.95 896.2 472.8 864.1 472.8H824.5V696.45H866.35ZM1072.09 740.1C1078.69 735.6 1084.39 727.65 1089.19 716.25C1093.99 704.85 1096.39 690.6 1096.39 673.5V495.75C1096.39 478.35 1093.99 464.1 1089.19 453C1084.39 441.6 1078.69 433.65 1072.09 429.15V428.25H1182.79V429.15C1176.19 433.65 1170.49 441.6 1165.69 453C1160.89 464.4 1158.49 478.65 1158.49 495.75V673.5C1158.49 690.9 1160.89 705.3 1165.69 716.7C1170.49 727.8 1176.19 735.6 1182.79 740.1V741H1072.09V740.1ZM1310.71 740.1C1313.71 737.1 1316.11 732.9 1317.91 727.5C1319.71 722.1 1320.61 715.95 1320.61 709.05C1320.61 699.75 1318.66 689.4 1314.76 678L1246.81 489.45C1242.31 477.45 1236.46 466.05 1229.26 455.25C1222.36 444.15 1214.56 435.45 1205.86 429.15V428.25H1311.16V429.15C1306.06 435.15 1303.51 443.4 1303.51 453.9C1303.51 460.2 1304.56 466.35 1306.66 472.35L1346.26 586.65C1358.26 622.05 1366.06 652.8 1369.66 678.9H1371.46C1374.16 663.3 1377.76 646.95 1382.26 629.85C1386.76 612.45 1390.96 597.9 1394.86 586.2L1432.66 473.25C1435.36 465.15 1436.71 457.5 1436.71 450.3C1436.71 441.3 1434.61 434.25 1430.41 429.15V428.25H1526.71V429.15C1511.11 438.45 1498.51 457.2 1488.91 485.4L1421.41 678C1417.51 689.4 1415.56 699.9 1415.56 709.5C1415.56 723.3 1418.86 733.5 1425.46 740.1V741H1310.71V740.1ZM1775.25 655.05L1762.65 744.6C1754.25 743.1 1746.15 742.05 1738.35 741.45C1730.85 741.15 1720.65 741 1707.75 741H1548.9V740.1C1555.5 735.6 1561.2 727.65 1566 716.25C1570.8 704.85 1573.2 690.6 1573.2 673.5V495.75C1573.2 478.35 1570.8 464.1 1566 453C1561.2 441.6 1555.5 433.65 1548.9 429.15V428.25H1710.45C1731.75 428.25 1747.65 427.05 1758.15 424.65L1765.8 505.2L1764.9 505.65C1759.5 494.55 1750.8 486.3 1738.8 480.9C1726.8 475.2 1711.95 472.35 1694.25 472.35H1634.85V551.55H1669.05C1687.95 551.55 1701.9 551.4 1710.9 551.1C1719.9 550.5 1729.35 549.6 1739.25 548.4L1726.2 624H1725.3C1721.7 614.1 1715.85 606.9 1707.75 602.4C1699.65 597.9 1689.15 595.65 1676.25 595.65H1634.85V696.9H1683.9C1703.7 696.9 1721.25 693.3 1736.55 686.1C1752.15 678.9 1764.75 668.4 1774.35 654.6L1775.25 655.05ZM2041.03 680.25C2058.43 708.15 2077.93 725.7 2099.53 732.9V733.8L2007.28 750.45C2001.58 733.35 1993.93 716.7 1984.33 700.5L1914.58 581.25H1936.18C1955.98 581.25 1970.98 576.9 1981.18 568.2C1991.38 559.2 1996.48 544.95 1996.48 525.45C1996.48 508.95 1991.23 495.9 1980.73 486.3C1970.23 476.7 1955.38 472.05 1936.18 472.35L1904.68 472.8V675.3C1904.68 691.5 1906.93 705.3 1911.43 716.7C1915.93 727.8 1921.18 735.6 1927.18 740.1V741H1818.73V740.1C1825.33 735.9 1831.03 728.1 1835.83 716.7C1840.63 705 1843.03 690.6 1843.03 673.5V493.95C1843.03 477.45 1840.63 463.65 1835.83 452.55C1831.03 441.15 1825.33 433.35 1818.73 429.15V428.25H1946.53C1982.23 428.25 2010.13 436.8 2030.23 453.9C2050.33 470.7 2060.38 493.8 2060.38 523.2C2060.38 546.6 2054.98 565.8 2044.18 580.8C2033.68 595.5 2018.68 606 1999.18 612.3L2041.03 680.25ZM2202.72 747.75C2185.02 747.75 2168.37 746.1 2152.77 742.8C2137.47 739.8 2125.02 735.45 2115.42 729.75L2107.77 654.15L2108.67 653.7C2121.27 670.5 2134.77 682.65 2149.17 690.15C2163.87 697.35 2180.22 700.95 2198.22 700.95C2235.42 700.95 2254.02 687.45 2254.02 660.45C2254.02 650.85 2251.47 642.75 2246.37 636.15C2241.27 629.25 2234.82 623.7 2227.02 619.5C2219.52 615.3 2209.17 610.5 2195.97 605.1C2178.27 597.9 2163.87 591 2152.77 584.4C2141.97 577.5 2132.67 567.9 2124.87 555.6C2117.07 543.3 2113.17 527.4 2113.17 507.9C2113.17 492.6 2117.37 478.5 2125.77 465.6C2134.47 452.4 2146.92 441.9 2163.12 434.1C2179.32 426.3 2198.67 422.4 2221.17 422.4C2243.97 422.4 2267.52 425.55 2291.82 431.85L2297.67 505.65H2296.77C2287.77 491.85 2277.27 482.25 2265.27 476.85C2253.57 471.45 2240.37 468.75 2225.67 468.75C2191.17 468.75 2173.92 480.3 2173.92 503.4C2173.92 511.5 2176.17 518.4 2180.67 524.1C2185.47 529.8 2191.32 534.6 2198.22 538.5C2205.42 542.1 2215.47 546.6 2228.37 552C2246.67 559.5 2261.67 566.85 2273.37 574.05C2285.07 581.25 2295.12 591.45 2303.52 604.65C2311.92 617.85 2316.12 634.95 2316.12 655.95C2316.12 673.35 2311.77 688.95 2303.07 702.75C2294.67 716.55 2281.92 727.5 2264.82 735.6C2247.72 743.7 2227.02 747.75 2202.72 747.75Z" fill="#3E6179"/>
<path d="M339.265 121.642C339.265 115.727 334.472 110.932 328.56 110.932H296.445C290.533 110.932 285.74 115.727 285.74 121.642V163.835C243.754 175.53 212.946 214.062 212.946 259.793L212.947 381.388C212.947 383.169 215.1 384.015 216.36 382.756L227.505 371.627C231.255 367.882 236.338 365.779 241.637 365.779H382.963C388.269 365.779 393.357 367.887 397.108 371.64L408.212 382.749C409.472 384.009 411.627 383.117 411.627 381.335V259.772C411.627 214.041 381.25 175.53 339.265 163.835V121.642Z" fill="#3E6179"/>
<path d="M415.284 171.585C414.202 170.298 415.039 168.31 416.719 168.273C458.405 167.361 533.877 183.111 566.221 253.915C566.983 255.583 565.258 257.298 563.576 256.566C540.705 246.616 494.315 232.322 446.108 233.95C445.104 233.984 444.224 233.275 444.04 232.287C439.79 209.474 429.668 188.705 415.284 171.585Z" fill="#3E6179"/>
<path d="M61.353 256.566C59.6714 257.298 57.9463 255.584 58.7083 253.916C91.0524 183.112 166.524 167.361 208.21 168.274C209.891 168.31 210.727 170.299 209.646 171.585C195.261 188.705 185.138 209.474 180.888 232.287C180.704 233.275 179.824 233.985 178.82 233.951C130.614 232.323 84.2242 246.616 61.353 256.566Z" fill="#3E6179"/>
<path fill-rule="evenodd" clip-rule="evenodd" d="M116.537 723.374C116.411 723.286 116.283 723.2 116.156 723.112C116.172 723.123 116.189 723.134 116.205 723.145C115.738 722.821 115.273 722.491 114.811 722.159C113.685 721.352 112.571 720.524 111.473 719.672C111.037 719.334 110.605 718.991 110.173 718.647C110.257 718.714 110.341 718.782 110.425 718.849C110.023 718.529 109.623 718.206 109.225 717.881C108.314 717.137 107.414 716.378 106.525 715.603C105.825 714.994 105.133 714.376 104.447 713.747C104.386 713.692 104.325 713.636 104.264 713.58C103.88 713.226 103.498 712.869 103.118 712.51C103.16 712.549 103.202 712.588 103.244 712.628C102.498 711.924 101.759 711.21 101.031 710.483C94.8886 704.36 89.3684 697.432 84.6342 689.742C84.0653 688.818 83.5072 687.883 82.9613 686.937C65.2864 656.311 63.6151 620.834 75.3519 590.199C84.2699 566.921 100.929 546.438 124.19 533.003C134.21 527.215 144.75 523.143 155.469 520.695C157.327 520.271 158.601 522.508 157.429 524.011C138.758 547.939 135.359 581.752 151.462 609.655C153.456 613.11 155.678 616.351 158.098 619.371C159.381 620.972 160.72 622.511 162.11 623.986C165.261 627.859 168.147 632.033 170.724 636.497C190.348 670.502 186.448 711.637 164.074 741.04C163.636 741.616 162.913 741.903 162.199 741.784C161.976 741.747 161.754 741.709 161.532 741.671C161.608 741.684 161.684 741.698 161.761 741.711C160.739 741.538 159.72 741.351 158.704 741.15C158.207 741.052 157.711 740.95 157.216 740.845C157.237 740.85 157.259 740.854 157.281 740.858C156.879 740.774 156.479 740.687 156.078 740.598C156.005 740.581 155.933 740.565 155.86 740.549C155.901 740.558 155.943 740.568 155.984 740.577C155.776 740.531 155.567 740.483 155.359 740.435C154.015 740.127 152.677 739.794 151.346 739.437C151.415 739.455 151.484 739.475 151.553 739.493C151.023 739.352 150.494 739.208 149.967 739.059C149.454 738.915 148.942 738.765 148.431 738.614C148.486 738.63 148.542 738.647 148.597 738.664C148.194 738.545 147.791 738.422 147.389 738.299C147.276 738.264 147.164 738.228 147.052 738.193C147.147 738.223 147.242 738.253 147.337 738.282C146.796 738.116 146.257 737.946 145.719 737.771C144.79 737.47 143.866 737.156 142.945 736.83C142.521 736.681 142.098 736.529 141.675 736.374C140.273 735.859 138.88 735.316 137.498 734.746C137.512 734.752 137.526 734.758 137.541 734.764C137.391 734.702 137.242 734.641 137.092 734.579C137.098 734.581 137.103 734.583 137.108 734.585C135.742 734.015 134.386 733.419 133.041 732.795C132.657 732.617 132.273 732.437 131.89 732.255C130.916 731.789 129.947 731.309 128.985 730.815C128.191 730.408 127.401 729.989 126.616 729.562C126.609 729.558 126.602 729.555 126.595 729.551C126.176 729.324 125.759 729.093 125.343 728.86C125.314 728.844 125.285 728.827 125.255 728.811C124.799 728.554 124.343 728.295 123.89 728.032C122.499 727.224 121.124 726.386 119.766 725.518C119.086 725.084 118.412 724.641 117.741 724.191C117.675 724.147 117.609 724.103 117.544 724.059C117.593 724.092 117.642 724.125 117.691 724.158C117.316 723.906 116.942 723.652 116.569 723.396C116.559 723.388 116.548 723.381 116.537 723.374ZM126.56 729.532C126.576 729.541 126.592 729.549 126.607 729.558C126.603 729.555 126.599 729.554 126.595 729.551C126.583 729.545 126.572 729.538 126.56 729.532ZM125.149 728.75C125.206 728.782 125.263 728.814 125.319 728.846C125.298 728.834 125.276 728.823 125.255 728.811C125.22 728.791 125.185 728.77 125.149 728.75ZM116.529 723.367C116.54 723.375 116.552 723.383 116.563 723.391C116.554 723.385 116.546 723.379 116.537 723.374C116.534 723.372 116.532 723.369 116.529 723.367Z" fill="#3E6179"/>
<path d="M143.992 737.195C144.05 737.215 144.107 737.236 144.165 737.255C144.119 737.24 144.074 737.224 144.028 737.208C144.016 737.204 144.004 737.199 143.992 737.195Z" fill="#3E6179"/>
<path d="M212.908 415.793V483.62C212.908 485.044 212.91 490.133 212.91 492.187C212.908 505.082 215.631 522.477 220.611 534.799C221.199 536.253 222.632 537.167 224.201 537.167H339.3C340.386 537.167 341.426 537.609 342.18 538.391L344.008 540.288C344.727 541.034 345.128 542.029 345.128 543.064V565.539C345.128 566.575 344.727 567.57 344.008 568.315L342.18 570.212C341.426 570.995 340.386 571.437 339.3 571.437H243.428C242.582 571.437 242.121 572.42 242.672 573.063C265.394 599.6 299.135 616.416 336.802 616.416C343.561 616.416 350.193 615.875 356.657 614.833C358.515 614.393 360.394 614.005 362.291 613.67C363.033 613.539 363.778 613.416 364.526 613.301C369.541 612.532 374.678 612.133 379.908 612.133C422.79 612.133 459.406 638.967 473.896 676.765C474.578 678.545 477.148 678.571 477.733 676.757C482.333 662.468 484.817 647.229 484.817 631.41C484.817 596.168 472.487 563.807 451.907 538.41C424.822 504.985 383.449 483.62 337.088 483.62C335.656 483.62 334.252 483.62 332.806 483.62H273.57C272.561 483.62 271.589 483.238 270.849 482.552L268.652 480.514C267.836 479.757 267.372 478.694 267.372 477.581V455.316C267.372 454.203 267.836 453.14 268.652 452.383L270.849 450.345C271.589 449.659 272.561 449.277 273.57 449.277H327.142C327.142 449.277 343.288 449.154 350.644 449.349C368.199 449.816 384.174 451.728 406.749 458.441C409.355 459.216 411.996 457.268 411.972 454.549L411.625 415.736C411.602 413.115 410.551 410.609 408.698 408.755L397.069 397.122C393.318 393.369 388.23 391.261 382.924 391.261H241.599C236.299 391.261 231.216 393.364 227.467 397.109L215.842 408.717C213.964 410.593 212.908 413.139 212.908 415.793Z" fill="#BBD2E1"/>
<path d="M176.511 390.526V334.238C176.511 332.897 175.205 331.94 173.933 332.365C125.271 348.598 103.379 400.557 97.2791 429.656C96.8874 431.524 99.1188 432.701 100.533 431.419C133.542 401.484 162.114 393.17 174.459 392.61C175.587 392.558 176.511 391.655 176.511 390.526Z" fill="#3E6179"/>
<path d="M448.418 390.526V334.238C448.418 332.897 449.724 331.94 450.996 332.365C499.659 348.598 521.55 400.557 527.65 429.656C528.042 431.524 525.811 432.701 524.397 431.419C491.388 401.484 462.815 393.17 450.47 392.61C449.342 392.558 448.418 391.655 448.418 390.526Z" fill="#3E6179"/>
<path d="M176.511 305.688V260.082C176.511 258.823 175.346 257.879 174.117 258.155C131.831 267.66 112.71 304.19 107.082 325.921C106.607 327.759 108.782 328.998 110.272 327.821C133.681 309.314 161.017 306.578 174.238 307.731C175.448 307.837 176.511 306.902 176.511 305.688Z" fill="#3E6179"/>
<path d="M448.418 305.688V260.082C448.418 258.823 449.583 257.879 450.812 258.155C493.098 267.66 512.219 304.19 517.847 325.921C518.323 327.759 516.147 328.998 514.658 327.821C491.249 309.314 463.912 306.578 450.691 307.731C449.482 307.837 448.418 306.902 448.418 305.688Z" fill="#3E6179"/>
<path d="M45.9103 59.527C98.9373 1.79734 169.894 -4.07605 214.489 1.80347C216.744 2.10074 216.789 5.84204 214.614 6.50624C196.742 11.9634 178.994 23.4438 171.159 29.5407C141.185 53.1014 141.185 77.7331 132.621 115.216C124.057 152.699 82.3073 171.976 53.4038 190.182C32.8541 203.126 18.1101 227.743 11.5764 242.082C10.8123 243.759 8.37695 243.72 7.82756 241.96C-3.99979 204.089 -9.73498 120.107 45.9103 59.527Z" fill="#3E6179"/>
<path d="M580.09 59.527C527.063 1.79733 456.106 -4.07605 411.511 1.80346C409.256 2.10074 409.211 5.84203 411.386 6.50623C429.258 11.9634 447.006 23.4438 454.841 29.5407C484.815 53.1014 484.815 77.733 493.379 115.216C501.943 152.699 543.693 171.976 572.596 190.182C593.146 203.126 607.89 227.743 614.424 242.082C615.188 243.759 617.623 243.72 618.172 241.96C630 204.089 635.735 120.107 580.09 59.527Z" fill="#3E6179"/>
</svg>
