<svg width="2160" height="540" viewBox="0 0 2160 540" fill="none" xmlns="http://www.w3.org/2000/svg">
<path d="M224.075 152.319L218.353 152.351V155.119L225.108 155.141L231.862 155.173L232.918 158.825C233.51 160.827 234.009 162.488 234.032 162.51C234.056 162.531 234.392 162.499 234.775 162.424L235.46 162.297L236.47 157.409C237.015 154.715 237.444 152.446 237.421 152.372C237.375 152.276 236.516 152.255 233.568 152.265C231.491 152.287 227.208 152.308 224.075 152.319Z" fill="#0D3D5D"/>
<path d="M203.535 153.618L205.731 154.212C206.933 154.545 208.043 154.879 208.183 154.972C208.249 155.009 208.308 155.031 208.361 155.064C208.818 155.346 208.79 156.403 208.79 174.335C208.79 190.092 208.767 192.895 208.626 193.198C208.598 193.255 208.579 193.302 208.553 193.344C208.409 193.577 208.036 193.669 204.469 194.657C203.512 194.917 203.419 195.032 203.594 195.824L203.664 196.168H234.763C234.766 196.168 234.769 196.168 234.772 196.168H237.503L237.062 194.016C236.9 193.174 236.695 192.134 236.47 191.022L235.46 186.134L234.775 186.006C234.392 185.932 234.056 185.9 234.032 185.921C234.009 185.942 233.51 187.603 232.918 189.605L231.862 193.258L225.108 193.29L215.796 193.276V175.012H217.161C219.392 175.012 222.054 175.044 223.082 175.085C224.751 175.148 224.962 175.169 225.183 175.367C225.359 175.523 225.627 176.284 226.118 177.92L226.795 180.244L227.215 180.181C227.449 180.15 227.857 180.119 228.138 180.119H228.628V167.301H226.783L226.246 169.302C225.942 170.406 225.615 171.49 225.51 171.709C225.446 171.84 225.398 171.947 225.326 172.035C224.989 172.447 224.142 172.448 218.855 172.491L215.796 172.543V162.997C215.796 154.431 215.773 153.399 215.609 153.024C215.504 152.794 215.305 152.544 215.165 152.482C215.002 152.398 213.169 152.346 209.234 152.315L203.535 152.263V153.618Z" fill="#0D3D5D"/>
<path d="M131.749 154.908H141.47L141.587 155.306C141.658 155.532 142.162 157.535 142.713 159.753C143.276 161.972 143.745 163.803 143.768 163.824C143.792 163.846 144.108 163.813 144.46 163.738C144.976 163.641 145.129 163.566 145.175 163.383C145.222 163.167 147.11 152.14 147.11 152.043C147.11 152.022 143.651 152 139.43 152H131.749V154.908Z" fill="#0D3D5D"/>
<path d="M166.38 152.9C166.415 152.691 166.449 152.408 166.449 152.262V152H158.041C150.392 152 149.632 152.01 149.632 152.167C149.632 152.262 149.597 152.544 149.563 152.806L149.494 153.266L150.703 153.497C151.913 153.727 153.249 154.167 153.963 154.575C154.069 154.634 154.161 154.656 154.239 154.702C154.744 154.994 154.7 156.219 154.7 174.178V192.954L154.424 193.258C153.998 193.719 152.708 194.2 151.049 194.535L149.574 194.828L149.505 196.168H166.334L166.357 195.718C166.369 195.477 166.38 195.173 166.38 195.058C166.392 194.849 166.265 194.807 165.079 194.587C163.616 194.315 162.176 193.739 161.83 193.289C161.635 193.049 161.623 192.421 161.589 183.629L161.554 174.241H179.156C179.225 174.457 179.326 174.856 179.867 176.976C180.42 179.095 180.88 180.845 180.903 180.865C180.926 180.886 181.238 180.855 181.584 180.783C182.091 180.69 182.241 180.618 182.287 180.444C182.333 180.238 184.188 171.589 184.188 171.496C184.188 171.495 184.18 171.494 184.163 171.493L184.188 171.415H161.554L161.589 163.23C161.635 156.071 161.658 155.014 161.807 154.805C162.095 154.407 163.708 153.769 165.079 153.507L166.311 153.277L166.38 152.9Z" fill="#0D3D5D"/>
<path d="M185.869 174.084C185.867 162.361 185.821 155.208 185.754 155.046C185.593 154.648 185.282 154.512 183.164 153.915C182.081 153.622 181.194 153.371 181.183 153.361C181.171 153.361 181.125 153.047 181.079 152.68L181.01 152H189.416C197.742 152 197.834 152 197.891 152.209C197.926 152.324 197.96 152.628 197.96 152.89V153.371L195.842 153.926C193.562 154.522 193.066 154.732 192.894 155.15C192.825 155.318 192.779 162.194 192.779 174.052C192.779 185.911 192.825 192.85 192.894 193.017C193.066 193.436 193.562 193.645 195.842 194.242L197.96 194.797V195.278C197.96 195.54 197.926 195.843 197.891 195.958C197.834 196.168 197.742 196.168 189.416 196.168H181.01L181.079 195.487C181.125 195.121 181.171 194.807 181.183 194.807C181.194 194.797 182.081 194.545 183.164 194.252C185.282 193.656 185.593 193.52 185.754 193.122C185.821 192.959 185.867 185.806 185.869 174.084Z" fill="#0D3D5D"/>
<path d="M111.915 152C112.115 152 112.316 152 112.52 152H120.039C127.825 152.003 128.489 152.039 128.809 152.39C128.849 152.433 128.883 152.481 128.924 152.534C129.096 152.754 129.108 154.449 129.108 172.65C129.108 190.464 129.131 192.557 129.292 192.871C129.59 193.457 130.945 194.001 133.528 194.545C134.228 194.702 134.882 194.849 134.997 194.87C135.158 194.912 135.192 195.048 135.192 195.55V196.168H116.377L116.308 195.707C116.17 194.922 116.193 194.901 117.341 194.692C119.568 194.284 121.359 193.624 121.921 193.028L122.22 192.693V154.826H110.522L110.407 155.213C110.338 155.433 109.845 157.38 109.305 159.536C108.754 161.692 108.295 163.471 108.272 163.492C108.249 163.513 107.939 163.481 107.595 163.408C107.09 163.314 106.94 163.241 106.894 163.063C106.853 162.872 105.312 153.945 105.041 152.3C105.015 152.268 105 152.244 105 152.23V152H111.915Z" fill="#0D3D5D"/>
<path d="M802.17 209.392C802.259 209.306 805.209 208.793 808.74 208.237C812.27 207.681 815.354 207.253 815.622 207.21C815.89 207.167 817.186 210.119 818.482 213.67C840.827 276.048 877.001 372.407 881.113 378.268C883.568 381.772 886.364 382.405 894.652 384.282L894.684 384.289L898.751 385.23L898.93 387.969L899.064 390.707H838.448L838.269 388.011C838.135 386.557 838.091 385.273 838.18 385.188C838.225 385.145 841.085 384.289 844.437 383.348C848.916 382.466 850.036 382.186 852.276 380.787C852.902 379.589 851.195 374.62 850.436 372.096C849.408 368.545 836.179 331.88 833.811 325.89L832.962 323.751L806.237 323.623C781.031 323.537 779.512 323.494 779.78 322.767C779.959 322.382 781.031 319.772 782.149 317.034L784.204 311.986L806.46 311.9L828.672 311.772L815.667 276.604C808.471 257.309 802.483 241.522 802.349 241.608C802.215 241.693 788.629 273.567 772.182 312.456C739.514 389.68 741.391 385.658 736.654 387.969C732.453 389.979 729.727 390.322 716.721 390.578L704.521 390.792V388.343C706.691 387.223 724.9 380.653 726.598 378.685C727.894 377.23 729.458 373.807 742.151 344.715C747.782 331.752 757.703 309.333 764.183 294.873C775.445 269.716 792.785 230.612 799.086 216.28C800.695 212.558 802.125 209.435 802.17 209.392Z" fill="#0D3D5D"/>
<path d="M530.792 207.649C523.979 207.866 509.089 207.953 497.763 207.823L477.098 207.606V209.3C477.098 210.386 477.093 211.128 477.383 211.727C478.02 213.046 480.082 213.669 486.754 215.731C494.966 218.251 495.688 218.555 496.5 219.858C497.402 221.205 497.402 222.509 497.402 299.326V314.206H497.673V377.405L496.41 378.665C495.191 379.968 494.74 380.142 480.978 384.096L477.098 385.226L477.278 387.05C477.504 389.875 477.774 390.874 478.406 390.787C478.517 390.787 479.57 390.75 481.245 390.692C483.65 390.609 487.338 390.481 491.356 390.353C498.169 390.135 513.059 390.048 524.385 390.179L545.05 390.396V388.701C545.05 387.616 545.055 386.874 544.766 386.275C544.128 384.956 542.067 384.333 535.394 382.271C527.182 379.751 526.46 379.447 525.648 378.143C525.587 378.052 525.528 377.99 525.471 377.931C524.722 377.152 524.333 376.748 524.3 314.206H524.475V220.597L525.739 219.337C526.957 218.034 527.408 217.86 541.17 213.906L545.051 212.776L544.87 210.951C544.645 208.127 544.374 207.128 543.742 207.215C543.631 207.215 542.577 207.251 540.903 207.309C538.497 207.393 534.809 207.521 530.792 207.649Z" fill="#0D3D5D"/>
<path d="M692.76 345.106C691.579 345.316 690.573 345.525 690.486 345.609C690.398 345.693 686.637 353.191 682.044 362.281L673.778 378.827L650.859 379.078C638.262 379.204 626.103 379.371 623.916 379.413C621.663 379.437 619.848 381.27 619.848 383.523V390.765H656.589C685.631 390.765 693.416 390.64 693.547 390.221C693.722 389.718 696.39 348.038 696.39 345.818C696.39 344.562 696.303 344.562 692.76 345.106Z" fill="#0D3D5D"/>
<path d="M915.813 212.965L924.955 215.822C931.201 217.769 934.324 218.938 934.777 219.544C935.184 220.106 935.547 222.01 935.728 224.737C935.863 227.117 935.954 262.345 935.863 302.982L935.742 368.833L925.415 375.14C922.564 376.578 919.863 377.938 917.483 379.137C912.009 381.892 908.223 383.798 908.163 383.861C908.076 383.952 907.859 384.991 907.643 386.211C907.079 389.871 907.079 389.962 908.38 389.962C908.643 389.962 909.403 389.925 910.543 389.861L927.264 389.84C946.319 389.84 947.631 389.754 949.442 388.975C950.528 388.499 951.524 387.72 951.75 387.157C951.976 386.594 952.022 352.665 951.886 311.768C951.75 266.283 951.841 237.46 952.067 237.633C952.293 237.763 967.682 272.255 986.194 314.321L1019.91 390.792L1022.86 390.533C1023.55 390.458 1024.37 390.376 1025.16 390.297C1026.22 390.19 1027.23 390.088 1027.88 390.013L1029.96 389.754L1087.58 259.013L1087.49 240.62L1087.35 222.227L1063.41 276.497C1050.24 306.358 1037.52 335.138 1035.17 340.461L1030.87 350.155L1030.1 348.683C1029.69 347.861 1015.43 315.706 998.414 277.232L967.456 207.209L963.608 207.556C958.494 207.945 924.639 207.945 919.524 207.512L915.541 207.209L915.813 212.965Z" fill="#0D3D5D"/>
<path d="M396.535 212.51L400.754 213.292C408.421 214.682 413.774 217.159 414.953 219.809C415.498 221.069 415.589 226.761 415.589 254.567V287.805H326.672V299.536H415.589L415.498 338.595L415.362 377.698L414.091 378.958C412.141 380.913 407.014 382.955 401.48 383.998L396.535 384.91V386.865C396.535 387.951 396.671 389.211 396.807 389.689C397.034 390.558 397.397 390.558 429.924 390.558H462.768V387.821C462.768 385.996 462.587 385.04 462.224 384.954C461.906 384.867 459.003 384.215 455.828 383.476C449.113 381.956 444.622 380.087 443.397 378.35C442.626 377.176 442.581 374.005 442.581 299.058V220.939L443.534 219.722C445.393 217.333 452.652 214.335 459.729 213.075L462.768 212.554V210.729C462.768 209.773 462.632 208.556 462.496 208.078C462.269 207.209 461.906 207.209 429.38 207.209H396.535V212.51Z" fill="#0D3D5D"/>
<path d="M264.25 207.374C264.231 207.366 264.217 207.36 264.208 207.358C264.419 207.178 277.079 207.233 290.638 207.358C303.269 207.474 315.558 207.673 316.083 207.861C316.673 208.078 317.58 208.904 318.079 209.686C318.987 211.12 318.987 211.945 318.987 280.896V280.897C318.987 319.261 319.123 356.886 319.304 364.49C319.577 378.219 319.622 378.35 320.62 379.262C321.255 379.827 324.794 381.13 329.512 382.521C333.821 383.781 337.496 385.04 337.677 385.301C337.859 385.562 338.04 386.865 338.04 388.169V390.558H271.898L271.625 387.778C271.444 386.257 271.353 384.997 271.444 384.91C271.52 384.874 274.293 384.108 277.959 383.096C278.676 382.898 279.427 382.69 280.199 382.477C287.412 380.522 289.046 379.914 290.225 378.827L291.677 377.481L291.994 354.497C292.419 327.166 292.154 250.479 291.675 227.165L281.812 222.238C278.954 220.793 276.247 219.428 273.86 218.225C268.375 215.459 264.581 213.545 264.52 213.482C264.433 213.391 264.216 212.348 263.999 211.123C263.516 207.982 263.446 207.46 264.25 207.374Z" fill="#0D3D5D"/>
<path d="M196.667 207.545C178.253 208.592 159.796 213.744 145.8 221.745C123.231 234.605 109.103 257.896 105.954 287.511C104.511 301.125 104.686 311.807 106.61 322.657C109.584 339.705 117.807 354.618 130.797 366.598C146.281 380.841 167.494 388.883 193.999 390.559C216.175 391.983 240.231 386.789 254.139 377.573C258.644 374.599 258.907 374.264 258.426 372.253C258.163 371.374 257.857 370.159 257.726 369.572L257.507 368.525L250.028 370.913C238.612 374.557 229.777 376.149 218.536 376.568C194.568 377.531 172.305 370.159 157.215 356.294C140.551 340.962 132.897 321.609 133.815 297.146C134.559 278.84 137.796 264.556 143.963 252.785C149.999 241.349 155.991 234.521 165.394 228.448C177.247 220.782 193.999 217.137 211.888 218.352C216.713 218.671 229.477 221.049 235.615 222.445L238.526 235.848C239.143 238.627 239.725 241.257 240.238 243.577C241.416 248.908 242.232 252.595 242.273 252.661C242.332 252.756 243.183 253.172 244.19 253.628C247.231 254.921 247.309 254.941 247.595 253.818C248.1 251.835 255.47 213.726 255.428 213.238C255.166 212.819 248.76 211.315 242.855 210.226C229.077 207.629 211.976 206.623 196.667 207.545Z" fill="#0D3D5D"/>
<path d="M1113.26 208.53L1097.47 208.735C1096.86 208.742 1096.28 209.006 1095.87 209.461L1094.89 210.546C1094.53 210.949 1094.33 211.471 1094.33 212.012V293.86C1094.33 381.961 1094.42 378.237 1092.24 380.012C1091.74 380.402 1087.84 381.744 1083.57 383.043C1079.26 384.298 1075.53 385.424 1075.26 385.597C1074.94 385.77 1074.9 386.766 1075.08 388.325L1075.4 390.792H1108.72C1138.96 390.792 1142.09 390.749 1141.82 390.1C1141.68 389.71 1141.54 388.584 1141.54 387.545V385.64L1132.33 382.826C1126.24 380.965 1122.79 379.666 1122.2 379.06C1121.34 378.151 1121.34 376.592 1121.16 317.022C1121.07 283.427 1121.16 248.1 1121.34 238.532C1121.66 222.427 1121.75 221.085 1122.52 220.263C1123.02 219.743 1126.74 218.401 1132.1 216.756C1136.91 215.284 1141.09 214.072 1141.32 213.985C1141.59 213.899 1141.68 212.73 1141.54 211.085L1141.32 208.314H1135.64C1132.51 208.271 1122.43 208.401 1113.26 208.53Z" fill="#0D3D5D"/>
<path d="M559.892 207.379L559.866 207.361L585.305 207.209C609.147 207.357 612.142 207.317 613.506 208.797C613.757 209.07 613.952 209.393 614.212 209.779C614.981 210.912 615.027 215.746 615.162 298.544C615.253 356.82 615.162 386.611 614.846 387.613C614.688 388.124 614.579 388.538 614.356 388.876C613.36 390.38 610.087 390.361 590.1 390.574L567.888 390.792L567.617 388.048C567.436 386.524 567.345 385.217 567.436 385.13C567.526 385.043 571.462 383.911 576.167 382.604C580.872 381.297 585.169 379.991 585.712 379.729C585.986 379.588 586.229 379.517 586.444 379.395C588.218 378.396 588.11 374.02 588.11 299.24C588.11 255.42 588.092 236.197 587.914 227.548L577.421 222.278C574.57 220.83 571.871 219.461 569.491 218.255C564.021 215.482 560.238 213.564 560.177 213.501C560.091 213.41 559.874 212.364 559.657 211.136C559.179 208.007 559.107 207.47 559.892 207.379Z" fill="#0D3D5D"/>
<path d="M1934.79 207.776C1945.79 207.862 1958.06 207.776 1962.04 207.559C1973.18 206.909 2001.7 207.213 2007.77 208.079C2021.26 209.941 2029.91 212.713 2037.38 217.521C2040.82 219.73 2046.53 225.664 2048.88 229.475C2053.73 237.142 2055.31 244.678 2054.95 257.715C2054.5 272.745 2051.37 281.624 2042.86 291.933C2033.58 303.28 2017.55 310.6 1996.68 313.156C1991.11 313.849 1979.79 314.195 1975.76 313.849L1972.23 313.502V303.151L1975.99 303.497C1984.68 304.32 1992.69 303.497 2000.21 301.072C2005.51 299.296 2008.59 297.433 2013.02 293.232C2018.59 287.948 2022.03 281.971 2023.94 274.218C2025.25 268.847 2025.61 254.77 2024.57 249.053C2021.58 232.464 2011.39 222.112 1994.64 218.734C1986.99 217.218 1970.96 217.131 1963.08 218.561L1961.82 218.82L1961.59 387.741L1960.09 388.997L1958.65 390.253H1906.12V386.108C1909.08 385.534 1920.07 383.236 1924.1 382.067C1932.25 379.684 1932.66 379.511 1933.97 378.125C1934.87 377.174 1934.88 376.352 1935.01 300.322L1935.01 299.902C1935.1 233.46 1935.01 222.415 1934.47 221.116C1933.61 219.167 1930.08 217.478 1922.74 215.442C1914.18 213.146 1914.73 213.45 1914.73 210.288V207.602L1934.79 207.776Z" fill="#0D3D5D"/>
<path d="M1733.4 218.34C1732.61 217.705 1710.98 211.121 1707.62 211.121V207.209L1733.31 207.336C1762 207.506 1759.97 207.252 1761.21 210.553C1761.74 212.034 1761.87 220.668 1762.13 269C1762.35 324.823 1762.53 331.213 1763.94 339.255C1767.34 358.765 1777.27 370.742 1793.38 374.805C1798.85 376.202 1803.71 376.71 1811.21 376.71C1822.56 376.71 1831.78 375.017 1838.89 371.546C1852.83 364.859 1860.16 353.475 1863.29 333.668C1864.04 329.013 1864.09 324.78 1863.95 274.29C1863.87 227.186 1863.78 219.821 1863.2 218.975C1861.79 216.944 1855 214.574 1846.57 213.177L1844.89 212.881V207.209H1873.31C1901.43 207.209 1901.78 207.209 1902 208.056C1902.13 208.521 1902.26 209.791 1902.26 210.891C1902.26 212.754 1902.18 212.923 1901.21 212.923C1899.44 212.923 1892.03 214.489 1889.38 215.462C1886.51 216.478 1883.55 218.425 1882.8 219.779C1882.36 220.541 1882.18 233.111 1881.92 273.444C1881.61 329.342 1881.61 329.358 1879.35 339.533L1879.27 339.889C1877.28 348.608 1873.22 358.257 1868.85 364.563C1866.12 368.499 1860.11 374.509 1855.88 377.556C1844.23 385.894 1827.81 390.253 1808.34 390.253C1774.58 390.21 1751.19 377.598 1741.83 354.364C1736.53 341.159 1735.69 329.52 1736.14 275.771C1736.36 250.039 1736.27 237.639 1735.87 230.91C1735.34 221.514 1734.99 219.695 1733.4 218.34Z" fill="#0D3D5D"/>
<path d="M1403.39 208.374C1407.55 208.074 1413.38 207.689 1416.34 207.518C1438.06 206.277 1456.48 208.801 1468.75 214.706C1480.94 220.525 1488.55 229.895 1490.7 241.618C1492.09 249.106 1491.33 260.914 1489.09 267.418C1485.42 278.072 1477.08 287.442 1465.84 293.603C1463.42 294.929 1456.61 297.71 1451.86 299.293C1448.64 300.363 1448.41 300.534 1448.91 301.347C1450.38 304.042 1481.88 350.551 1490.97 363.515C1498.36 374.04 1501.37 377.163 1506.16 379.345C1507.77 380.073 1509.52 380.8 1510.1 380.971L1519.6 384.691V389.229L1516.37 389.571C1510.42 390.17 1500.16 390.427 1495.41 390.127C1488.73 389.742 1484.12 388.715 1479.73 386.747C1476.64 385.335 1475.29 384.394 1472.34 381.527C1466.15 375.495 1456.61 361.546 1439.63 333.736C1426.46 312.129 1425.47 310.674 1422.47 307.979C1419.74 305.583 1417.5 304.641 1414.63 304.641C1411.63 304.641 1411.63 304.599 1411.63 299.464V294.801H1414.68C1420.1 294.801 1432.37 293.56 1436.05 292.661C1438.02 292.148 1441.51 290.864 1443.84 289.795C1447.29 288.212 1448.68 287.27 1451.46 284.575C1456.52 279.697 1459.03 275.077 1460.82 267.418C1461.94 262.626 1461.9 247.95 1460.73 243.244C1458.13 232.419 1451.55 224.803 1441.65 221.081C1435.91 218.942 1432.02 218.428 1421.04 218.428C1415.48 218.428 1408.81 218.599 1406.17 218.771L1401.33 219.156L1401.37 280.382C1401.42 314.097 1401.55 349.395 1401.73 358.851C1402 375.409 1402.04 376.094 1402.94 377.249C1403.75 378.276 1405.14 378.832 1411.81 380.8C1416.16 382.084 1419.92 383.453 1420.14 383.795C1420.37 384.137 1420.59 385.421 1420.59 386.576V388.715H1387.93L1355.27 388.758L1354.96 386.191C1354.82 384.822 1354.82 383.538 1355.05 383.367C1355.23 383.196 1359.21 381.912 1363.92 380.543C1368.89 379.046 1372.88 377.634 1373.55 377.078L1374.67 376.179L1374.81 299.122C1374.89 232.59 1374.81 221.851 1374.27 220.824C1373.19 218.899 1369.12 217.187 1362.17 215.69C1358.72 214.963 1355.68 214.15 1355.32 213.893C1354.96 213.593 1354.73 212.481 1354.73 210.984V208.545L1375.3 208.716C1389.14 208.844 1398.28 208.716 1403.39 208.374Z" fill="#0D3D5D"/>
<path d="M1285.17 207.596C1261.09 209.383 1241.53 215.782 1225.75 227.083C1220.76 230.657 1212.69 238.676 1209.05 243.621C1203.54 251.1 1197.99 262.568 1195.43 271.543C1192.65 281.557 1191.48 290.532 1191.52 302.498C1191.52 312.637 1192.22 318.039 1194.78 327.221C1200.29 347.166 1212.91 364.825 1229 375.213C1233.12 377.872 1242.27 382.235 1247.21 383.938C1256.37 387.055 1268.08 389.132 1281.26 390.005C1295.02 390.877 1311.56 389.378 1329.37 385.655H1333.75V384.7C1335.73 384.251 1337.72 383.775 1339.73 383.274L1341.33 382.858V308.523L1288.02 308.649L1288.04 308.666C1287.28 308.753 1287.35 309.272 1287.81 312.301C1288.02 313.489 1288.24 314.501 1288.32 314.589C1288.38 314.65 1292.06 316.506 1297.38 319.19C1299.7 320.357 1302.32 321.681 1305.09 323.082L1315.18 328.121C1315.25 332.82 1315.27 339.993 1315.22 349.867L1315.09 376.875L1309.45 377.83C1301.39 379.202 1287.07 379.534 1280.39 378.537C1257.1 375.046 1240.88 363.661 1230.34 343.468C1225.7 334.659 1222.49 324.811 1220.89 314.548C1219.85 307.817 1219.85 290.823 1220.89 282.803C1222.62 269.673 1225.22 261.031 1230.34 251.183C1240.58 231.696 1254.93 221.682 1277.36 218.566C1283.47 217.693 1295.23 217.693 1301.91 218.566C1306.81 219.147 1318.26 221.474 1318.74 221.931C1318.87 222.056 1320.95 229.369 1323.42 238.178C1325.85 246.986 1327.93 254.258 1328.02 254.341C1328.28 254.59 1332.05 254.05 1332.66 253.676C1332.96 253.468 1334.87 244.992 1337.17 233.358C1340.81 215.283 1341.12 213.33 1340.51 212.79C1339.68 212.084 1326.54 209.591 1318.78 208.635C1306.98 207.181 1295.53 206.848 1285.17 207.596Z" fill="#0D3D5D"/>
<path d="M1555.2 223.998C1570.17 213.724 1589.15 208.09 1611.12 207.427C1613.15 207.345 1615.87 207.262 1617.17 207.22C1618.47 207.179 1620.59 207.262 1621.84 207.386L1624.09 207.676V217.928C1615.26 217.379 1608.44 217.618 1608.44 217.618C1582.79 218.53 1566.84 227.353 1557.5 245.871C1552.52 255.648 1549.76 266.584 1548.42 281.498C1547.85 287.96 1547.85 304.572 1548.46 310.91C1550.1 329.677 1554.86 344.59 1562.6 355.692C1572.37 369.57 1585.04 377.11 1603.55 379.927C1608.7 380.714 1622.4 380.631 1628.33 379.761C1659.29 375.163 1674.99 355.029 1678.53 315.467C1679.14 309.046 1679.14 290.694 1678.58 284.605C1675.51 252.126 1662.27 230.502 1640.52 222.424C1638.01 221.512 1635.64 220.435 1635.25 220.062C1634.68 219.482 1634.47 218.198 1634.21 213.848C1633.99 209.996 1634.04 208.38 1634.38 208.38C1635.77 208.38 1644.76 210.286 1649.13 211.487C1667.51 216.541 1682.42 226.815 1692.72 241.521C1700.72 252.955 1705.47 266.708 1707.16 283.32C1707.89 290.363 1707.42 307.431 1706.34 314.225C1703.53 331.541 1697.82 345.129 1688.22 357.432C1684.85 361.741 1676.98 369.487 1672.74 372.636C1660.98 381.459 1647.18 386.886 1629.93 389.496C1621.67 390.739 1600.7 390.863 1592.96 389.703C1568.35 386.016 1550.45 376.447 1537.56 360.001C1528.74 348.733 1523.25 335.435 1520.52 318.574C1519.57 312.692 1519.18 296.204 1519.83 289.327C1521.82 268.324 1528.39 251.671 1540.11 237.751C1543.62 233.609 1550.84 227.022 1555.2 223.998Z" fill="#0D3D5D"/>
</svg>
