<svg width="1080" height="1080" viewBox="0 0 1080 1080" fill="none" xmlns="http://www.w3.org/2000/svg">
<path fill-rule="evenodd" clip-rule="evenodd" d="M278.242 390.639C258.401 389.664 238.224 389.717 220.206 391.047C201.966 392.394 186.849 394.988 176.624 398.667C167.337 402.009 162.733 404.463 159.801 406.481C158.334 407.491 157.238 408.424 156.107 409.406C156.026 409.476 156.107 409.406 154.75 410.5C153.713 411.336 153.773 411.435 152.431 412.407L141.143 423.795C140.247 424.699 138.957 425.91 137.593 427.191C136.737 427.995 135.852 428.826 135.016 429.627C132.692 431.851 130.794 433.797 130.029 434.935C129.219 436.14 128.424 437.273 127.651 438.373C123.492 444.3 119.987 449.295 118.278 459.615C116.805 468.516 115.284 480.595 114.324 500.777C113.363 520.949 112.977 541.524 113.723 552.619C115.176 574.229 121.609 596.588 129.843 613.628C134.269 622.788 136.978 627.168 141.861 631.478C147.25 636.234 155.964 641.468 173.93 650.18C180.996 653.607 193.864 657.232 210.948 660.138C227.7 662.988 247.419 664.969 267.481 665.585C287.57 666.201 307.664 665.439 325.24 662.936C343.1 660.393 357.071 656.228 365.912 650.843C399.193 630.575 413.743 604.233 415.349 584.434C416.589 569.14 417.293 542.173 416.743 515.8C416.464 502.408 415.865 489.603 414.924 478.749C413.978 467.838 412.699 466.475 411.115 461.077C406.44 445.143 402.62 435.021 396.801 426.981C391.257 419.32 383.188 412.628 368.172 405.317C361.997 402.311 350.03 399.04 333.472 396.288C317.33 393.606 298.083 391.614 278.242 390.639ZM219.785 385.33C238.082 383.979 258.499 383.928 278.523 384.913C298.547 385.897 318.017 387.908 334.411 390.633C351.055 393.398 363.716 396.772 370.678 400.162C386.228 407.733 395.169 414.953 401.441 423.618C407.887 432.525 411.926 443.492 416.612 459.462C418.367 465.445 419.68 467.295 420.631 478.253C421.586 489.269 422.19 502.206 422.471 515.68C423.023 542.181 422.319 569.353 421.058 584.898C419.27 606.948 403.34 634.761 368.889 655.741C359.068 661.722 344.195 666.028 326.046 668.612C308.063 671.173 287.628 671.939 267.306 671.315C247 670.691 227.017 668.687 209.988 665.79C192.758 662.859 179.244 659.128 171.432 655.34C153.471 646.629 144.11 641.106 138.073 635.778C132.305 630.688 129.194 625.454 124.686 616.124C116.152 598.463 109.513 575.389 108.008 553.004C107.238 541.548 107.641 520.68 108.602 500.504C109.562 480.338 111.093 467.949 112.627 458.678C114.559 447.005 118.789 440.997 123.034 434.968C123.785 433.901 124.537 432.834 125.276 431.734C126.455 429.982 128.852 427.594 131.056 425.484C132.007 424.573 132.941 423.697 133.81 422.881C135.095 421.675 136.237 420.604 137.076 419.758L148.705 408.026L148.904 407.884C150.109 407.025 151.059 406.2 152.138 405.262C152.209 405.201 152.281 405.138 152.353 405.075C153.517 404.065 154.811 402.958 156.555 401.757C160.047 399.353 165.155 396.702 174.686 393.272C185.633 389.334 201.352 386.691 219.785 385.33Z" fill="#0D3D5D"/>
<path fill-rule="evenodd" clip-rule="evenodd" d="M214.616 366.214C234.945 364.714 257.629 364.657 279.877 365.751C302.125 366.845 323.757 369.079 341.971 372.106C360.464 375.179 374.527 378.927 382.259 382.692C399.534 391.103 409.464 399.122 416.428 408.744C423.587 418.635 428.074 430.817 433.28 448.561C435.229 455.205 436.688 465.472 437.744 477.648C438.806 489.887 439.476 504.26 439.788 519.231C440.402 548.675 439.62 578.866 438.219 596.137C436.233 620.624 418.541 651.519 380.269 674.826C379.459 675.32 378.617 675.803 377.745 676.276C379.876 677.233 381.953 678.84 383.442 681.537C385.245 684.803 386.067 689.53 384.363 694.547C382.647 699.598 378.48 704.64 370.845 708.789C363.152 712.97 352.828 715.054 342.753 714.999C332.694 714.944 322.444 712.754 315.001 707.938C312.101 706.062 309.755 704.14 307.903 702.171C307.054 703.638 305.754 704.872 303.956 705.615C298.351 707.929 290.023 710.955 283.492 712.685C271.841 715.772 263.89 715.772 252.239 712.685C244.384 710.605 233.894 706.638 228.654 704.273C227.394 703.705 226.27 702.79 225.488 701.6C223.561 703.768 221.046 705.881 217.866 707.938C210.424 712.754 200.174 714.944 190.115 714.999C180.039 715.054 169.715 712.97 162.022 708.789C154.387 704.64 150.221 699.598 148.504 694.547C146.8 689.53 147.622 684.803 149.425 681.537C152.654 675.688 158.65 674.966 161.966 674.88C161.601 674.713 161.247 674.546 160.902 674.379C140.946 664.701 130.548 658.565 123.844 652.648C117.44 646.997 113.986 641.186 108.977 630.821C99.4962 611.2 92.1212 585.567 90.4491 560.699C89.5934 547.972 90.0418 524.787 91.109 502.37C92.1756 479.962 93.8765 457.985 95.5811 447.686C96.8501 440.019 100.392 431.135 104.221 423.251C108.071 415.323 112.334 408.159 115.22 403.867L115.457 403.512C117.157 400.972 119.275 397.856 125.265 393.585C131.883 388.868 143.459 382.614 164.515 375.038C176.674 370.663 194.137 367.726 214.616 366.214ZM279.568 372.05C257.521 370.966 235.101 371.026 215.08 372.504C194.812 374 178.012 376.883 166.647 380.972C145.883 388.443 134.894 394.465 128.921 398.722C123.804 402.369 122.161 404.825 120.745 406.944L120.447 407.388C117.727 411.434 113.611 418.342 109.888 426.008C106.144 433.719 102.917 441.953 101.798 448.716C100.16 458.608 98.4704 480.246 97.403 502.67C96.336 525.083 95.907 547.946 96.7361 560.276C98.3508 584.291 105.499 609.139 114.65 628.075C119.568 638.254 122.58 643.126 128.011 647.918C134.003 653.206 143.688 659.023 163.65 668.704C171.505 672.513 185.806 676.541 204.79 679.77C223.404 682.937 245.316 685.138 267.609 685.823C289.931 686.508 312.259 685.661 331.79 682.88C351.637 680.054 367.165 675.425 376.994 669.439C413.98 646.914 430.153 617.638 431.939 595.626C433.317 578.631 434.1 548.666 433.489 519.363C433.178 504.482 432.513 490.254 431.467 478.193C430.415 466.069 428.995 456.338 427.234 450.337C422.039 432.633 417.793 421.381 411.325 412.443C405.16 403.925 396.19 396.487 379.503 388.362C372.637 385.02 359.336 381.384 340.938 378.327C323.001 375.346 301.614 373.133 279.568 372.05ZM308.264 691.566C312.185 691.32 316.054 691.014 319.853 690.647L337.128 689.38L337.188 689.75C337.365 690.832 337.617 692.193 338.145 693.491C338.689 694.829 339.571 696.222 341.072 697.251C342.572 698.28 344.42 698.76 346.565 698.76C349.351 698.76 351.601 697.898 353.378 696.461C355.09 695.077 356.209 693.282 357.013 691.645C357.596 690.457 358.095 689.162 358.506 688.096C358.571 687.927 358.634 687.764 358.695 687.608C358.762 687.434 358.827 687.268 358.89 687.113C359.459 685.695 359.79 685.188 359.944 685.049C361.084 684.016 362.949 682.866 364.931 681.968C366.988 681.037 368.677 680.602 369.479 680.602C372.57 680.602 376.474 680.769 378.428 684.31C379.49 686.232 380.1 689.287 378.94 692.701C377.792 696.08 374.798 700.118 368.112 703.751C361.484 707.352 352.176 709.317 342.784 709.266C333.376 709.215 324.325 707.144 318.111 703.124C311.71 698.982 309.077 695.125 308.264 691.566ZM231.578 689.74C243.11 690.927 255.21 691.751 267.416 692.126C277.721 692.442 288.051 692.437 298.137 692.067C299.512 692.068 300.94 692.068 302.425 692.068C302.614 693.547 302.924 694.946 303.264 696.182C303.822 698.208 302.945 699.83 301.772 700.315C296.307 702.571 288.232 705.499 282.026 707.143C271.336 709.975 264.395 709.975 253.705 707.143C246.204 705.156 236.012 701.306 231.008 699.047C230.423 698.783 230.155 698.363 230.098 697.993C229.763 695.819 229.729 692.612 231.406 689.932C231.445 689.869 231.499 689.804 231.578 689.74ZM342.63 687.494C346.422 686.787 350.053 686.003 353.508 685.143C353.356 685.523 353.215 685.891 353.076 686.25C352.692 687.246 352.334 688.175 351.871 689.118C351.242 690.399 350.572 691.36 349.778 692.002C349.048 692.592 348.077 693.027 346.565 693.027C345.274 693.027 344.635 692.745 344.31 692.522C343.985 692.299 343.703 691.95 343.451 691.331C343.183 690.672 343.01 689.859 342.841 688.825C342.813 688.652 342.784 688.465 342.753 688.268C342.715 688.022 342.674 687.762 342.63 687.494ZM175.421 679.702C179.862 680.998 184.869 682.25 190.365 683.43C190.247 684.125 190.157 684.865 190.074 685.546L190.011 686.052C189.839 687.426 189.647 688.748 189.314 689.924C188.976 691.118 188.562 691.9 188.117 692.362C187.762 692.729 187.271 693.027 186.302 693.027C184.791 693.027 183.82 692.592 183.09 692.002C182.296 691.36 181.625 690.399 180.997 689.118C180.534 688.175 180.176 687.246 179.792 686.25C179.633 685.839 179.47 685.415 179.293 684.976C178.788 683.718 178.045 681.955 176.767 680.798C176.355 680.425 175.903 680.058 175.421 679.702ZM163.389 680.602C160.298 680.602 156.394 680.769 154.439 684.31C153.378 686.232 152.768 689.287 153.928 692.701C155.076 696.08 158.07 700.118 164.756 703.751C171.383 707.352 180.692 709.317 190.084 709.266C199.491 709.215 208.542 707.144 214.756 703.124C221.361 698.851 223.953 694.881 224.676 691.229L195.761 686.24L195.695 686.766C195.522 688.148 195.288 689.853 194.825 691.487C194.368 693.103 193.617 694.915 192.237 696.345C190.766 697.869 188.77 698.76 186.302 698.76C183.517 698.76 181.266 697.898 179.49 696.461C177.778 695.077 176.658 693.282 175.855 691.645C175.272 690.457 174.773 689.162 174.361 688.095C174.224 687.738 174.096 687.407 173.978 687.113C173.409 685.695 173.078 685.188 172.924 685.049C171.784 684.016 169.919 682.866 167.936 681.968C165.88 681.037 164.19 680.602 163.389 680.602Z" fill="#0D3D5D"/>
<path fill-rule="evenodd" clip-rule="evenodd" d="M258.283 404.495L259.784 406.892C261.534 409.684 264.494 412.588 267.62 413.373C269.059 413.734 270.603 413.673 272.307 412.85C274.074 411.996 276.218 410.219 278.55 406.784L279.995 404.655L295.123 409.229L294.772 412.147C293.552 422.292 296.494 446.083 317.78 459.4L317.829 459.43L317.876 459.462C325.157 464.354 344.656 471.769 363.604 462.22C366.865 460.577 372.09 461.507 375.979 467.387C378.615 471.372 379.094 476.902 377.934 481.578C376.769 486.278 373.649 491.147 368.004 492.569C366.992 492.825 365.486 493.008 363.844 492.89C362.204 492.772 360.153 492.332 358.301 491.088C358.312 491.095 358.301 491.09 358.263 491.072C358.121 491.006 357.606 490.766 356.562 490.404C355.381 489.996 353.767 489.515 351.8 489.041C347.865 488.094 342.614 487.201 336.716 486.963C324.868 486.486 310.811 488.66 299.404 497.858C286.667 508.128 276.171 511.647 266.318 510.654C256.723 509.687 248.4 504.451 240.13 499.058C235.062 495.752 230.88 492.539 227.378 489.848L227.351 489.827C223.039 486.514 220.06 484.254 217.525 483.125C216.334 482.594 215.439 482.412 214.716 482.426C214.034 482.439 213.291 482.629 212.385 483.201C209.931 484.746 208.909 487.69 209.997 490.726C211.069 493.718 214.488 497.307 221.968 498.637L222.05 498.652L222.132 498.671C227.59 499.913 236.097 502.992 244.299 508.246C252.456 513.472 260.589 521.031 264.913 531.37C267.487 536.277 271.968 548.975 271.149 563.836C270.739 571.276 276.055 581.952 285.473 589.452C294.69 596.792 307.168 600.535 320.526 595.149C333.858 589.774 340.032 583.12 342.999 577.1C346.017 570.975 345.985 565.021 345.93 560.303L345.93 560.287C345.924 559.74 345.917 559.196 345.917 558.679C345.917 555.038 344.24 549.128 340.204 544.29C336.293 539.603 330.179 535.92 321.017 536.359L320.934 536.363H320.85C317.252 536.363 312.134 537.372 308.113 540.317C304.302 543.109 301.143 547.863 301.485 556.257C301.635 559.081 302.399 563.233 304.376 566.561C306.25 569.718 309.121 572.058 313.954 572.058C319.659 572.058 322.295 569.772 323.6 567.233C325.053 564.406 325.155 560.635 324.399 557.535C324.12 556.639 323.819 555.791 323.507 555.006L329.92 552.209C330.42 553.258 330.831 554.426 331.144 555.654C333.089 562.01 334.207 570.827 330.813 578.101C329.058 581.863 326.133 585.115 321.739 587.271C317.403 589.399 311.839 590.364 304.892 589.975L304.865 589.973L304.837 589.971C299.498 589.587 286.305 585.97 280.486 571.756C276.504 562.028 274.646 546.431 283.888 529.494L283.92 529.436L283.953 529.38C286.363 525.331 292.146 519.875 300.549 515.939C309.065 511.951 320.451 509.434 334.184 511.531L334.325 511.553L334.464 511.586C340.454 513.006 348.981 516.406 356.817 521.787C364.617 527.144 372.076 534.705 375.373 544.598C377.121 549.211 380.5 560.967 380.5 572.58V575.096L378.115 575.898C376.836 576.327 375.184 577.451 374.392 579.251C373.676 580.88 373.332 583.835 376.104 588.726L377.083 590.452L363.004 615.285L360.473 614.719C357.943 614.152 354.444 614.114 351.869 615.351C350.662 615.932 349.685 616.774 349.011 617.999C348.326 619.243 347.818 621.132 347.986 624.007L348.12 626.302L318.932 641.012L317.39 640.286C315.382 639.341 311.848 638.362 308.14 638.647C304.548 638.924 300.881 640.362 298.045 644.173L296.995 645.583H263.72L262.697 643.907C261.761 642.375 259.561 640.101 256.222 638.897C253.008 637.738 248.474 637.474 242.557 640.281L240.981 641.028L211.353 625.544L211.026 623.899C210.464 621.064 208.814 616.745 205.813 613.307C202.903 609.973 198.803 607.521 192.983 607.847L191.173 607.949L181.96 596.341C181.455 597.169 180.773 598.084 179.871 598.788C178.737 599.675 176.963 600.412 174.926 599.727C174.004 599.418 172.805 598.656 171.705 597.871C170.464 596.985 168.935 595.762 167.262 594.217C163.921 591.13 159.934 586.684 156.53 580.943C149.667 569.369 145.25 552.63 153.058 531.643L153.198 531.267L153.42 530.933C154.285 529.625 155.965 528.354 158.272 528.297C158.431 528.293 158.591 528.295 158.749 528.303V514.01L160.438 512.989C162.306 511.859 164.918 509.336 166.213 505.661C167.455 502.137 167.609 497.215 164.11 490.865L163.277 489.355L175.606 461.113L177.599 460.877C179.786 460.618 183.109 459.484 185.648 457.024C188.041 454.705 189.982 450.985 189.308 444.878L189.106 443.04L211.752 423.638L213.662 424.318C216.015 425.155 219.565 425.673 222.571 424.8C224.012 424.382 225.283 423.66 226.305 422.53C227.326 421.402 228.258 419.691 228.75 417.046L229.116 415.079L258.283 404.495ZM158.351 535.29C158.351 535.29 158.354 535.29 158.362 535.292C158.354 535.291 158.351 535.29 158.351 535.29ZM159.047 535.682C152.879 553.642 156.778 567.637 162.551 577.373C165.55 582.43 169.074 586.361 172.013 589.076C173.481 590.432 174.783 591.467 175.774 592.175C175.904 592.268 176.026 592.353 176.138 592.43C176.761 591.306 177.289 589.745 177.569 588.617L179.283 581.708L194.453 600.822C201.866 600.952 207.343 604.413 211.087 608.704C214.494 612.607 216.52 617.232 217.498 620.857L241.182 633.235C247.976 630.428 253.876 630.61 258.597 632.312C262.595 633.754 265.588 636.228 267.485 638.583H293.568C297.67 633.904 302.831 632.035 307.602 631.668C311.847 631.341 315.838 632.187 318.74 633.27L340.97 622.067C341.078 619.201 341.725 616.719 342.879 614.624C344.347 611.956 346.498 610.166 348.837 609.042C352.311 607.372 356.229 607.14 359.39 607.466L369.074 590.386C366.437 584.924 366.319 580.221 367.984 576.433C369.246 573.562 371.374 571.593 373.456 570.376C373.07 560.527 370.241 550.783 368.805 547.019L368.776 546.945L368.752 546.87C366.125 538.927 359.974 532.447 352.854 527.557C345.812 522.721 338.158 519.678 332.985 518.429C320.777 516.594 310.835 518.852 303.518 522.279C296.111 525.747 291.56 530.327 290 532.908C281.942 547.719 283.67 561.055 286.965 569.104C291.387 579.907 301.438 582.699 305.313 582.988C311.435 583.327 315.706 582.434 318.655 580.987C320.8 579.935 322.349 578.54 323.459 576.92C320.905 578.278 317.747 579.058 313.954 579.058C306.177 579.058 301.23 574.974 298.357 570.135C295.589 565.474 294.675 560.068 294.494 556.604L294.493 556.585L294.492 556.566C294.051 545.908 298.217 538.889 303.977 534.67C309.497 530.627 316.156 529.379 320.765 529.364C332.246 528.837 340.389 533.586 345.579 539.806C350.655 545.89 352.917 553.384 352.917 558.679C352.917 559.153 352.923 559.661 352.93 560.222L352.931 560.351C352.986 565.073 353.073 572.494 349.277 580.195C345.396 588.07 337.717 595.766 323.143 601.641C306.949 608.171 291.844 603.474 281.112 594.928C270.582 586.541 263.585 573.884 264.16 563.451C264.908 549.876 260.695 538.329 258.657 534.513L258.575 534.36L258.509 534.201C254.936 525.556 248.005 518.934 240.523 514.14C233.087 509.376 225.384 506.601 220.656 505.514C211.439 503.851 205.53 499.012 203.407 493.086C201.293 487.186 203.226 480.697 208.653 477.278C210.521 476.101 212.492 475.467 214.581 475.427C216.629 475.387 218.561 475.923 220.373 476.73C223.76 478.239 227.392 481.03 231.321 484.05C231.419 484.125 231.518 484.201 231.616 484.277C235.13 486.977 239.125 490.045 243.954 493.194C252.431 498.723 259.377 502.919 267.02 503.69C274.407 504.434 283.12 501.996 295.01 492.408C308.231 481.748 324.219 479.454 336.998 479.969C343.415 480.228 349.123 481.197 353.438 482.235C355.596 482.755 357.43 483.298 358.85 483.789C360.134 484.233 361.414 484.746 362.205 485.278C362.718 485.622 363.458 485.844 364.347 485.908C365.233 485.972 365.993 485.857 366.294 485.782C368.53 485.218 370.336 483.137 371.14 479.893C371.951 476.626 371.445 473.22 370.14 471.248C368.897 469.369 367.833 468.79 367.303 468.61C366.932 468.484 366.714 468.51 366.665 468.516C344.704 479.53 322.525 470.995 314.02 465.305C291.514 451.195 287.036 427.083 287.587 414.264L282.806 412.818C280.458 415.793 277.969 417.888 275.352 419.153C272.094 420.727 268.861 420.902 265.916 420.162C261.471 419.047 257.902 415.928 255.516 412.946L235.169 420.329C234.388 423.117 233.14 425.41 231.495 427.227C229.474 429.461 227.014 430.799 224.523 431.522C220.575 432.669 216.454 432.308 213.316 431.516L196.414 445.996C196.744 453.212 194.2 458.484 190.519 462.051C187.393 465.08 183.603 466.735 180.471 467.465L171.051 489.044C174.632 496.349 174.646 502.793 172.815 507.988C171.249 512.434 168.409 515.747 165.749 517.813V542.354L159.765 536.321C159.484 536.038 159.245 535.832 159.047 535.682ZM271.293 455.234C267.422 455.234 264.2 458.43 264.2 462.479C264.2 466.529 267.422 469.725 271.293 469.725C275.163 469.725 278.386 466.529 278.386 462.479C278.386 458.43 275.163 455.234 271.293 455.234ZM257.2 462.479C257.2 454.659 263.462 448.234 271.293 448.234C279.123 448.234 285.386 454.659 285.386 462.479C285.386 470.3 279.123 476.725 271.293 476.725C263.462 476.725 257.2 470.3 257.2 462.479Z" fill="#0D3D5D"/>
<path d="M585.87 400.336L579.822 400.37V403.289L586.962 403.312L594.102 403.345L595.218 407.197C595.844 409.308 596.371 411.06 596.396 411.082C596.42 411.105 596.776 411.071 597.181 410.992L597.905 410.858L598.972 405.704C599.548 402.863 600.002 400.471 599.978 400.392C599.929 400.291 599.021 400.269 595.905 400.28C593.709 400.302 589.182 400.325 585.87 400.336Z" fill="#0D3D5D"/>
<path d="M564.159 401.706L566.479 402.332C567.75 402.684 568.923 403.035 569.071 403.134C569.141 403.173 569.204 403.196 569.259 403.231C569.743 403.529 569.713 404.643 569.713 423.552C569.713 440.168 569.688 443.124 569.54 443.442C569.51 443.503 569.49 443.553 569.462 443.597C569.311 443.842 568.916 443.939 565.146 444.981C564.134 445.256 564.035 445.376 564.22 446.212L564.294 446.574H597.168C597.171 446.574 597.174 446.574 597.178 446.574H600.064L599.598 444.306C599.427 443.417 599.21 442.321 598.972 441.148L597.905 435.994L597.181 435.859C596.776 435.78 596.42 435.747 596.396 435.769C596.371 435.792 595.844 437.543 595.218 439.654L594.102 443.506L586.962 443.54L577.119 443.525V424.266H578.562C580.92 424.266 583.734 424.299 584.82 424.343C586.585 424.409 586.807 424.431 587.042 424.64C587.227 424.805 587.511 425.607 588.029 427.332L588.745 429.783L589.189 429.717C589.436 429.684 589.868 429.651 590.165 429.651H590.683V416.134H588.733L588.165 418.244C587.844 419.409 587.498 420.552 587.387 420.783C587.32 420.921 587.268 421.034 587.192 421.127C586.837 421.561 585.941 421.562 580.352 421.607L577.119 421.662V411.596C577.119 402.563 577.094 401.475 576.921 401.079C576.81 400.838 576.6 400.574 576.452 400.508C576.279 400.42 574.341 400.365 570.182 400.332L564.159 400.277V401.706Z" fill="#0D3D5D"/>
<path d="M488.276 403.066H498.552L498.676 403.486C498.75 403.725 499.283 405.837 499.866 408.176C500.461 410.515 500.956 412.446 500.981 412.468C501.006 412.491 501.341 412.457 501.712 412.377C502.258 412.275 502.419 412.196 502.469 412.003C502.518 411.776 504.514 400.148 504.514 400.045C504.514 400.023 500.857 400 496.395 400H488.276V403.066Z" fill="#0D3D5D"/>
<path d="M524.883 400.949C524.92 400.728 524.956 400.43 524.956 400.276V400H516.068C507.983 400 507.179 400.011 507.179 400.177C507.179 400.276 507.143 400.574 507.106 400.85L507.033 401.335L508.312 401.578C509.59 401.821 511.003 402.285 511.758 402.715C511.87 402.777 511.966 402.801 512.049 402.849C512.583 403.157 512.537 404.449 512.537 423.386V443.186L512.245 443.506C511.794 443.992 510.43 444.499 508.677 444.853L507.119 445.162L507.046 446.574H524.835L524.859 446.1C524.871 445.846 524.883 445.526 524.883 445.404C524.896 445.184 524.762 445.14 523.508 444.908C521.961 444.621 520.439 444.014 520.074 443.539C519.867 443.285 519.855 442.623 519.818 433.352L519.782 423.453H538.388C538.462 423.681 538.567 424.101 539.14 426.337C539.725 428.572 540.211 430.417 540.235 430.438C540.26 430.46 540.589 430.427 540.955 430.351C541.491 430.254 541.649 430.178 541.698 429.993C541.747 429.776 543.708 420.656 543.708 420.558C543.708 420.557 543.698 420.556 543.681 420.555L543.708 420.473H519.782L519.818 411.842C519.867 404.293 519.891 403.179 520.05 402.958C520.354 402.538 522.059 401.865 523.508 401.589L524.81 401.346L524.883 400.949Z" fill="#0D3D5D"/>
<path d="M545.485 423.287C545.482 410.926 545.434 403.383 545.363 403.212C545.193 402.792 544.864 402.649 542.624 402.02C541.48 401.711 540.543 401.446 540.531 401.435C540.519 401.435 540.47 401.104 540.421 400.717L540.348 400H549.234C558.034 400 558.131 400 558.192 400.221C558.229 400.342 558.265 400.662 558.265 400.938V401.446L556.026 402.031C553.616 402.66 553.092 402.881 552.91 403.322C552.837 403.499 552.788 410.75 552.788 423.254C552.788 435.758 552.837 443.076 552.91 443.252C553.092 443.694 553.616 443.914 556.026 444.544L558.265 445.128V445.636C558.265 445.912 558.229 446.232 558.192 446.354C558.131 446.574 558.034 446.574 549.234 446.574H540.348L540.421 445.857C540.47 445.471 540.519 445.139 540.531 445.139C540.543 445.128 541.48 444.864 542.624 444.555C544.864 443.925 545.193 443.782 545.363 443.363C545.434 443.191 545.482 435.648 545.485 423.287Z" fill="#0D3D5D"/>
<path d="M467.31 400C467.521 400 467.734 400 467.949 400H475.898C484.128 400.004 484.83 400.041 485.169 400.411C485.21 400.457 485.246 400.507 485.29 400.563C485.472 400.795 485.484 402.583 485.484 421.775C485.484 440.559 485.508 442.767 485.678 443.098C485.994 443.716 487.426 444.29 490.156 444.864C490.896 445.029 491.588 445.184 491.709 445.206C491.879 445.25 491.916 445.393 491.916 445.923V446.574H472.026L471.954 446.089C471.808 445.261 471.832 445.239 473.046 445.018C475.4 444.588 477.293 443.892 477.888 443.263L478.203 442.91V402.98H465.838L465.717 403.388C465.644 403.62 465.122 405.673 464.552 407.946C463.969 410.22 463.484 412.096 463.46 412.118C463.435 412.14 463.108 412.107 462.744 412.03C462.21 411.93 462.052 411.853 462.003 411.666C461.959 411.464 460.331 402.051 460.044 400.317C460.016 400.282 460.001 400.258 460.001 400.243V400H467.31Z" fill="#0D3D5D"/>
<path d="M816.374 470.966C816.42 470.923 817.928 470.663 819.732 470.381C821.537 470.1 823.113 469.884 823.25 469.862C823.388 469.84 824.05 471.334 824.712 473.13C836.135 504.686 854.626 553.432 856.728 556.397C857.982 558.17 859.412 558.49 863.648 559.44L863.665 559.443L865.744 559.919L865.835 561.305L865.904 562.69H834.919L834.827 561.326C834.759 560.59 834.736 559.941 834.782 559.898C834.804 559.876 836.267 559.443 837.98 558.967C840.27 558.521 840.842 558.379 841.987 557.672C842.307 557.065 841.435 554.552 841.046 553.275C840.521 551.479 833.759 532.93 832.548 529.9L832.114 528.818L818.453 528.753C805.569 528.71 804.792 528.688 804.929 528.32C805.021 528.126 805.569 526.805 806.14 525.42L807.191 522.866L818.567 522.823L829.921 522.758L823.273 504.967C819.595 495.206 816.534 487.22 816.466 487.263C816.397 487.306 809.452 503.431 801.045 523.104C784.346 562.17 785.306 560.136 782.884 561.305C780.737 562.322 779.343 562.495 772.695 562.625L766.459 562.733V561.494C767.568 560.928 776.876 557.604 777.744 556.608C778.406 555.872 779.206 554.141 785.694 539.423C788.572 532.865 793.644 521.524 796.956 514.209C802.713 501.483 811.577 481.701 814.798 474.45C815.62 472.567 816.351 470.987 816.374 470.966Z" fill="#0D3D5D"/>
<path d="M677.653 470.084C674.171 470.194 666.559 470.238 660.77 470.172L650.206 470.062V470.919C650.206 471.469 650.204 471.844 650.352 472.147C650.678 472.814 651.732 473.129 655.142 474.173C659.34 475.447 659.709 475.601 660.124 476.261C660.585 476.942 660.585 477.602 660.585 516.462V523.99H660.724V555.961L660.078 556.598C659.455 557.257 659.224 557.345 652.19 559.346L650.206 559.917L650.298 560.84C650.414 562.269 650.552 562.774 650.875 562.73C650.932 562.73 651.47 562.712 652.326 562.683C653.556 562.64 655.441 562.575 657.495 562.511C660.977 562.401 668.589 562.357 674.378 562.423L684.942 562.533V561.675C684.942 561.126 684.944 560.751 684.796 560.448C684.47 559.781 683.416 559.465 680.006 558.422C675.808 557.147 675.439 556.994 675.024 556.334C674.993 556.288 674.962 556.257 674.933 556.227C674.55 555.833 674.352 555.628 674.335 523.99H674.424V476.634L675.07 475.997C675.693 475.338 675.924 475.25 682.958 473.249L684.942 472.678L684.85 471.755C684.734 470.326 684.596 469.82 684.273 469.864C684.216 469.864 683.678 469.883 682.822 469.912C681.592 469.955 679.707 470.019 677.653 470.084Z" fill="#0D3D5D"/>
<path d="M760.447 539.621C759.843 539.727 759.329 539.833 759.284 539.876C759.24 539.918 757.317 543.711 754.969 548.31L750.744 556.68L739.028 556.807C732.589 556.871 726.374 556.956 725.256 556.977C724.104 556.988 723.176 557.916 723.176 559.056V562.72H741.957C756.803 562.72 760.782 562.656 760.849 562.444C760.939 562.19 762.303 541.105 762.303 539.982C762.303 539.346 762.258 539.346 760.447 539.621Z" fill="#0D3D5D"/>
<path d="M874.465 472.774L879.139 474.219C882.332 475.204 883.928 475.795 884.159 476.101C884.368 476.386 884.553 477.349 884.645 478.729C884.715 479.933 884.761 497.754 884.715 518.312L884.653 551.624L879.374 554.815C877.916 555.543 876.536 556.23 875.319 556.837C872.521 558.231 870.586 559.195 870.555 559.227C870.511 559.273 870.4 559.798 870.289 560.416C870.001 562.267 870.001 562.313 870.666 562.313C870.8 562.313 871.189 562.294 871.772 562.262L880.319 562.251C890.059 562.251 890.73 562.208 891.656 561.814C892.211 561.573 892.72 561.179 892.835 560.894C892.951 560.609 892.974 543.445 892.905 522.756C892.835 499.746 892.882 485.165 892.997 485.253C893.113 485.318 900.979 502.767 910.442 524.048L927.679 562.733L929.183 562.602C929.539 562.564 929.955 562.523 930.36 562.482C930.9 562.428 931.42 562.377 931.751 562.339L932.815 562.208L962.267 496.068L962.221 486.763L962.152 477.459L949.913 504.913C943.18 520.019 936.679 534.578 935.476 537.271L933.278 542.175L932.884 541.431C932.676 541.015 925.388 524.748 916.689 505.285L900.864 469.862L898.897 470.037C896.283 470.234 878.977 470.234 876.362 470.015L874.326 469.862L874.465 472.774Z" fill="#0D3D5D"/>
<path d="M609.025 472.543L611.181 472.939C615.1 473.642 617.837 474.895 618.44 476.236C618.718 476.873 618.764 479.753 618.764 493.819V510.634H573.313V516.568H618.764L618.718 536.327L618.648 556.109L617.999 556.746C617.002 557.735 614.382 558.768 611.552 559.296L609.025 559.757V560.747C609.025 561.296 609.094 561.933 609.164 562.175C609.28 562.615 609.465 562.615 626.092 562.615H642.881V561.23C642.881 560.307 642.789 559.823 642.603 559.779C642.441 559.735 640.957 559.406 639.333 559.032C635.901 558.263 633.606 557.318 632.98 556.439C632.585 555.845 632.562 554.241 632.562 516.326V476.807L633.049 476.192C634 474.983 637.71 473.466 641.328 472.829L642.881 472.565V471.642C642.881 471.159 642.812 470.543 642.742 470.301C642.626 469.862 642.441 469.862 625.814 469.862H609.025V472.543Z" fill="#0D3D5D"/>
<path d="M541.404 469.945C541.395 469.941 541.387 469.938 541.383 469.937C541.491 469.846 547.962 469.874 554.893 469.937C561.35 469.996 567.632 470.096 567.9 470.192C568.201 470.301 568.665 470.719 568.92 471.115C569.384 471.84 569.384 472.258 569.384 507.138V507.139C569.384 526.547 569.454 545.581 569.547 549.427C569.686 556.373 569.709 556.439 570.219 556.9C570.544 557.186 572.352 557.845 574.764 558.549C576.967 559.186 578.845 559.823 578.938 559.955C579.031 560.087 579.124 560.747 579.124 561.406V562.615H545.313L545.174 561.208C545.082 560.439 545.035 559.801 545.082 559.757C545.12 559.739 546.538 559.352 548.412 558.84C548.778 558.739 549.163 558.634 549.557 558.527C553.244 557.538 554.079 557.23 554.682 556.68L555.424 555.999L555.586 544.372C555.803 530.546 555.668 491.751 555.423 479.957L550.382 477.464C548.92 476.734 547.537 476.043 546.317 475.434C543.513 474.035 541.573 473.067 541.542 473.035C541.498 472.989 541.387 472.461 541.276 471.842C541.029 470.252 540.993 469.988 541.404 469.945Z" fill="#0D3D5D"/>
<path d="M506.858 470.031C497.445 470.561 488.01 473.168 480.856 477.215C469.319 483.721 462.098 495.503 460.488 510.485C459.75 517.372 459.839 522.776 460.823 528.264C462.343 536.889 466.547 544.433 473.187 550.494C481.102 557.699 491.945 561.767 505.494 562.615C516.829 563.336 529.126 560.708 536.236 556.046C538.539 554.541 538.673 554.372 538.427 553.355C538.293 552.91 538.136 552.295 538.069 551.998L537.958 551.469L534.134 552.677C528.299 554.52 523.783 555.325 518.037 555.537C505.785 556.025 494.405 552.295 486.691 545.281C478.173 537.525 474.26 527.735 474.73 515.359C475.11 506.099 476.764 498.872 479.917 492.918C483.002 487.133 486.065 483.678 490.872 480.606C496.931 476.728 505.494 474.884 514.638 475.499C517.105 475.66 523.629 476.863 526.767 477.569L528.255 484.349C528.57 485.755 528.868 487.086 529.13 488.26C529.732 490.956 530.149 492.822 530.17 492.855C530.2 492.903 530.635 493.114 531.15 493.344C532.705 493.998 532.745 494.008 532.891 493.44C533.149 492.437 536.916 473.159 536.895 472.911C536.761 472.699 533.486 471.939 530.468 471.388C523.425 470.074 514.683 469.565 506.858 470.031Z" fill="#0D3D5D"/>
<path d="M975.395 470.53L967.323 470.633C967.01 470.637 966.713 470.771 966.504 471.001L966.005 471.55C965.821 471.753 965.718 472.017 965.718 472.291V513.697C965.718 558.265 965.765 556.382 964.651 557.28C964.396 557.477 962.4 558.156 960.218 558.813C958.014 559.448 956.111 560.017 955.972 560.105C955.809 560.193 955.786 560.696 955.879 561.485L956.041 562.733H973.075C988.53 562.733 990.132 562.711 989.992 562.383C989.923 562.186 989.853 561.616 989.853 561.091V560.127L985.142 558.703C982.032 557.762 980.269 557.105 979.967 556.798C979.526 556.338 979.526 555.55 979.433 525.414C979.387 508.419 979.433 490.548 979.526 485.707C979.689 477.56 979.735 476.881 980.13 476.465C980.385 476.202 982.288 475.523 985.026 474.691C987.486 473.947 989.621 473.333 989.737 473.29C989.876 473.246 989.923 472.654 989.853 471.822L989.737 470.421H986.836C985.235 470.399 980.083 470.464 975.395 470.53Z" fill="#0D3D5D"/>
<path d="M692.529 469.948L692.515 469.939L705.519 469.862C717.706 469.936 719.237 469.916 719.934 470.665C720.062 470.803 720.162 470.967 720.295 471.162C720.689 471.735 720.712 474.18 720.781 516.066C720.827 545.547 720.781 560.618 720.619 561.125C720.539 561.383 720.483 561.593 720.369 561.764C719.859 562.525 718.187 562.515 707.97 562.623L696.616 562.733L696.477 561.345C696.385 560.574 696.338 559.913 696.385 559.869C696.431 559.825 698.443 559.252 700.848 558.591C703.253 557.93 705.449 557.269 705.727 557.137C705.867 557.065 705.991 557.029 706.101 556.968C707.008 556.462 706.952 554.248 706.952 516.419C706.952 494.251 706.943 484.526 706.852 480.15L701.489 477.485C700.031 476.752 698.652 476.06 697.435 475.45C694.639 474.047 692.705 473.076 692.674 473.044C692.63 472.998 692.519 472.469 692.408 471.848C692.164 470.265 692.127 469.994 692.529 469.948Z" fill="#0D3D5D"/>
<path d="M840.498 587.416C846.131 587.459 852.412 587.416 854.452 587.306C860.154 586.977 874.757 587.13 877.863 587.569C884.77 588.513 889.197 589.917 893.021 592.353C894.783 593.472 897.704 596.479 898.909 598.41C901.389 602.295 902.2 606.113 902.015 612.719C901.783 620.334 900.184 624.833 895.826 630.056C891.074 635.805 882.869 639.514 872.184 640.809C869.333 641.16 863.538 641.336 861.475 641.16L859.667 640.985V635.74L861.591 635.915C866.041 636.332 870.144 635.915 873.992 634.686C876.704 633.786 878.28 632.843 880.551 630.714C883.402 628.037 885.164 625.008 886.137 621.08C886.81 618.359 886.995 611.226 886.462 608.33C884.932 599.924 879.717 594.679 871.141 592.968C867.223 592.2 859.018 592.156 854.985 592.88L854.336 593.012L854.22 678.599L853.455 679.236L852.714 679.872H825.826V677.772C827.342 677.481 832.965 676.317 835.028 675.724C839.2 674.517 839.409 674.43 840.081 673.727C840.544 673.245 840.545 672.829 840.614 634.307L840.614 634.094C840.661 600.429 840.614 594.833 840.336 594.175C839.896 593.187 838.088 592.331 834.333 591.3C829.952 590.137 830.23 590.29 830.23 588.688V587.328L840.498 587.416Z" fill="#0D3D5D"/>
<path d="M737.403 592.768C736.996 592.447 725.924 589.11 724.208 589.11V587.129L737.358 587.193C752.044 587.279 751.005 587.15 751.638 588.823C751.909 589.573 751.977 593.948 752.112 618.436C752.225 646.72 752.316 649.958 753.039 654.033C754.778 663.918 759.862 669.987 768.109 672.045C770.911 672.753 773.397 673.01 777.238 673.01C783.044 673.01 787.767 672.152 791.404 670.394C798.544 667.006 802.295 661.238 803.899 651.202C804.283 648.843 804.306 646.699 804.238 621.117C804.193 597.25 804.148 593.519 803.854 593.09C803.131 592.061 799.651 590.86 795.336 590.152L794.477 590.002V587.129H809.028C823.421 587.129 823.602 587.129 823.715 587.558C823.783 587.793 823.85 588.437 823.85 588.994C823.85 589.938 823.805 590.024 823.308 590.024C822.404 590.024 818.608 590.817 817.253 591.31C815.784 591.825 814.27 592.811 813.886 593.497C813.66 593.883 813.57 600.252 813.434 620.688C813.278 649.01 813.276 649.018 812.119 654.174L812.079 654.354C811.062 658.772 808.983 663.661 806.746 666.856C805.345 668.85 802.272 671.895 800.103 673.439C794.138 677.663 785.733 679.872 775.769 679.872C758.484 679.851 746.509 673.461 741.719 661.688C739.007 654.998 738.578 649.101 738.804 621.867C738.917 608.83 738.872 602.547 738.668 599.137C738.397 594.377 738.217 593.455 737.403 592.768Z" fill="#0D3D5D"/>
<path d="M568.46 587.718C570.593 587.567 573.574 587.372 575.088 587.285C586.211 586.656 595.638 587.935 601.922 590.927C608.16 593.875 612.059 598.623 613.16 604.563C613.871 608.356 613.481 614.34 612.334 617.635C610.453 623.033 606.188 627.78 600.431 630.902C599.192 631.574 595.706 632.983 593.275 633.785C591.624 634.327 591.509 634.414 591.762 634.826C592.519 636.192 608.642 659.756 613.297 666.325C617.082 671.657 618.618 673.24 621.072 674.346C621.898 674.714 622.792 675.083 623.091 675.169L627.953 677.054V679.353L626.301 679.527C623.251 679.83 617.999 679.96 615.568 679.809C612.151 679.613 609.788 679.093 607.541 678.096C605.958 677.381 605.27 676.904 603.756 675.451C600.591 672.395 595.706 665.327 587.014 651.236C580.271 640.289 579.767 639.552 578.23 638.186C576.831 636.972 575.684 636.495 574.217 636.495C572.68 636.495 572.68 636.473 572.68 633.872V631.509H574.24C577.015 631.509 583.299 630.88 585.179 630.425C586.189 630.165 587.977 629.515 589.17 628.973C590.936 628.17 591.647 627.694 593.069 626.328C595.661 623.856 596.945 621.515 597.862 617.635C598.436 615.207 598.413 607.771 597.816 605.386C596.486 599.902 593.115 596.043 588.046 594.157C585.111 593.073 583.115 592.813 577.496 592.813C574.652 592.813 571.235 592.9 569.882 592.986L567.405 593.181L567.428 624.203C567.451 641.286 567.52 659.171 567.611 663.962C567.749 672.351 567.772 672.698 568.231 673.283C568.643 673.804 569.354 674.085 572.772 675.083C574.996 675.733 576.923 676.427 577.038 676.6C577.152 676.774 577.267 677.424 577.267 678.009V679.093H560.547L543.828 679.115L543.668 677.814C543.599 677.12 543.599 676.47 543.713 676.383C543.805 676.297 545.846 675.646 548.255 674.953C550.8 674.194 552.841 673.478 553.185 673.197L553.759 672.741L553.828 633.698C553.873 599.989 553.828 594.547 553.552 594.027C553.002 593.051 550.915 592.184 547.36 591.426C545.594 591.057 544.034 590.645 543.851 590.515C543.668 590.363 543.553 589.8 543.553 589.041V587.805L554.08 587.892C561.167 587.957 565.845 587.892 568.46 587.718Z" fill="#0D3D5D"/>
<path d="M507.938 587.325C495.615 588.23 485.602 591.472 477.519 597.198C474.966 599.009 470.836 603.072 468.971 605.577C466.151 609.367 463.309 615.177 461.999 619.725C460.578 624.799 459.978 629.346 460.001 635.409C460.001 640.546 460.356 643.283 461.666 647.936C464.486 658.041 470.947 666.988 479.185 672.252C481.294 673.599 485.979 675.81 488.51 676.673C493.195 678.252 499.19 679.304 505.94 679.746C512.984 680.188 521.452 679.429 530.569 677.543H532.813V677.058C533.825 676.831 534.845 676.59 535.871 676.336L536.692 676.125V638.462L509.398 638.525L509.412 638.534C509.02 638.578 509.056 638.841 509.294 640.376C509.402 640.978 509.51 641.491 509.553 641.535C509.583 641.566 511.468 642.507 514.192 643.866C515.377 644.458 516.721 645.129 518.141 645.838L523.305 648.392C523.341 650.772 523.349 654.407 523.326 659.409L523.259 673.094L520.373 673.578C516.243 674.273 508.915 674.441 505.496 673.936C493.573 672.167 485.268 666.399 479.873 656.167C477.497 651.704 475.854 646.715 475.033 641.515C474.5 638.104 474.5 629.493 475.033 625.43C475.921 618.777 477.253 614.398 479.873 609.409C485.113 599.535 492.462 594.461 503.942 592.883C507.072 592.44 513.09 592.44 516.509 592.883C519.018 593.177 524.88 594.356 525.124 594.588C525.191 594.651 526.256 598.356 527.522 602.819C528.765 607.283 529.831 610.967 529.876 611.009C530.009 611.135 531.941 610.862 532.251 610.672C532.407 610.567 533.384 606.272 534.561 600.377C536.426 591.219 536.581 590.23 536.27 589.956C535.848 589.598 529.121 588.335 525.146 587.851C519.107 587.114 513.245 586.946 507.938 587.325Z" fill="#0D3D5D"/>
<path d="M646.18 595.635C653.839 590.43 663.557 587.575 674.803 587.239C675.843 587.197 677.238 587.155 677.902 587.134C678.566 587.113 679.651 587.155 680.293 587.218L681.444 587.365V592.56C676.924 592.281 673.43 592.403 673.43 592.403C660.303 592.864 652.134 597.335 647.353 606.718C644.807 611.671 643.39 617.212 642.704 624.769C642.416 628.043 642.416 636.46 642.726 639.671C643.567 649.18 646.003 656.736 649.965 662.361C654.968 669.393 661.454 673.213 670.929 674.64C673.563 675.039 680.581 674.997 683.614 674.556C699.464 672.226 707.499 662.025 709.315 641.98C709.625 638.727 709.625 629.428 709.337 626.343C707.765 609.887 700.991 598.93 689.856 594.837C688.572 594.376 687.355 593.83 687.155 593.641C686.868 593.347 686.757 592.696 686.624 590.492C686.513 588.54 686.536 587.722 686.713 587.722C687.421 587.722 692.026 588.687 694.261 589.296C703.67 591.857 711.307 597.062 716.576 604.514C720.671 610.307 723.106 617.275 723.969 625.692C724.346 629.26 724.102 637.908 723.549 641.351C722.11 650.124 719.188 657.009 714.273 663.243C712.547 665.426 708.518 669.351 706.348 670.946C700.327 675.417 693.265 678.166 684.433 679.489C680.204 680.118 669.468 680.181 665.505 679.594C652.909 677.726 643.745 672.877 637.148 664.544C632.632 658.835 629.82 652.097 628.426 643.554C627.939 640.574 627.739 632.22 628.072 628.736C629.09 618.094 632.455 609.656 638.454 602.604C640.247 600.505 643.944 597.167 646.18 595.635Z" fill="#0D3D5D"/>
</svg>
