<svg width="900" height="350" viewBox="0 0 900 350" fill="none" xmlns="http://www.w3.org/2000/svg">
<path fill-rule="evenodd" clip-rule="evenodd" d="M188.242 25.6389C168.401 24.6635 148.224 24.7171 130.206 26.0473C111.966 27.3939 96.8493 29.9882 86.6241 33.6673C77.3372 37.0089 72.733 39.4626 69.8014 41.4808C68.3335 42.4913 67.2379 43.4242 66.1068 44.4062C66.026 44.4763 66.1068 44.4062 64.75 45.5C63.7125 46.3364 63.7735 46.4347 62.431 47.4074L51.1427 58.7953C50.2466 59.6993 48.9572 60.91 47.5933 62.1906C46.7371 62.9946 45.8516 63.8261 45.0155 64.6266C42.6921 66.8512 40.7936 68.7974 40.0289 69.9346C39.2186 71.1397 38.4236 72.2725 37.6512 73.3732C33.4915 79.3003 29.9866 84.2945 28.2784 94.615C26.8052 103.516 25.2844 115.595 24.3237 135.777C23.3634 155.949 22.9774 176.524 23.7234 187.619C25.1764 209.229 31.609 231.588 39.8428 248.628C44.2691 257.788 46.978 262.168 51.8614 266.478C57.2505 271.234 65.9642 276.468 83.9299 285.18C90.9958 288.607 103.864 292.232 120.948 295.138C137.7 297.988 157.419 299.969 177.481 300.585C197.57 301.201 217.664 300.439 235.24 297.936C253.1 295.393 267.071 291.228 275.912 285.843C309.193 265.575 323.743 239.233 325.349 219.434C326.589 204.14 327.293 177.173 326.743 150.8C326.464 137.408 325.865 124.603 324.924 113.749C323.978 102.838 322.699 101.475 321.115 96.0772C316.44 80.1431 312.62 70.021 306.801 61.9812C301.257 54.3199 293.188 47.6284 278.172 40.3174C271.997 37.311 260.03 34.0396 243.472 31.2881C227.33 28.6055 208.083 26.6142 188.242 25.6389ZM129.785 20.3298C148.082 18.979 168.499 18.9284 188.523 19.9128C208.547 20.8971 228.017 22.9082 244.411 25.6325C261.055 28.3985 273.716 31.7721 280.678 35.1621C296.228 42.7332 305.169 49.9532 311.441 58.6182C317.887 67.5248 321.926 78.4921 326.612 94.4619C328.367 100.445 329.68 102.295 330.631 113.253C331.586 124.269 332.19 137.206 332.471 150.68C333.023 177.181 332.319 204.353 331.058 219.898C329.27 241.948 313.34 269.761 278.889 290.741C269.068 296.722 254.195 301.028 236.046 303.612C218.063 306.173 197.628 306.939 177.306 306.315C157 305.691 137.017 303.687 119.988 300.79C102.758 297.859 89.2436 294.128 81.4319 290.34C63.4713 281.629 54.11 276.106 48.0729 270.778C42.305 265.688 39.194 260.454 34.6859 251.124C26.1516 233.463 19.5132 210.389 18.008 188.004C17.2377 176.548 17.6414 155.68 18.6018 135.504C19.5618 115.338 21.0926 102.949 22.6271 93.6781C24.5591 82.0052 28.7893 75.9971 33.034 69.9684C33.7853 68.9013 34.537 67.8337 35.2765 66.7338C36.4547 64.9816 38.8524 62.5936 41.0556 60.4841C42.0067 59.5734 42.9411 58.6966 43.8098 57.8815C45.0955 56.6752 46.2372 55.6039 47.076 54.7577L58.7051 43.026L58.9044 42.8839C60.1093 42.0251 61.0589 41.2 62.138 40.2624C62.2092 40.2006 62.2809 40.1383 62.3533 40.0754C63.5171 39.0651 64.8112 37.9578 66.5551 36.7573C70.047 34.3534 75.1545 31.702 84.6861 28.2724C95.633 24.3335 111.352 21.6907 129.785 20.3298Z" fill="#0D3D5D"/>
<path fill-rule="evenodd" clip-rule="evenodd" d="M124.616 1.21441C144.945 -0.286431 167.629 -0.342613 189.877 0.751049C212.125 1.84466 233.757 4.07916 251.971 7.10593C270.464 10.1791 284.527 13.9271 292.259 17.6916C309.534 26.1025 319.464 34.1217 326.428 43.7439C333.587 53.6354 338.074 65.8166 343.28 83.5606C345.229 90.2051 346.688 100.472 347.744 112.648C348.806 124.887 349.476 139.26 349.788 154.231C350.402 183.675 349.62 213.866 348.219 231.137C346.233 255.624 328.541 286.519 290.269 309.826C289.459 310.32 288.617 310.803 287.745 311.276C289.876 312.233 291.953 313.84 293.442 316.537C295.245 319.803 296.067 324.53 294.363 329.547C292.647 334.598 288.48 339.64 280.845 343.789C273.152 347.97 262.828 350.054 252.753 349.999C242.694 349.944 232.444 347.754 225.001 342.938C222.101 341.062 219.755 339.14 217.903 337.171C217.054 338.638 215.754 339.872 213.956 340.615C208.351 342.929 200.023 345.955 193.492 347.685C181.841 350.772 173.89 350.772 162.239 347.685C154.384 345.605 143.894 341.638 138.654 339.273C137.394 338.705 136.27 337.79 135.488 336.6C133.561 338.768 131.046 340.881 127.866 342.938C120.424 347.754 110.174 349.944 100.115 349.999C90.0394 350.054 79.7153 347.97 72.0222 343.789C64.3874 339.64 60.2206 334.598 58.5045 329.547C56.8003 324.53 57.6223 319.803 59.4253 316.537C62.6545 310.688 68.6503 309.966 71.9659 309.88C71.6015 309.713 71.2469 309.546 70.9023 309.379C50.9461 299.701 40.5481 293.565 33.8438 287.648C27.44 281.997 23.9855 276.186 18.977 265.821C9.49617 246.2 2.12125 220.567 0.44915 195.699C-0.406611 182.972 0.0418393 159.787 1.10898 137.37C2.17564 114.962 3.87649 92.9849 5.58109 82.6859C6.85008 75.0188 10.3923 66.1349 14.221 58.2511C18.0714 50.3226 22.3336 43.1591 25.2195 38.8669L25.4571 38.5125C27.1568 35.9717 29.2747 32.8555 35.2654 28.5854C41.883 23.8684 53.4592 17.6138 74.5149 10.0377C86.6741 5.66263 104.137 2.7264 124.616 1.21441ZM189.568 7.04976C167.521 5.96598 145.101 6.02551 125.08 7.50362C104.812 8.99996 88.012 11.8827 76.6467 15.9721C55.8835 23.443 44.8937 29.4646 38.9208 33.7221C33.8039 37.3694 32.1614 39.8253 30.7446 41.9439L30.4472 42.3877C27.7268 46.4337 23.6112 53.3416 19.8882 61.0078C16.1436 68.7185 12.917 76.9526 11.7975 83.7165C10.1603 93.6083 8.47043 115.246 7.40299 137.67C6.33604 160.083 5.90704 182.946 6.73608 195.276C8.3508 219.291 15.4993 244.139 24.6496 263.075C29.5682 273.254 32.5804 278.126 38.0112 282.918C44.0027 288.206 53.6881 294.023 73.65 303.704C81.5052 307.513 95.8063 311.541 114.79 314.77C133.404 317.937 155.316 320.138 177.609 320.823C199.931 321.508 222.259 320.661 241.79 317.88C261.637 315.054 277.165 310.425 286.994 304.439C323.98 281.914 340.153 252.638 341.939 230.626C343.317 213.631 344.1 183.666 343.489 154.363C343.178 139.482 342.513 125.254 341.467 113.193C340.415 101.069 338.995 91.3377 337.234 85.3374C332.039 67.6327 327.793 56.3812 321.325 47.4433C315.16 38.9252 306.19 31.4872 289.503 23.3625C282.637 20.0198 269.336 16.3844 250.938 13.3271C233.001 10.3462 211.614 8.13346 189.568 7.04976ZM218.264 326.566C222.185 326.32 226.054 326.014 229.853 325.647L247.128 324.38L247.188 324.75C247.365 325.832 247.617 327.193 248.145 328.491C248.689 329.829 249.571 331.222 251.072 332.251C252.572 333.28 254.42 333.76 256.565 333.76C259.351 333.76 261.601 332.898 263.378 331.461C265.09 330.077 266.209 328.282 267.013 326.645C267.596 325.457 268.095 324.162 268.506 323.096C268.571 322.927 268.634 322.764 268.695 322.608C268.762 322.434 268.827 322.268 268.89 322.113C269.459 320.695 269.79 320.188 269.944 320.049C271.084 319.016 272.949 317.866 274.931 316.968C276.988 316.037 278.677 315.602 279.479 315.602C282.57 315.602 286.474 315.769 288.428 319.31C289.49 321.232 290.1 324.287 288.94 327.701C287.792 331.08 284.798 335.118 278.112 338.751C271.484 342.352 262.176 344.317 252.784 344.266C243.376 344.215 234.325 342.144 228.111 338.124C221.71 333.982 219.077 330.125 218.264 326.566ZM141.578 324.74C153.11 325.927 165.21 326.751 177.416 327.126C187.721 327.442 198.051 327.437 208.137 327.067C209.512 327.068 210.94 327.068 212.425 327.068C212.614 328.547 212.924 329.946 213.264 331.182C213.822 333.208 212.945 334.83 211.772 335.315C206.307 337.571 198.232 340.499 192.026 342.143C181.336 344.975 174.395 344.975 163.705 342.143C156.204 340.156 146.012 336.306 141.008 334.047C140.423 333.783 140.155 333.363 140.098 332.993C139.763 330.819 139.729 327.612 141.406 324.932C141.445 324.869 141.499 324.804 141.578 324.74ZM252.63 322.494C256.422 321.787 260.053 321.003 263.508 320.143C263.356 320.523 263.215 320.891 263.076 321.25C262.692 322.246 262.334 323.175 261.871 324.118C261.242 325.399 260.572 326.36 259.778 327.002C259.048 327.592 258.077 328.027 256.565 328.027C255.274 328.027 254.635 327.745 254.31 327.522C253.985 327.299 253.703 326.95 253.451 326.331C253.183 325.672 253.01 324.859 252.841 323.825C252.813 323.652 252.784 323.465 252.753 323.268C252.715 323.022 252.674 322.762 252.63 322.494ZM85.4213 314.702C89.8624 315.998 94.8688 317.25 100.365 318.43C100.247 319.125 100.157 319.865 100.074 320.546L100.011 321.052C99.8388 322.426 99.6469 323.748 99.314 324.924C98.9762 326.118 98.5621 326.9 98.1166 327.362C97.7618 327.729 97.2707 328.027 96.3021 328.027C94.7911 328.027 93.8195 327.592 93.0899 327.002C92.296 326.36 91.6251 325.399 90.9965 324.118C90.5339 323.175 90.1756 322.246 89.7917 321.25C89.633 320.839 89.4698 320.415 89.2932 319.976C88.7885 318.718 88.0452 316.955 86.7673 315.798C86.3553 315.425 85.9028 315.058 85.4213 314.702ZM73.3889 315.602C70.2976 315.602 66.3936 315.769 64.4392 319.31C63.378 321.232 62.7679 324.287 63.9279 327.701C65.0759 331.08 68.0695 335.118 74.7555 338.751C81.3832 342.352 90.692 344.317 100.084 344.266C109.491 344.215 118.542 342.144 124.756 338.124C131.361 333.851 133.953 329.881 134.676 326.229L105.761 321.24L105.695 321.766C105.522 323.148 105.288 324.853 104.825 326.487C104.368 328.103 103.617 329.915 102.237 331.345C100.766 332.869 98.7705 333.76 96.3021 333.76C93.5169 333.76 91.2663 332.898 89.4898 331.461C87.7775 330.077 86.6583 328.282 85.8548 326.645C85.2717 325.457 84.7725 324.162 84.3612 323.095C84.2236 322.738 84.0958 322.407 83.978 322.113C83.4086 320.695 83.0778 320.188 82.9237 320.049C81.7835 319.016 79.9187 317.866 77.9364 316.968C75.8798 316.037 74.1904 315.602 73.3889 315.602Z" fill="#0D3D5D"/>
<path fill-rule="evenodd" clip-rule="evenodd" d="M168.283 39.4954L169.784 41.8916C171.534 44.6845 174.494 47.5883 177.62 48.3731C179.059 48.7343 180.603 48.6731 182.307 47.8498C184.074 46.9962 186.218 45.2189 188.55 41.7842L189.995 39.6549L205.123 44.2291L204.772 47.1466C203.552 57.2916 206.494 81.0826 227.78 94.3998L227.829 94.4301L227.876 94.4619C235.157 99.3544 254.656 106.769 273.604 97.2202C276.865 95.5766 282.09 96.5072 285.979 102.387C288.615 106.372 289.094 111.902 287.934 116.578C286.769 121.278 283.649 126.147 278.004 127.569C276.992 127.825 275.486 128.008 273.844 127.89C272.204 127.772 270.153 127.332 268.301 126.088C268.312 126.095 268.301 126.09 268.263 126.072C268.121 126.006 267.606 125.766 266.562 125.404C265.381 124.996 263.767 124.515 261.8 124.041C257.865 123.094 252.614 122.201 246.716 121.963C234.868 121.486 220.811 123.66 209.404 132.858C196.667 143.128 186.171 146.647 176.318 145.654C166.723 144.687 158.4 139.451 150.13 134.058C145.062 130.752 140.88 127.539 137.378 124.848L137.351 124.827C133.039 121.514 130.06 119.254 127.525 118.125C126.334 117.594 125.439 117.412 124.716 117.426C124.034 117.439 123.291 117.629 122.385 118.201C119.931 119.746 118.909 122.69 119.997 125.726C121.069 128.718 124.488 132.307 131.968 133.637L132.05 133.652L132.132 133.671C137.59 134.913 146.097 137.992 154.299 143.246C162.456 148.472 170.589 156.031 174.913 166.37C177.487 171.277 181.968 183.975 181.149 198.836C180.739 206.276 186.055 216.952 195.473 224.452C204.69 231.792 217.168 235.535 230.526 230.149C243.858 224.774 250.032 218.12 252.999 212.1C256.017 205.975 255.985 200.021 255.93 195.303L255.93 195.287C255.924 194.74 255.917 194.196 255.917 193.679C255.917 190.038 254.24 184.128 250.204 179.29C246.293 174.603 240.179 170.92 231.017 171.359L230.934 171.363H230.85C227.252 171.363 222.134 172.372 218.113 175.317C214.302 178.109 211.143 182.863 211.485 191.257C211.635 194.081 212.399 198.233 214.376 201.561C216.25 204.718 219.121 207.058 223.954 207.058C229.659 207.058 232.295 204.772 233.6 202.233C235.053 199.406 235.155 195.635 234.399 192.535C234.12 191.639 233.819 190.791 233.507 190.006L239.92 187.209C240.42 188.258 240.831 189.426 241.144 190.654C243.089 197.01 244.207 205.827 240.813 213.101C239.058 216.863 236.133 220.115 231.739 222.271C227.403 224.399 221.839 225.364 214.892 224.975L214.865 224.973L214.837 224.971C209.498 224.587 196.305 220.97 190.486 206.756C186.504 197.028 184.646 181.431 193.888 164.494L193.92 164.436L193.953 164.38C196.363 160.331 202.146 154.875 210.549 150.939C219.065 146.951 230.451 144.434 244.184 146.531L244.325 146.553L244.464 146.586C250.454 148.006 258.981 151.406 266.817 156.787C274.617 162.144 282.076 169.705 285.373 179.598C287.121 184.211 290.5 195.967 290.5 207.58V210.096L288.115 210.898C286.836 211.327 285.184 212.451 284.392 214.251C283.676 215.88 283.332 218.835 286.104 223.726L287.083 225.452L273.004 250.285L270.473 249.719C267.943 249.152 264.444 249.114 261.869 250.351C260.662 250.932 259.685 251.774 259.011 252.999C258.326 254.243 257.818 256.132 257.986 259.007L258.12 261.302L228.932 276.012L227.39 275.286C225.382 274.341 221.848 273.362 218.14 273.647C214.548 273.924 210.881 275.362 208.045 279.173L206.995 280.583H173.72L172.697 278.907C171.761 277.375 169.561 275.101 166.222 273.897C163.008 272.738 158.474 272.474 152.557 275.281L150.981 276.028L121.353 260.544L121.026 258.899C120.464 256.064 118.814 251.745 115.813 248.307C112.903 244.973 108.803 242.521 102.983 242.847L101.173 242.949L91.9596 231.341C91.4548 232.169 90.7726 233.084 89.871 233.788C88.737 234.675 86.9633 235.412 84.926 234.727C84.004 234.418 82.8049 233.656 81.7053 232.871C80.464 231.985 78.9345 230.762 77.2624 229.217C73.921 226.13 69.9341 221.684 66.5299 215.943C59.6667 204.369 55.2505 187.63 63.0585 166.643L63.1983 166.267L63.4196 165.933C64.2846 164.625 65.9652 163.354 68.2715 163.297C68.4314 163.293 68.5907 163.295 68.7493 163.303V149.01L70.4381 147.989C72.3065 146.859 74.9183 144.336 76.2134 140.661C77.4554 137.137 77.6094 132.215 74.1096 125.865L73.2775 124.355L85.606 96.1135L87.5987 95.8772C89.7858 95.6179 93.1094 94.4837 95.6478 92.0238C98.0408 89.7048 99.9816 85.9854 99.3084 79.8782L99.1057 78.04L121.752 58.6381L123.662 59.3177C126.015 60.1546 129.565 60.6732 132.571 59.8002C134.012 59.3816 135.283 58.66 136.305 57.5302C137.326 56.4016 138.258 54.6908 138.75 52.0461L139.116 50.0786L168.283 39.4954ZM68.3507 170.29C68.3507 170.29 68.3544 170.29 68.3619 170.292C68.3544 170.291 68.3507 170.29 68.3507 170.29ZM69.0474 170.682C62.8789 188.642 66.7779 202.637 72.5508 212.373C75.5498 217.43 79.0742 221.361 82.0128 224.076C83.4806 225.432 84.7833 226.467 85.7738 227.175C85.9044 227.268 86.0257 227.353 86.1378 227.43C86.7606 226.306 87.2892 224.745 87.5691 223.617L89.2826 216.708L104.453 235.822C111.866 235.952 117.343 239.413 121.087 243.704C124.494 247.607 126.52 252.232 127.498 255.857L151.182 268.235C157.976 265.428 163.876 265.61 168.597 267.312C172.595 268.754 175.588 271.228 177.485 273.583H203.568C207.67 268.904 212.831 267.035 217.602 266.668C221.847 266.341 225.838 267.187 228.74 268.27L250.97 257.067C251.078 254.201 251.725 251.719 252.879 249.624C254.347 246.956 256.498 245.166 258.837 244.042C262.311 242.372 266.229 242.14 269.39 242.466L279.074 225.386C276.437 219.924 276.319 215.221 277.984 211.433C279.246 208.562 281.374 206.593 283.456 205.376C283.07 195.527 280.241 185.783 278.805 182.019L278.776 181.945L278.752 181.87C276.125 173.927 269.974 167.447 262.854 162.557C255.812 157.721 248.158 154.678 242.985 153.429C230.777 151.594 220.835 153.852 213.518 157.279C206.111 160.747 201.56 165.327 200 167.908C191.942 182.719 193.67 196.055 196.965 204.104C201.387 214.907 211.438 217.699 215.313 217.988C221.435 218.327 225.706 217.434 228.655 215.987C230.8 214.935 232.349 213.54 233.459 211.92C230.905 213.278 227.747 214.058 223.954 214.058C216.177 214.058 211.23 209.974 208.357 205.135C205.589 200.474 204.675 195.068 204.494 191.604L204.493 191.585L204.492 191.566C204.051 180.908 208.217 173.889 213.977 169.67C219.497 165.627 226.156 164.379 230.765 164.364C242.246 163.837 250.389 168.586 255.579 174.806C260.655 180.89 262.917 188.384 262.917 193.679C262.917 194.153 262.923 194.661 262.93 195.222L262.931 195.351C262.986 200.073 263.073 207.494 259.277 215.195C255.396 223.07 247.717 230.766 233.143 236.641C216.949 243.171 201.844 238.474 191.112 229.928C180.582 221.541 173.585 208.884 174.16 198.451C174.908 184.876 170.695 173.329 168.657 169.513L168.575 169.36L168.509 169.201C164.936 160.556 158.005 153.934 150.523 149.14C143.087 144.376 135.384 141.601 130.656 140.514C121.439 138.851 115.53 134.012 113.407 128.086C111.293 122.186 113.226 115.697 118.653 112.278C120.521 111.101 122.492 110.467 124.581 110.427C126.629 110.387 128.561 110.923 130.373 111.73C133.76 113.239 137.392 116.03 141.321 119.05C141.419 119.125 141.518 119.201 141.616 119.277C145.13 121.977 149.125 125.045 153.954 128.194C162.431 133.723 169.377 137.919 177.02 138.69C184.407 139.434 193.12 136.996 205.01 127.408C218.231 116.748 234.219 114.454 246.998 114.969C253.415 115.228 259.123 116.197 263.438 117.235C265.596 117.755 267.43 118.298 268.85 118.789C270.134 119.233 271.414 119.746 272.205 120.278C272.718 120.622 273.458 120.844 274.347 120.908C275.233 120.972 275.993 120.857 276.294 120.782C278.53 120.218 280.336 118.137 281.14 114.893C281.951 111.626 281.445 108.22 280.14 106.248C278.897 104.369 277.833 103.79 277.303 103.61C276.932 103.484 276.714 103.51 276.665 103.516C254.704 114.53 232.525 105.995 224.02 100.305C201.514 86.1945 197.036 62.0832 197.587 49.2636L192.806 47.8177C190.458 50.7934 187.969 52.8884 185.352 54.1528C182.094 55.7271 178.861 55.9017 175.916 55.1624C171.471 54.0466 167.902 50.9282 165.516 47.9459L145.169 55.329C144.388 58.1166 143.14 60.41 141.495 62.2269C139.474 64.4606 137.014 65.7992 134.523 66.5225C130.575 67.669 126.454 67.3081 123.316 66.516L106.414 80.9963C106.744 88.2119 104.2 93.4842 100.519 97.0507C97.3927 100.08 93.6034 101.735 90.4712 102.465L81.0513 124.044C84.6322 131.349 84.6461 137.793 82.8155 142.988C81.2486 147.434 78.4086 150.747 75.7493 152.813V177.354L69.7647 171.321C69.4837 171.038 69.2446 170.832 69.0474 170.682ZM181.293 90.2335C177.422 90.2335 174.2 93.4303 174.2 97.4795C174.2 101.529 177.422 104.725 181.293 104.725C185.163 104.725 188.386 101.529 188.386 97.4795C188.386 93.4303 185.163 90.2335 181.293 90.2335ZM167.2 97.4795C167.2 89.6591 173.462 83.2335 181.293 83.2335C189.123 83.2335 195.386 89.6591 195.386 97.4795C195.386 105.3 189.123 111.725 181.293 111.725C173.462 111.725 167.2 105.3 167.2 97.4795Z" fill="#0D3D5D"/>
<path d="M495.87 35.336L489.822 35.3697V38.2893L496.962 38.3117L504.102 38.3454L505.218 42.197C505.844 44.3081 506.371 46.0598 506.396 46.0823C506.42 46.1047 506.776 46.071 507.181 45.9924L507.905 45.8577L508.972 40.7035C509.548 37.8626 510.002 35.4708 509.978 35.3921C509.929 35.2911 509.021 35.2686 505.905 35.2799C503.709 35.3023 499.182 35.3248 495.87 35.336Z" fill="#0D3D5D"/>
<path d="M474.159 36.7058L476.479 37.3322C477.75 37.6838 478.923 38.0355 479.071 38.1344C479.141 38.173 479.204 38.1965 479.259 38.2308C479.743 38.5286 479.713 39.6429 479.713 58.5521C479.713 75.1676 479.688 78.1237 479.54 78.4424C479.51 78.5033 479.49 78.5527 479.462 78.5972C479.311 78.8422 478.916 78.9395 475.146 79.9808C474.134 80.2556 474.035 80.3764 474.22 81.2116L474.294 81.5743H507.168C507.171 81.5743 507.174 81.5743 507.178 81.5743H510.064L509.598 79.3057C509.427 78.4171 509.21 77.3208 508.972 76.148L507.905 70.9938L507.181 70.859C506.776 70.7804 506.42 70.7467 506.396 70.7692C506.371 70.7917 505.844 72.5434 505.218 74.6545L504.102 78.5061L496.962 78.5398L487.119 78.5249V59.2664H488.562C490.92 59.2664 493.734 59.2994 494.82 59.3433C496.585 59.4093 496.807 59.4312 497.042 59.64C497.227 59.8049 497.511 60.6071 498.029 62.3324L498.745 64.7829L499.189 64.717C499.436 64.684 499.868 64.6511 500.165 64.6511H500.683V51.1345H498.733L498.165 53.2444C497.844 54.4092 497.498 55.5521 497.387 55.7829C497.32 55.9207 497.268 56.0339 497.192 56.1271C496.837 56.5613 495.941 56.5618 490.352 56.607L487.119 56.662V46.596C487.119 37.563 487.094 36.475 486.921 36.0794C486.81 35.8377 486.6 35.5739 486.452 35.508C486.279 35.4201 484.341 35.3651 480.182 35.3322L474.159 35.2772V36.7058Z" fill="#0D3D5D"/>
<path d="M398.276 38.066H408.552L408.676 38.4861C408.75 38.7246 409.283 40.8367 409.866 43.176C410.461 45.5152 410.956 47.4456 410.981 47.4683C411.006 47.4911 411.341 47.457 411.712 47.3775C412.258 47.2753 412.419 47.1958 412.469 47.0028C412.518 46.7757 414.514 35.1476 414.514 35.0454C414.514 35.0227 410.857 35 406.395 35H398.276V38.066Z" fill="#0D3D5D"/>
<path d="M434.883 35.9491C434.92 35.7284 434.956 35.4304 434.956 35.2759V35H426.068C417.983 35 417.179 35.011 417.179 35.1766C417.179 35.2759 417.143 35.5739 417.106 35.8498L417.033 36.3354L418.312 36.5782C419.59 36.821 421.003 37.2846 421.758 37.715C421.87 37.777 421.966 37.8011 422.049 37.8487C422.583 38.1567 422.537 39.4493 422.537 58.3865V78.186L422.245 78.5061C421.794 78.9917 420.43 79.4994 418.677 79.8526L417.119 80.1616L417.046 81.5743H434.835L434.859 81.0997C434.871 80.8458 434.883 80.5258 434.883 80.4044C434.896 80.1837 434.762 80.1395 433.508 79.9077C431.961 79.6208 430.439 79.0138 430.074 78.5392C429.867 78.2854 429.855 77.6232 429.818 68.3525L429.782 58.4527H448.388C448.462 58.6805 448.567 59.1014 449.14 61.3366C449.725 63.5719 450.211 65.4165 450.235 65.4382C450.26 65.4599 450.589 65.4274 450.955 65.3514C451.491 65.2538 451.649 65.1778 451.698 64.9934C451.747 64.7763 453.708 55.6559 453.708 55.5583C453.708 55.5572 453.698 55.5561 453.681 55.555L453.708 55.4728H429.782L429.818 46.8422C429.867 39.2932 429.891 38.1785 430.05 37.9578C430.354 37.5384 432.059 36.8652 433.508 36.5893L434.81 36.3465L434.883 35.9491Z" fill="#0D3D5D"/>
<path d="M455.485 58.2871C455.482 45.9259 455.434 38.383 455.363 38.2116C455.193 37.7922 454.864 37.6488 452.624 37.0197C451.48 36.7107 450.543 36.4458 450.531 36.4348C450.519 36.4348 450.47 36.1037 450.421 35.7174L450.348 35H459.234C468.034 35 468.131 35 468.192 35.2207C468.229 35.3421 468.265 35.6622 468.265 35.9381V36.4458L466.026 37.0307C463.616 37.6598 463.092 37.8805 462.91 38.322C462.837 38.4986 462.788 45.7496 462.788 58.254C462.788 70.7584 462.837 78.0757 462.91 78.2523C463.092 78.6937 463.616 78.9144 466.026 79.5435L468.265 80.1285V80.6362C468.265 80.9121 468.229 81.2321 468.192 81.3535C468.131 81.5743 468.034 81.5743 459.234 81.5743H450.348L450.421 80.8569C450.47 80.4706 450.519 80.1395 450.531 80.1395C450.543 80.1285 451.48 79.8636 452.624 79.5546C454.864 78.9255 455.193 78.782 455.363 78.3626C455.434 78.1912 455.482 70.6484 455.485 58.2871Z" fill="#0D3D5D"/>
<path d="M377.31 35.0002C377.521 35.0001 377.734 35 377.949 35H385.898C394.128 35.0036 394.83 35.0411 395.169 35.4114C395.21 35.4567 395.246 35.5071 395.29 35.563C395.472 35.7948 395.484 37.5827 395.484 56.7752C395.484 75.5594 395.508 77.7667 395.678 78.0978C395.994 78.7158 397.426 79.2897 400.156 79.8636C400.896 80.0291 401.588 80.1837 401.709 80.2057C401.879 80.2499 401.916 80.3934 401.916 80.9231V81.5743H382.026L381.954 81.0886C381.808 80.2609 381.832 80.2388 383.046 80.0181C385.4 79.5877 387.293 78.8924 387.888 78.2633L388.203 77.9101V37.98H375.838L375.717 38.3882C375.644 38.62 375.122 40.6728 374.552 42.9463C373.969 45.2198 373.484 47.096 373.46 47.1181C373.435 47.1402 373.108 47.1071 372.744 47.0298C372.21 46.9305 372.052 46.8532 372.003 46.6656C371.959 46.4643 370.331 37.0509 370.044 35.3166C370.016 35.2825 370.001 35.2578 370.001 35.243V35.0002H377.31Z" fill="#0D3D5D"/>
<path d="M726.374 105.966C726.42 105.923 727.928 105.663 729.732 105.381C731.537 105.1 733.113 104.884 733.25 104.862C733.388 104.84 734.05 106.334 734.712 108.13C746.135 139.686 764.626 188.432 766.728 191.397C767.982 193.17 769.412 193.49 773.648 194.44L773.665 194.443L775.744 194.919L775.835 196.305L775.904 197.69H744.919L744.827 196.326C744.759 195.59 744.736 194.941 744.782 194.898C744.804 194.876 746.267 194.443 747.98 193.967C750.27 193.521 750.842 193.379 751.987 192.672C752.307 192.065 751.435 189.552 751.046 188.275C750.521 186.479 743.759 167.93 742.548 164.9L742.114 163.818L728.453 163.753C715.569 163.71 714.792 163.688 714.929 163.32C715.021 163.126 715.569 161.805 716.14 160.42L717.191 157.866L728.567 157.823L739.921 157.758L733.273 139.967C729.595 130.206 726.534 122.22 726.466 122.263C726.397 122.306 719.452 138.431 711.045 158.104C694.346 197.17 695.306 195.136 692.884 196.305C690.737 197.322 689.343 197.495 682.695 197.625L676.459 197.733V196.494C677.568 195.928 686.876 192.604 687.744 191.608C688.406 190.872 689.206 189.141 695.694 174.423C698.572 167.865 703.644 156.524 706.956 149.209C712.713 136.483 721.577 116.701 724.798 109.45C725.62 107.567 726.351 105.987 726.374 105.966Z" fill="#0D3D5D"/>
<path d="M587.653 105.084C584.171 105.194 576.559 105.238 570.77 105.172L560.206 105.062V105.919C560.206 106.469 560.204 106.844 560.352 107.147C560.678 107.814 561.732 108.129 565.142 109.173C569.34 110.447 569.709 110.601 570.124 111.261C570.585 111.942 570.585 112.602 570.585 151.462V158.99H570.724V190.961L570.078 191.598C569.455 192.257 569.224 192.345 562.19 194.346L560.206 194.917L560.298 195.84C560.414 197.269 560.552 197.774 560.875 197.73C560.932 197.73 561.47 197.712 562.326 197.683C563.556 197.64 565.441 197.575 567.495 197.511C570.977 197.401 578.589 197.357 584.378 197.423L594.942 197.533V196.675C594.942 196.126 594.944 195.751 594.796 195.448C594.47 194.781 593.416 194.465 590.006 193.422C585.808 192.147 585.439 191.994 585.024 191.334C584.993 191.288 584.962 191.257 584.933 191.227C584.55 190.833 584.352 190.628 584.335 158.99H584.424V111.634L585.07 110.997C585.693 110.338 585.924 110.25 592.958 108.249L594.942 107.678L594.85 106.755C594.734 105.326 594.596 104.82 594.273 104.864C594.216 104.864 593.678 104.883 592.822 104.912C591.592 104.955 589.707 105.019 587.653 105.084Z" fill="#0D3D5D"/>
<path d="M670.447 174.621C669.843 174.727 669.329 174.833 669.284 174.876C669.24 174.918 667.317 178.711 664.969 183.31L660.744 191.68L649.028 191.807C642.589 191.871 636.374 191.956 635.256 191.977C634.104 191.988 633.176 192.916 633.176 194.056V197.72H651.957C666.803 197.72 670.782 197.656 670.849 197.444C670.939 197.19 672.303 176.105 672.303 174.982C672.303 174.346 672.258 174.346 670.447 174.621Z" fill="#0D3D5D"/>
<path d="M784.465 107.774L789.139 109.219C792.332 110.204 793.928 110.795 794.159 111.101C794.368 111.386 794.553 112.349 794.645 113.729C794.715 114.933 794.761 132.754 794.715 153.312L794.653 186.624L789.374 189.815C787.916 190.543 786.536 191.23 785.319 191.837C782.521 193.231 780.586 194.195 780.555 194.227C780.511 194.273 780.4 194.798 780.289 195.416C780.001 197.267 780.001 197.313 780.666 197.313C780.8 197.313 781.189 197.294 781.772 197.262L790.319 197.251C800.059 197.251 800.73 197.208 801.656 196.814C802.211 196.573 802.72 196.179 802.835 195.894C802.951 195.609 802.974 178.445 802.905 157.756C802.835 134.746 802.882 120.165 802.997 120.253C803.113 120.318 810.979 137.767 820.442 159.048L837.679 197.733L839.183 197.602C839.539 197.564 839.955 197.523 840.36 197.482C840.9 197.428 841.42 197.377 841.751 197.339L842.815 197.208L872.267 131.068L872.221 121.763L872.152 112.459L859.913 139.913C853.18 155.019 846.679 169.578 845.476 172.271L843.278 177.175L842.884 176.431C842.676 176.015 835.388 159.748 826.689 140.285L810.864 104.862L808.897 105.037C806.283 105.234 788.977 105.234 786.362 105.015L784.326 104.862L784.465 107.774Z" fill="#0D3D5D"/>
<path d="M519.025 107.543L521.181 107.939C525.1 108.642 527.837 109.895 528.44 111.236C528.718 111.873 528.764 114.753 528.764 128.819V145.634H483.313V151.568H528.764L528.718 171.327L528.648 191.109L527.999 191.746C527.002 192.735 524.382 193.768 521.552 194.296L519.025 194.757V195.747C519.025 196.296 519.094 196.933 519.164 197.175C519.28 197.615 519.465 197.615 536.092 197.615H552.881V196.23C552.881 195.307 552.789 194.823 552.603 194.779C552.441 194.735 550.957 194.406 549.333 194.032C545.901 193.263 543.606 192.318 542.98 191.439C542.585 190.845 542.562 189.241 542.562 151.326V111.807L543.049 111.192C544 109.983 547.71 108.466 551.328 107.829L552.881 107.565V106.642C552.881 106.159 552.812 105.543 552.742 105.301C552.626 104.862 552.441 104.862 535.814 104.862H519.025V107.543Z" fill="#0D3D5D"/>
<path d="M451.404 104.945C451.395 104.941 451.387 104.938 451.383 104.937C451.491 104.846 457.962 104.874 464.893 104.937C471.35 104.996 477.632 105.096 477.9 105.192C478.201 105.301 478.665 105.719 478.92 106.115C479.384 106.84 479.384 107.258 479.384 142.138V142.139C479.384 161.547 479.454 180.581 479.547 184.427C479.686 191.373 479.709 191.439 480.219 191.9C480.544 192.186 482.352 192.845 484.764 193.549C486.967 194.186 488.845 194.823 488.938 194.955C489.031 195.087 489.124 195.747 489.124 196.406V197.615H455.313L455.174 196.208C455.082 195.439 455.035 194.801 455.082 194.757C455.12 194.739 456.538 194.352 458.412 193.84C458.778 193.739 459.163 193.634 459.557 193.527C463.244 192.538 464.079 192.23 464.682 191.68L465.424 190.999L465.586 179.372C465.803 165.546 465.668 126.751 465.423 114.957L460.382 112.464C458.92 111.734 457.537 111.043 456.317 110.434C453.513 109.035 451.573 108.067 451.542 108.035C451.498 107.989 451.387 107.461 451.276 106.842C451.029 105.252 450.993 104.988 451.404 104.945Z" fill="#0D3D5D"/>
<path d="M416.858 105.031C407.445 105.561 398.01 108.168 390.856 112.215C379.319 118.721 372.098 130.503 370.488 145.485C369.75 152.372 369.839 157.776 370.823 163.264C372.343 171.889 376.547 179.433 383.187 185.494C391.102 192.699 401.945 196.767 415.494 197.615C426.829 198.336 439.126 195.708 446.236 191.046C448.539 189.541 448.673 189.372 448.427 188.355C448.293 187.91 448.136 187.295 448.069 186.998L447.958 186.469L444.134 187.677C438.299 189.52 433.783 190.325 428.037 190.537C415.785 191.025 404.405 187.295 396.691 180.281C388.173 172.525 384.26 162.735 384.73 150.359C385.11 141.099 386.764 133.872 389.917 127.918C393.002 122.133 396.065 118.678 400.872 115.606C406.931 111.728 415.494 109.884 424.638 110.499C427.105 110.66 433.629 111.863 436.767 112.569L438.255 119.349C438.57 120.755 438.868 122.086 439.13 123.26C439.732 125.956 440.149 127.822 440.17 127.855C440.2 127.903 440.635 128.114 441.15 128.344C442.705 128.998 442.745 129.008 442.891 128.44C443.149 127.437 446.916 108.159 446.895 107.911C446.761 107.699 443.486 106.939 440.468 106.388C433.425 105.074 424.683 104.565 416.858 105.031Z" fill="#0D3D5D"/>
<path d="M885.395 105.53L877.323 105.633C877.01 105.637 876.713 105.771 876.504 106.001L876.005 106.55C875.821 106.753 875.718 107.017 875.718 107.291V148.697C875.718 193.265 875.765 191.382 874.651 192.28C874.396 192.477 872.4 193.156 870.218 193.813C868.014 194.448 866.111 195.017 865.972 195.105C865.809 195.193 865.786 195.696 865.879 196.485L866.041 197.733H883.075C898.53 197.733 900.132 197.711 899.992 197.383C899.923 197.186 899.853 196.616 899.853 196.091V195.127L895.142 193.703C892.032 192.762 890.269 192.105 889.967 191.798C889.526 191.338 889.526 190.55 889.433 160.414C889.387 143.419 889.433 125.548 889.526 120.707C889.689 112.56 889.735 111.881 890.13 111.465C890.385 111.202 892.288 110.523 895.026 109.691C897.486 108.947 899.621 108.333 899.737 108.29C899.876 108.246 899.923 107.654 899.853 106.822L899.737 105.421H896.836C895.235 105.399 890.083 105.464 885.395 105.53Z" fill="#0D3D5D"/>
<path d="M602.529 104.948L602.515 104.939L615.519 104.862C627.706 104.936 629.237 104.916 629.934 105.665C630.062 105.803 630.162 105.967 630.295 106.162C630.689 106.735 630.712 109.18 630.781 151.066C630.827 180.547 630.781 195.618 630.619 196.125C630.539 196.383 630.483 196.593 630.369 196.764C629.859 197.525 628.187 197.515 617.97 197.623L606.616 197.733L606.477 196.345C606.385 195.574 606.338 194.913 606.385 194.869C606.431 194.825 608.443 194.252 610.848 193.591C613.253 192.93 615.449 192.269 615.727 192.137C615.867 192.065 615.991 192.029 616.101 191.968C617.008 191.462 616.952 189.248 616.952 151.419C616.952 129.251 616.943 119.526 616.852 115.15L611.489 112.485C610.031 111.752 608.652 111.06 607.435 110.45C604.639 109.047 602.705 108.076 602.674 108.044C602.63 107.998 602.519 107.469 602.408 106.848C602.164 105.265 602.127 104.994 602.529 104.948Z" fill="#0D3D5D"/>
<path d="M750.498 222.416C756.131 222.459 762.412 222.416 764.452 222.306C770.154 221.977 784.757 222.13 787.863 222.569C794.77 223.513 799.197 224.917 803.021 227.353C804.783 228.472 807.704 231.479 808.909 233.41C811.389 237.295 812.2 241.113 812.015 247.719C811.783 255.334 810.184 259.833 805.826 265.056C801.074 270.805 792.869 274.514 782.184 275.809C779.333 276.16 773.538 276.336 771.475 276.16L769.667 275.985V270.74L771.591 270.915C776.041 271.332 780.144 270.915 783.992 269.686C786.704 268.786 788.28 267.843 790.551 265.714C793.402 263.037 795.164 260.008 796.137 256.08C796.81 253.359 796.995 246.226 796.462 243.33C794.932 234.924 789.717 229.679 781.141 227.968C777.223 227.2 769.018 227.156 764.985 227.88L764.336 228.012L764.22 313.599L763.455 314.236L762.714 314.872H735.826V312.772C737.342 312.481 742.965 311.317 745.028 310.724C749.2 309.517 749.409 309.43 750.081 308.727C750.544 308.245 750.545 307.829 750.614 269.307L750.614 269.094C750.661 235.429 750.614 229.833 750.336 229.175C749.896 228.187 748.088 227.331 744.333 226.3C739.952 225.137 740.23 225.29 740.23 223.688V222.328L750.498 222.416Z" fill="#0D3D5D"/>
<path d="M647.403 227.768C646.996 227.447 635.924 224.11 634.208 224.11V222.129L647.358 222.193C662.044 222.279 661.005 222.15 661.638 223.823C661.909 224.573 661.977 228.948 662.112 253.436C662.225 281.72 662.316 284.958 663.039 289.033C664.778 298.918 669.862 304.987 678.109 307.045C680.911 307.753 683.397 308.01 687.238 308.01C693.044 308.01 697.767 307.152 701.404 305.394C708.544 302.006 712.295 296.238 713.899 286.202C714.283 283.843 714.306 281.699 714.238 256.117C714.193 232.25 714.148 228.519 713.854 228.09C713.131 227.061 709.651 225.86 705.336 225.152L704.477 225.002V222.129H719.028C733.421 222.129 733.602 222.129 733.715 222.558C733.783 222.793 733.85 223.437 733.85 223.994C733.85 224.938 733.805 225.024 733.308 225.024C732.404 225.024 728.608 225.817 727.253 226.31C725.784 226.825 724.27 227.811 723.886 228.497C723.66 228.883 723.57 235.252 723.434 255.688C723.278 284.01 723.276 284.018 722.119 289.174L722.079 289.354C721.062 293.772 718.983 298.661 716.746 301.856C715.345 303.85 712.272 306.895 710.103 308.439C704.138 312.663 695.733 314.872 685.769 314.872C668.484 314.851 656.509 308.461 651.719 296.688C649.007 289.998 648.578 284.101 648.804 256.867C648.917 243.83 648.872 237.547 648.668 234.137C648.397 229.377 648.217 228.455 647.403 227.768Z" fill="#0D3D5D"/>
<path d="M478.46 222.718C480.593 222.567 483.574 222.372 485.088 222.285C496.211 221.656 505.638 222.935 511.922 225.927C518.16 228.875 522.059 233.623 523.16 239.563C523.871 243.356 523.481 249.34 522.334 252.635C520.453 258.033 516.188 262.78 510.431 265.902C509.192 266.574 505.706 267.983 503.275 268.785C501.624 269.327 501.509 269.414 501.762 269.826C502.519 271.192 518.642 294.756 523.297 301.325C527.082 306.657 528.618 308.24 531.072 309.346C531.898 309.714 532.792 310.083 533.091 310.169L537.953 312.054V314.353L536.301 314.527C533.251 314.83 527.999 314.96 525.568 314.809C522.151 314.613 519.788 314.093 517.541 313.096C515.958 312.381 515.27 311.904 513.756 310.451C510.591 307.395 505.706 300.327 497.014 286.236C490.271 275.289 489.767 274.552 488.23 273.186C486.831 271.972 485.684 271.495 484.217 271.495C482.68 271.495 482.68 271.473 482.68 268.872V266.509H484.24C487.015 266.509 493.299 265.88 495.179 265.425C496.189 265.165 497.977 264.515 499.17 263.973C500.936 263.17 501.647 262.694 503.069 261.328C505.661 258.856 506.945 256.515 507.862 252.635C508.436 250.207 508.413 242.771 507.816 240.386C506.486 234.902 503.115 231.043 498.046 229.157C495.111 228.073 493.115 227.813 487.496 227.813C484.652 227.813 481.235 227.9 479.882 227.986L477.405 228.181L477.428 259.203C477.451 276.286 477.52 294.171 477.611 298.962C477.749 307.351 477.772 307.698 478.231 308.283C478.643 308.804 479.354 309.085 482.772 310.083C484.996 310.733 486.923 311.427 487.038 311.6C487.152 311.774 487.267 312.424 487.267 313.009V314.093H470.547L453.828 314.115L453.668 312.814C453.599 312.12 453.599 311.47 453.713 311.383C453.805 311.297 455.846 310.646 458.255 309.953C460.8 309.194 462.841 308.478 463.185 308.197L463.759 307.741L463.828 268.698C463.873 234.989 463.828 229.547 463.552 229.027C463.002 228.051 460.915 227.184 457.36 226.426C455.594 226.057 454.034 225.645 453.851 225.515C453.668 225.363 453.553 224.8 453.553 224.041V222.805L464.08 222.892C471.167 222.957 475.845 222.892 478.46 222.718Z" fill="#0D3D5D"/>
<path d="M417.938 222.325C405.615 223.23 395.602 226.472 387.519 232.198C384.966 234.009 380.836 238.072 378.971 240.577C376.151 244.367 373.309 250.177 371.999 254.725C370.578 259.799 369.978 264.346 370.001 270.409C370.001 275.546 370.356 278.283 371.666 282.936C374.486 293.041 380.947 301.988 389.185 307.252C391.294 308.599 395.979 310.81 398.51 311.673C403.195 313.252 409.19 314.304 415.94 314.746C422.984 315.188 431.452 314.429 440.569 312.543H442.813V312.058C443.825 311.831 444.845 311.59 445.871 311.336L446.692 311.125V273.462L419.398 273.525L419.412 273.534C419.02 273.578 419.056 273.841 419.294 275.376C419.402 275.978 419.51 276.491 419.553 276.535C419.583 276.566 421.468 277.507 424.192 278.866C425.377 279.458 426.721 280.129 428.141 280.838L433.305 283.392C433.341 285.772 433.349 289.407 433.326 294.409L433.259 308.094L430.373 308.578C426.243 309.273 418.915 309.441 415.496 308.936C403.573 307.167 395.268 301.399 389.873 291.167C387.497 286.704 385.854 281.715 385.033 276.515C384.5 273.104 384.5 264.493 385.033 260.43C385.921 253.777 387.253 249.398 389.873 244.409C395.113 234.535 402.462 229.461 413.942 227.883C417.072 227.44 423.09 227.44 426.509 227.883C429.018 228.177 434.88 229.356 435.124 229.588C435.191 229.651 436.256 233.356 437.522 237.819C438.765 242.283 439.831 245.967 439.876 246.009C440.009 246.135 441.941 245.862 442.251 245.672C442.407 245.567 443.384 241.272 444.561 235.377C446.426 226.219 446.581 225.23 446.27 224.956C445.848 224.598 439.121 223.335 435.146 222.851C429.107 222.114 423.245 221.946 417.938 222.325Z" fill="#0D3D5D"/>
<path d="M556.18 230.635C563.839 225.43 573.557 222.575 584.803 222.239C585.843 222.197 587.238 222.155 587.902 222.134C588.566 222.113 589.651 222.155 590.293 222.218L591.444 222.365V227.56C586.924 227.281 583.43 227.403 583.43 227.403C570.303 227.864 562.134 232.335 557.353 241.718C554.807 246.671 553.39 252.212 552.704 259.769C552.416 263.043 552.416 271.46 552.726 274.671C553.567 284.18 556.003 291.736 559.965 297.361C564.968 304.393 571.454 308.213 580.929 309.64C583.563 310.039 590.581 309.997 593.614 309.556C609.464 307.226 617.499 297.025 619.315 276.98C619.625 273.727 619.625 264.428 619.337 261.343C617.765 244.887 610.991 233.93 599.856 229.837C598.572 229.376 597.355 228.83 597.155 228.641C596.868 228.347 596.757 227.696 596.624 225.492C596.513 223.54 596.536 222.722 596.713 222.722C597.421 222.722 602.026 223.687 604.261 224.296C613.67 226.857 621.307 232.062 626.576 239.514C630.671 245.307 633.106 252.275 633.969 260.692C634.346 264.26 634.102 272.908 633.549 276.351C632.11 285.124 629.188 292.009 624.273 298.243C622.547 300.426 618.518 304.351 616.348 305.946C610.327 310.417 603.265 313.166 594.433 314.489C590.204 315.118 579.468 315.181 575.505 314.594C562.909 312.726 553.745 307.877 547.148 299.544C542.632 293.835 539.82 287.097 538.426 278.554C537.939 275.574 537.739 267.22 538.072 263.736C539.09 253.094 542.455 244.656 548.454 237.604C550.247 235.505 553.944 232.167 556.18 230.635Z" fill="#0D3D5D"/>
</svg>
