<svg width="1080" height="1080" viewBox="0 0 1080 1080" fill="none" xmlns="http://www.w3.org/2000/svg">
<path fill-rule="evenodd" clip-rule="evenodd" d="M570.268 198.603C524.916 196.374 478.797 196.496 437.614 199.537C395.923 202.615 361.37 208.544 337.998 216.954C316.771 224.592 306.247 230.2 299.546 234.813C296.191 237.123 293.687 239.255 291.101 241.5C290.917 241.66 291.101 241.5 288 244C285.629 245.912 285.768 246.136 282.699 248.36L256.898 274.389C254.849 276.455 251.902 279.223 248.785 282.15C246.828 283.988 244.804 285.888 242.893 287.718C237.582 292.803 233.242 297.251 231.495 299.85C229.643 302.605 227.825 305.194 226.06 307.71C216.552 321.258 208.541 332.673 204.636 356.263C201.269 376.607 197.793 404.218 195.597 450.347C193.402 496.455 192.52 543.484 194.225 568.844C197.546 618.237 212.249 669.345 231.069 708.293C241.187 729.231 247.378 739.242 258.54 749.093C270.858 759.963 290.775 771.926 331.84 791.841C347.99 799.674 377.402 807.958 416.453 814.601C454.742 821.115 499.814 825.643 545.672 827.05C591.588 828.46 637.517 826.717 677.69 820.997C718.514 815.185 750.447 805.663 770.656 793.356C846.727 747.029 879.983 686.819 883.654 641.564C886.49 606.606 888.099 544.966 886.842 484.686C886.204 454.076 884.835 424.808 882.683 399.998C880.52 375.058 877.598 371.942 873.978 359.605C863.292 323.184 854.56 300.048 841.26 281.671C828.587 264.16 810.143 248.865 775.822 232.154C761.708 225.282 734.354 217.805 696.508 211.516C659.611 205.384 615.617 200.832 570.268 198.603ZM436.651 186.468C478.473 183.381 525.141 183.265 570.911 185.515C616.678 187.765 661.181 192.362 698.653 198.589C736.697 204.911 765.636 212.622 781.55 220.371C817.093 237.676 837.53 254.179 851.864 273.984C866.598 294.342 875.831 319.411 886.541 355.913C890.554 369.588 893.555 373.817 895.727 398.865C897.911 424.044 899.29 453.614 899.933 484.412C901.196 544.985 899.587 607.093 896.704 642.625C892.616 693.025 856.205 756.596 777.462 804.551C755.012 818.222 721.017 828.064 679.534 833.971C638.431 839.823 591.721 841.574 545.271 840.148C498.856 838.723 453.183 834.141 414.259 827.52C374.875 820.82 343.985 812.293 326.13 803.633C285.077 783.724 263.68 771.099 249.881 758.921C236.697 747.287 229.586 735.323 219.282 713.998C199.775 673.629 184.602 620.89 181.161 569.724C179.401 543.538 180.323 495.84 182.519 449.724C184.713 403.629 188.212 375.312 191.719 354.121C196.135 327.441 205.804 313.708 215.506 299.928C217.223 297.489 218.942 295.048 220.632 292.535C223.325 288.529 228.805 283.071 233.841 278.249C236.015 276.168 238.151 274.164 240.137 272.301C243.075 269.543 245.685 267.095 247.602 265.16L274.183 238.345L274.639 238.02C277.393 236.057 279.563 234.171 282.03 232.028C282.192 231.887 282.356 231.745 282.522 231.601C285.182 229.292 288.14 226.761 292.126 224.017C300.107 218.522 311.782 212.462 333.568 204.623C358.59 195.62 394.519 189.579 436.651 186.468Z" fill="#0D3D5D"/>
<path fill-rule="evenodd" clip-rule="evenodd" d="M424.837 142.776C471.302 139.345 523.152 139.217 574.005 141.717C624.856 144.216 674.301 149.324 715.933 156.242C758.203 163.267 790.348 171.833 808.021 180.438C847.506 199.663 870.203 217.993 886.121 239.986C902.484 262.595 912.74 290.438 924.64 330.996C929.096 346.183 932.43 369.65 934.844 397.481C937.271 425.455 938.803 458.309 939.516 492.529C940.92 559.83 939.132 628.836 935.929 668.313C931.389 724.284 890.95 794.9 803.472 848.174C801.62 849.302 799.696 850.407 797.703 851.488C802.575 853.676 807.322 857.349 810.725 863.513C814.846 870.978 816.725 881.784 812.83 893.249C808.908 904.796 799.383 916.32 781.932 925.804C764.348 935.359 740.75 940.122 717.721 939.997C694.729 939.872 671.301 934.866 654.289 923.859C647.66 919.57 642.296 915.177 638.064 910.677C636.123 914.03 633.153 916.851 629.043 918.548C616.23 923.839 597.196 930.755 582.267 934.709C555.638 941.764 537.462 941.764 510.832 934.709C492.879 929.954 468.9 920.888 456.922 915.482C454.044 914.183 451.475 912.091 449.686 909.371C445.283 914.328 439.535 919.156 432.265 923.859C415.254 934.866 391.826 939.872 368.834 939.997C345.804 940.122 322.206 935.359 304.622 925.804C287.171 916.32 277.647 904.796 273.725 893.249C269.829 881.784 271.708 870.978 275.829 863.513C283.21 850.143 296.915 848.494 304.494 848.297C303.66 847.915 302.85 847.534 302.062 847.152C256.448 825.03 232.681 811.006 217.357 797.482C202.72 784.565 194.824 771.282 183.376 747.59C161.706 702.744 144.849 644.154 141.027 587.313C139.071 558.222 140.096 505.228 142.535 453.988C144.973 402.771 148.861 352.537 152.757 328.996C155.657 311.472 163.754 291.166 172.505 273.145C181.306 255.023 191.048 238.649 197.645 228.839L198.188 228.029C202.073 222.221 206.914 215.098 220.607 205.338C235.733 194.556 262.192 180.26 310.32 162.943C338.112 152.943 378.027 146.232 424.837 142.776ZM573.299 156.114C522.906 153.637 471.658 153.773 425.897 157.151C379.571 160.571 341.17 167.16 315.193 176.508C267.734 193.584 242.614 207.348 228.962 217.079C217.266 225.416 213.512 231.029 210.273 235.872L209.594 236.886C203.376 246.134 193.968 261.924 185.459 279.446C176.9 297.071 169.525 315.892 166.966 331.352C163.224 353.962 159.361 403.419 156.921 454.674C154.482 505.905 153.502 558.163 155.397 586.345C159.088 641.236 175.427 698.031 196.342 741.315C207.584 764.581 214.469 775.716 226.883 786.671C240.578 798.756 262.716 812.052 308.343 834.18C326.298 842.887 358.986 852.094 402.377 859.475C444.924 866.713 495.008 871.744 545.964 873.309C596.985 874.875 648.022 872.939 692.663 866.582C738.027 860.123 773.519 849.542 795.986 835.86C880.525 784.376 917.493 717.458 921.574 667.146C924.725 628.3 926.513 559.809 925.117 492.829C924.407 458.817 922.887 426.295 920.495 398.727C918.092 371.016 914.845 348.772 910.821 335.057C898.947 294.589 889.242 268.871 874.456 248.442C860.365 228.972 839.862 211.971 801.72 193.4C786.028 185.76 755.626 177.45 713.574 170.462C672.574 163.649 623.689 158.591 573.299 156.114ZM638.889 886.437C647.852 885.875 656.695 885.176 665.378 884.335L704.865 881.441L705.001 882.286C705.405 884.76 705.982 887.869 707.188 890.837C708.431 893.896 710.449 897.079 713.88 899.431C717.308 901.783 721.531 902.88 726.435 902.88C732.802 902.88 737.946 900.91 742.007 897.626C745.92 894.461 748.478 890.36 750.315 886.617C751.648 883.901 752.788 880.943 753.728 878.504C753.877 878.12 754.021 877.746 754.159 877.391C754.314 876.992 754.463 876.613 754.605 876.259C755.906 873.017 756.662 871.859 757.015 871.54C759.621 869.18 763.883 866.55 768.414 864.498C773.115 862.37 776.977 861.375 778.809 861.375C785.874 861.375 794.798 861.759 799.265 869.851C801.691 874.244 803.085 881.227 800.434 889.031C797.81 896.755 790.967 905.983 775.685 914.288C760.536 922.52 739.259 927.01 717.792 926.893C696.289 926.776 675.601 922.044 661.397 912.855C646.765 903.388 640.748 894.571 638.889 886.437ZM463.606 882.264C489.966 884.977 517.624 886.86 545.522 887.716C569.076 888.439 592.689 888.427 615.742 887.582C618.885 887.583 622.148 887.584 625.544 887.584C625.975 890.964 626.684 894.162 627.461 896.987C628.735 901.618 626.733 905.327 624.05 906.435C611.56 911.592 593.102 918.284 578.917 922.042C554.483 928.514 538.616 928.514 514.182 922.042C497.038 917.5 473.742 908.698 462.305 903.537C460.968 902.933 460.354 901.972 460.224 901.127C459.459 896.159 459.381 888.829 463.213 882.701C463.302 882.558 463.426 882.409 463.606 882.264ZM717.44 877.13C726.107 875.514 734.407 873.722 742.303 871.755C741.957 872.624 741.633 873.464 741.317 874.285C740.439 876.561 739.62 878.685 738.562 880.84C737.126 883.768 735.592 885.966 733.778 887.434C732.11 888.782 729.889 889.776 726.435 889.776C723.484 889.776 722.024 889.131 721.28 888.621C720.537 888.112 719.892 887.315 719.317 885.9C718.704 884.394 718.309 882.535 717.923 880.171C717.858 879.775 717.791 879.348 717.721 878.897C717.634 878.337 717.542 877.741 717.44 877.13ZM335.249 859.32C345.4 862.281 356.843 865.143 369.407 867.84C369.137 869.427 368.93 871.12 368.74 872.677L368.597 873.833C368.203 876.974 367.764 879.996 367.003 882.684C366.231 885.412 365.285 887.201 364.266 888.256C363.456 889.096 362.333 889.776 360.119 889.776C356.665 889.776 354.445 888.782 352.777 887.434C350.962 885.966 349.429 883.768 347.992 880.84C346.935 878.685 346.116 876.562 345.238 874.286C344.875 873.345 344.503 872.378 344.099 871.373C342.945 868.499 341.246 864.469 338.325 861.824C337.384 860.971 336.349 860.133 335.249 859.32ZM307.746 861.375C300.68 861.375 291.757 861.759 287.29 869.851C284.864 874.244 283.47 881.227 286.121 889.031C288.745 896.755 295.588 905.983 310.87 914.288C326.019 922.52 347.296 927.01 368.762 926.893C390.266 926.776 410.954 922.044 425.157 912.855C440.253 903.088 446.179 894.013 447.83 885.666L381.739 874.262L381.588 875.466C381.192 878.624 380.658 882.521 379.601 886.255C378.555 889.951 376.838 894.092 373.683 897.36C370.321 900.843 365.761 902.88 360.119 902.88C353.753 902.88 348.609 900.91 344.548 897.626C340.634 894.461 338.076 890.36 336.24 886.617C334.907 883.901 333.766 880.941 332.826 878.503C332.511 877.687 332.219 876.929 331.95 876.259C330.648 873.017 329.892 871.859 329.54 871.54C326.934 869.18 322.671 866.55 318.14 864.498C313.44 862.37 309.578 861.375 307.746 861.375Z" fill="#0D3D5D"/>
<path fill-rule="evenodd" clip-rule="evenodd" d="M524.646 230.275L528.078 235.752C532.079 242.136 538.843 248.773 545.989 250.567C549.278 251.393 552.808 251.253 556.702 249.371C560.741 247.42 565.642 243.358 570.971 235.507L574.275 230.64L608.852 241.095L608.05 247.764C605.261 270.952 611.986 325.332 660.641 355.771L660.752 355.84L660.86 355.913C677.502 367.096 722.07 384.044 765.38 362.218C772.834 358.461 784.777 360.588 793.666 374.026C799.691 383.136 800.787 395.777 798.136 406.465C795.471 417.207 788.34 428.336 775.438 431.587C773.124 432.17 769.681 432.59 765.929 432.32C762.18 432.05 757.493 431.044 753.26 428.2C753.285 428.217 753.258 428.205 753.174 428.165C752.849 428.014 751.672 427.464 749.284 426.638C746.585 425.705 742.895 424.605 738.4 423.523C729.406 421.358 717.403 419.317 703.923 418.774C676.841 417.682 644.711 422.651 618.638 443.674C589.525 467.15 565.533 475.194 543.014 472.924C521.08 470.714 502.056 458.745 483.154 446.417C471.57 438.862 462.013 431.518 454.007 425.367L453.946 425.32C444.089 417.746 437.28 412.58 431.486 409.999C428.763 408.786 426.717 408.37 425.065 408.402C423.506 408.432 421.809 408.867 419.736 410.173C414.129 413.706 411.792 420.434 414.278 427.373C416.728 434.212 424.543 442.416 441.641 445.457L441.829 445.49L442.016 445.533C454.492 448.372 473.937 455.409 492.685 467.42C511.328 479.364 529.918 496.642 539.802 520.274C545.684 531.49 555.928 560.515 554.055 594.483C553.118 611.487 565.27 635.889 586.796 653.033C607.863 669.811 636.384 678.365 666.917 666.056C697.39 653.769 711.502 638.559 718.283 624.8C725.182 610.801 725.108 597.19 724.983 586.407L724.983 586.37C724.968 585.12 724.954 583.876 724.954 582.695C724.954 574.373 721.119 560.863 711.894 549.806C702.956 539.092 688.981 530.674 668.04 531.679L667.848 531.688H667.656C659.432 531.688 647.736 533.993 638.545 540.725C629.833 547.106 622.613 557.973 623.395 577.159C623.737 583.614 625.484 593.104 630.001 600.711C634.286 607.927 640.849 613.277 651.895 613.277C664.935 613.277 670.961 608.051 673.944 602.247C677.263 595.786 677.497 587.167 675.769 580.081C675.131 578.033 674.443 576.094 673.73 574.298L688.388 567.906C689.531 570.304 690.471 572.974 691.186 575.78C695.633 590.309 698.187 610.463 690.43 627.088C686.419 635.687 679.732 643.12 669.689 648.049C659.778 652.912 647.061 655.118 631.183 654.229L631.119 654.225L631.055 654.221C618.853 653.342 588.698 645.074 575.397 612.585C566.295 590.351 562.048 554.699 583.173 515.985L583.245 515.854L583.322 515.725C588.83 506.472 602.048 493.999 621.255 485.004C640.72 475.889 666.746 470.135 698.135 474.929L698.457 474.978L698.774 475.053C712.467 478.3 731.957 486.071 749.867 498.37C767.697 510.614 784.746 527.896 792.281 550.509C796.277 561.053 804 587.924 804 614.468V620.22L798.548 622.052C795.626 623.033 791.848 625.601 790.039 629.717C788.401 633.441 787.615 640.195 793.953 651.374L796.19 655.319L764.01 712.081L758.225 710.785C752.442 709.49 744.443 709.404 738.559 712.232C735.799 713.558 733.567 715.483 732.026 718.283C730.46 721.128 729.299 725.444 729.682 732.016L729.988 737.262L663.274 770.883L659.748 769.225C655.158 767.066 647.082 764.828 638.605 765.48C630.396 766.112 622.014 769.398 615.532 778.109L613.132 781.333H537.075L534.736 777.502C532.597 773.999 527.569 768.802 519.937 766.051C512.589 763.401 502.227 762.799 488.702 769.214L485.1 770.922L417.377 735.528L416.632 731.77C415.345 725.288 411.576 715.418 404.716 707.558C398.065 699.937 388.693 694.335 375.39 695.08L371.252 695.311L350.193 668.779C349.04 670.671 347.48 672.763 345.419 674.374C342.827 676.4 338.773 678.084 334.117 676.52C332.009 675.812 329.268 674.072 326.755 672.277C323.918 670.25 320.422 667.457 316.6 663.926C308.962 656.869 299.849 646.706 292.068 633.584C276.381 607.13 266.287 568.868 284.134 520.898L284.453 520.039L284.959 519.275C286.936 516.285 290.778 513.381 296.049 513.251C296.415 513.242 296.779 513.246 297.141 513.264V480.595L301.001 478.261C305.272 475.678 311.242 469.911 314.202 461.511C317.041 453.456 317.393 442.205 309.393 427.692L307.491 424.241L335.671 359.688L340.226 359.148C345.225 358.555 352.821 355.963 358.624 350.34C364.093 345.04 368.529 336.538 366.991 322.579L366.527 318.377L418.29 274.03L422.657 275.583C428.034 277.496 436.148 278.682 443.019 276.686C446.314 275.729 449.218 274.08 451.554 271.498C453.889 268.918 456.019 265.008 457.143 258.962L457.98 254.465L524.646 230.275ZM296.23 529.234C296.23 529.234 296.239 529.235 296.256 529.239C296.239 529.236 296.23 529.234 296.23 529.234ZM297.823 530.13C283.723 571.182 292.635 603.171 305.831 625.423C312.685 636.982 320.741 645.968 327.458 652.174C330.813 655.274 333.79 657.64 336.054 659.257C336.353 659.47 336.63 659.664 336.886 659.84C338.31 657.271 339.518 653.703 340.158 651.124L344.075 635.333L378.75 679.021C395.694 679.318 408.212 687.231 416.771 697.038C424.558 705.96 429.188 716.53 431.423 724.815L485.56 753.109C501.088 746.692 514.575 747.109 525.364 750.999C534.504 754.294 541.344 759.95 545.681 765.333H605.299C614.674 754.639 626.47 750.367 637.377 749.527C647.079 748.781 656.202 750.713 662.835 753.187L713.646 727.581C713.893 721.032 715.372 715.358 718.008 710.568C721.365 704.47 726.281 700.381 731.627 697.811C739.569 693.994 748.523 693.464 755.749 694.209L777.883 655.168C771.855 642.683 771.585 631.934 775.392 623.276C778.277 616.714 783.14 612.213 787.899 609.43C787.017 586.918 780.551 564.648 777.268 556.044L777.203 555.875L777.146 555.703C771.142 537.549 757.084 522.736 740.809 511.559C724.712 500.505 707.218 493.549 695.395 490.696C667.489 486.501 644.765 491.662 628.041 499.494C611.11 507.423 600.71 517.89 597.142 523.79C578.725 557.644 582.674 588.126 590.205 606.523C600.314 631.217 623.288 637.598 632.145 638.257C646.138 639.033 655.9 636.993 662.64 633.685C667.543 631.279 671.083 628.092 673.62 624.388C667.783 627.493 660.565 629.277 651.895 629.277C634.12 629.277 622.812 619.942 616.244 608.88C609.918 598.226 607.828 585.87 607.414 577.951L607.412 577.908L607.41 577.865C606.403 553.504 615.924 537.46 629.091 527.817C641.708 518.576 656.929 515.723 667.462 515.688C693.705 514.485 712.319 525.339 724.18 539.556C735.782 553.463 740.954 570.592 740.954 582.695C740.954 583.778 740.967 584.939 740.982 586.222L740.986 586.516C741.111 597.31 741.309 614.273 732.634 631.873C723.762 649.875 706.211 667.464 672.899 680.895C635.883 695.819 601.357 685.083 576.829 665.549C552.759 646.38 536.765 617.449 538.08 593.602C539.79 562.574 530.161 536.18 525.501 527.458L525.315 527.109L525.164 526.744C516.997 506.986 501.155 491.848 484.054 480.892C467.056 470.003 449.448 463.659 438.642 461.174C417.575 457.373 404.068 446.313 399.216 432.769C394.384 419.282 398.802 404.451 411.208 396.635C415.477 393.946 419.982 392.497 424.756 392.405C429.437 392.314 433.854 393.539 437.996 395.383C445.737 398.831 454.038 405.211 463.019 412.114C463.244 412.286 463.469 412.459 463.694 412.633C471.725 418.804 480.858 425.817 491.895 433.016C511.271 445.652 527.148 455.244 544.618 457.005C561.503 458.707 581.418 453.134 608.595 431.219C638.813 406.853 675.359 401.609 704.568 402.787C719.233 403.378 732.28 405.593 742.144 407.967C747.077 409.154 751.268 410.395 754.515 411.518C757.45 412.533 760.375 413.704 762.184 414.92C763.355 415.707 765.048 416.215 767.078 416.361C769.105 416.507 770.841 416.246 771.529 416.072C776.64 414.784 780.767 410.027 782.606 402.613C784.458 395.145 783.302 387.36 780.321 382.853C777.479 378.557 775.047 377.234 773.836 376.823C772.988 376.534 772.49 376.595 772.376 376.609C722.18 401.784 671.487 382.275 652.047 369.268C600.604 337.016 590.368 281.904 591.628 252.602L580.699 249.298C575.332 256.099 569.645 260.888 563.663 263.778C556.215 267.376 548.824 267.775 542.093 266.085C531.934 263.535 523.775 256.407 518.322 249.591L471.814 266.466C470.03 272.838 467.176 278.08 463.418 282.233C458.798 287.338 453.174 290.398 447.481 292.051C438.457 294.672 429.038 293.847 421.864 292.037L383.232 325.134C383.987 341.627 378.17 353.678 369.758 361.83C362.612 368.755 353.951 372.537 346.791 374.206L325.26 423.529C333.445 440.227 333.477 454.956 329.293 466.829C325.711 476.992 319.22 484.565 313.141 489.286V545.38L299.462 531.592C298.82 530.945 298.273 530.473 297.823 530.13ZM554.384 346.248C545.537 346.248 538.171 353.555 538.171 362.81C538.171 372.066 545.537 379.372 554.384 379.372C563.23 379.372 570.597 372.066 570.597 362.81C570.597 353.555 563.23 346.248 554.384 346.248ZM522.171 362.81C522.171 344.935 536.485 330.248 554.384 330.248C572.282 330.248 586.597 344.935 586.597 362.81C586.597 380.686 572.282 395.372 554.384 395.372C536.485 395.372 522.171 380.686 522.171 362.81Z" fill="#0D3D5D"/>
</svg>
