<svg width="800" height="800" viewBox="0 0 800 800" fill="none" xmlns="http://www.w3.org/2000/svg">
<path fill-rule="evenodd" clip-rule="evenodd" d="M566.413 16.4146C605.492 23.3824 639.465 32.5022 660.857 43.677C700.424 64.3469 726.398 85.8189 745.115 113.567C763.499 140.821 773.995 172.91 784.836 212.55C794.14 246.574 798.28 312.752 799.554 378.303C800.842 444.575 799.22 512.938 796.207 552.792C791.143 619.764 747.147 697.817 659.844 754.862C630.681 773.917 590.209 785.645 546.196 792.369C501.839 799.145 452.286 801.069 403.756 799.471C355.196 797.871 307.25 792.731 266.019 785.205C225.19 777.753 189.567 767.721 166.504 755.72C125.002 734.125 99.2631 718.448 81.2741 701.415C62.6767 683.806 53.2173 665.555 42.427 641.596C21.1054 594.253 4.73174 533.122 0.991901 473.445C-0.873256 443.683 0.0727226 390.733 2.32785 339.905C4.58076 289.126 8.21301 238.829 11.9762 214.435C15.2138 193.447 24.444 168.536 34.2538 147.219C44.0083 126.023 55.3511 106.194 63.9008 95.7457C70.0295 88.2563 78.8804 77.87 96.4524 65.5798C113.723 53.5003 138.967 39.883 177.8 24.8915C237.379 1.89113 338.869 -3.23115 432.877 1.72703C480.356 4.23114 526.833 9.35775 566.413 16.4146ZM431.057 35.7552C337.526 30.8222 242.461 36.4903 190.237 56.6515C153.158 70.966 130.579 83.3926 116.217 93.4381C102.155 103.273 95.5621 111.093 90.5368 117.234C84.7375 124.321 74.8252 141.051 65.4693 161.381C56.1686 181.592 48.433 203.176 45.9002 219.594C42.4504 241.958 38.8696 290.573 36.6143 341.404C34.3613 392.186 33.504 443.543 35.2454 471.329C38.7186 526.751 54.0371 583.899 73.7569 627.685C84.1462 650.754 91.4003 663.916 104.959 676.754C119.126 690.168 140.986 703.971 182.434 725.538C200.846 735.118 232.38 744.418 272.224 751.691C311.667 758.89 357.912 763.865 404.894 765.413C451.908 766.962 499.25 765.064 540.977 758.689C583.047 752.262 617.846 741.511 640.978 726.396C721.018 674.098 757.852 604.891 761.983 550.242C764.892 511.767 766.515 444.53 765.241 378.96C763.953 312.668 759.722 250.759 751.715 221.479C740.916 181.99 731.577 154.732 716.6 132.53C701.957 110.822 681.046 92.7289 644.877 73.8339C628.4 65.2264 598.808 56.8117 560.347 49.9543C522.386 43.186 477.348 38.1967 431.057 35.7552Z" fill="#175269"/>
<path fill-rule="evenodd" clip-rule="evenodd" d="M382.967 99.1675L386.644 104.911C393.842 116.154 417.208 124.422 435.732 103.809L439.361 99.7708L476.621 110.798L475.743 117.939C472.637 143.222 480.107 202.623 534.461 235.906L534.579 235.979L534.695 236.055C553.299 248.291 603.144 266.857 651.602 242.954C659.645 238.987 672.749 241.135 682.618 255.739C689.301 265.63 690.528 279.388 687.577 291.033C684.606 302.759 676.683 314.767 662.506 318.263C659.972 318.888 656.183 319.341 652.051 319.05C647.926 318.76 642.781 317.678 638.135 314.622C638.15 314.632 638.127 314.622 638.063 314.592C637.744 314.443 636.406 313.821 633.615 312.876C630.592 311.852 626.467 310.649 621.445 309.466C611.399 307.099 597.994 304.868 582.938 304.274C552.688 303.08 516.769 308.513 487.621 331.517C455.209 357.098 428.579 365.801 403.647 363.341C379.327 360.942 358.208 347.948 337.125 334.49C326.192 327.511 316.897 320.709 308.881 314.71C307.367 313.576 305.909 312.48 304.502 311.422C298.347 306.794 293.156 302.891 288.41 299.769C282.55 295.915 278.277 293.888 274.826 293.212C271.84 292.627 269.187 292.986 265.996 294.953C259.61 298.891 257.035 306.313 259.81 313.893C262.564 321.416 271.36 330.445 290.553 333.786L290.752 333.821L290.949 333.865C304.806 336.951 326.432 344.609 347.287 357.687C368.022 370.688 388.702 389.499 399.699 415.239C406.241 427.445 417.657 459.091 415.572 496.133C414.525 514.712 428.086 541.379 452.137 560.127C475.685 578.482 507.634 587.883 541.844 574.383C577.862 560.169 593.468 542.356 600.528 526.551C606.971 512.127 606.832 498.486 606.719 487.379C606.705 485.97 606.691 484.603 606.691 483.28C606.691 474.187 602.413 459.42 592.098 447.319C582.093 435.581 566.41 426.323 542.909 427.427L542.706 427.436H542.503C533.267 427.436 520.138 429.968 509.816 437.367C500.019 444.391 491.972 456.305 492.843 477.246C493.225 484.291 495.173 494.663 500.225 502.991C505.02 510.895 512.428 516.844 524.939 516.844C539.647 516.844 546.474 511.053 549.831 504.656C553.55 497.573 553.805 488.145 551.876 480.403C551.164 478.165 550.396 476.047 549.6 474.084C547.872 469.823 549.858 464.97 554.088 463.112C558.318 461.254 563.271 463.06 565.284 467.195C566.553 469.801 567.598 472.706 568.394 475.762C573.347 491.601 576.185 513.56 567.559 531.657C563.102 541.009 555.686 549.065 544.577 554.401C533.613 559.667 519.523 562.066 501.883 561.1L501.815 561.096L501.748 561.091C488.281 560.142 454.801 551.192 440.017 515.844C429.884 491.617 425.155 452.757 448.675 410.569L448.753 410.429L448.837 410.291C454.95 400.241 469.632 386.675 490.979 376.89C512.603 366.979 541.518 360.72 576.401 365.934L576.741 365.985L577.077 366.063C592.285 369.593 613.959 378.049 633.882 391.44C653.709 404.767 672.673 423.579 681.055 448.205C685.505 459.693 694.11 488.994 694.11 517.937V524.089L688.227 526.024C686.24 526.677 682.104 529.906 679.893 535.962C677.871 541.498 677.615 549.181 682.908 558.21L685.405 562.47L649.681 624.147L643.532 622.799C637.267 621.426 629.368 621.598 623.204 624.809C617.691 627.682 612.195 633.675 611.286 647.228L610.958 652.113L538.364 687.922L535.202 687.055C523.16 683.755 514.483 682.323 506.826 683.477C499.564 684.57 492.226 688.166 483.414 697.161L480.887 699.74H397.315L394.78 695.844C390.827 689.768 382.702 684.147 372.782 681.73C363.019 679.351 352.576 680.334 343.974 685.959L339.785 688.698L263.788 649.821L263.054 645.652C260.972 633.815 256.244 624.579 248.915 618.003C241.584 611.426 230.891 606.829 215.635 605.646L211.943 605.359L188.68 576.671C187.375 578.84 185.573 581.298 183.149 583.152C180.314 585.322 175.948 587.079 170.949 585.435C168.868 584.751 167.105 583.393 166.174 582.649C164.95 581.67 163.605 580.442 162.196 579.047C159.362 576.243 155.931 572.426 152.195 567.784C144.716 558.491 135.769 545.581 127.744 530.244C111.802 499.775 98.8637 458.473 110.114 416.716C110.964 413.558 113.118 411.673 114.641 410.702C116.197 409.71 117.833 409.173 119.173 408.862C121.889 408.234 124.939 408.185 127.882 408.533C129.025 408.668 130.222 408.872 131.45 409.154L129.706 372.131L134.124 369.516C138.948 366.661 145.633 360.324 148.944 351.13C152.117 342.316 152.508 330.017 143.575 314.153L141.483 310.438L172.803 240.212L177.669 239.647C183.324 238.991 191.872 236.129 198.395 229.942C204.55 224.104 209.493 214.786 207.777 199.545L207.268 195.025L264.699 146.865L269.327 148.476C275.373 150.581 284.517 151.897 292.293 149.687C296.032 148.624 299.327 146.79 301.969 143.931C304.605 141.08 306.986 136.785 308.242 130.181L309.153 125.383L382.967 99.1675ZM549.997 528.031C543.366 531.739 535.045 533.882 524.939 533.882C505.332 533.882 492.825 523.814 485.525 511.782C478.494 500.191 476.165 486.734 475.705 478.101L475.702 478.054L475.7 478.008C474.579 451.448 485.187 434.009 499.772 423.553C513.758 413.527 530.631 410.434 542.298 410.398C571.385 409.09 592.022 420.855 605.197 436.312C618.092 451.441 623.851 470.093 623.851 483.28C623.851 484.436 623.868 485.699 623.887 487.059C624.035 498.073 624.27 515.424 616.214 533.459C606.964 554.167 587.44 574.724 548.182 590.216C507.115 606.422 468.805 594.781 441.541 573.528C414.78 552.669 396.975 521.162 398.438 495.182C400.345 461.321 389.611 432.513 384.406 422.976L384.203 422.603L384.037 422.212C374.918 400.619 357.226 384.07 338.125 372.092C319.14 360.188 299.47 353.251 287.381 350.531C264.036 346.412 249.068 334.426 243.682 319.713C238.302 305.014 243.255 288.919 256.943 280.479C263.789 276.258 270.859 275.069 278.146 276.496C284.967 277.831 291.515 281.374 297.887 285.565C303.13 289.013 308.869 293.33 315.049 297.979C316.415 299.007 317.802 300.05 319.21 301.104C327.113 307.019 336.01 313.522 346.405 320.158C367.979 333.93 385.753 344.454 405.344 346.387C424.324 348.259 446.624 342.109 476.943 318.18C510.526 291.675 551.138 285.967 583.619 287.249C599.929 287.893 614.439 290.304 625.407 292.888C630.892 294.18 635.55 295.529 639.153 296.749C642.423 297.857 645.639 299.121 647.611 300.418C648.987 301.323 650.951 301.892 653.266 302.055C655.575 302.218 657.558 301.928 658.369 301.728C664.265 300.274 668.889 294.953 670.936 286.875C673.004 278.716 671.721 270.194 668.368 265.232C663.115 257.459 659.228 258.304 658.997 258.331C603.25 285.69 546.938 264.486 525.337 250.337C468.046 215.183 456.677 155.025 458.119 123.101L444.662 119.119C421.092 141.265 391.209 134.974 376.507 119.557L323.955 138.222C321.973 145.204 318.792 150.931 314.611 155.453C309.501 160.98 303.292 164.283 297.015 166.067C286.962 168.924 276.449 167.991 268.484 165.992L225.204 202.286C226.061 220.29 219.579 233.412 210.249 242.262C202.273 249.827 192.602 253.927 184.658 255.711L160.592 309.67C169.721 327.871 169.76 343.928 165.102 356.865C161.146 367.853 154.002 376.043 147.311 381.166L150.312 444.879L134.663 429.441C132.322 427.131 128.91 425.813 125.852 425.451C125.776 425.442 125.702 425.434 125.629 425.427C117.905 459.915 128.546 494.818 142.972 522.389C150.432 536.647 158.748 548.633 165.6 557.148C169.03 561.41 172.032 564.725 174.311 566.981C174.35 567.019 174.388 567.057 174.426 567.095C175.928 564.314 177.19 560.632 177.872 557.941L182.075 541.358L220.721 589.016C237.108 590.874 250.413 596.384 260.42 605.362C270.138 614.081 276.126 625.516 279.103 638.489L339 669.13C351.276 662.811 364.916 662.27 376.872 665.183C388.432 668 399.227 674.241 406.306 682.702H473.735C483.551 673.414 493.354 668.273 504.253 666.631C514.736 665.052 525.387 666.869 536.578 669.779L594.687 641.115C596.974 625.349 604.782 615.167 615.231 609.722C623.668 605.326 633.004 604.449 640.872 605.18L665.716 562.288C660.241 550.541 660.416 539.315 663.76 530.155C666.427 522.851 671.241 516.626 676.853 512.833C675.931 488.132 668.664 463.619 664.982 454.174L664.911 453.992L664.849 453.808C658.145 433.965 642.442 417.768 624.262 405.549C606.279 393.462 586.729 385.852 573.503 382.731C542.299 378.136 516.88 383.784 498.171 392.359C479.242 401.036 467.605 412.494 463.605 418.971C443.057 455.939 447.461 489.217 455.865 509.309C467.169 536.337 492.901 543.365 502.899 544.091C518.551 544.941 529.513 542.709 537.104 539.063C542.987 536.237 547.119 532.437 549.997 528.031ZM177.443 569.754C177.443 569.755 177.427 569.745 177.393 569.723C177.426 569.742 177.442 569.754 177.443 569.754Z" fill="#175269"/>
<path fill-rule="evenodd" clip-rule="evenodd" d="M216.303 198.599C220.318 234.246 192.884 246.458 178.665 248.108L151.063 309.996C171.137 345.643 151.063 369.407 138.517 376.834L140.711 423.398C132.681 415.476 119.261 415.731 118.402 418.917C97.4867 496.549 166.119 574.873 173.646 577.349C179.669 579.329 184.52 566.621 186.193 560.02L216.303 597.152C249.675 599.742 266.835 617.632 271.506 644.187L339.256 678.844C361.214 664.487 391.244 674.71 401.987 691.221H477.263C496.777 671.302 513.079 672.154 537.485 678.844L602.725 646.662C604.884 614.481 630.327 611.18 645.382 614.481L675.493 562.496C662.37 540.109 675.493 521.237 685.53 517.937C685.53 490.211 677.166 461.826 672.984 451.099C657.928 406.54 603.562 380.96 575.124 374.358C508.88 364.456 466.219 398.192 456.182 414.695C434.101 454.303 438.667 490.403 447.941 512.576C460.997 543.794 490.646 551.768 502.356 552.594C569.014 556.247 569.632 508.228 560.137 478.088C559.457 475.428 558.576 472.992 557.559 470.902C558.467 473.143 559.338 475.552 560.137 478.088C564.819 496.405 559.996 525.363 524.939 525.363C492.821 525.363 485.109 493.329 484.273 477.651C482.265 430.121 521.593 418.917 542.504 418.917C595.197 416.442 615.271 461 615.271 483.28C615.271 484.521 615.287 485.84 615.303 487.227C615.581 510.747 616.095 554.249 545.013 582.299C469.736 612.005 404.496 540.216 407.005 495.657C409.012 460.01 397.804 429.644 391.95 418.917C371.876 371.388 315 347.953 289.071 342.177C246.414 334.751 241.396 300.094 261.469 287.716C275.604 279.001 288.495 288.696 309.777 304.702C318.719 311.427 329.144 319.267 341.765 327.324C384.422 354.554 419.551 374.358 482.282 324.849C545.013 275.339 635.345 302.569 642.873 307.52C648.895 311.481 657.092 310.821 660.438 309.996C680.511 305.045 685.53 275.339 675.493 260.486C667.463 248.603 658.765 248.934 655.419 250.584C603.227 276.329 550.031 256.36 529.957 243.157C471.743 207.51 463.881 144.138 467.227 116.907L442.134 109.481C419.558 134.603 389.44 125.159 379.403 109.481L316.673 131.76C310.65 163.447 280.707 161.466 266.488 156.515L216.303 198.599ZM416.28 270.23C431.182 270.23 443.263 258.235 443.263 243.439C443.263 228.642 431.182 216.647 416.28 216.647C401.378 216.647 389.297 228.642 389.297 243.439C389.297 258.235 401.378 270.23 416.28 270.23Z" fill="#175269"/>
</svg>
