<?xml version="1.0" encoding="UTF-8"?> <svg xmlns="http://www.w3.org/2000/svg" width="1000" height="435" viewBox="0 0 1000 435" fill="none"><path d="M517.583 48.389H494.699V140.702H476.642V48.389H453.758V31.7322H517.583V48.389Z" fill="#175269"></path><path d="M613.895 31.7322V140.702H595.681V95.246H550.381V140.702H532.167V31.7322H550.381V76.8768H595.681V31.7322H613.895Z" fill="#175269"></path><path d="M655.925 49.9457V77.1882H701.225V95.246H655.925V122.488H710.41V140.702H637.711V31.7322H710.41V49.9457H655.925Z" fill="#175269"></path><path d="M513.847 253.771C523.81 253.771 532.995 249.724 539.533 243.186L552.298 256.106C542.49 265.913 528.947 271.985 513.847 271.985C483.802 271.985 459.206 250.191 459.206 215.943C459.206 183.096 481.934 159.901 513.847 159.901C528.947 159.901 542.49 165.973 552.298 175.936L539.533 188.701C532.995 182.162 523.81 178.115 513.847 178.115C491.43 178.115 477.731 193.993 477.731 215.943C477.731 239.294 493.765 253.771 513.847 253.771Z" fill="#175269"></path><path d="M652.204 161.458V270.428H633.991V224.972H588.691V270.428H570.477V161.458H588.691V206.603H633.991V161.458H652.204Z" fill="#175269"></path><path d="M676.488 270.428V161.458H694.701V270.428H676.488Z" fill="#175269"></path><path d="M737 252.214H777.319V270.428H718.786V161.458H737V252.214Z" fill="#175269"></path><path d="M846.191 257.819H807.896L803.226 270.428H783.611L827.043 158.345L870.631 270.428H851.017L846.191 257.819ZM813.811 242.096H840.275L827.043 204.268L813.811 242.096Z" fill="#175269"></path><path d="M1000 270.428H981.786V203.489L950.497 270.428H933.373L900.059 202.088V270.428H881.846V161.302H900.371L941.779 246.143L981.475 161.302H1000V270.428Z" fill="#175269"></path><path d="M512.446 289.783C583.899 289.783 584.055 401.555 512.446 401.555C440.526 401.555 440.682 289.783 512.446 289.783ZM512.446 383.964C559.614 383.964 559.614 307.53 512.446 307.53C465.433 307.53 465.278 383.964 512.446 383.964Z" fill="#175269"></path><path d="M618.975 354.698H604.186V400.154H585.972V291.184H622.244C622.244 291.184 658.671 291.184 658.671 322.941C658.671 340.532 647.463 348.315 637.655 351.896L659.916 400.154H639.835L618.975 354.698ZM604.186 336.64H622.244C622.244 336.64 640.457 336.64 640.457 322.941C640.457 309.398 622.244 309.398 622.244 309.398H604.186V336.64Z" fill="#175269"></path><path d="M775.125 338.197V400.31H759.246L758.312 390.347C749.439 398.597 740.255 401.711 727.334 401.711C698.068 401.711 675.184 381.318 675.184 345.669C675.184 313.289 699.624 289.627 729.669 289.627C744.769 289.627 758.312 295.699 768.12 305.662L755.355 318.427C748.817 311.888 739.632 307.841 729.669 307.841C709.587 307.841 693.398 321.851 693.398 345.669C693.398 372.289 709.587 383.497 729.669 383.497C740.566 383.497 750.218 378.827 756.911 371.199V354.231H727.957V338.197H775.125Z" fill="#175269"></path><path fill-rule="evenodd" clip-rule="evenodd" d="M305.168 8.90699C326.223 12.6879 344.527 17.6365 356.052 23.7002C377.37 34.9162 391.364 46.5674 401.448 61.6242C411.353 76.4128 417.008 93.8251 422.849 115.335C427.862 133.797 430.092 169.707 430.779 205.276C431.473 241.237 430.599 278.333 428.975 299.959C426.247 336.299 402.543 378.653 355.507 409.607C339.794 419.946 317.989 426.311 294.276 429.959C270.378 433.636 243.68 434.68 217.533 433.812C191.37 432.944 165.538 430.155 143.324 426.072C121.326 422.028 102.134 416.584 89.7079 410.073C67.3476 398.355 53.4803 389.847 43.7884 380.605C33.7686 371.05 28.6721 361.146 22.8585 348.146C11.371 322.457 2.54934 289.285 0.53441 256.903C-0.470487 240.754 0.039181 212.021 1.25418 184.441C2.46799 156.887 4.42495 129.595 6.45244 116.358C8.19682 104.969 13.1698 91.4518 18.455 79.8848C23.7105 68.3831 29.8217 57.6234 34.4281 51.954C37.73 47.89 42.4987 42.2542 51.966 35.5852C61.271 29.0306 74.872 21.6415 95.7941 13.5067C127.893 1.02618 182.574 -1.7533 233.223 0.937128C258.803 2.29592 283.844 5.07775 305.168 8.90699ZM232.242 19.4017C181.85 16.7249 130.632 19.8005 102.495 30.7405C82.5174 38.5079 70.3526 45.2509 62.6144 50.7018C55.0384 56.0385 51.4863 60.2817 48.7789 63.614C45.6543 67.4596 40.3138 76.5377 35.2731 87.5695C30.2622 98.5361 26.0944 110.248 24.7298 119.157C22.8711 131.292 20.9419 157.672 19.7268 185.254C18.513 212.81 18.0511 240.677 18.9893 255.755C20.8605 285.828 29.1137 316.838 39.7383 340.598C45.3357 353.115 49.244 360.257 56.5491 367.224C64.182 374.502 75.9597 381.992 98.2907 393.695C108.21 398.893 125.2 403.94 146.667 407.886C167.918 411.792 192.834 414.492 218.146 415.332C243.476 416.172 268.983 415.143 291.464 411.684C314.13 408.196 332.879 402.362 345.342 394.161C388.465 365.782 408.31 328.229 410.536 298.575C412.104 277.698 412.978 241.213 412.292 205.633C411.597 169.661 409.318 136.068 405.004 120.18C399.186 98.7522 394.154 83.9613 386.085 71.9138C378.196 60.1345 366.93 50.317 347.443 40.0641C338.565 35.3934 322.622 30.8274 301.9 27.1065C281.448 23.4338 257.182 20.7265 232.242 19.4017Z" fill="#175269"></path><path fill-rule="evenodd" clip-rule="evenodd" d="M206.332 53.8104L208.313 56.927C212.191 63.0279 224.78 67.5142 234.761 56.3291L236.716 54.1378L256.79 60.1216L256.318 63.9963C254.644 77.7152 258.669 109.948 287.953 128.008L288.017 128.048L288.079 128.089C298.103 134.728 324.958 144.803 351.065 131.833C355.399 129.68 362.459 130.846 367.776 138.77C371.377 144.137 372.038 151.602 370.448 157.921C368.847 164.284 364.579 170.8 356.94 172.697C355.575 173.036 353.534 173.282 351.308 173.124C349.085 172.967 346.313 172.38 343.81 170.722C343.818 170.727 343.806 170.721 343.771 170.705C343.599 170.624 342.879 170.287 341.375 169.774C339.746 169.218 337.524 168.565 334.818 167.923C329.405 166.639 322.183 165.429 314.071 165.106C297.774 164.458 278.421 167.406 262.717 179.889C245.254 193.77 230.907 198.492 217.474 197.158C204.371 195.856 192.992 188.805 181.634 181.502C175.743 177.715 170.735 174.024 166.417 170.769C165.601 170.154 164.816 169.559 164.057 168.985C160.741 166.474 157.945 164.356 155.388 162.662C152.23 160.57 149.928 159.47 148.069 159.104C146.46 158.787 145.031 158.981 143.311 160.049C139.871 162.185 138.484 166.213 139.979 170.326C141.462 174.408 146.202 179.307 156.542 181.12L156.649 181.139L156.756 181.163C164.221 182.838 175.873 186.993 187.109 194.089C198.28 201.144 209.422 211.351 215.347 225.319C218.872 231.942 225.022 249.114 223.899 269.214C223.335 279.295 230.641 293.765 243.599 303.938C256.286 313.898 273.499 318.999 291.931 311.674C311.337 303.961 319.744 294.295 323.548 285.719C327.019 277.892 326.945 270.491 326.884 264.463C326.876 263.699 326.869 262.957 326.869 262.239C326.869 257.306 324.564 249.293 319.007 242.726C313.616 236.357 305.167 231.333 292.505 231.932L292.396 231.937H292.286C287.31 231.937 280.236 233.311 274.675 237.326C269.397 241.137 265.061 247.602 265.531 258.965C265.736 262.788 266.786 268.416 269.508 272.935C272.091 277.224 276.082 280.452 282.823 280.452C290.747 280.452 294.425 277.31 296.234 273.839C298.238 269.995 298.375 264.879 297.336 260.678C296.952 259.464 296.538 258.314 296.109 257.249C295.179 254.937 296.248 252.304 298.528 251.296C300.807 250.287 303.475 251.267 304.56 253.511C305.243 254.925 305.806 256.502 306.235 258.16C308.904 266.754 310.433 278.67 305.786 288.49C303.384 293.565 299.389 297.936 293.403 300.831C287.497 303.689 279.905 304.991 270.401 304.466L270.365 304.464L270.328 304.462C263.073 303.947 245.035 299.09 237.069 279.909C231.61 266.763 229.062 245.677 241.734 222.785L241.776 222.709L241.821 222.634C245.115 217.18 253.025 209.819 264.526 204.51C276.176 199.131 291.755 195.735 310.549 198.565L310.733 198.592L310.913 198.635C319.107 200.55 330.785 205.138 341.518 212.405C352.201 219.636 362.418 229.844 366.934 243.207C369.332 249.441 373.968 265.34 373.968 281.045V284.384L370.798 285.433C369.728 285.788 367.499 287.54 366.308 290.826C365.219 293.83 365.081 297.999 367.933 302.898L369.278 305.21L350.03 338.678L346.718 337.946C343.342 337.201 339.087 337.294 335.766 339.037C332.795 340.595 329.834 343.847 329.344 351.202L329.168 353.853L290.056 373.283L288.352 372.813C281.865 371.022 277.189 370.245 273.064 370.871C269.152 371.465 265.198 373.416 260.45 378.296L259.089 379.696H214.062L212.696 377.582C210.567 374.285 206.189 371.235 200.845 369.923C195.585 368.633 189.959 369.166 185.324 372.218L183.067 373.704L142.122 352.609L141.727 350.347C140.605 343.923 138.057 338.912 134.109 335.344C130.159 331.774 124.397 329.28 116.178 328.638L114.189 328.482L101.656 312.916C100.952 314.092 99.9813 315.427 98.6758 316.433C97.1482 317.61 94.796 318.564 92.1025 317.671C90.9812 317.3 90.0314 316.563 89.5298 316.159C88.8705 315.628 88.1457 314.962 87.3867 314.205C85.86 312.683 84.0112 310.612 81.9983 308.094C77.9687 303.051 73.1484 296.045 68.825 287.723C60.2358 271.19 53.2648 248.778 59.3261 226.12C59.7844 224.407 60.9447 223.384 61.7653 222.857C62.6036 222.318 63.4849 222.027 64.2071 221.859C65.6703 221.518 67.3137 221.491 68.8993 221.68C69.5149 221.753 70.1597 221.864 70.8217 222.017L69.882 201.927L72.262 200.508C74.8612 198.959 78.463 195.521 80.2466 190.531C81.9562 185.749 82.1671 179.075 77.3539 170.467L76.2267 168.451L93.1016 130.344L95.723 130.038C98.7698 129.682 103.375 128.129 106.89 124.772C110.206 121.604 112.869 116.548 111.944 108.278L111.67 105.825L142.613 79.6921L145.106 80.5665C148.363 81.7087 153.29 82.4227 157.479 81.2234C159.494 80.6466 161.269 79.6516 162.693 78.1004C164.113 76.5535 165.396 74.2228 166.072 70.6389L166.563 68.0358L206.332 53.8104ZM296.324 286.522C292.751 288.535 288.268 289.697 282.823 289.697C272.259 289.697 265.521 284.234 261.588 277.705C257.8 271.416 256.545 264.114 256.297 259.429L256.296 259.404L256.294 259.378C255.69 244.967 261.405 235.504 269.263 229.83C276.799 224.39 285.89 222.711 292.176 222.692C307.847 221.982 318.965 228.366 326.064 236.753C333.011 244.963 336.114 255.084 336.114 262.239C336.114 262.867 336.123 263.552 336.133 264.29C336.213 270.266 336.34 279.681 331.999 289.467C327.016 300.704 316.497 311.859 295.345 320.266C273.22 329.059 252.58 322.743 237.89 311.21C223.472 299.891 213.88 282.795 214.668 268.698C215.695 250.324 209.912 234.692 207.108 229.517L206.998 229.315L206.909 229.102C201.995 217.386 192.463 208.405 182.172 201.906C171.944 195.447 161.346 191.682 154.833 190.207C142.255 187.971 134.191 181.467 131.289 173.484C128.391 165.508 131.059 156.774 138.434 152.195C142.122 149.904 145.931 149.259 149.857 150.033C153.532 150.758 157.06 152.68 160.493 154.954C163.318 156.825 166.41 159.168 169.74 161.691C170.476 162.248 171.223 162.814 171.982 163.386C176.24 166.596 181.033 170.125 186.634 173.725C198.257 181.199 207.833 186.909 218.388 187.958C228.614 188.974 240.629 185.636 256.964 172.652C275.058 158.27 296.938 155.173 314.438 155.868C323.225 156.217 331.043 157.526 336.952 158.928C339.908 159.629 342.417 160.361 344.359 161.023C346.12 161.624 347.853 162.31 348.915 163.014C349.657 163.505 350.715 163.814 351.962 163.902C353.206 163.99 354.274 163.833 354.712 163.725C357.888 162.936 360.379 160.048 361.482 155.665C362.596 151.238 361.905 146.614 360.099 143.921C357.269 139.703 355.174 140.162 355.05 140.176C325.015 155.022 294.675 143.517 283.037 135.839C252.17 116.763 246.045 84.1202 246.822 66.7974L239.572 64.6364C226.873 76.6534 210.773 73.2401 202.852 64.8744L174.538 75.0022C173.47 78.7911 171.756 81.8986 169.504 84.3523C166.751 87.3514 163.405 89.1436 160.024 90.1117C154.607 91.6622 148.943 91.1558 144.652 90.0712L121.333 109.765C121.795 119.534 118.303 126.655 113.276 131.457C108.979 135.562 103.768 137.787 99.4884 138.755L86.5225 168.034C91.4407 177.911 91.4618 186.624 88.9523 193.644C86.8209 199.606 82.9722 204.05 79.3667 206.83L80.9838 241.402L72.5527 233.025C71.2913 231.772 69.4528 231.056 67.8056 230.86C67.7647 230.855 67.7246 230.851 67.6851 230.847C63.524 249.561 69.2569 268.5 77.0292 283.461C81.0485 291.198 85.5287 297.702 89.2208 302.322C91.0688 304.635 92.6861 306.434 93.9139 307.658C93.9348 307.678 93.9555 307.699 93.976 307.719C94.7853 306.21 95.4651 304.213 95.8325 302.752L98.0966 293.754L118.918 319.615C127.747 320.623 134.916 323.612 140.307 328.484C145.543 333.215 148.769 339.42 150.373 346.46L182.644 363.086C189.258 359.657 196.607 359.364 203.048 360.944C209.277 362.473 215.093 365.859 218.906 370.451H255.236C260.524 365.411 265.806 362.621 271.678 361.73C277.326 360.874 283.065 361.859 289.094 363.438L320.401 347.884C321.633 339.33 325.84 333.804 331.47 330.85C336.015 328.465 341.046 327.989 345.284 328.385L358.67 305.111C355.72 298.737 355.814 292.645 357.616 287.675C359.053 283.711 361.647 280.334 364.67 278.275C364.174 264.872 360.258 251.571 358.275 246.446L358.236 246.347L358.203 246.247C354.591 235.48 346.13 226.691 336.336 220.061C326.647 213.502 316.114 209.373 308.988 207.679C292.176 205.186 278.481 208.251 268.401 212.904C258.203 217.612 251.933 223.829 249.778 227.344C238.707 247.403 241.08 265.461 245.608 276.363C251.698 291.03 265.562 294.843 270.949 295.237C279.381 295.698 285.287 294.487 289.377 292.509C292.547 290.975 294.773 288.913 296.324 286.522ZM95.6011 309.162C95.6012 309.163 95.5925 309.158 95.5745 309.145C95.592 309.156 95.601 309.162 95.6011 309.162Z" fill="#175269"></path><path fill-rule="evenodd" clip-rule="evenodd" d="M251.73 63.4364C249.927 78.2123 254.163 112.6 285.527 131.943C296.343 139.107 325.004 149.942 353.123 135.973C354.926 135.077 359.612 134.899 363.938 141.346C369.345 149.405 366.642 165.524 355.826 168.211C354.024 168.659 349.608 169.017 346.363 166.868C342.308 164.182 293.639 149.405 259.841 176.27C226.043 203.136 207.116 192.39 184.134 177.614C161.152 162.838 151.688 149.406 140.873 156.122C130.058 162.838 132.762 181.644 155.744 185.674C169.714 188.808 200.357 201.524 211.172 227.314C214.326 233.135 220.366 249.613 219.284 268.956C217.933 293.135 253.082 332.089 293.639 315.97C334.196 299.85 331.492 274.328 331.492 262.239C331.492 250.15 320.677 225.971 292.287 227.314C281.021 227.314 259.833 233.394 260.914 259.184C261.365 267.692 265.519 285.075 282.823 285.075C301.711 285.075 304.31 269.361 301.787 259.422C301.357 258.046 300.888 256.739 300.399 255.523C300.947 256.657 301.421 257.979 301.787 259.422C306.903 275.776 306.57 301.833 270.656 299.85C264.347 299.403 248.373 295.076 241.339 278.137C236.342 266.105 233.883 246.516 245.779 225.023C251.187 216.068 274.172 197.763 309.861 203.136C325.183 206.718 354.475 220.599 362.586 244.777C364.839 250.598 369.346 266.001 369.346 281.045C363.938 282.836 356.868 293.076 363.938 305.224L347.715 333.432C339.603 331.642 325.896 333.432 324.733 350.894L289.583 368.357C276.434 364.727 267.65 364.265 257.137 375.073H216.58C210.792 366.114 194.613 360.567 182.782 368.357L146.28 349.552C143.764 335.142 134.519 325.434 116.539 324.029L100.316 303.881C99.4142 307.463 96.8011 314.357 93.5567 313.283C89.501 311.94 52.5234 269.44 63.7921 227.314C64.2548 225.585 71.4856 225.448 75.8116 229.746L74.63 204.479C81.3895 200.45 92.2049 187.554 81.3897 168.211L96.2598 134.63C103.921 133.734 118.702 127.107 116.539 107.765L143.577 84.9286C151.238 87.6151 167.371 88.6896 170.615 71.496L204.413 59.4071C209.821 67.9141 226.047 73.038 238.21 59.4071L251.73 63.4364ZM224.281 117.558C216.252 117.559 209.743 124.067 209.743 132.096C209.743 140.125 216.252 146.634 224.281 146.634C232.31 146.634 238.819 140.125 238.819 132.096C238.819 124.067 232.31 117.558 224.281 117.558Z" fill="#175269"></path></svg> 