<svg width="1040" height="1182" viewBox="0 0 1040 1182" fill="none" xmlns="http://www.w3.org/2000/svg">
<path d="M490.017 8.02885C508.572 -2.67635 531.428 -2.67622 549.983 8.02885L1009.98 273.414C1028.56 284.129 1040 303.942 1040 325.385V856.077C1040 877.52 1028.56 897.333 1009.98 908.048L549.983 1173.43C531.428 1184.14 508.572 1184.14 490.017 1173.43L30.0166 908.048C11.4432 897.333 0 877.52 0 856.077V325.385C0 303.942 11.4432 284.129 30.0167 273.414L490.017 8.02885Z" fill="#FFFBEE"/>
<path d="M494.999 105.165C510.47 96.2332 529.53 96.2332 545.001 105.165L928.001 326.297C943.47 335.229 953 351.735 953 369.598V811.864C953 829.727 943.47 846.233 928.001 855.165L545.001 1076.3C529.53 1085.23 510.47 1085.23 494.999 1076.3L111.999 855.165C96.5297 846.233 87 829.727 87 811.864L87 369.598C87 351.735 96.5297 335.229 111.999 326.297L494.999 105.165Z" fill="#FFFBEE"/>
<path d="M658.512 216.436C658.513 209.364 687.416 212.507 728.035 225.08C776.468 239.224 822.558 278.517 843.649 324.094L859.27 356.31L876.455 331.164C891.17 310.605 912.302 293.703 937.835 281.585L966.991 298.413C972.071 301.344 976.617 304.957 980.541 309.097C980.628 309.851 981.519 310.824 983.17 312.062C985.255 314.575 987.128 317.249 988.772 320.057C986.882 324.896 976.812 331.373 956.917 341.379C903.798 368.882 900.674 377.528 949.885 364.17C965.439 359.933 981.263 357.623 997 357.134V420.889C966.75 418.126 939.734 417.354 939.731 420.749C939.743 422.324 957.706 429.396 978.79 436.466C984.859 438.472 990.948 440.953 997 443.851V518.139C979.944 504.991 961.903 492.124 949.104 484.399C942.858 480.473 950.669 493.83 965.51 514.259C979.636 532.703 990.177 552.892 997 574.467V702.614C989.333 729.89 981.155 728.471 976.448 697.355C962.387 610.13 960.822 605.415 949.104 606.987C941.293 608.556 932.699 596.768 923.326 570.052C915.516 548.053 909.268 533.909 908.485 538.619C908.485 542.548 895.988 532.334 881.146 515.046L853.803 483.613L857.709 550.408C863.087 642.982 848.35 837.184 828.887 962.752L741.863 1012.98L753.813 977.888C787.403 877.306 803.808 799.511 814.744 694.213C824.899 590.488 828.023 479.688 820.212 479.684C817.083 479.689 798.338 495.404 778.812 515.046C759.284 534.691 740.534 548.836 737.408 547.266C733.502 544.909 724.908 556.694 717.097 573.981C710.066 590.483 699.913 603.057 694.444 600.7C689.757 599.129 679.603 617.202 671.011 644.704C653.825 698.139 642.887 694.997 642.887 636.061C642.887 579.483 664.761 528.406 706.163 485.972L743.66 448.251L714.756 460.826C699.132 467.112 670.228 481.258 651.479 491.473C632.732 502.474 613.982 508.761 610.076 506.404C606.169 503.262 588.987 515.048 571.803 531.549C546.024 557.481 541.333 559.051 541.333 545.693C541.333 520.547 585.082 460.041 620.234 436.466C638.201 425.465 674.137 411.32 700.696 405.82L748.347 395.604L715.536 390.103C696.788 386.96 681.945 381.457 681.945 378.314C681.943 368.885 578.054 361.814 546.024 369.671C517.122 375.958 517.12 375.958 531.18 360.243C574.144 312.308 668.665 297.377 738.189 328.809C757.719 337.453 776.469 348.454 778.812 353.168C781.937 357.883 788.186 361.811 792.092 361.811C805.369 361.809 774.904 323.308 742.096 298.949C724.129 286.376 713.974 275.371 719.442 275.371C738.971 275.37 728.035 260.441 693.664 240.796C674.135 229.009 658.512 218.008 658.512 216.436Z" fill="#F7EBD5"/>
<path d="M390.488 216.436C390.487 209.364 361.584 212.507 320.965 225.08C272.532 239.224 226.442 278.517 205.351 324.094L189.73 356.31L172.545 331.164C157.83 310.605 136.698 293.703 111.165 281.585L82.0088 298.413C76.929 301.344 72.3835 304.957 68.459 309.097C68.3725 309.851 67.4806 310.824 65.8301 312.062C63.7454 314.575 61.8722 317.249 60.2275 320.057C62.1185 324.896 72.1876 331.373 92.083 341.379C145.202 368.882 148.326 377.528 99.1152 364.17C83.5607 359.933 67.7369 357.623 52 357.134V420.889C82.2497 418.126 109.266 417.354 109.269 420.749C109.257 422.324 91.2944 429.396 70.21 436.466C64.1407 438.472 58.0523 440.953 52 443.851V518.139C69.0564 504.991 87.097 492.124 99.8955 484.399C106.142 480.473 98.331 493.83 83.4902 514.259C69.3637 532.703 58.8229 552.892 52 574.467V702.614C59.6666 729.89 67.8446 728.471 72.5518 697.355C86.6128 610.13 88.178 605.415 99.8955 606.987C107.707 608.556 116.301 596.768 125.674 570.052C133.484 548.053 139.732 533.909 140.515 538.619C140.515 542.548 153.012 532.334 167.854 515.046L195.197 483.613L191.291 550.408C185.913 642.982 200.65 837.184 220.113 962.752L307.137 1012.98L295.187 977.888C261.597 877.306 245.192 799.511 234.256 694.213C224.101 590.488 220.977 479.688 228.788 479.684C231.917 479.689 250.662 495.404 270.188 515.046C289.716 534.691 308.466 548.836 311.592 547.266C315.498 544.909 324.092 556.694 331.903 573.981C338.934 590.483 349.087 603.057 354.556 600.7C359.243 599.129 369.397 617.202 377.989 644.704C395.175 698.139 406.113 694.997 406.113 636.061C406.113 579.483 384.239 528.406 342.837 485.972L305.34 448.251L334.244 460.826C349.868 467.112 378.772 481.258 397.521 491.473C416.268 502.474 435.018 508.761 438.924 506.404C442.831 503.262 460.013 515.048 477.197 531.549C502.976 557.481 507.667 559.051 507.667 545.693C507.667 520.547 463.918 460.041 428.766 436.466C410.799 425.465 374.863 411.32 348.304 405.82L300.653 395.604L333.464 390.103C352.212 386.96 367.055 381.457 367.055 378.314C367.057 368.885 470.946 361.814 502.976 369.671C531.878 375.958 531.88 375.958 517.82 360.243C474.856 312.308 380.335 297.377 310.811 328.809C291.281 337.453 272.531 348.454 270.188 353.168C267.063 357.883 260.814 361.811 256.908 361.811C243.631 361.809 274.096 323.308 306.904 298.949C324.871 286.376 335.026 275.371 329.558 275.371C310.029 275.37 320.965 260.441 355.336 240.796C374.865 229.009 390.488 218.008 390.488 216.436Z" fill="#F7EBD5"/>
<path d="M512.997 386.731C535.255 386.731 556.003 393.193 573.47 404.342L604.814 434.173C617.87 452.552 625.546 475.02 625.546 499.28C631.323 526.877 634.618 547.841 636.024 563.964L651.102 626.672L644.918 643.575L627.19 651.408C625.129 653.47 621.171 659.324 621.831 666.25C622.655 674.907 598.744 698.819 595.446 700.88C592.807 702.53 594.346 706.24 595.446 707.889C592.972 709.675 597.59 709.134 621.006 699.239C650.277 686.871 677.487 654.706 681.61 648.11C685.733 641.514 684.908 610.181 681.61 596.988C678.972 586.434 668.692 571.153 663.882 564.831V558.235L687.382 545.867C719.539 567.717 743.451 651.408 700.162 695.933C665.532 731.553 626.641 747.33 611.524 750.765C612.761 753.376 614.493 759.011 611.524 760.66C610.414 761.276 592.559 767.264 592.559 767.264V768.501C592.559 768.501 586.658 767.157 582.253 768.08V775.089C582.583 792.239 574.557 796.115 569.06 796.939C542.812 796.802 486.359 796.61 470.528 796.939C454.697 797.269 447.853 787.457 447.853 778.799V762.721L440.432 760.66C427.652 755.025 394.671 738.397 364.988 716.959C327.883 690.161 306.858 638.628 320.462 596.988C331.346 563.677 357.429 539.958 369.11 532.262C373.095 542.981 380.571 564.419 378.592 564.419C376.116 564.422 339.427 606.884 359.627 646.461C375.788 678.123 400.992 694.284 411.573 698.407L428.889 700.468L437.134 704.179L457.335 711.187V696.18C456.37 696.019 455.151 695.933 453.626 695.933C436.31 667.899 425.65 650.416 409.513 634.093C378.18 612.242 378.179 610.593 389.311 538.034C389.311 502.756 417.509 430.042 442.911 409.406C459.396 394.564 486.115 386.731 512.997 386.731Z" fill="#EDDEC0"/>
<path d="M509.502 386.939C500.447 387.822 485.759 391.242 485.759 392.565C485.759 393.007 491.17 395.323 497.796 397.64C509.834 401.832 514.14 404.59 513.036 407.458C512.705 408.451 514.803 410.106 519.441 412.423C525.294 415.291 527.282 417.056 531.147 422.792C536.337 430.294 541.969 442.87 544.841 453.24L546.718 459.859L543.847 463.61C539.65 469.236 516.901 489.866 513.699 491.079C511.6 491.851 508.619 491.521 502.435 489.976C492.164 487.439 474.053 485.784 475.158 487.549C475.599 488.211 476.814 488.763 477.919 488.763C479.023 488.763 485.318 491.41 491.943 494.72C506.41 501.89 509.061 502.552 517.564 500.898C527.613 498.912 529.38 499.905 522.423 503.545C519.22 505.2 514.14 508.179 511.269 510.275C498.68 519.321 489.183 520.865 478.912 515.349C469.967 510.495 462.127 508.62 452.188 508.73L443.243 508.84L452.077 511.819C465.44 516.452 471.624 519.983 481.011 528.477C490.839 537.192 495.367 539.729 501.551 539.95C506.631 540.06 508.287 538.185 509.392 531.787C509.723 529.36 510.496 527.374 511.159 527.374C511.711 527.374 514.361 529.58 517.012 532.338C519.772 535.096 522.865 537.302 524.079 537.302C525.184 537.302 528.607 534.765 531.589 531.676C537.221 525.94 552.24 515.239 561.626 510.275C567.7 506.965 573.774 506.744 587.799 509.282C598.621 511.267 598.842 513.033 588.241 513.033C581.173 513.033 568.363 515.46 562.4 517.997C557.982 519.762 544.73 532.118 543.736 535.206C543.295 536.42 539.098 539.619 534.239 542.377C524.632 547.893 522.202 550.541 522.202 555.284C522.202 558.814 523.969 562.676 525.625 562.676C526.178 562.676 527.724 560.911 529.049 558.814C530.264 556.608 532.693 554.181 534.35 553.299L537.442 551.644L533.466 560.469C530.595 566.647 528.828 569.295 527.392 569.295C524.521 569.295 524.079 571.501 526.067 577.017C527.061 579.775 528.828 586.725 529.932 592.461C531.147 598.308 532.693 603.162 533.466 603.383C534.239 603.604 536.669 605.7 538.767 607.906C542.742 612.208 551.688 618.938 553.344 618.938C553.786 618.938 554.227 618.055 554.227 617.062C554.227 616.069 555.221 614.194 556.436 612.87L558.755 610.443L555.442 609.009C550.583 607.023 543.847 599.301 541.417 592.903C538.767 586.063 538.436 562.896 540.865 554.512C543.074 547.01 550.473 539.509 559.197 536.089C565.271 533.662 567.479 533.441 585.149 533.441H604.474L612.205 537.302C626.23 544.363 630.095 553.188 629.101 576.134C628.659 584.188 627.886 590.034 626.671 592.792C624.463 597.867 618.278 604.817 613.088 608.016C609.444 610.333 609.333 610.443 611.542 611.988C614.524 613.973 614.524 618.276 611.652 621.144C608.339 624.454 599.505 624.233 595.529 620.703C592.437 618.166 592.437 618.166 589.124 620.151C584.817 622.799 581.283 622.799 578.854 620.262C576.977 618.386 576.756 618.386 573.111 620.813C571.013 622.247 567.811 623.35 565.933 623.35C559.749 623.461 565.492 625.557 575.431 626.77C589.235 628.425 591.002 631.955 580.842 637.14C574.105 640.56 568.915 640.67 563.614 637.581C561.406 636.258 559.418 635.375 559.197 635.706C558.976 635.927 560.964 638.905 563.725 642.435C566.486 645.855 568.363 648.724 567.921 648.724C565.602 648.724 558.534 641.663 548.595 629.308C542.411 621.696 537.221 615.739 537 615.959C536.669 616.18 538.988 623.571 542.08 632.176C548.154 649.606 548.706 653.578 545.393 655.343C542.411 656.997 542.632 658.542 546.497 662.513C550.804 666.926 552.902 675.2 554.227 692.299C555.663 711.164 555.663 711.605 553.234 711.605C551.467 711.605 551.135 710.391 550.694 701.897C550.252 694.726 549.258 690.203 546.828 684.025C544.951 679.502 542.853 672.994 542.08 669.684C541.307 666.374 540.313 662.955 539.871 662.072C538.436 659.314 536.448 671.67 535.896 687.335C535.564 695.498 535.123 704.324 534.791 706.861C534.239 711.494 534.129 711.605 530.153 711.605H525.957L522.202 688.217C520.104 675.421 517.895 664.72 517.233 664.499C516.46 664.278 516.239 672.442 516.46 687.886L516.901 711.605H513.036H509.281L508.508 703.993C507.735 695.498 503.428 680.495 501.662 679.944C500.889 679.723 500.668 682.371 500.999 688.328C501.22 693.182 501.109 700.352 500.668 704.324L499.895 711.605H495.698H491.391L490.066 705.206C488.41 697.705 486.091 692.52 484.655 693.402C483.992 693.844 483.551 698.036 483.551 702.89V711.605H479.354C475.599 711.605 475.047 711.274 474.164 708.075C473.501 706.089 472.176 704.324 471.182 704.103C469.526 703.772 469.194 704.544 469.194 707.744C469.194 711.936 466.986 713.811 464.335 711.715C462.127 709.84 461.133 697.815 463.01 693.623C464.998 688.769 472.176 682.591 474.606 683.584C481.894 686.673 485.207 684.687 484.103 677.958C483.33 672.111 485.097 670.125 489.624 671.89C493.269 673.324 493.71 672.994 495.146 667.698C496.029 664.389 497.134 663.396 500.115 662.403C502.214 661.631 503.981 660.528 503.981 659.866C503.981 659.093 500.778 657.439 496.803 656.005C488.078 652.916 477.366 647.62 473.612 644.421L470.851 642.105L473.612 639.898C482.998 632.286 483.771 630.521 477.256 631.404C452.629 634.493 449.758 634.603 443.684 632.948C432.862 629.97 415.966 623.681 413.426 621.585C411.99 620.372 407.794 616.842 404.039 613.642C398.517 609.009 396.861 608.127 395.646 609.119C393.438 610.885 393.769 613.201 396.309 614.525C397.524 615.187 399.732 617.614 401.278 620.041C402.935 622.689 410.223 628.977 421.156 637.14C430.653 644.201 438.163 650.268 437.831 650.599C437.5 651.04 432.972 650.599 427.893 649.827C422.813 649.055 417.843 648.724 416.739 649.055C415.082 649.716 415.082 650.047 416.849 652.805C417.843 654.57 421.598 657.99 425.132 660.528C432.31 665.713 433.304 667.367 437.721 680.495C440.703 689.1 441.144 689.872 448.323 695.609C452.519 699.029 455.942 701.897 455.942 702.117C455.942 702.338 451.415 701.125 445.783 699.36C436.506 696.491 435.402 696.381 433.745 697.925C431.316 700.132 429.107 699.47 418.616 693.844L410.665 689.431L400.174 695.167C390.456 700.352 389.352 701.235 385.597 707.633L381.4 714.583L381.732 725.615L382.063 736.757L393.879 742.714C400.395 746.024 408.898 750.106 412.874 751.761C419.941 754.629 420.162 754.96 422.371 761.027L424.58 767.315L432.862 769.191C437.39 770.184 442.58 771.287 444.457 771.618L447.881 772.28L449.316 751.099C450.973 726.056 452.629 720.651 459.808 716.9C461.464 715.907 461.354 716.459 459.035 719.217C455.059 723.85 454.617 728.042 455.059 754.629C455.501 780.774 456.163 783.091 464.777 787.504C469.636 789.931 469.857 789.931 522.533 789.931C574.989 789.931 575.541 789.931 579.737 787.504C586.695 783.642 587.799 780.995 588.462 767.867L589.014 756.284L591.664 763.234C593.1 766.984 594.646 770.294 594.977 770.625C595.419 770.846 600.83 769.742 606.904 768.198L618.168 765.44L619.493 759.814C621.15 752.753 620.156 731.241 617.726 722.195C616.732 718.665 614.745 713.039 613.199 709.619C610.769 704.214 610.769 703.772 612.646 705.427C618.058 710.281 623.137 730.249 622.475 744.149L622.144 752.533L624.904 751.871C626.45 751.54 634.402 747.899 642.574 743.818L657.482 736.426L657.813 725.615C658.145 714.694 658.145 714.694 653.948 707.523C649.973 700.794 649.2 700.132 639.371 695.057L628.99 689.762L618.61 695.278L608.229 700.794L605.468 698.256L602.707 695.719L598.069 698.146C587.247 703.883 586.584 704.544 585.149 710.391C583.713 716.459 583.271 716.79 580.179 714.473C578.302 713.149 578.302 712.598 579.517 707.964C581.394 701.456 582.277 700.573 600.72 686.673C618.499 673.324 624.131 667.919 627.555 660.859C630.647 654.901 631.972 649.827 630.536 649.827C629.984 649.827 624.021 652.033 617.174 654.791C610.327 657.549 603.922 659.755 602.928 659.755C601.382 659.755 596.192 654.35 596.192 652.695C596.192 652.474 598.069 652.695 600.388 653.247C604.033 654.129 606.462 653.357 625.125 645.855C637.825 640.67 646.88 636.368 648.647 634.493C651.298 631.845 658.697 614.415 661.458 604.265C662.893 598.86 661.458 593.785 654.5 579.334C651.408 572.935 648.647 565.764 648.427 563.337C647.874 557.601 649.752 522.63 651.519 507.517C653.838 487.439 649.089 463.389 638.598 441.657C635.837 436.141 631.641 429.412 629.322 426.654C624.573 421.248 592.989 400.508 585.48 397.861C582.94 396.978 575.762 395.434 569.467 394.441C563.283 393.448 551.356 391.462 543.184 390.028C527.061 387.16 516.46 386.277 509.502 386.939ZM561.516 668.029C562.62 669.794 563.062 671.78 562.62 673.545C561.737 677.186 560.191 677.075 559.307 673.214C558.976 671.559 558.424 669.132 557.982 667.698C556.988 664.389 559.197 664.609 561.516 668.029ZM566.265 704.103C566.375 708.295 565.933 711.605 565.381 711.605C564.056 711.605 562.62 694.506 563.725 692.63C565.05 690.534 566.154 695.388 566.265 704.103ZM427.23 708.957C423.144 717.231 420.604 727.932 419.61 741.942C418.947 751.761 418.727 752.533 417.843 748.561C416.628 742.935 418.727 725.174 421.598 717.01C423.586 711.164 429.328 701.125 430.101 702.007C430.322 702.228 429.107 705.317 427.23 708.957ZM531.589 749.003L541.528 750.878L531.589 752.753C522.533 754.518 520.877 754.518 513.036 752.974C508.287 752.091 503.981 751.319 503.649 751.209C502.987 751.099 519.331 747.237 521.098 747.127C521.429 747.017 526.178 747.899 531.589 749.003Z" fill="black"/>
<path d="M442.548 409.708C438.265 413.57 433.763 417.322 432.665 418.205C429.7 420.302 419.268 433.544 415.973 439.282C414.436 442.041 411.801 448.441 410.153 453.628C408.616 458.814 404.553 469.739 401.259 477.905C387.313 512.224 385.226 538.488 394.999 559.344C396.537 562.765 397.855 566.958 397.855 568.614C397.745 572.697 399.392 572.476 401.698 568.062C403.345 565.193 403.675 561.772 403.675 549.633C403.675 536.612 404.004 534.074 406.2 529.439C409.714 521.494 414.546 515.976 422.452 510.9C426.515 508.252 429.48 505.493 429.48 504.389C429.48 503.396 428.163 501.41 426.625 499.865C422.123 495.782 418.499 487.064 418.499 480.553C418.499 474.153 428.053 439.724 432.226 431.006C433.653 427.916 439.144 420.633 444.305 414.674C449.466 408.825 453.639 403.749 453.639 403.418C453.639 401.321 449.356 403.86 442.548 409.708Z" fill="black"/>
<path d="M662.894 524.85C661.442 525.401 660.325 526.172 660.325 526.612C660.325 527.053 659.32 535.865 658.203 546.218L656.08 564.943L659.543 569.569C661.554 572.103 663.788 574.526 664.57 574.856C665.464 575.187 668.368 573.094 671.272 570.01C680.656 560.427 686.353 556.682 692.497 555.911C696.183 555.581 698.417 554.7 698.864 553.598C699.646 551.505 692.162 543.795 680.209 534.323C668.815 525.18 665.91 523.638 662.894 524.85Z" fill="black"/>
<path d="M364.411 530.325C360.651 533.183 353.463 539.34 348.707 544.067C338.865 553.632 338.644 555.171 347.491 556.161C353.02 556.821 361.978 562.757 369.72 570.893C372.263 573.532 374.807 575.731 375.36 575.731C375.913 575.731 378.235 573.422 380.558 570.673L384.76 565.616L381.221 546.816C376.576 522.409 376.023 521.749 364.411 530.325Z" fill="black"/>
<path d="M446.488 534.656C436.003 537.976 425.72 547.032 421.241 556.691C417.474 564.74 416.049 575.002 417.474 582.75C421.75 605.589 443.841 621.687 465.831 617.864C480.592 615.348 493.114 605.991 499.426 592.811C502.48 586.573 502.684 585.265 502.684 575.505C502.684 565.645 502.48 564.438 499.222 557.697C495.049 548.843 486.701 540.492 478.047 536.467C473.059 534.254 470.514 533.751 461.453 533.549C454.429 533.348 449.237 533.751 446.488 534.656ZM475.909 541.498C483.952 545.221 490.366 551.358 494.336 559.307C497.288 565.243 497.594 566.752 497.594 575.002C497.594 583.554 497.39 584.661 493.725 591.805C489.449 600.458 484.665 605.186 475.706 609.513C470.718 611.927 468.987 612.229 459.926 612.229C451.069 612.229 449.033 611.927 444.045 609.613C436.41 605.991 430.811 600.961 427.044 593.918C415.438 572.286 425.415 547.032 448.524 539.687C455.651 537.373 468.987 538.278 475.909 541.498Z" fill="black"/>
<path d="M452.557 541.952C451.132 542.464 449.401 543.898 448.587 545.025C447.773 546.152 446.551 546.868 445.635 546.561C443.701 545.742 438.204 549.941 438.204 552.297C438.204 553.218 437.084 554.755 435.863 555.676C432.707 557.725 431.079 561.412 431.079 566.43C431.079 568.581 430.672 570.732 430.061 571.039C429.552 571.346 429.043 572.473 429.043 573.599C429.043 574.624 428.33 575.648 427.516 576.057C423.546 577.594 428.127 593.264 432.707 593.878C433.929 594.083 435.761 595.107 436.779 596.234C437.695 597.258 439.12 598.18 439.833 598.18C440.545 598.18 442.072 599.614 443.294 601.252C445.94 605.042 450.419 607.5 453.27 606.68C454.389 606.373 456.425 606.885 457.748 607.807C460.599 609.855 464.365 609.855 468.131 607.909C469.76 606.988 471.796 606.578 472.508 606.885C474.443 607.602 481.67 603.71 482.993 601.252C483.604 600.126 484.724 599.204 485.538 599.204C487.676 599.204 490.424 594.493 489.813 592.035C489.508 590.908 489.711 589.679 490.22 589.372C491.849 588.45 491.238 583.022 488.999 578.823C486.556 574.112 484.825 572.473 481.67 571.961C480.448 571.654 478.107 571.244 476.377 570.937C471.999 570.117 464.976 575.443 464.06 580.359C463.143 585.378 465.281 589.884 469.455 591.727C473.73 593.469 477.7 591.932 479.736 587.631C480.957 585.173 480.855 584.456 479.532 582.203C477.7 579.54 474.035 578.925 471.999 580.974C470.167 582.817 470.473 586.607 472.61 587.836C474.239 588.86 474.239 588.86 472.61 588.962C469.76 588.962 467.521 584.661 468.742 581.383C471.796 573.19 482.993 577.184 482.993 586.504C482.993 588.143 481.67 590.498 479.532 592.649C476.58 595.619 475.359 596.131 471.287 596.131C467.215 596.131 465.994 595.619 463.042 592.649C460.191 589.781 459.581 588.348 459.581 584.968C459.581 576.57 455.204 570.527 447.671 568.581C443.396 567.454 440.545 564.382 441.767 562.334C442.988 560.388 446.042 561.309 450.623 564.894C457.24 570.117 461.311 570.527 467.419 566.635C473.323 562.846 479.329 561.617 484.52 563.358C487.777 564.382 488.49 564.382 489.915 562.948C491.238 561.617 491.34 560.9 490.526 559.466C489.61 558.032 488.185 557.827 482.79 558.032C476.886 558.339 475.868 558.134 472.916 555.676C469.047 552.399 466.706 548.097 466.706 544.41C466.706 541.133 464.06 539.904 462.227 542.464C460.904 544.206 460.7 544.206 458.257 542.567C456.731 541.645 455.407 540.826 455.305 540.928C455.102 540.928 453.88 541.44 452.557 541.952ZM462.635 554.652C463.652 555.881 463.652 556.496 462.635 557.725C460.09 560.797 456.425 558.442 457.952 554.652C458.257 553.833 459.174 553.116 459.886 553.116C460.7 553.116 461.922 553.833 462.635 554.652Z" fill="black"/>
<path d="M564.285 541.802C552.152 545.263 548.701 550.732 547.811 567.476C547.254 577.299 549.369 590.471 551.818 592.927C553.376 594.489 560.612 591.587 561.057 589.466C561.279 588.462 560.723 583.773 559.832 579.197C557.717 568.034 558.719 563.458 564.285 557.43C570.073 551.179 576.863 548.5 586.436 548.611C598.124 548.835 605.137 552.63 608.811 560.779C611.482 566.471 611.371 570.267 608.699 579.085L606.473 586.229L608.811 588.796C610.146 590.248 612.707 591.81 614.488 592.48C617.382 593.485 617.827 593.373 618.94 590.582C619.608 588.908 620.387 582.434 620.721 576.183C621.5 556.76 616.603 546.825 604.024 542.807C595.564 540.239 572.077 539.57 564.285 541.802Z" fill="black"/>
<path d="M575.816 558.133C568.487 561.552 567.283 566.516 570.128 580.967C571.331 587.035 571.222 588.138 569.362 591.888C568.049 594.646 565.752 596.963 562.907 598.397L558.641 600.603L563.345 602.699C573.081 606.891 596.821 607.111 606.667 603.03C610.387 601.375 611.043 599.059 607.761 599.059C605.136 599.059 598.681 592.55 597.915 589.131C597.478 587.145 597.915 583.615 599.009 580.195C603.823 565.855 599.556 558.243 585.772 556.588C581.724 556.147 579.317 556.478 575.816 558.133ZM590.257 564.2C595.18 566.296 598.79 572.032 597.915 576.445C595.946 586.924 581.177 589.903 573.957 581.298C569.252 575.672 571.003 567.951 577.895 564.531C582.38 562.325 585.444 562.214 590.257 564.2Z" fill="black"/>
<path d="M581.211 569.78C578.586 571.628 577.93 576.523 580.118 578.698C582.086 580.655 587.008 580.22 589.195 577.828C591.711 575.109 590.617 570.976 587.008 569.344C583.508 567.713 584.164 567.713 581.211 569.78Z" fill="black"/>
<path d="M329.538 566.618C321.204 579.464 316.708 589.542 313.308 602.499C311.334 610.14 312.76 611.026 321.094 607.372C326.906 604.714 328.332 604.492 336.118 605.157C342.588 605.711 346.207 606.818 350.813 609.254C358.928 613.684 361.34 612.688 363.095 604.382C363.863 601.17 365.946 595.079 367.81 590.871L371.32 583.34L367.701 576.142C361.779 564.624 351.69 558.312 339.079 558.09C335.35 558.09 334.802 558.644 329.538 566.618Z" fill="black"/>
<path d="M691.966 558.716C689.869 559.05 685.455 561.16 682.033 563.604C677.398 566.936 675.081 569.491 672.322 575.044L668.68 582.153L671.328 587.596C673.867 592.594 676.846 601.48 678.171 608.144C679.054 612.476 682.254 613.032 687.882 609.7C691.083 607.811 695.718 606.367 701.788 605.59C710.506 604.368 711.169 604.479 717.238 607.256C727.612 611.921 728.054 611.366 724.964 600.036C722.094 589.484 714.479 573.711 708.079 564.826C702.671 557.384 702.671 557.495 691.966 558.716Z" fill="black"/>
<path d="M508.566 601.285C508.229 603.048 506.209 608.334 504.188 613.18C499.137 624.854 497.566 631.461 498.352 637.519C499.137 644.347 502.28 648.312 507.219 648.752C512.831 649.193 514.066 647.21 512.607 640.602C511.709 636.748 511.709 631.351 512.607 621.219C513.505 611.087 513.505 605.801 512.607 602.717C511.148 597.541 509.576 596.99 508.566 601.285Z" fill="black"/>
<path d="M522.015 599.598C521.568 600.707 521.568 610.133 522.015 620.558C522.573 635.086 523.131 640.52 524.806 644.069C527.151 649.725 530.054 650.28 533.515 645.954C537.423 640.964 536.753 632.646 530.724 615.457C525.364 599.82 523.355 596.16 522.015 599.598Z" fill="black"/>
<path d="M318.651 613.094L310.914 616.726L310.251 622.67C309.367 630.044 310.914 646.223 313.346 654.917C315.446 662.732 321.967 677.48 323.293 677.37C326.056 677.15 328.377 675.169 332.908 669.005C336.997 663.392 339.318 661.411 345.839 658.219C353.355 654.367 353.907 654.257 360.428 655.248C366.175 656.128 367.501 656.018 368.606 654.477C370.375 652.386 370.043 650.735 366.286 640.94C364.738 636.867 363.08 630.374 362.638 626.632L361.754 619.698L352.912 614.525C344.292 609.352 343.85 609.242 335.229 609.352C327.603 609.462 325.282 609.903 318.651 613.094Z" fill="black"/>
<path d="M687.521 613.938C680.464 617.984 679.582 618.858 679.472 621.811C679.361 626.95 676.495 637.885 673.407 644.773C671.753 648.491 670.871 651.99 671.312 653.302C671.974 655.271 672.635 655.38 679.361 654.724C686.308 654.068 686.97 654.177 695.019 658.442C701.965 662.05 704.06 663.8 707.479 668.829C711.228 674.515 715.197 677.468 717.292 676.265C719.056 675.281 723.798 663.143 726.334 653.521C729.201 642.149 730.744 627.715 729.642 621.373C728.87 616.999 728.539 616.671 720.6 613.063C713.323 609.673 711.228 609.236 703.84 609.345C696.011 609.345 694.909 609.673 687.521 613.938Z" fill="black"/>
<path d="M562.84 614.542C562.84 617.367 567.669 618.779 570.253 616.824C572.274 615.085 571.264 613.999 566.546 613.021C563.289 612.369 562.84 612.586 562.84 614.542Z" fill="black"/>
<path d="M599.278 613.284C596.358 613.895 596.709 615.523 599.862 616.541C602.899 617.559 606.519 616.236 606.519 614.098C606.519 612.571 603.6 612.266 599.278 613.284Z" fill="black"/>
<path d="M584.3 615.021C585.012 615.335 585.928 615.23 586.233 614.916C586.64 614.601 586.03 614.286 584.91 614.391C583.791 614.391 583.486 614.706 584.3 615.021Z" fill="black"/>
<path d="M673.917 658.265L665.977 658.708L655.722 669.011C650.097 674.55 643.812 680.421 641.716 681.972C638.298 684.52 638.077 685.074 638.739 688.619C639.401 692.274 639.952 692.828 645.466 694.711C649.987 696.152 652.303 697.813 654.288 700.693C655.722 702.798 658.478 706.786 660.243 709.445C663 713.433 663.661 715.427 663.661 720.19C663.661 725.619 663.992 726.283 666.749 727.723C669.837 729.385 670.057 729.274 678.659 722.406C688.253 714.762 702.589 699.918 707.993 692.053L711.521 686.957L707.882 680.31C701.155 667.903 700.053 666.574 693.326 662.586C685.606 657.933 684.614 657.711 673.917 658.265Z" fill="black"/>
<path d="M346.404 662.848C340.065 666.475 339.3 667.355 334.054 677.138L328.48 687.471L333.726 694.396C341.486 704.619 349.901 713.193 360.611 721.767C369.901 729.241 370.229 729.461 372.852 727.703C374.928 726.274 375.584 724.735 376.24 719.348C376.895 713.742 377.77 711.654 382.579 705.168C387.169 698.793 389.245 697.034 394.491 694.836C400.502 692.087 400.72 691.868 400.72 687.8C400.72 683.953 400.174 683.074 395.147 679.336C392.196 676.918 386.294 671.422 382.251 667.025L374.819 658.891H363.999C353.617 659.001 352.852 659.111 346.404 662.848Z" fill="black"/>
<path d="M313.358 301.669C313.57 301.669 314.627 302.199 315.79 302.728C316.847 303.364 317.799 304.636 317.799 305.484C317.799 306.968 313.464 313.645 310.926 315.977C308.811 317.991 306.167 322.76 306.167 324.774C306.167 326.046 307.648 327.317 310.397 328.589C312.723 329.649 314.626 330.815 314.627 331.345C314.627 332.193 324.987 343 325.836 343.003C326.259 343.003 330.384 346.501 337.469 352.754C339.794 354.979 342.015 356.781 342.333 356.782C343.286 356.783 348.701 362.11 349.866 364.231C351.24 366.88 349.654 370.06 347.01 370.06C345.847 370.06 345.082 370.666 341.91 368.122C338.844 365.684 334.613 362.399 332.604 360.915C330.595 359.325 327.74 356.994 326.259 355.51C324.038 353.496 314.944 345.865 300.562 334.419C299.188 333.253 298.765 332.193 299.293 331.239C300.139 329.862 297.072 332.405 294.217 335.478C293.583 336.22 290.622 339.4 287.767 342.58C282.268 348.621 280.787 349.257 278.672 346.713C277.297 345.018 276.981 345.546 288.401 330.497C297.283 318.734 312.087 301.671 313.358 301.669Z" fill="black"/>
<path d="M365.386 260.864C367.29 258.639 369.405 258.851 371.837 261.606C373 262.984 375.856 266.163 378.288 268.813C382.306 273.264 386.43 278.882 389.391 283.969C390.026 285.135 391.401 286.512 392.247 287.042C393.198 287.572 393.939 288.633 393.939 289.48C393.939 290.328 394.891 291.6 396.054 292.448C399.015 294.567 411.809 313.644 411.916 316.189C411.916 318.203 408.85 320.746 407.158 320.111C406.311 319.686 402.398 315.34 398.486 310.254C394.679 305.272 389.92 299.655 388.123 297.959C386.219 296.157 384.527 294.144 384.316 293.296C383.893 292.236 383.152 292.766 381.672 294.992C379.239 298.701 370.357 306.968 368.771 306.968C368.136 306.968 367.502 307.392 367.29 307.816C367.185 308.24 365.492 309.724 363.589 310.996C359.676 313.751 359.254 318.415 362.743 320.217C363.906 320.747 364.963 322.442 365.175 323.926C365.281 325.304 366.339 327.423 367.29 328.695C368.348 329.861 371.097 333.571 373.318 336.962C376.596 341.838 377.23 343.534 376.384 344.912C373.529 349.363 368.876 347.031 364.646 339.294C363.695 337.493 362.637 335.902 362.214 335.584C361.367 335.052 353.648 325.091 348.678 318.309C347.409 316.401 345.717 314.387 344.977 313.857C344.237 313.221 343.074 311.525 342.333 310.042C341.487 308.452 339.795 306.12 338.632 304.742C335.776 301.668 330.278 293.402 329.115 290.646C327.529 286.619 333.133 284.076 336.834 287.149C337.786 287.89 340.853 291.494 343.708 295.203C346.669 299.019 349.735 302.834 350.687 303.789C352.908 306.12 356.398 305.802 359.888 302.941C361.474 301.669 365.069 299.125 367.819 297.323C370.674 295.521 372.683 293.402 372.472 292.766C372.155 292.024 373.636 291.6 376.596 291.6C379.557 291.6 381.249 291.176 381.249 290.434C381.249 287.997 379.98 285.771 378.5 285.771C377.654 285.771 377.019 285.241 377.019 284.605C377.018 283.968 374.375 279.411 371.203 274.536C364.118 263.832 363.695 262.878 365.386 260.864Z" fill="black"/>
<path d="M399.755 242.316C401.341 242.316 402.716 243.588 404.091 246.238C405.148 248.463 406.417 250.371 406.946 250.583C407.369 250.796 407.686 251.75 407.686 252.703C407.686 253.551 408.532 255.247 409.484 256.307C410.436 257.367 411.282 259.062 411.387 260.122C411.705 262.878 413.714 267.435 415.089 268.283C415.618 268.601 415.935 269.449 415.618 269.979C415.195 270.508 415.512 270.933 416.04 270.933C417.204 270.933 417.627 269.555 417.309 266.693C417.204 265.422 417.31 265.422 418.05 266.482C418.79 267.541 419.53 267.647 421.751 266.587C423.337 265.845 424.606 264.892 424.606 264.362C424.606 263.832 425.03 263.62 425.558 263.937C425.981 264.255 429.048 263.619 432.326 262.454C439.199 260.016 440.68 259.911 442.266 261.5C444.698 263.938 442.266 266.481 433.066 270.827C427.885 273.264 422.174 275.49 420.376 275.914C416.675 276.55 416.675 277.504 420.059 285.347C421.01 287.572 421.856 289.691 421.962 290.01C422.914 294.144 426.192 303.788 427.144 305.379C429.259 308.664 427.461 312.267 423.654 312.267C420.905 312.267 420.271 311.525 417.415 305.59C415.724 301.987 413.926 297.854 413.503 296.37C413.08 294.886 412.022 292.766 411.282 291.6C410.436 290.434 409.802 288.526 409.802 287.255C409.802 286.089 409.484 284.711 409.061 284.287C408.215 283.438 406.733 279.514 400.707 261.712C394.891 244.225 394.785 242.317 399.755 242.316Z" fill="black"/>
<path d="M458.446 292.554C463.31 290.752 465.32 290.753 466.8 292.554C468.915 295.098 464.791 297.959 451.361 303.153C433.384 310.042 432.537 310.36 430.634 308.24C429.154 306.65 429.26 306.226 430.951 304.001C432.009 302.729 434.97 300.927 437.508 300.185C440.046 299.337 444.91 297.641 448.4 296.264C451.89 294.992 456.437 293.296 458.446 292.554Z" fill="black"/>
<path d="M439.2 226.736C440.891 226.842 441.526 227.584 441.526 229.28C441.526 230.658 440.469 232.354 438.988 233.307C435.922 235.321 419.53 242.422 416.675 242.952C415.511 243.164 412.868 243.694 410.647 244.224C407.264 245.072 406.735 244.966 406.312 243.164C405.36 239.879 406.418 238.501 411.705 236.063C419.847 232.248 436.555 226.525 439.2 226.736Z" fill="black"/>
<path d="M716.897 305.891C728.952 295.08 730.433 294.444 732.76 298.154C734.346 300.697 732.654 303.241 723.031 313.31C716.581 320.092 715.523 321.683 716.474 323.272C717.426 325.18 719.119 325.286 738.788 325.392C753.168 325.392 760.571 325.816 761.524 326.664C763.85 328.572 763.321 331.751 760.678 332.281C757.821 332.917 741.537 333.871 734.135 333.977C730.54 333.977 729.271 334.295 729.799 335.248C730.327 335.99 729.905 336.203 728.53 335.885C727.367 335.567 725.992 335.885 725.358 336.521C724.512 337.475 720.388 352.629 720.281 355.704C720.07 358.036 714.042 379.127 713.196 379.975C711.822 381.459 707.275 379.763 706.64 377.432C706.323 376.266 706.534 373.615 706.957 371.39C707.486 369.164 708.438 364.501 709.072 361.004C709.812 357.506 710.764 353.161 711.293 351.465C711.928 348.921 713.302 340.866 713.513 338.216C713.725 335.779 712.667 335.355 706.64 335.567C699.449 335.673 699.555 335.673 689.191 345.318C682.952 351.253 679.251 352.418 677.347 348.921C676.502 347.119 677.136 345.847 681.471 340.654C685.384 335.991 707.591 314.052 716.897 305.891Z" fill="black"/>
<path fill-rule="evenodd" clip-rule="evenodd" d="M655.14 269.325C663.599 254.805 666.244 252.262 669.733 255.759C670.473 256.501 671.002 257.879 671.002 258.833C671.002 260.316 671.637 260.634 674.492 260.211C677.03 259.787 679.357 260.528 683.692 262.966C695.112 269.536 697.545 271.127 698.92 273.141C700.718 275.791 703.784 285.329 703.467 287.343C703.15 289.357 697.863 299.637 695.113 303.453C692.47 307.162 681.578 310.872 676.925 309.494C673.435 308.434 671.637 309.176 672.8 310.978C674.174 313.203 674.069 314.899 672.377 314.899C671.32 314.899 671.108 315.536 671.531 317.019C672.271 319.245 670.262 334.507 668.887 337.157C667.83 339.382 665.186 339.7 663.177 337.686C661.908 336.415 661.485 333.976 661.485 328.677C661.485 324.65 661.062 321.153 660.533 320.835C660.004 320.517 659.793 319.35 660.11 318.185C660.322 317.125 659.792 315.535 658.841 314.475C657.361 313.098 657.361 312.673 658.63 312.143C660.956 311.296 659.264 304.831 656.832 305.043C655.775 305.043 655.246 304.619 655.563 303.771C655.986 302.393 654.399 300.061 652.813 300.061C651.227 300.062 645.517 306.527 644.036 309.918C643.296 311.72 640.652 315.218 638.326 317.443C634.202 321.471 634.095 321.576 631.452 319.775C629.866 318.821 628.703 317.443 628.703 316.701C628.809 316.064 631.135 311.083 633.99 305.891C636.845 300.591 640.018 294.55 640.97 292.324C641.921 290.205 643.084 288.403 643.507 288.403C643.93 288.403 644.671 287.237 644.988 285.859C645.305 284.375 646.68 281.937 648.055 280.242C649.429 278.652 652.602 273.67 655.14 269.325ZM672.272 265.903C670.792 263.889 669.734 263.572 668.571 264.737C668.148 265.056 667.831 266.221 667.831 267.175C667.831 268.129 666.879 269.931 665.716 271.202C664.553 272.474 663.601 273.958 663.601 274.488C663.601 275.018 662.966 276.184 662.226 276.926C661.486 277.668 660.111 279.787 659.16 281.589C657.573 284.769 657.573 284.874 660.746 286.04C664.553 287.418 665.504 286.994 663.601 284.662C662.861 283.815 662.755 283.073 663.284 283.073C663.812 283.073 664.976 283.921 665.821 284.981C668.148 287.736 666.033 289.22 660.64 288.796C655.035 288.372 654.824 289.962 660.428 290.916C662.649 291.234 666.35 292.717 668.465 294.201C672.801 297.169 673.753 297.381 674.705 295.791C676.079 293.672 677.348 294.837 676.714 297.593C675.974 300.348 675.974 300.349 680.627 299.713C685.597 299.077 689.509 295.579 690.778 290.492C691.096 289.008 692.153 287.312 693.105 286.676C695.748 284.662 691.942 277.456 686.972 275.23C680.838 272.474 673.753 268.023 672.272 265.903Z" fill="black"/>
<path fill-rule="evenodd" clip-rule="evenodd" d="M613.686 234.349C614.743 234.349 616.435 234.985 617.493 235.727C618.973 236.787 619.502 239.543 620.242 249.294C620.771 255.865 621.088 265.298 620.983 270.173C620.877 274.941 620.983 278.862 621.3 278.864C621.723 278.864 620.877 312.038 620.454 312.356C619.185 313.415 616.541 313.627 614.955 312.779C613.581 312.037 612.734 310.024 612.205 305.679C611.888 302.287 611.042 299.001 610.513 298.26C609.985 297.518 609.774 296.563 610.091 295.928C610.408 295.398 610.514 294.232 610.196 293.384C609.562 291.901 608.715 291.794 598.881 291.476C596.026 291.37 593.806 290.734 593.805 290.099C593.804 287.661 581.116 288.403 581.115 290.841C581.009 292.855 573.29 301.121 571.386 301.121C570.435 301.121 569.166 300.379 568.32 299.425C566.734 297.412 568.108 294.231 576.039 282.468C578.894 278.334 581.115 274.412 581.115 273.882C581.116 273.245 582.702 270.702 584.499 268.159C589.787 260.953 592.748 256.607 592.748 255.865C592.749 255.546 594.229 253.533 595.92 251.308C597.718 249.082 599.093 246.962 599.093 246.432C599.093 246.008 600.151 244.524 601.419 243.147C603.851 240.497 607.129 239.967 607.87 241.98C608.187 242.828 608.61 242.616 609.139 241.238C611.042 235.622 611.889 234.349 613.686 234.349ZM609.139 249.294C606.072 248.733 591.212 273.991 591.211 275.28C591.852 276.678 611.254 279.76 612.207 278.864C613.348 277.79 612.206 249.856 609.139 249.294Z" fill="black"/>
<path fill-rule="evenodd" clip-rule="evenodd" d="M512.59 223.963C513.964 222.373 517.137 222.268 519.781 223.963C521.367 224.917 522.319 224.917 524.328 223.857C526.125 222.903 530.144 222.585 537.441 222.903C547.804 223.221 547.91 223.221 552.563 227.249C562.715 235.939 562.926 236.364 563.138 252.367C563.667 281.619 563.561 282.362 559.754 286.601C557.85 288.615 553.726 292.218 550.66 294.656L544.949 299.002H534.48C525.491 299.002 523.693 298.684 522.001 296.988C520.204 295.186 519.781 295.08 518.618 296.457C517.137 298.259 512.801 298.365 511.638 296.564C510.37 294.649 511.321 225.663 512.59 223.963ZM522.214 231.245L522.108 236.015C522.002 238.664 521.685 241.208 521.368 241.738C520.945 242.374 521.156 242.798 521.685 242.798C522.319 242.798 522.319 244.706 521.685 247.779C521.262 250.641 520.522 258.59 520.31 265.585C519.993 272.58 519.57 281.059 519.253 284.45C518.618 292.717 519.253 294.095 522.426 291.975C523.8 291.022 526.761 290.386 528.982 290.492C540.826 291.022 542.306 290.704 547.699 285.934C553.516 280.741 553.304 281.907 553.621 257.106L553.833 240.148L549.391 236.227C546.959 234.001 544.527 232.517 544.104 232.729C543.575 233.047 542.94 232.835 542.623 232.305C542.2 231.775 537.547 231.245 532.048 231.245H522.214Z" fill="black"/>
<path d="M786.276 494.362C786.276 493.157 791.204 493.693 798.13 495.834C806.389 498.243 814.247 504.936 817.843 512.699L820.507 518.187L823.437 513.903C828.232 507.211 837.023 502.794 847.412 501.991C858.068 501.322 860.465 503.196 852.074 505.605C848.877 506.542 846.213 507.881 846.213 508.55C846.213 509.219 844.881 509.754 843.283 509.754C840.886 509.754 840.62 510.022 842.085 510.959C843.55 511.896 842.218 513.101 837.156 515.643C828.099 520.328 827.566 521.801 835.957 519.525C848.744 516.045 862.597 520.195 870.722 529.966C875.783 535.989 874.984 537.059 868.324 533.312C864.329 531.036 862.197 530.501 861.798 531.572C861.398 532.776 860.332 532.776 857.535 531.438C854.206 529.832 834.226 527.958 834.226 529.163C834.228 529.431 837.291 530.635 840.886 531.84C850.209 534.918 859.8 544.555 862.73 553.656C866.06 563.829 865.127 566.372 860.466 559.412C858.201 555.932 855.937 553.924 854.871 554.459C853.939 554.727 852.741 554.326 852.341 553.255C851.808 551.649 841.152 543.216 835.824 540.004C834.759 539.335 836.091 541.61 838.622 545.09C844.882 553.255 847.013 563.427 844.615 574.537C843.15 581.764 841.419 582.434 840.487 576.277C838.089 561.42 837.822 560.617 835.824 560.884C834.492 561.152 833.027 559.144 831.429 554.593C830.097 550.846 829.032 548.437 828.899 549.239C828.899 549.908 826.768 548.169 824.237 545.224L819.575 539.87L820.241 551.247C821.439 571.86 816.778 622.052 812.116 637.043C811.583 638.783 813.181 639.854 819.042 641.728C823.17 642.933 827.832 645.208 829.298 646.546C832.095 648.822 831.562 648.956 804.524 648.554C787.608 648.42 776.819 647.751 776.552 646.948C776.419 646.145 781.082 644.003 786.942 642.129L797.597 638.516L802.526 624.06C808.253 606.928 811.05 593.677 812.915 575.742C814.647 558.074 815.179 539.201 813.847 539.201C813.314 539.202 810.118 541.878 806.788 545.224C803.459 548.57 800.262 550.98 799.729 550.712C799.063 550.311 797.597 552.318 796.265 555.262C795.067 558.073 793.335 560.215 792.403 559.813C791.604 559.546 789.873 562.624 788.407 567.309C785.477 576.41 783.612 575.875 783.612 565.836C783.612 556.2 787.342 547.5 794.401 540.272L800.795 533.847L795.866 535.989C793.202 537.06 788.274 539.469 785.077 541.209C781.881 543.083 778.684 544.153 778.018 543.752C777.351 543.217 774.422 545.224 771.492 548.035C767.096 552.452 766.296 552.719 766.296 550.444C766.296 546.161 773.756 535.855 779.75 531.84C782.813 529.966 788.94 527.556 793.469 526.62L801.594 524.879L795.999 523.943C792.803 523.407 790.272 522.47 790.272 521.935C790.272 520.328 772.558 519.124 767.096 520.462C762.168 521.533 762.168 521.533 764.565 518.856C771.891 510.692 788.007 508.148 799.862 513.502C803.192 514.975 806.389 516.848 806.788 517.651C807.321 518.454 808.387 519.124 809.053 519.124C811.316 519.123 806.122 512.565 800.528 508.416C797.464 506.275 795.733 504.4 796.665 504.4C799.995 504.4 798.13 501.857 792.27 498.511C788.94 496.503 786.276 494.63 786.276 494.362Z" fill="#A66A00"/>
<path d="M255.724 494.362C255.724 493.157 250.796 493.693 243.87 495.834C235.611 498.243 227.753 504.936 224.157 512.699L221.493 518.187L218.563 513.903C213.768 507.211 204.977 502.794 194.588 501.991C183.932 501.322 181.535 503.196 189.926 505.605C193.123 506.542 195.787 507.881 195.787 508.55C195.787 509.219 197.119 509.754 198.717 509.754C201.114 509.754 201.38 510.022 199.915 510.959C198.45 511.896 199.782 513.101 204.844 515.643C213.901 520.328 214.434 521.801 206.043 519.525C193.256 516.045 179.403 520.195 171.278 529.966C166.217 535.989 167.016 537.059 173.676 533.312C177.671 531.036 179.803 530.501 180.202 531.572C180.602 532.776 181.668 532.776 184.465 531.438C187.794 529.832 207.774 527.958 207.774 529.163C207.772 529.431 204.709 530.635 201.114 531.84C191.791 534.918 182.2 544.555 179.27 553.656C175.94 563.829 176.873 566.372 181.534 559.412C183.799 555.932 186.063 553.924 187.129 554.459C188.061 554.727 189.259 554.326 189.659 553.255C190.192 551.649 200.848 543.216 206.176 540.004C207.241 539.335 205.909 541.61 203.378 545.09C197.118 553.255 194.987 563.427 197.385 574.537C198.85 581.764 200.581 582.434 201.513 576.277C203.911 561.42 204.178 560.617 206.176 560.884C207.508 561.152 208.973 559.144 210.571 554.593C211.903 550.846 212.968 548.437 213.101 549.239C213.101 549.908 215.232 548.169 217.763 545.224L222.425 539.87L221.759 551.247C220.561 571.86 225.222 622.052 229.884 637.043C230.417 638.783 228.819 639.854 222.958 641.728C218.83 642.933 214.168 645.208 212.702 646.546C209.905 648.822 210.438 648.956 237.476 648.554C254.392 648.42 265.181 647.751 265.448 646.948C265.581 646.145 260.918 644.003 255.058 642.129L244.403 638.516L239.474 624.06C233.747 606.928 230.95 593.677 229.085 575.742C227.353 558.074 226.821 539.201 228.153 539.201C228.686 539.202 231.882 541.878 235.212 545.224C238.541 548.57 241.738 550.98 242.271 550.712C242.937 550.311 244.403 552.318 245.735 555.262C246.933 558.073 248.665 560.215 249.597 559.813C250.396 559.546 252.127 562.624 253.593 567.309C256.523 576.41 258.388 575.875 258.388 565.836C258.388 556.2 254.658 547.5 247.599 540.272L241.205 533.847L246.134 535.989C248.798 537.06 253.726 539.469 256.923 541.209C260.119 543.083 263.316 544.153 263.982 543.752C264.649 543.217 267.578 545.224 270.508 548.035C274.904 552.452 275.704 552.719 275.704 550.444C275.704 546.161 268.244 535.855 262.25 531.84C259.187 529.966 253.06 527.556 248.531 526.62L240.406 524.879L246.001 523.943C249.197 523.407 251.728 522.47 251.728 521.935C251.728 520.328 269.442 519.124 274.904 520.462C279.832 521.533 279.832 521.533 277.435 518.856C270.109 510.692 253.993 508.148 242.138 513.502C238.808 514.975 235.611 516.848 235.212 517.651C234.679 518.454 233.613 519.124 232.947 519.124C230.684 519.123 235.878 512.565 241.472 508.416C244.536 506.275 246.267 504.4 245.335 504.4C242.005 504.4 243.87 501.857 249.73 498.511C253.06 496.503 255.724 494.63 255.724 494.362Z" fill="#A66A00"/>
<path d="M591.854 874.368C595.825 873.73 597.766 875.792 597.93 880.785C597.945 883.431 598.536 885.854 599.231 886.163C599.927 886.472 599.958 887.205 599.492 887.719C598.883 888.288 598.977 890.49 599.701 892.612C600.424 894.733 600.419 896.89 599.72 897.661C599.066 898.33 599.17 900.777 600.004 903.187L601.407 907.53L606.773 906.431C609.627 905.898 613.177 905.673 614.702 905.989C616.128 906.262 619.798 906.57 622.683 906.77C628.984 907.046 631.202 908.751 629.69 912.16C628.711 914.366 626.874 914.751 616.214 915.181C609.403 915.519 603.013 915.443 602.118 915.046C599.136 913.723 598.424 915.328 598.469 923.268C598.601 927.527 598.461 934.546 598.162 938.973C597.862 943.4 597.806 947.816 598.046 948.883C598.54 950.183 597.897 951.097 595.859 952.473C592.68 954.542 592.923 954.53 590.177 951.872C588.7 950.375 588.047 946.485 587.795 937.133C587.593 930.083 587.531 924.055 587.709 923.654C587.843 923.35 587.951 920.159 587.806 916.736C587.645 910.663 588.333 897.047 589.501 882.085C589.916 875.789 590.306 874.641 591.854 874.368Z" fill="black"/>
<path d="M623.628 946.194C638.365 946.493 642.256 947.38 642.127 950.082C641.886 953.575 638.356 954.29 622.8 954.227C603.34 954.113 601.771 953.896 600.032 950.844C598.667 948.559 598.711 948.458 602.928 946.729C605.374 945.774 607.786 945.165 608.383 945.429C608.98 945.694 615.823 946.09 623.628 946.194Z" fill="black"/>
<path d="M602.87 918.98C603.466 919.245 603.685 919.823 603.419 920.424C603.196 920.925 602.576 921.25 601.98 920.986C601.483 920.765 601.209 920.043 601.431 919.542C601.698 918.941 602.373 918.76 602.87 918.98Z" fill="black"/>
<path d="M621.723 872.741C637.612 872.592 642.451 874.019 640.671 878.029C639.737 880.135 637.613 880.633 625.648 881.323C618.062 881.797 611.626 881.822 611.462 881.389C611.296 880.956 609.782 880.884 608.135 881.112C606.442 881.441 605.271 881.402 605.403 881.101C605.536 880.8 604.553 880.604 603.193 880.72C601.103 880.872 600.894 880.539 601.321 877.969C602.018 873.718 605.493 872.859 621.723 872.741Z" fill="black"/>
<path d="M576.235 872.817C578.752 873.197 579.545 873.881 579.59 875.808C579.687 878.872 579.282 916.417 578.964 928.905C578.682 942.64 576.82 952.749 574.624 953.209C569.289 954.436 567.644 952.72 557.357 935.582C554.428 930.51 550.167 923.881 548.066 920.741C545.856 917.584 544.177 914.619 544.244 914.178C544.46 912.743 543.113 912.765 540.734 914.439C538.623 915.814 538.53 915.687 539.09 912.722C539.982 907.55 539.83 907.074 537.448 907.28C534.831 907.562 534.11 909.373 536.518 909.737C538.488 910.034 538.44 911.834 536.413 912.657C535.689 913 535.487 912.856 536.042 912.149C536.579 911.553 536.098 911.029 534.768 910.941C532.235 910.672 531.425 915.292 533.709 917.218C534.501 917.902 534.637 918.487 533.98 918.388C532.448 918.158 531.459 926.931 531.17 941.455C531.007 950.69 530.791 952.126 529.135 953.457C527.89 954.286 526.291 954.496 525.044 953.856C523.486 953.056 522.986 951.173 522.775 945.156C522.735 940.972 522.583 935.302 522.453 932.459C522.322 929.616 522.156 925.525 522.253 923.394C522.242 921.246 522.029 913.761 521.825 906.954C521.637 900.037 521.807 890.011 522.186 884.535C522.905 876.061 523.265 874.421 524.964 873.548C528.976 871.443 532.271 874.087 538.862 884.568C542.397 890.07 547.089 897.554 549.342 901.169C551.595 904.785 553.872 907.5 554.469 907.251C554.957 906.987 554.983 907.555 554.521 908.388C553.9 909.537 554.676 910.332 557.345 911.186C559.889 912.135 560.883 912.963 560.279 914.001C559.944 914.741 560.115 916.574 560.883 918.158C562.006 920.36 562.318 920.52 562.551 918.974C562.701 917.98 562.287 917.014 561.521 916.899C559.442 916.585 561.864 915.369 564.179 915.606C565.399 915.677 566.317 916.268 566.235 916.82C566.135 917.482 566.446 917.642 566.951 917.267C567.96 916.516 569.031 912.386 568.155 912.254C567.827 912.202 568.225 908.084 568.975 903.117C569.851 898.054 570.58 890.259 570.699 885.759C570.893 874.835 572.076 872.19 576.235 872.817Z" fill="black"/>
<path fill-rule="evenodd" clip-rule="evenodd" d="M467.745 878.126C474.469 872.698 475.423 872.46 488.182 872.857C496.764 873.148 496.995 873.228 503.524 878.655C511.9 885.603 514.129 889.173 513.605 895.099C513.372 897.451 513.328 902.872 513.57 907.149C514.049 922.223 513.555 934.113 512.168 938.497C510.595 943.127 502.998 950.218 496.572 952.954C492.426 954.723 476.532 954.635 473.659 952.808C472.466 952.083 468.76 948.931 465.498 945.831L459.506 940.332L458.879 932.349C458.411 925.56 457.986 907.605 458.003 892.133C457.938 886.728 458.949 885.267 467.745 878.126ZM479.951 881.769C478.093 881.796 475.611 882.9 473.074 885.228C469.038 888.639 468.395 890.383 468.67 898.192C468.73 900.283 468.763 903.815 468.608 905.935C468.453 908.055 468.443 911.261 468.366 913.15C468.383 914.916 468.279 918.245 468.231 920.35C468.076 922.471 468.435 927.617 468.878 931.756C469.848 939.03 470 939.342 474.244 942.422C477.146 944.465 479.888 945.314 482.163 945.121C487.91 944.686 488.893 944.665 491.484 945.203C494.305 945.821 501.288 940.691 502.654 936.972C503.047 935.814 503.448 929.794 503.606 923.585C503.655 917.391 503.899 911.833 504.15 911.247C504.915 909.597 503.046 889.847 502.113 889.419C501.624 889.042 500.604 887.963 499.799 886.855C498.052 884.436 491.253 881.918 486.324 881.912C484.465 881.939 481.501 881.893 479.951 881.769Z" fill="black"/>
<path d="M398.939 873.606C399.844 873.233 408.853 872.843 418.816 872.771C447.533 872.563 448.731 872.901 449.82 880.397C450.195 882.733 437.24 904.08 434.827 905.075C434.225 905.323 433.788 905.977 433.796 906.567C433.904 907.116 431.573 911.16 428.84 915.369C421.395 926.974 420.036 929.669 420.829 931.596C421.33 932.812 420.953 933.323 419.58 933.415C417.763 933.57 417.805 933.672 420.014 934.184C421.353 934.581 422.357 935.591 422.206 936.365C421.979 937.526 421.677 937.65 420.74 937.088C420.004 936.442 418.856 936.796 417.599 938.025C416.242 939.296 416.049 939.969 417.162 940.103C418.317 940.339 418.526 940.846 418.14 942.191C417.754 943.536 417.963 944.043 419.075 944.177C419.845 944.334 420.625 943.658 420.936 942.699C421.18 941.295 421.364 941.456 421.789 943.059C422.047 944.257 422.826 945.004 423.328 944.797C423.932 944.549 425.773 944.739 427.556 945.072C429.339 945.405 432.11 945.568 433.844 945.209C435.518 944.994 437.017 945.207 437.226 945.714C437.435 946.221 438.305 946.336 439.109 946.005C440.013 945.633 443.388 945.547 446.686 945.849C453.241 946.351 455.659 948.795 452.935 952.17C451.602 953.786 440.717 954.475 422.482 954.16C421.167 954.108 415.75 954.086 410.376 954.165C399.827 954.241 397.199 952.714 397.749 946.914C398.02 944.43 405.919 930.503 410.823 923.858C413.841 919.769 425.294 901.056 426.528 898.057C427.334 896.302 428.524 894.626 429.228 894.336C429.931 894.046 428.592 893.649 426.265 893.422C422.867 893.161 422.439 892.981 423.88 891.913C424.801 891.297 426.032 891.146 426.484 891.671C427.387 892.722 429.745 887.6 429.118 886.079C428.868 885.471 429.405 884.776 430.209 884.444C431.013 884.113 431.507 883.316 431.298 882.809C431.047 882.201 430.076 882.127 429.072 882.541C428.066 882.955 425.295 882.792 422.801 882.159C420.307 881.526 417.838 881.239 417.234 881.487C416.631 881.736 414.043 881.734 411.373 881.53C408.703 881.325 406.116 881.324 405.512 881.572C405.009 881.779 402.782 881.51 400.632 880.854C397.285 879.862 396.832 879.336 397.044 876.996C397.146 875.531 398.035 873.979 398.939 873.606Z" fill="black"/>
<path d="M425.454 884.031C425.655 883.949 426.022 884.271 426.273 884.879C426.482 885.386 426.188 886.101 425.585 886.349C425.083 886.556 424.673 886.131 424.766 885.5C424.817 884.768 425.152 884.156 425.454 884.031Z" fill="black"/>
<path d="M492.508 61.504C509.83 51.5069 531.17 51.5069 548.492 61.504L964.992 301.876C982.323 311.878 993 330.368 993 350.378V831.083C993 851.093 982.323 869.583 964.992 879.585L548.492 1119.96C531.17 1129.95 509.83 1129.95 492.508 1119.96L76.0078 879.585C58.677 869.583 48.0001 851.093 48 831.083V350.378L48.0078 349.442C48.3353 329.793 58.9477 311.722 76.0078 301.876L492.508 61.504Z" stroke="black" stroke-width="8"/>
</svg>
