<?xml version="1.0" encoding="UTF-8"?> <svg xmlns="http://www.w3.org/2000/svg" width="1016" height="350" viewBox="0 0 1016 350" fill="none"><path d="M346.157 81.2864V96.9847H351.566C356.373 96.9847 358.778 94.2943 358.778 88.9115C358.778 87.0523 358.421 85.5297 357.712 84.3417C357.001 83.1516 356.174 82.3447 355.234 81.9209C354.291 81.4972 352.903 81.2864 351.075 81.2864H346.157ZM333.869 72.2279H351.442C354.857 72.2279 357.473 72.386 359.289 72.7002C361.104 73.0145 362.94 73.862 364.798 75.2426C366.657 76.6213 368.11 78.5068 369.163 80.8991C370.213 83.2874 370.74 85.9738 370.74 88.952C370.74 95.9466 368.118 100.865 362.873 103.71L373.155 128.179H359.779L352.299 106.045H346.157V128.179H333.869V72.2279Z" fill="#1D1D1D"></path><path d="M398.925 102.725C398.953 102.232 398.968 101.849 398.968 101.577C398.968 96.2494 397.17 93.5834 393.577 93.5834C390.041 93.5834 388.258 96.6306 388.234 102.725H398.925ZM409.823 109.405H388.151V111.692C388.151 115.396 388.655 117.876 389.66 119.127C390.667 120.38 391.987 121.006 393.62 121.006C397.13 121.006 399.105 118.654 399.541 113.955L409.823 114.61C407.995 124.23 402.524 129.039 393.413 129.039C387.794 129.039 383.524 127.141 380.606 123.342C377.688 119.544 376.229 114.462 376.229 108.094C376.229 100.908 377.775 95.4202 380.874 91.6371C383.968 87.8519 388.122 85.9583 393.332 85.9583C398.025 85.9583 401.947 87.6349 405.098 90.9802C408.249 94.3274 409.823 100.471 409.823 109.405Z" fill="#1D1D1D"></path><path d="M436.043 98.8295C436.043 94.3753 434.828 92.1472 432.396 92.1472C430.923 92.1472 429.877 92.6885 429.263 93.7671C428.649 94.8477 428.341 96.6298 428.341 99.1174C428.341 103.298 429.666 105.386 432.315 105.386C433.652 105.386 434.609 104.896 435.182 103.912C435.756 102.927 436.043 101.236 436.043 98.8295ZM427.235 126.374C424.803 127.495 423.589 129.162 423.589 131.376C423.589 134.163 426.756 135.554 433.093 135.554C438.53 135.554 441.245 134.107 441.245 131.211C441.245 130.145 440.953 129.277 440.366 128.608C439.778 127.937 439.028 127.515 438.112 127.339C437.196 127.161 435.277 127.003 432.357 126.867C430.635 126.757 428.927 126.593 427.235 126.374ZM451.777 79.9746V87.5165C450.901 87.2996 450.068 87.1881 449.276 87.1881C446.873 87.1881 445.412 88.4329 444.893 90.9185C446.942 93.0777 447.965 95.8371 447.965 99.1985C447.965 102.941 446.571 105.942 443.786 108.194C441 110.449 437.395 111.576 432.969 111.576C431.275 111.576 429.488 111.345 427.603 110.878C425.8 111.864 424.9 112.997 424.9 114.283C424.9 115.321 425.405 116.004 426.416 116.332C427.425 116.661 430.183 116.947 434.692 117.194C438.842 117.439 441.948 117.849 444.011 118.422C446.072 118.996 447.795 120.17 449.173 121.946C450.553 123.724 451.242 126.062 451.242 128.955C451.242 138.192 444.51 142.81 431.044 142.81C419.737 142.81 414.083 139.518 414.083 132.933C414.083 129.298 416.337 126.731 420.843 125.227C417.238 123.534 415.435 121.141 415.435 118.051C415.435 114.499 417.812 111.466 422.566 108.952C418.466 106.931 416.418 103.489 416.418 98.6227C416.418 94.499 417.834 91.3544 420.659 89.1973C423.486 87.0401 427.261 85.9575 431.987 85.9575C435.127 85.9575 438.078 86.5596 440.836 87.7619C441.138 84.812 441.873 82.7075 443.049 81.4505C444.222 80.1935 446.066 79.565 448.581 79.565C449.781 79.565 450.846 79.7009 451.777 79.9746Z" fill="#1D1D1D"></path><path d="M476.111 102.725C476.14 102.232 476.154 101.849 476.154 101.577C476.154 96.2494 474.356 93.5834 470.764 93.5834C467.228 93.5834 465.444 96.6306 465.42 102.725H476.111ZM487.009 109.405H465.337V111.692C465.337 115.396 465.841 117.876 466.847 119.127C467.854 120.38 469.173 121.006 470.806 121.006C474.316 121.006 476.292 118.654 476.727 113.955L487.009 114.61C485.182 124.23 479.71 129.039 470.599 129.039C464.98 129.039 460.711 127.141 457.793 123.342C454.874 119.544 453.415 114.462 453.415 108.094C453.415 100.908 454.962 95.4202 458.06 91.6371C461.154 87.8519 465.309 85.9583 470.518 85.9583C475.212 85.9583 479.133 87.6349 482.284 90.9802C485.435 94.3274 487.009 100.471 487.009 109.405Z" fill="#1D1D1D"></path><path d="M493.768 86.7786H504.707V92.4351C506.62 88.1188 510.075 85.9596 515.072 85.9596C517.777 85.9596 520.008 86.5678 521.769 87.7842C523.532 89.0007 524.659 90.5496 525.149 92.4351C525.642 94.3227 525.889 97.1915 525.889 101.044V128.179H514.334V101.044C514.334 98.2558 513.98 96.5346 513.27 95.8777C512.557 95.2228 511.605 94.8944 510.401 94.8944C508.326 94.8944 506.96 95.529 506.306 96.8002C505.649 98.0713 505.321 100.441 505.321 103.912V128.179H493.768V86.7786Z" fill="#1D1D1D"></path><path d="M554.731 102.725C554.759 102.232 554.774 101.849 554.774 101.577C554.774 96.2494 552.976 93.5834 549.383 93.5834C545.847 93.5834 544.064 96.6306 544.04 102.725H554.731ZM565.629 109.405H543.957V111.692C543.957 115.396 544.461 117.876 545.466 119.127C546.473 120.38 547.793 121.006 549.426 121.006C552.936 121.006 554.911 118.654 555.347 113.955L565.629 114.61C563.801 124.23 558.33 129.039 549.219 129.039C543.6 129.039 539.33 127.141 536.412 123.342C533.494 119.544 532.035 114.462 532.035 108.094C532.035 100.908 533.581 95.4202 536.68 91.6371C539.774 87.8519 543.928 85.9583 549.138 85.9583C553.831 85.9583 557.752 87.6349 560.904 90.9802C564.055 94.3274 565.629 100.471 565.629 109.405Z" fill="#1D1D1D"></path><path d="M572.387 86.7786H582.547V96.7819C584.377 89.7589 587.64 86.2454 592.339 86.2454C592.913 86.2454 593.567 86.3144 594.305 86.4522V97.7226C593.458 97.6152 592.817 97.5584 592.38 97.5584C586.754 97.5584 583.94 101.822 583.94 110.347V128.179H572.387V86.7786Z" fill="#1D1D1D"></path><path d="M618.518 108.422C615.158 108.803 612.761 109.547 611.328 110.65C609.893 111.753 609.178 113.612 609.178 116.227C609.178 119.713 610.459 121.458 613.028 121.458C614.422 121.458 615.685 120.674 616.817 119.108C617.95 117.541 618.518 114.66 618.518 110.465V108.422ZM609.587 99.9371L598.647 98.8727C599.165 94.7185 600.934 91.5213 603.954 89.281C606.971 87.0407 610.775 85.9195 615.362 85.9195C619.239 85.9195 622.356 86.6656 624.704 88.1538C627.053 89.6419 628.534 91.3713 629.148 93.3399C629.764 95.3065 630.07 98.3537 630.07 102.477V118.999C630.07 124.136 630.301 127.196 630.767 128.179H620.035C619.652 127.058 619.46 124.939 619.46 121.825C616.925 126.634 613.15 129.041 608.132 129.041C604.914 129.041 602.298 128.076 600.28 126.15C598.264 124.224 597.254 121.416 597.254 117.728C597.254 113.111 598.78 109.537 601.834 107.009C604.886 104.483 610.448 102.972 618.518 102.477V100.922C618.518 98.1611 618.238 96.2492 617.681 95.1828C617.125 94.1164 616.043 93.5852 614.438 93.5852C611.502 93.5852 609.885 95.7039 609.587 99.9371Z" fill="#1D1D1D"></path><path d="M640.274 74.0735L651.498 73.7025V86.7794H659.12V95.8784H651.498V111.086C651.498 113.902 651.559 115.725 651.683 116.558C651.804 117.391 652.216 118.089 652.911 118.648C653.608 119.21 654.775 119.488 656.414 119.488C657.288 119.488 658.382 119.461 659.693 119.407V128.179C657.124 128.753 654.775 129.039 652.645 129.039C649.15 129.039 646.473 128.368 644.616 127.03C642.758 125.692 641.571 124.011 641.052 121.99C640.533 119.968 640.274 116.757 640.274 112.357V95.8784H635.684V86.7794H640.274V74.0735Z" fill="#1D1D1D"></path><path d="M664.239 86.7796H675.793V128.179H664.239V107.48V86.7796ZM675.874 83.3776H664.158V71.9409H675.874V83.3776Z" fill="#1D1D1D"></path><path d="M679.113 86.7786H690.222L695.916 111.187L701.673 86.7786H711.272L699.924 128.179H690.789L679.113 86.7786Z" fill="#1D1D1D"></path><path d="M735.239 102.725C735.268 102.232 735.282 101.849 735.282 101.577C735.282 96.2494 733.484 93.5834 729.892 93.5834C726.355 93.5834 724.572 96.6306 724.548 102.725H735.239ZM746.137 109.405H724.465V111.692C724.465 115.396 724.969 117.876 725.974 119.127C726.982 120.38 728.301 121.006 729.934 121.006C733.444 121.006 735.42 118.654 735.855 113.955L746.137 114.61C744.309 124.23 738.838 129.039 729.727 129.039C724.108 129.039 719.838 127.141 716.92 123.342C714.002 119.544 712.543 114.462 712.543 108.094C712.543 100.908 714.089 95.4202 717.188 91.6371C720.282 87.8519 724.436 85.9583 729.646 85.9583C734.339 85.9583 738.261 87.6349 741.412 90.9802C744.563 94.3274 746.137 100.471 746.137 109.405Z" fill="#1D1D1D"></path><path d="M346.157 165.764V202.533H348.253C351.102 202.533 353.307 201.984 354.869 200.891C356.429 199.796 357.678 197.888 358.61 195.166C359.54 192.443 360.006 188.512 360.006 183.37C360.006 178.61 359.491 174.942 358.464 172.371C357.436 169.801 356.152 168.057 354.601 167.141C353.053 166.224 350.938 165.764 348.253 165.764H346.157ZM333.869 156.174H347.102C352.836 156.174 357.499 156.945 361.092 158.49C364.683 160.035 367.558 162.881 369.714 167.035C371.873 171.189 372.953 176.803 372.953 183.883C372.953 188.911 372.296 193.371 370.985 197.264C369.674 201.159 367.954 204.228 365.824 206.466C363.692 208.709 361.289 210.211 358.612 210.975C355.935 211.742 352.591 212.123 348.575 212.123H333.869V156.174Z" fill="#1D1D1D"></path><path d="M400.933 186.67C400.962 186.177 400.976 185.794 400.976 185.523C400.976 180.195 399.178 177.529 395.586 177.529C392.05 177.529 390.266 180.576 390.242 186.67H400.933ZM411.831 193.35H390.159V195.637C390.159 199.341 390.663 201.821 391.669 203.072C392.676 204.325 393.995 204.951 395.628 204.951C399.138 204.951 401.114 202.6 401.549 197.9L411.831 198.555C410.004 208.175 404.532 212.984 395.421 212.984C389.802 212.984 385.533 211.086 382.615 207.287C379.696 203.49 378.237 198.407 378.237 192.039C378.237 184.854 379.784 179.365 382.882 175.582C385.976 171.797 390.131 169.903 395.34 169.903C400.034 169.903 403.955 171.58 407.106 174.925C410.257 178.273 411.831 184.416 411.831 193.35Z" fill="#1D1D1D"></path><path d="M413.102 170.723H424.211L429.905 195.131L435.662 170.723H445.262L433.914 212.123H424.779L413.102 170.723Z" fill="#1D1D1D"></path><path d="M469.229 186.67C469.257 186.177 469.271 185.794 469.271 185.523C469.271 180.195 467.474 177.529 463.881 177.529C460.345 177.529 458.562 180.576 458.537 186.67H469.229ZM480.127 193.35H458.454V195.637C458.454 199.341 458.959 201.821 459.964 203.072C460.971 204.325 462.29 204.951 463.924 204.951C467.433 204.951 469.409 202.6 469.845 197.9L480.127 198.555C478.299 208.175 472.828 212.984 463.717 212.984C458.098 212.984 453.828 211.086 450.91 207.287C447.992 203.49 446.533 198.407 446.533 192.039C446.533 184.854 448.079 179.365 451.177 175.582C454.272 171.797 458.426 169.903 463.636 169.903C468.329 169.903 472.25 171.58 475.401 174.925C478.552 178.273 480.127 184.416 480.127 193.35Z" fill="#1D1D1D"></path><path d="M486.846 156.172H498.401V212.123H486.846V156.172Z" fill="#1D1D1D"></path><path d="M526.792 191.446C526.792 186.164 526.43 182.592 525.71 180.731C524.989 178.869 523.73 177.939 521.937 177.939C520.194 177.939 518.944 178.821 518.182 180.589C517.42 182.353 517.041 185.972 517.041 191.446C517.041 196.508 517.368 200.024 518.02 201.994C518.673 203.967 519.978 204.95 521.937 204.95C523.812 204.95 525.09 203.973 525.771 202.016C526.45 200.058 526.792 196.536 526.792 191.446ZM538.714 191.423C538.714 205.798 533.121 212.985 521.937 212.985C510.725 212.985 505.12 205.798 505.12 191.423C505.12 177.077 510.725 169.904 521.937 169.904C533.121 169.904 538.714 177.077 538.714 191.423Z" fill="#1D1D1D"></path><path d="M556.822 195.171C556.822 199.126 557.14 201.697 557.78 202.885C558.418 204.073 559.717 204.665 561.677 204.665C563.418 204.665 564.711 203.874 565.553 202.291C566.396 200.707 566.818 196.876 566.818 190.791C566.818 185.715 566.449 182.278 565.716 180.478C564.98 178.675 563.744 177.775 562.003 177.775C560.562 177.775 559.336 178.341 558.329 179.474C557.324 180.606 556.822 183.233 556.822 187.353V195.171ZM545.472 170.724H556.125V176.914C558.386 172.433 561.521 170.193 565.531 170.193C569.321 170.193 572.47 171.882 574.976 175.255C577.485 178.631 578.739 183.789 578.739 190.728C578.739 197.999 577.511 203.477 575.059 207.165C572.605 210.853 569.156 212.7 564.715 212.7C561.523 212.7 558.891 211.483 556.822 209.05V226.141H545.472V170.724Z" fill="#1D1D1D"></path><path d="M585.496 170.723H596.435V176.38C598.401 172.063 601.748 169.904 606.474 169.904C611.388 169.904 614.365 172.063 615.404 176.38C617.265 172.063 620.616 169.904 625.462 169.904C628.171 169.904 630.325 170.397 631.926 171.38C633.527 172.363 634.641 173.709 635.271 175.417C635.902 177.126 636.216 180.343 636.216 185.069V212.123H624.663V186.259C624.663 183.171 624.444 181.162 624.009 180.232C623.571 179.303 622.602 178.839 621.099 178.839C619.297 178.839 618.122 179.449 617.575 180.663C617.03 181.88 616.756 184.333 616.756 188.021V212.123H605.203V185.888C605.203 182.938 604.991 181.026 604.567 180.151C604.144 179.277 603.181 178.839 601.679 178.839C599.821 178.839 598.587 179.473 597.971 180.745C597.357 182.016 597.049 184.443 597.049 188.021V212.123H585.496V170.723Z" fill="#1D1D1D"></path><path d="M665.019 186.67C665.048 186.178 665.062 185.794 665.062 185.523C665.062 180.195 663.264 177.529 659.671 177.529C656.135 177.529 654.352 180.576 654.328 186.67H665.019ZM675.917 193.351H654.245V195.638C654.245 199.342 654.749 201.821 655.754 203.072C656.762 204.325 658.081 204.951 659.714 204.951C663.224 204.951 665.2 202.6 665.635 197.9L675.917 198.555C674.089 208.175 668.618 212.984 659.507 212.984C653.888 212.984 649.618 211.086 646.7 207.287C643.782 203.49 642.323 198.407 642.323 192.039C642.323 184.854 643.869 179.365 646.968 175.582C650.062 171.797 654.216 169.904 659.426 169.904C664.119 169.904 668.041 171.58 671.192 174.925C674.343 178.273 675.917 184.416 675.917 193.351Z" fill="#1D1D1D"></path><path d="M682.677 170.723H693.615V176.38C695.528 172.063 698.983 169.904 703.98 169.904C706.686 169.904 708.917 170.512 710.678 171.729C712.441 172.945 713.567 174.494 714.058 176.38C714.55 178.267 714.797 181.136 714.797 184.988V212.123H703.243V184.988C703.243 182.2 702.888 180.479 702.179 179.822C701.466 179.167 700.513 178.839 699.31 178.839C697.235 178.839 695.869 179.473 695.214 180.745C694.558 182.016 694.229 184.386 694.229 187.857V212.123H682.677V170.723Z" fill="#1D1D1D"></path><path d="M724.424 158.02L735.648 157.648V170.725H743.269V179.824H735.648V195.032C735.648 197.848 735.709 199.671 735.832 200.504C735.954 201.337 736.365 202.035 737.06 202.594C737.757 203.156 738.925 203.434 740.564 203.434C741.437 203.434 742.532 203.407 743.843 203.353V212.125C741.273 212.699 738.925 212.985 736.795 212.985C733.299 212.985 730.622 212.314 728.766 210.976C726.908 209.638 725.72 207.957 725.202 205.935C724.683 203.914 724.424 200.703 724.424 196.303V179.824H719.834V170.725H724.424V158.02Z" fill="#1D1D1D"></path><path d="M785.659 190.973L780.007 168.051L774.586 190.973H785.659ZM774.979 156.174H787.353L803.331 212.125H790.761L787.973 200.564H772.22L769.478 212.125H758.182L774.979 156.174Z" fill="#1D1D1D"></path><path d="M806.934 156.172H818.488V212.123H806.934V156.172Z" fill="#1D1D1D"></path><path d="M826.926 156.172H838.481V212.123H826.926V156.172Z" fill="#1D1D1D"></path><path d="M846.919 170.723H858.474V212.123H846.919V170.723ZM858.555 167.321H846.838V155.884H858.555V167.321Z" fill="#1D1D1D"></path><path d="M886.948 192.366C883.588 192.747 881.191 193.491 879.758 194.594C878.323 195.697 877.608 197.556 877.608 200.172C877.608 203.657 878.889 205.402 881.458 205.402C882.852 205.402 884.115 204.618 885.248 203.053C886.38 201.485 886.948 198.604 886.948 194.41V192.366ZM878.017 183.881L867.077 182.817C867.595 178.663 869.364 175.465 872.384 173.225C875.401 170.985 879.205 169.864 883.793 169.864C887.669 169.864 890.786 170.61 893.134 172.098C895.483 173.586 896.964 175.315 897.578 177.284C898.194 179.251 898.5 182.298 898.5 186.422V202.943C898.5 208.08 898.731 211.14 899.197 212.123H888.465C888.082 211.002 887.89 208.883 887.89 205.769C885.355 210.578 881.58 212.985 876.562 212.985C873.344 212.985 870.728 212.02 868.71 210.094C866.694 208.168 865.684 205.36 865.684 201.672C865.684 197.055 867.21 193.481 870.264 190.953C873.316 188.427 878.878 186.916 886.948 186.422V184.867C886.948 182.105 886.668 180.193 886.111 179.127C885.555 178.061 884.473 177.529 882.868 177.529C879.932 177.529 878.315 179.648 878.017 183.881Z" fill="#1D1D1D"></path><path d="M906.98 170.723H917.919V176.38C919.832 172.063 923.287 169.904 928.284 169.904C930.989 169.904 933.22 170.512 934.981 171.729C936.744 172.945 937.871 174.494 938.361 176.38C938.854 178.267 939.101 181.136 939.101 184.988V212.123H927.546V184.988C927.546 182.2 927.192 180.479 926.482 179.822C925.769 179.167 924.817 178.839 923.613 178.839C921.538 178.839 920.172 179.473 919.518 180.745C918.861 182.016 918.533 184.386 918.533 187.857V212.123H906.98V170.723Z" fill="#1D1D1D"></path><path d="M977.899 185.974L967.165 186.383C967.001 183.841 966.591 181.923 965.937 180.623C965.278 179.328 964.174 178.677 962.618 178.677C958.739 178.677 956.8 182.748 956.8 190.892C956.8 195.62 957.27 198.927 958.212 200.81C959.155 202.696 960.555 203.64 962.411 203.64C965.307 203.64 966.891 201.084 967.165 195.975L977.899 196.67C976.942 207.547 971.542 212.985 961.696 212.985C956.376 212.985 952.303 211.189 949.482 207.594C946.658 204.003 945.247 198.653 945.247 191.547C945.247 184.496 946.724 179.127 949.685 175.439C952.646 171.749 956.8 169.904 962.146 169.904C971.801 169.904 977.052 175.263 977.899 185.974Z" fill="#1D1D1D"></path><path d="M1005.1 186.67C1005.13 186.177 1005.14 185.794 1005.14 185.523C1005.14 180.195 1003.35 177.529 999.754 177.529C996.218 177.529 994.435 180.576 994.41 186.67H1005.1ZM1016 193.35H994.327V195.637C994.327 199.341 994.832 201.821 995.837 203.072C996.844 204.325 998.163 204.951 999.797 204.951C1003.31 204.951 1005.28 202.6 1005.72 197.9L1016 198.555C1014.17 208.175 1008.7 212.984 999.59 212.984C993.971 212.984 989.701 211.086 986.783 207.287C983.865 203.49 982.406 198.407 982.406 192.039C982.406 184.854 983.952 179.365 987.051 175.582C990.145 171.797 994.299 169.903 999.509 169.903C1004.2 169.903 1008.12 171.58 1011.27 174.925C1014.43 178.273 1016 184.416 1016 193.35Z" fill="#1D1D1D"></path><path d="M350.575 267.931L355.328 268.571C354.354 275.269 350.952 278.616 345.122 278.616C341.334 278.616 338.512 277.21 336.654 274.4C334.796 271.588 333.869 267.828 333.869 263.119C333.869 258.042 334.849 254.15 336.814 251.441C338.778 248.733 341.608 247.378 345.306 247.378C351.029 247.378 354.385 250.809 355.375 257.665L350.575 258.351C350.057 253.788 348.311 251.508 345.329 251.508C341.346 251.508 339.354 255.474 339.354 263.406C339.354 270.794 341.346 274.487 345.329 274.487C346.925 274.487 348.116 273.924 348.897 272.8C349.682 271.674 350.24 270.049 350.575 267.931Z" fill="#17633C"></path><path d="M365.238 251.795V261.617H369.192C370.959 261.617 372.259 261.146 373.089 260.205C373.919 259.264 374.333 258.034 374.333 256.517C374.333 253.368 372.635 251.795 369.237 251.795H365.238ZM360.075 247.932H369.468C372.864 247.932 375.371 248.675 376.986 250.162C378.599 251.648 379.41 253.782 379.41 256.563C379.41 260.272 377.816 262.899 374.633 264.444L380.551 278.064H374.949L370.101 265.482H365.238V278.064H360.075V247.932Z" fill="#17633C"></path><path d="M385.247 247.931H403.118V251.928H390.41V260.536H400.375V264.555H390.41V273.981H403.324V278.063H385.247V247.931Z" fill="#17633C"></path><path d="M419.058 266.584L415.481 252.789L411.939 266.584H419.058ZM413.098 247.931H418.886L427.262 278.063H422.032L420.076 270.514H410.929L408.99 278.063H404.064L408.581 262.997L413.098 247.931Z" fill="#17633C"></path><path d="M425.878 247.931H444.939V252.171H437.969V278.063H432.804V252.171H425.878V247.931Z" fill="#17633C"></path><path d="M447.645 247.931H452.808V278.063H447.645V247.931Z" fill="#17633C"></path><path d="M459.107 247.931H465.187L475.448 269.653V247.931H479.769V278.063H474.945L463.426 253.935V278.063H459.107V247.931Z" fill="#17633C"></path><path d="M496.646 262.61H507.067V278.286H504.312L503.622 274.467C502.04 277.233 499.541 278.616 496.118 278.616C492.639 278.616 489.915 277.252 487.955 274.52C485.995 271.79 485.015 268.085 485.015 263.406C485.015 258.475 485.983 254.571 487.923 251.695C489.864 248.818 492.842 247.378 496.861 247.378C502.462 247.378 505.811 250.439 506.907 256.562L502.245 257.688C501.697 255.099 500.961 253.421 500.032 252.655C499.104 251.889 498.009 251.508 496.749 251.508C492.566 251.508 490.475 255.326 490.475 262.964C490.475 270.647 492.615 274.487 496.895 274.487C500.447 274.487 502.222 271.859 502.222 266.607H496.646V262.61Z" fill="#17633C"></path><path d="M540.615 254.663L536.205 256.143C535.686 254.545 535.004 253.365 534.16 252.605C533.314 251.845 532.158 251.462 530.697 251.462C529.34 251.462 528.293 251.849 527.553 252.626C526.814 253.4 526.445 254.289 526.445 255.293C526.445 256.4 526.859 257.282 527.689 257.939C528.522 258.595 530.178 259.381 532.661 260.292C534.779 261.073 536.41 261.816 537.552 262.523C538.694 263.229 539.621 264.174 540.329 265.359C541.039 266.544 541.392 267.915 541.392 269.476C541.392 272.007 540.467 274.164 538.615 275.945C536.765 277.724 534.17 278.616 530.833 278.616C525.074 278.616 521.509 275.806 520.138 270.182L524.755 268.923C525.561 272.634 527.666 274.487 531.062 274.487C532.722 274.487 533.984 274.07 534.844 273.24C535.706 272.407 536.136 271.382 536.136 270.161C536.136 269.262 535.838 268.432 535.243 267.666C534.651 266.902 533.172 266.085 530.809 265.216C528.313 264.304 526.51 263.53 525.406 262.898C524.301 262.265 523.361 261.33 522.582 260.096C521.806 258.857 521.418 257.453 521.418 255.878C521.418 253.48 522.282 251.462 524.011 249.83C525.741 248.195 528.036 247.378 530.902 247.378C535.974 247.378 539.213 249.807 540.615 254.663Z" fill="#17633C"></path><path d="M541.952 247.931H547.563L553.304 260.498L559.13 247.931H564.074L555.412 265.327V278.063H550.247V265.327L541.952 247.931Z" fill="#17633C"></path><path d="M565.868 247.931H571.948L577.078 258.792L582.209 269.653V247.931H586.53V278.063H581.706L570.187 253.935V278.063H565.868V247.931Z" fill="#17633C"></path><path d="M592.801 247.931H610.673V251.928H597.964V260.536H607.93V264.555H597.964V273.981H610.878V278.063H592.801V247.931Z" fill="#17633C"></path><path d="M619.961 251.795V261.617H623.915C625.682 261.617 626.981 261.146 627.812 260.205C628.642 259.264 629.056 258.034 629.056 256.517C629.056 253.368 627.358 251.795 623.96 251.795H619.961ZM614.798 247.932H624.191C627.587 247.932 630.093 248.675 631.709 250.162C633.322 251.648 634.132 253.782 634.132 256.563C634.132 260.272 632.539 262.899 629.356 264.444L635.274 278.064H629.671L624.824 265.482H619.961V278.064H614.798V247.932Z" fill="#17633C"></path><path d="M650.165 262.61H660.585V278.286H657.83L657.14 274.467C655.558 277.233 653.06 278.616 649.636 278.616C646.157 278.616 643.434 277.252 641.473 274.52C639.513 271.79 638.533 268.085 638.533 263.406C638.533 258.475 639.501 254.571 641.442 251.695C643.382 248.818 646.36 247.378 650.379 247.378C655.98 247.378 659.329 250.439 660.426 256.562L655.763 257.688C655.215 255.099 654.48 253.421 653.551 252.655C652.622 251.889 651.527 251.508 650.267 251.508C646.084 251.508 643.994 255.326 643.994 262.964C643.994 270.647 646.133 274.487 650.413 274.487C653.965 274.487 655.74 271.859 655.74 266.607H650.165V262.61Z" fill="#17633C"></path><path d="M666.357 247.931H671.52V278.063H666.357V247.931Z" fill="#17633C"></path><path d="M677.978 247.931H695.85V251.928H683.141V260.536H693.107V264.555H683.141V273.981H696.055V278.063H677.978V247.931Z" fill="#17633C"></path><path d="M718.552 254.663L714.142 256.143C713.623 254.545 712.941 253.365 712.097 252.605C711.251 251.845 710.095 251.462 708.634 251.462C707.277 251.462 706.23 251.849 705.49 252.626C704.751 253.4 704.382 254.289 704.382 255.293C704.382 256.4 704.796 257.282 705.626 257.939C706.458 258.595 708.115 259.381 710.598 260.292C712.716 261.073 714.347 261.816 715.489 262.523C716.631 263.229 717.558 264.174 718.266 265.359C718.976 266.544 719.329 267.915 719.329 269.476C719.329 272.007 718.404 274.164 716.552 275.945C714.702 277.724 712.107 278.616 708.77 278.616C703.011 278.616 699.445 275.806 698.075 270.182L702.692 268.923C703.498 272.634 705.603 274.487 708.999 274.487C710.659 274.487 711.921 274.07 712.781 273.24C713.643 272.407 714.073 271.382 714.073 270.161C714.073 269.262 713.775 268.432 713.18 267.666C712.588 266.902 711.109 266.085 708.746 265.216C706.249 264.304 704.447 263.53 703.342 262.898C702.238 262.265 701.297 261.33 700.518 260.096C699.743 258.857 699.355 257.453 699.355 255.878C699.355 253.48 700.219 251.462 701.948 249.83C703.678 248.195 705.973 247.378 708.839 247.378C713.911 247.378 717.149 249.807 718.552 254.663Z" fill="#17633C"></path><path d="M733.568 247.931H750.889V251.928H738.731V260.934H748.469V264.929H738.731V278.063H733.568V262.997V247.931Z" fill="#17633C"></path><path d="M769.939 262.997C769.939 259.418 769.509 256.602 768.649 254.545C767.787 252.489 766.283 251.463 764.135 251.463C761.987 251.463 760.485 252.493 759.631 254.556C758.779 256.617 758.353 259.433 758.353 262.997C758.353 266.504 758.771 269.302 759.611 271.394C760.449 273.486 761.979 274.531 764.204 274.531C766.289 274.531 767.768 273.518 768.637 271.493C769.505 269.466 769.939 266.635 769.939 262.997ZM775.356 262.986C775.356 268.137 774.404 272.03 772.499 274.665C770.594 277.299 767.829 278.616 764.204 278.616C760.561 278.616 757.773 277.303 755.84 274.674C753.903 272.047 752.937 268.152 752.937 262.986C752.937 257.865 753.896 253.985 755.816 251.343C757.735 248.7 760.524 247.378 764.18 247.378C767.791 247.378 770.556 248.693 772.475 251.32C774.396 253.947 775.356 257.835 775.356 262.986Z" fill="#17633C"></path><path d="M785.923 251.795V261.617H789.877C791.645 261.617 792.944 261.146 793.774 260.205C794.605 259.264 795.019 258.034 795.019 256.517C795.019 253.368 793.321 251.795 789.923 251.795H785.923ZM780.76 247.932H790.154C793.55 247.932 796.056 248.675 797.671 250.162C799.285 251.648 800.095 253.782 800.095 256.563C800.095 260.272 798.502 262.899 795.319 264.444L801.237 278.064H795.634L790.787 265.482H785.923V278.064H780.76V247.932Z" fill="#17633C"></path><path d="M815.133 247.931H833.005V251.928H820.297V260.536H830.262V264.555H820.297V273.981H833.21V278.063H815.133V247.931Z" fill="#17633C"></path><path d="M848.945 266.584L845.368 252.789L841.826 266.584H848.945ZM842.986 247.931H848.774L857.15 278.063H851.92L849.963 270.514H840.816L838.878 278.063H833.951L842.986 247.931Z" fill="#17633C"></path><path d="M865.89 251.795V261.617H869.845C871.612 261.617 872.911 261.146 873.741 260.205C874.572 259.264 874.986 258.034 874.986 256.517C874.986 253.368 873.288 251.795 869.89 251.795H865.89ZM860.727 247.932H870.121C873.517 247.932 876.023 248.675 877.638 250.162C879.252 251.648 880.062 253.782 880.062 256.563C880.062 260.272 878.469 262.899 875.286 264.444L881.204 278.064H875.601L870.754 265.482H865.89V278.064H860.727V247.932Z" fill="#17633C"></path><path d="M882.767 247.931H901.828V252.171H894.858V278.063H889.693V252.171H882.767V247.931Z" fill="#17633C"></path><path d="M904.535 247.931H909.698V260.427H918.886V247.931H924.052V278.063H918.886V264.641H909.698V278.063H904.535V247.931Z" fill="#17633C"></path><path fill-rule="evenodd" clip-rule="evenodd" d="M256.824 63.4932C249.403 63.1014 247.052 58.9255 249.883 51.373C248.331 50.8341 246.825 50.3112 245.267 49.7671C245.732 49.3665 246.434 48.7638 247.37 47.9609C246.325 47.3849 245.472 46.9116 245.37 46.8549C247.37 44.5134 249.716 42.25 251.517 39.5487C255.768 33.1678 261.035 31.7764 266.53 37.1754C267.306 37.9393 268.168 38.8628 269.113 39.1038C275.578 40.7788 279.927 45.4812 284.531 50.4601C293.991 60.6944 300.586 72.7154 303.756 86.4432C307.748 103.744 306.733 120.705 298.027 136.353C295.384 143.389 291.497 152.016 283.415 161.63C276.583 169.752 263.012 178.21 260.971 181.108C255.476 188.917 248.5 197.546 242.3 204.611C238.923 208.457 233.607 210.63 228.796 212.435C226.817 213.177 222.566 211.789 221.587 209.966C217.978 203.221 213.133 198.934 205.816 197.87C208.329 189.382 214.145 185.894 220.299 183.242C224.348 181.496 228.783 180.117 233.117 179.927C241.877 179.55 250.043 175.572 251.419 169.067C251.661 167.924 251.626 162.896 251.282 159.794C247.326 147.603 249.3 145.423 250.69 135.178C251.197 131.425 251.104 127.542 251.039 123.717C250.985 120.454 249.904 119.117 246.546 120.602C243.485 121.957 240.06 122.595 236.728 122.978C232.481 123.463 231.602 121.841 232.117 117.24C233.154 107.952 237.967 103.33 246.068 100.843C252.102 98.9906 255.635 93.2407 257.631 86.7286C257.348 86.344 257.07 85.9576 256.791 85.5694C255.071 87.0601 253.324 88.51 251.64 90.0467C248.788 92.6593 246.172 95.6584 243.053 97.8013C241.786 98.6734 238.897 98.466 237.784 97.4237C236.714 96.4187 236.677 93.6732 236.772 91.7394C236.842 90.2842 237.524 88.5401 238.477 87.5528C242.611 83.2989 246.783 79.0414 251.291 75.2855C252.999 73.8657 255.654 73.7966 258.768 72.8377C258.172 69.9698 257.518 66.8166 256.824 63.4932Z" fill="#00497A"></path><path fill-rule="evenodd" clip-rule="evenodd" d="M193.812 340.772C192.563 344.393 190.391 346.83 186.469 347.488C183.899 347.918 181.71 347.089 179.661 345.795C179.243 345.529 178.984 344.54 179.106 343.978C180.613 336.918 179.396 333.987 173.387 330.22C172.834 329.873 172.377 329.151 172.175 328.512C171.2 325.387 169.827 322.698 166.502 321.282C165.62 320.906 164.94 319.616 164.568 318.605C162.733 313.61 158.336 310.806 152.992 311.228C152.239 311.29 151.124 310.913 150.69 310.353C146.494 304.945 141.242 303.833 135.318 307.222C134.638 307.614 133.933 307.956 133.146 308.373C131.482 305.824 131.341 303.273 132.706 300.866C137.6 292.25 142.589 283.684 147.622 275.148C149.553 271.865 152.66 270.458 156.444 270.427C158.848 270.411 161.248 270.426 163.513 270.426C160.658 275.068 157.741 279.595 155.066 284.255C153.861 286.355 152.645 288.654 152.305 290.983C151.594 295.886 155.75 300.288 160.888 300.872C164.898 301.324 168.304 300.005 171.149 297.46C173.737 295.145 176.062 292.52 178.357 289.911C179.25 288.895 179.995 288.709 181.343 288.847C186.867 289.421 191.329 292.323 195.935 294.946C205.614 300.467 215.318 305.937 224.96 311.515C229.202 313.974 230.585 318.263 228.745 322.492C227.107 326.262 223.099 328.209 219.11 327.503C217.474 329.577 216.327 331.954 214.418 333.195C212.496 334.439 209.821 334.552 207.022 335.279C203.774 341.623 201.179 342.828 193.812 340.772Z" fill="#17633C"></path><path fill-rule="evenodd" clip-rule="evenodd" d="M159.236 289.36C159.329 289.075 159.442 288.341 159.789 287.733C162.019 283.848 164.223 279.943 166.581 276.129C169.94 270.696 175.686 267.708 181.685 267.607C193.169 267.412 203.663 267.316 214.986 268.722C219.094 268.754 231.529 263.638 233.59 267.144C237.843 274.371 248.933 292.985 253.064 300.279C255.66 304.861 242.278 306.679 237.326 308.783C236.72 309.042 235.671 308.735 235.012 308.363C223.28 301.764 207.417 292.881 195.74 286.191C190.886 283.408 185.764 281.877 180.119 281.982C178.694 282.008 177.928 282.584 177.048 283.595C174.435 286.585 171.881 289.694 168.846 292.221C167.418 293.409 164.958 293.707 162.937 293.792C160.745 293.884 159.181 291.861 159.236 289.36Z" fill="#00497A"></path><path fill-rule="evenodd" clip-rule="evenodd" d="M152.927 270.928C152.47 271.987 151.918 276.647 151.525 277.321C143.624 290.866 143.344 292.841 135.421 306.374C134.193 308.469 132.665 308.88 130.467 307.655C128.631 306.634 122.412 301.588 114.908 297.933C106.835 294.003 97.4566 291.449 95.4902 290.327C92.777 288.785 93.4676 286.876 94.044 284.879C96.7836 274.403 95.1845 265.016 95.1845 259.995C95.1845 254.527 96.2582 252.873 97.541 250.696C98.5848 248.92 100.135 248.619 101.836 249.553C106.041 251.863 128.256 264.839 135.811 268.244C136.697 268.643 146.812 272.37 152.927 270.928Z" fill="#17633C"></path><path fill-rule="evenodd" clip-rule="evenodd" d="M146.997 319.761C147.958 319.373 148.652 319.172 149.273 318.834C151.768 317.462 154.179 317.458 156.388 319.33C158.532 321.147 158.836 323.465 157.941 326.016C157.846 326.287 157.797 326.576 157.688 327.021C160.284 326.688 162.668 327.021 164.429 329.091C166.181 331.151 166.204 333.421 164.861 336.025C165.863 336.025 166.622 336.014 167.378 336.029C170.024 336.075 172.212 337.704 172.899 340.134C173.641 342.752 172.729 345.276 170.339 346.656C167.728 348.174 165.297 350.139 161.958 349.992C158.683 349.849 156.293 348.468 154.588 345.698C154.188 345.047 153.237 344.388 152.492 344.333C149.476 344.125 147.326 342.706 145.516 340.403C144.879 339.593 143.778 338.863 142.772 338.657C137.834 337.645 135.471 335.311 134.584 330.364C134.469 329.749 134.002 329.084 133.512 328.66C128.048 323.956 128.582 317.455 134.898 313.892C136.543 312.967 138.502 312.219 140.363 312.107C143.728 311.903 145.795 313.828 146.464 317.077C146.623 317.845 146.768 318.616 146.997 319.761Z" fill="#00497A"></path><path fill-rule="evenodd" clip-rule="evenodd" d="M256.485 302.486C254.55 302.514 252.684 300.689 252.674 298.757C252.663 296.773 254.403 295.132 256.49 295.146C258.692 295.164 260.145 296.665 260.087 298.868C260.033 300.85 258.432 302.458 256.485 302.486ZM272.573 300.322C265.894 274.78 281.574 263.153 273.698 245.519C273.311 244.652 272.821 243.574 271.396 243.574C270.31 244.019 269.547 244.244 268.87 244.623C265.068 246.761 230.822 259.482 227.042 261.664C224.573 263.086 224.197 264.403 225.608 266.822C233.516 280.366 242.536 295.481 250.458 309.014C251.689 311.116 253.076 311.235 255.403 310.324C259.882 308.576 267.002 306.692 271.339 304.817C273.559 303.856 273.177 302.633 272.573 300.322Z" fill="#00497A"></path><path fill-rule="evenodd" clip-rule="evenodd" d="M120.362 306.034C119.272 308.195 115.413 308.479 111.74 306.671C108.071 304.865 105.978 301.648 107.07 299.49L126.092 261.823C127.182 259.659 131.039 259.377 134.712 261.182C138.383 262.993 140.474 266.205 139.382 268.369L120.362 306.034Z" fill="#17633C"></path><path fill-rule="evenodd" clip-rule="evenodd" d="M198.975 183.587C186.632 190.326 169.477 196.202 156.196 189.144C161.367 193.667 167.53 196.964 174.506 197.482C190.584 198.667 198.757 197.418 205.861 208.785C203.201 204.522 208.171 213.666 213.261 224.499C199.505 223.728 191.276 226.391 180.001 218.441C176.445 215.935 173.937 208.902 173.589 204.47C173.315 201.002 169.669 199.678 166.498 198.16C161.833 195.925 157.348 193.309 152.786 190.858C152.451 191.044 152.119 191.234 151.785 191.427C152.509 193.178 152.948 195.133 154.001 196.654C164.457 207.705 162.629 216.897 158.202 228.516C137.043 217.11 138.913 208.88 148.811 194.201C150.723 191.368 145.445 190.2 142.542 188.41C136.377 184.601 133.467 181.807 126.181 176.58C126.956 182.924 129.908 189.512 129.673 194.968C129.43 200.606 126.042 205.116 124.876 210.897C112.852 205.89 110.492 195.55 115.754 185.804C117.23 183.066 120.467 181.036 121.916 178.291C122.663 176.884 123.282 174.393 122.57 173.383C117.78 166.582 114.977 159.127 109.324 151.702C109.125 154.345 108.717 156.418 108.858 158.453C109.594 169.157 105.677 178.08 99.0911 186.255C91.28 176.935 92.3044 164.462 101.261 156.433C109.267 149.247 109.262 149.251 104.228 139.688C102.741 136.864 105.604 129.376 106.559 132.749C107.438 135.852 103.593 133.084 112.292 150.158C114.812 155.018 116.695 155.103 119.641 150.381C126.643 139.162 135.27 135.457 145.935 141.172C147.024 141.755 151.089 144.481 153.263 145.81C144.323 147.53 143.051 150.771 137.291 154.178C130.813 158.01 123.763 158.335 116.999 154.793C116.748 155.554 116.5 156.312 116.251 157.073C120.658 161.559 122.542 167.151 127.176 171.382C129.657 173.649 131.555 171.229 133.442 169.554C136.916 166.472 140.194 162.911 144.188 160.736C151.129 156.95 158.447 157.899 165.97 161.066C162.184 167.394 157.536 172.952 150.954 174.466C144.814 175.88 138.052 174.556 131.219 174.432C131.539 174.916 131.94 175.944 132.646 176.522C137.054 180.111 139.312 182.706 144.03 185.953C146.339 187.538 153.688 187.164 155.869 185.129C168.059 171.914 171.431 170.249 188.132 178.564C190.248 179.618 196.906 182.442 198.975 183.587Z" fill="#17633C"></path><path fill-rule="evenodd" clip-rule="evenodd" d="M106.299 137.399C105.076 138.31 102.983 138.544 102.006 139.673C96.8641 147.913 88.3044 149.544 79.5022 148.425C81.9676 138.655 93.9066 131.72 102.911 135.098C105.48 136.06 105.292 128.947 106.125 126.308C107.893 120.696 108.907 119.637 112.231 113.803C107.45 115.64 103.422 117.797 99.138 118.665C94.7096 119.562 92.1194 119.835 87.3994 120.032C88.6488 111.689 96.7164 106.534 103.015 108.204C105.426 108.842 107.666 110.145 110.079 110.762C111.316 111.079 113.37 111.084 114.019 110.331C118.378 105.232 123.626 101.575 128.307 95.6709C126.216 96.0254 124.525 96.1033 122.97 96.6067C114.797 99.2566 114.388 99.4604 106.768 95.8339C111.037 89.8926 118.508 86.672 123.074 90.2116C130.203 95.1533 130.962 94.2422 137.673 89.9475C140.218 88.6678 143.634 89.5859 140.736 90.3375C138.172 91.0021 133.002 95.1161 130.078 97.7216C126.79 100.653 127.086 102.156 131.326 103.573C138.478 106.841 140.678 108.422 142.372 117.054C142.696 118.685 142.947 122.295 142.334 124.275C137.761 119.567 133.684 118.795 129.695 114.659C125.466 110.28 125.304 108.317 126.748 102.284C126.11 102.234 126.11 102.238 125.473 102.185C121.74 106.114 118.972 107.823 116.465 113.584C115.18 115.983 117.424 117.017 119.092 118.187C122.157 120.337 123.128 120.182 125.705 122.811C129.477 126.659 130.182 128.556 129.173 135.114C123.527 133.345 119.689 132.352 117.24 127.441C114.957 122.859 116.096 122.797 114.878 117.373C114.558 117.717 113.484 117.127 113.024 117.706C109.68 121.928 110.144 121.703 108.532 126.062C107.749 128.192 106.512 137.625 106.299 137.399Z" fill="#17633C"></path><path fill-rule="evenodd" clip-rule="evenodd" d="M138.5 90.6587C137.549 90.0472 136.808 88.7214 135.781 88.3137C128.828 86.6458 125.341 81.3709 123.632 75.364C130.856 74.9599 138.839 81.3567 139.096 87.961C139.169 89.8451 143.879 88.2499 145.879 88.2499C150.128 88.2499 151.124 88.693 155.957 89.6644C153.391 86.9117 150.822 84.7156 149.042 82.0852C147.204 79.3662 146.295 77.7214 144.845 74.6692C150.782 73.7617 156.484 77.9855 157.131 82.4628C157.377 84.1768 157.131 85.9156 157.392 87.626C157.524 88.5034 158.094 89.8522 158.781 90.1199C163.416 91.9243 167.328 94.6096 172.589 96.46C171.77 95.159 171.243 94.069 170.47 93.1526C166.414 88.3368 166.161 88.1117 166.46 82.3617C171.632 83.9339 175.875 88.1702 174.781 91.8977C173.466 97.5944 173.466 97.5909 179.174 100.622C182.184 102.217 177.54 101.182 171.712 98.0464C168.83 96.4955 167.906 97.0006 168.143 100.074C167.955 105.445 167.511 107.215 162.206 110.113C161.202 110.661 158.854 111.572 157.361 111.579C159.234 107.609 158.612 104.773 160.264 101.301C162.018 97.621 163.285 97.107 167.725 96.8057C167.581 96.3767 167.581 96.3785 167.435 95.9478C163.763 94.3153 161.842 92.8495 157.287 92.3957C155.322 92.0519 155.256 93.7375 154.939 95.074C154.356 97.5306 154.73 98.135 153.693 100.37C152.168 103.642 151.1 104.495 146.425 105.191C146.03 101.118 145.622 98.3974 148.226 95.7741C150.657 93.3281 151.017 94.0636 154.307 92.1387C153.987 92.004 154.082 91.1763 153.567 90.9937C149.804 89.6732 150.084 89.9355 146.719 89.7796C145.07 89.7033 138.41 90.8448 138.5 90.6587Z" fill="#17633C"></path><path fill-rule="evenodd" clip-rule="evenodd" d="M44.4588 179.031C45.1325 178.569 45.659 178.013 45.7954 177.477C46.1591 176.049 45.2576 173.599 44.0697 172.637C42.4362 171.312 40.0984 170.734 37.9649 170.207L37.8999 170.191C33.8424 169.187 31.9621 166.437 31.1695 162.576C30.7021 160.29 31.5368 159.088 33.8494 158.907C33.9295 158.901 34.0101 158.895 34.091 158.889C36.3177 158.724 38.8025 158.539 38.8313 155.582C38.8629 152.48 36.4765 151.204 33.7317 150.646C26.6973 149.219 22.5747 141.292 25.5779 134.647C26.1156 133.461 27.4986 132.022 28.5951 131.928C29.4403 131.859 30.5057 133.181 31.333 134.207C31.4139 134.307 31.4925 134.405 31.5684 134.498C31.898 134.902 32.125 135.421 32.3482 135.932C32.6475 136.616 32.9401 137.286 33.4645 137.641C34.9811 138.674 37.2181 140.124 38.4869 139.637C39.854 139.112 41.3196 136.485 41.1895 134.909C40.9664 132.201 39.9436 129.342 38.5132 127.006C36.0548 122.993 35.2253 119.423 37.7259 114.962C38.7048 113.216 38.5167 109.841 37.4378 108.111C35.8878 105.637 32.9022 106.743 30.7109 107.975C28.6777 109.12 26.6516 110.488 25.0595 112.179C20.7928 116.713 16.0534 120.304 9.96096 121.993C8.41631 122.421 6.6731 123.388 5.79446 124.654C4.90527 125.927 4.24102 128.284 4.84904 129.425C5.39269 130.444 7.35115 130.832 8.91602 131.142C9.06083 131.17 9.20225 131.199 9.33888 131.226C9.94752 131.352 10.6281 131.117 11.2958 130.886C11.5958 130.783 11.8933 130.68 12.1804 130.611C14.0923 135.321 12.7339 139.077 8.66233 141.315C8.35391 141.485 8.03581 141.653 7.71462 141.822C6.10698 142.671 4.42248 143.56 3.49242 144.92C2.55052 146.292 2.23773 148.99 2.98281 150.371C3.4357 151.209 5.335 151.34 6.97466 151.453C7.32633 151.477 7.66604 151.501 7.97699 151.53C8.37071 151.569 8.78164 151.312 9.20538 151.047C9.49845 150.864 9.79763 150.677 10.1015 150.582C10.8541 150.344 11.6309 150.178 12.4077 150.013C12.7356 149.943 13.0634 149.874 13.3894 149.798C13.4613 150.231 13.5906 150.691 13.72 151.151C14.005 152.165 14.29 153.178 13.9588 153.903C13.2731 155.4 12.262 156.744 11.2499 158.09C10.7653 158.734 10.2804 159.378 9.83092 160.04C9.50195 160.525 9.15663 161.004 8.81085 161.484C7.83598 162.837 6.85772 164.194 6.23378 165.697C5.25146 168.064 5.63279 170.609 8.18611 171.848C10.7324 173.087 12.4932 171.345 13.7883 169.377C14.7203 167.957 15.5653 166.48 16.4103 165.002C16.961 164.039 17.5118 163.076 18.0866 162.129C18.2198 161.907 18.4713 161.761 18.8354 161.55C19.038 161.432 19.2755 161.295 19.5469 161.112C19.7227 161.411 19.9257 161.694 20.1227 161.968C20.5282 162.533 20.9087 163.063 20.9773 163.631C21.8156 170.465 22.3094 177.263 17.1588 182.919C16.9424 183.157 16.5874 183.45 16.2021 183.768C15.389 184.44 14.4408 185.223 14.3752 185.836C14.3659 185.921 14.3565 186.005 14.3471 186.087C14.1648 187.698 14.0308 188.882 15.883 190.656C16.0275 190.794 16.1744 190.916 16.323 191.023C15.3879 192.77 14.441 194.513 13.3748 196.165C11.8776 198.483 9.88834 200.554 7.83232 202.409C6.97687 203.18 5.98029 203.817 4.98922 204.451C3.61869 205.327 2.25869 206.196 1.29701 207.402C0.174107 208.819 -0.46027 212.13 0.399039 213.253C1.37433 214.524 4.26154 214.597 6.32809 214.632C7.49507 214.653 8.66879 214.281 9.84283 213.91C10.3642 213.744 10.8857 213.579 11.4066 213.448C11.4834 214.199 11.6296 214.971 11.7757 215.743C12.1042 217.479 12.4328 219.216 11.9742 220.705C11.345 222.761 10.1052 224.627 8.86556 226.492C8.32566 227.305 7.78577 228.117 7.29635 228.945C6.99239 229.459 6.63337 229.968 6.27426 230.476C5.4417 231.654 4.60866 232.833 4.46011 234.092C4.23342 236.028 4.736 238.688 5.98543 240.016C7.92897 242.081 10.4647 240.796 12.3239 239.098C12.7982 238.667 13.1405 238.087 13.4827 237.507C13.8289 236.92 14.175 236.334 14.6576 235.902C15.6294 235.034 17.2461 233.839 18.0772 234.153C19.0332 234.512 20.0155 236.391 19.9698 237.568C19.8941 239.377 19.5658 241.173 19.2369 242.971C19.039 244.053 18.8409 245.136 18.6976 246.223C18.6375 246.685 18.5657 247.153 18.4936 247.622C18.2196 249.405 17.941 251.219 18.2846 252.886C18.5956 254.393 20.1368 256.305 21.5162 256.716C22.5917 257.035 24.7725 255.651 25.5422 254.43C26.3151 253.205 26.6556 251.697 26.9946 250.194C27.1281 249.603 27.2614 249.012 27.4207 248.441C27.6882 247.478 27.9341 246.509 28.2639 245.21C28.4411 244.512 28.6425 243.718 28.8845 242.779C29.518 243.565 30.0867 244.243 30.6016 244.856C31.5963 246.041 32.39 246.986 33.0616 248.012C37.0594 254.111 39.4088 260.596 37.2825 268.035C37.0646 268.79 36.7852 269.769 37.0734 270.387C37.7262 271.774 38.5146 273.095 39.3029 274.416C39.599 274.912 39.895 275.408 40.1838 275.907C40.7359 275.536 41.3368 275.198 41.9378 274.86C43.3208 274.081 44.7042 273.303 45.4943 272.123C46.2304 271.022 46.3415 269.498 46.4527 267.973C46.5015 267.302 46.5504 266.632 46.6523 265.997L46.7387 266.004C47.3018 266.048 47.8622 266.091 48.4289 266.13C48.8106 266.503 49.1895 266.878 49.5683 267.254C50.4521 268.13 51.3357 269.006 52.2545 269.845C52.5939 270.153 52.9296 270.503 53.2674 270.855C54.184 271.809 55.1168 272.78 56.1838 272.995C58.1274 273.388 61.2167 273.378 62.134 272.204C63.2621 270.76 63.3535 267.656 62.6032 265.806C62.0982 264.56 60.6603 263.683 59.2552 262.825C58.763 262.525 58.2748 262.227 57.8321 261.917C57.4965 261.682 57.0838 261.544 56.6759 261.407C56.174 261.239 55.6792 261.074 55.3438 260.733C54.1379 259.51 53.0288 258.191 51.9197 256.873C51.4983 256.372 51.0769 255.87 50.6501 255.375C51.1824 255.217 51.7143 255.057 52.2463 254.897C53.75 254.444 55.2546 253.992 56.7707 253.584C57.1165 253.492 57.4848 253.491 57.8543 253.49C58.1533 253.489 58.4531 253.488 58.7424 253.439C61.9442 252.893 64.9052 251.757 64.8525 247.893C64.7997 244.116 61.8036 243.359 58.7494 242.951C58.2004 242.879 57.6605 242.74 57.1191 242.6C56.8093 242.52 56.4991 242.44 56.1864 242.372C56.6495 241.767 57.1114 241.162 57.5734 240.556C58.7738 238.982 59.9744 237.408 61.1956 235.849C61.7231 235.179 62.2861 234.535 62.8486 233.891C63.1161 233.585 63.3836 233.279 63.647 232.97C63.9443 233.23 64.271 233.473 64.5978 233.716C65.3102 234.246 66.0232 234.776 66.434 235.482C69.7008 241.064 70.771 247.108 70.0575 253.561C69.4108 259.46 70.7798 262.381 73.9675 262.7C76.8424 262.984 79.1462 260.267 79.8579 254.953C80.255 252.007 81.4464 251.615 84.0701 252.064C89.3472 252.969 92.5278 251.493 92.874 248.416C93.1938 245.615 90.5983 243.806 85.4864 242.629C83.1334 242.09 80.5731 241.214 78.7806 239.685C75.3961 236.799 76.4171 232.891 80.6258 231.457C81.401 231.192 82.2111 230.999 83.019 230.806C84.4068 230.474 85.7879 230.144 86.9731 229.457C88.2225 228.731 89.5738 226.804 89.4948 225.505C89.4122 224.156 87.8675 222.137 86.5882 221.788C84.2897 221.155 81.6555 221.187 79.2709 221.586C71.56 222.881 65.7539 218.915 64.3692 211.087C63.9106 208.498 64.9526 207.459 67.4339 208.386C68.0893 208.631 68.7 208.999 69.3101 209.368C69.9564 209.758 70.6021 210.147 71.2999 210.389C71.6241 210.502 71.9531 210.623 72.2851 210.746C73.956 211.361 75.7031 212.004 77.301 211.798C78.9388 211.589 81.051 210.144 81.7118 208.675C82.2934 207.372 81.7171 204.742 80.6697 203.678C79.097 202.073 76.7826 200.924 74.5843 200.293C72.6268 199.729 70.6154 199.361 68.6041 198.993C66.708 198.646 64.8121 198.299 62.9616 197.788C61.8615 197.484 60.89 196.71 59.9182 195.936C59.4759 195.583 59.0336 195.231 58.579 194.922C58.6619 194.683 58.7434 194.443 58.8249 194.203C58.8972 193.991 58.9695 193.778 59.0429 193.565C59.467 193.486 59.8934 193.417 60.32 193.348C61.2385 193.198 62.1577 193.049 63.0565 192.811C65.819 192.078 68.8327 191.17 68.1526 187.462C67.5235 184.025 64.2427 183.465 61.9319 184.587C55.0521 187.928 50.7837 184.892 45.8176 180.225C45.3666 179.801 44.9136 179.403 44.4588 179.031ZM56.0577 242.437C56.0974 242.415 56.1371 242.393 56.1768 242.37L56.1864 242.372C56.1697 242.394 56.153 242.415 56.1364 242.437C56.1101 242.437 56.0839 242.437 56.0577 242.437ZM56.0577 242.437C52.0883 244.646 48.4293 243.066 44.9443 241.23C39.8816 238.568 39.994 236.856 44.2853 233.227C45.67 232.056 46.5135 229.323 46.2851 227.472C46.155 226.46 43.3118 225.287 41.6037 225.125C40.6282 225.033 39.6253 225.393 38.6089 225.757C37.8455 226.03 37.0745 226.307 36.302 226.396C34.6941 226.582 32.6802 226.767 31.4519 225.99C27.7968 223.677 25.4174 213.659 27.2344 209.061C27.5373 209.337 27.8365 209.602 28.1304 209.863C28.7336 210.397 29.3151 210.913 29.8633 211.463C32.1109 213.728 34.4762 215.825 37.7711 213.539C40.182 211.865 39.9677 207.986 37.4512 204.547C37.0262 203.966 36.5422 203.411 36.0592 202.857C35.1182 201.778 34.1813 200.704 33.6924 199.448C33.2731 198.375 33.4187 197.079 33.5647 195.781C33.6297 195.202 33.6948 194.623 33.71 194.063C34.262 194.19 34.8686 194.26 35.4754 194.331C36.7968 194.484 38.1194 194.637 38.8817 195.378C43.0446 199.421 44.0674 204.751 43.8231 210.423C43.8139 210.642 43.8029 210.863 43.7919 211.085C43.7167 212.601 43.6386 214.176 44.0937 215.535C44.4926 216.711 45.7983 218.051 46.9476 218.355C47.6576 218.54 48.6687 217.762 49.5648 217.073C49.7665 216.918 49.9623 216.768 50.1476 216.633C50.4997 216.38 50.7496 215.98 51.0581 215.486C51.2177 215.231 51.3929 214.95 51.6061 214.652C53.9837 218.498 53.5005 222.105 52.5533 225.733C52.2674 226.834 51.934 227.927 51.6008 229.02C50.9592 231.123 50.3182 233.225 50.0175 235.377C49.3817 239.944 51.7322 242.42 56.0577 242.437Z" fill="#00497A"></path><path d="M130.252 0.000309509C132.283 0.0136064 134.071 0.453616 135.124 1.11161C137.054 1.29746 138.917 1.51562 140.592 1.77626C141.657 1.33746 143.123 1.06703 144.738 1.06792C146.976 1.07036 148.922 1.59071 149.917 2.35623C151.077 2.31266 152.414 2.29722 153.899 2.341C154.903 1.59337 157.036 1.24914 159.43 1.54676C161.78 1.83737 163.736 2.66635 164.561 3.61394C166.2 3.96194 167.897 4.39615 169.635 4.93491C170.849 4.78111 172.576 5.05629 174.362 5.76556C176.222 6.50657 177.714 7.54659 178.473 8.53025C180.264 9.44726 182.065 10.4945 183.859 11.6892C185.082 11.8275 186.725 12.5432 188.313 13.7189C190.242 15.1461 191.552 16.8538 191.794 18.0891C193.163 19.4115 194.512 20.8422 195.832 22.3898C197.062 22.6118 198.777 23.8935 200.23 25.8004C201.852 27.9306 202.644 30.1788 202.292 31.3749C203.427 33.2458 204.522 35.2351 205.571 37.3501C206.587 38.0598 207.7 39.5103 208.532 41.3483C209.546 43.5813 209.86 45.7517 209.444 46.9377C210.233 49.8352 210.641 52.7441 210.731 55.6332C211.108 56.733 211.293 58.2361 211.196 59.8787C211.091 61.6684 210.672 63.2534 210.095 64.3086C209.591 67.2234 208.817 70.0827 207.843 72.8516C207.785 73.8678 207.541 75.0528 207.105 76.2708C206.461 78.0678 205.542 79.5405 204.638 80.3655C203.204 83.2313 201.604 85.9438 199.937 88.4544C199.641 89.3477 199.172 90.3263 198.549 91.2947C197.586 92.7936 196.452 93.9609 195.437 94.5938C189.065 102.49 182.971 106.984 182.274 105.558C181.657 104.295 182.809 102.129 184.493 98.9613C188.694 91.0591 196.209 76.9255 187.841 55.0425C181.442 38.3014 151.817 33.03 151.045 32.9379C150.667 32.8918 150.189 32.5373 150.003 32.197C149.288 30.8767 148.612 29.5371 147.936 28.198C147.654 27.6374 147.37 27.075 147.084 26.5162C146.96 26.2738 146.826 26.037 146.703 25.8195L146.566 25.575C146.693 26.5047 146.834 27.435 146.976 28.3663C147.29 30.4393 147.606 32.5179 147.773 34.6093C148.1 38.6789 147.875 42.7397 146.553 46.6622C145.996 48.3194 145.113 49.7676 143.45 50.4571C140.196 51.8024 137.254 53.5855 134.961 56.3559C133.736 54.454 133.945 52.7506 135.563 50.9551C133.029 51.4621 131.348 53.839 130.253 58.4598C128.223 56.643 128.367 52.9049 130.58 49.8881C129.253 50.3986 128.086 51.914 126.865 54.7128C126.406 53.9081 126.304 52.0736 126.656 50.6999C127.332 48.0731 128.884 46.079 131.378 45.1449C133.648 44.2906 134.381 42.4968 134.804 40.4691C135.219 38.4609 134.72 36.5608 133.567 34.8397C133.191 34.2725 132.808 34.1254 132.089 34.2229C131.129 34.3554 130.168 34.5013 129.209 34.6563C121.897 39.275 108.933 42.7617 101.252 44.6001C100.792 44.71 100.145 44.5789 99.7495 44.3148C99.0655 43.859 98.5144 43.3131 97.9255 42.7297C96.9546 41.7677 95.8808 40.7037 93.9382 39.7737C94.306 40.3143 94.6842 40.8384 95.0587 41.3572C95.8543 42.4595 96.6328 43.5381 97.2577 44.7012C100.834 51.3533 100.41 57.9221 96.5179 64.2977C96.2105 64.8014 95.7699 65.2193 95.328 65.6385C95.0374 65.9142 94.7462 66.1904 94.4918 66.492C93.4365 67.7519 92.4008 69.0271 91.2853 70.4004C90.833 70.9573 90.3676 71.5303 89.8824 72.125C89.7501 71.1533 89.6304 70.2647 89.5094 69.3662C89.4345 68.8093 89.359 68.2485 89.2797 67.6619L84.6071 74.0322C83.37 71.0739 83.9745 68.4577 85.7036 65.9709C85.6457 65.9275 85.5894 65.8842 85.5332 65.8408C85.477 65.7973 85.4207 65.7538 85.3627 65.7104L80.734 70.2355C80.3615 68.4382 80.7288 66.5753 81.7128 64.8365C82.6916 63.1102 84.1625 61.9155 85.9039 61.0009C86.4645 60.7067 87.0304 60.2139 87.3379 59.6662C89.8578 55.1712 87.8071 50.0417 82.899 48.5705C82.2558 48.3791 81.4633 48.3915 80.8114 48.5776C78.3503 49.2777 75.8753 49.8765 73.3866 50.378C69.1882 55.2069 64.5983 59.6622 59.651 63.7864C58.6177 64.6461 57.7918 65.878 57.1451 67.0868C52.4414 75.8333 48.348 83.5437 44.6675 90.4764C43.5756 92.5332 42.5192 94.5231 41.4948 96.4497C39.3685 100.45 34.3725 102.189 29.8862 100.346L31.6699 99.3332C32.6339 98.7863 33.5845 98.2469 34.5623 97.6904L32.2638 94.523C33.0885 94.1774 33.8972 93.8397 34.7119 93.4994L36.9487 92.5644C36.2212 91.2812 35.5306 90.0688 34.7205 88.6473L34.9452 88.6226C36.0855 88.4977 37.1453 88.3817 38.3492 88.2538C37.8351 87.0543 37.3695 85.9544 36.9775 85.0284L36.9083 84.8648C37.0154 84.7127 37.0849 84.6046 37.1334 84.529C37.2042 84.4187 37.2306 84.3776 37.265 84.3703C39.7094 83.7694 41.0519 81.9863 42.1713 79.8735C44.7668 74.9673 46.3642 70.24 45.7333 65.2753C45.8599 64.3749 43.7441 59.7292 42.9059 59.4474C41.5499 58.9934 41.4878 59.5092 41.328 60.8358C41.1828 62.0415 40.957 63.9169 39.6057 66.3424C38.7864 66.9836 37.9507 67.1663 37.1394 67.3438C36.188 67.5518 35.2701 67.7526 34.4516 68.6767C34.2249 68.9337 34.2671 69.5364 34.3514 69.9423C34.4919 70.5948 34.6825 71.237 34.8924 71.9438C34.9818 72.2449 35.0746 72.5577 35.1686 72.8881L32.9135 73.2232C31.8141 73.3868 30.7135 73.5506 29.5681 73.7194C29.8443 74.4237 30.1075 75.09 30.3771 75.7725L30.9476 77.2183C29.366 77.4044 27.8759 77.5817 26.1344 77.7926C26.6844 79.0528 27.1853 80.2049 27.7581 81.5237C25.8901 81.7381 24.3894 81.9118 22.5531 82.1263L24.0801 85.4462C22.5162 85.5379 21.2324 85.6106 19.863 85.6881L19.2845 85.7209L19.9191 86.6487C20.4442 87.4165 20.9437 88.1467 21.4811 88.9344L15.2182 90.4729C15.5163 91.1945 15.7947 91.8653 16.0672 92.522L16.2849 93.0465C16.2516 93.072 16.2224 93.0979 16.1954 93.1218C16.1396 93.1713 16.0939 93.2119 16.0441 93.2202C12.5823 93.7857 9.70736 95.4217 7.38776 98.0573C6.82894 98.6901 6.39665 98.5838 5.81675 98.0414C2.27759 94.741 3.0877 88.7625 7.54064 86.7525C9.02203 86.0842 9.92175 85.0987 10.7705 83.8722C14.1527 78.9826 16.1722 76.6773 18.1936 74.3698C20.2104 72.0676 22.2292 69.763 25.6055 64.8872C25.7386 64.6918 26.4053 63.4191 27.0584 62.1722C27.6556 61.0321 28.2417 59.9132 28.3978 59.6601C27.3786 58.7934 27.9356 52.1572 28.7071 50.5868C29.0053 50.3515 29.3028 50.1253 29.5966 49.902C30.2959 49.3702 30.9746 48.8542 31.5908 48.2702C32.1179 47.7703 32.6381 47.111 32.8226 46.4303C34.3567 40.8399 36.8714 35.1113 42.2943 33.2732C44.7621 32.4352 45.9834 31.354 47.1898 30.1585C48.3066 28.0654 49.9464 26.398 52.1853 26.0848C52.3686 26.0593 52.5708 26.0247 52.7901 25.9818C53.6745 25.6114 54.587 25.3914 55.5176 25.301C56.8792 24.9166 58.4394 24.4345 60.0361 23.931C60.7716 22.9871 61.8805 22.1231 63.2405 21.5204C65.346 20.5904 67.5012 20.5317 68.9077 21.2245C69.3709 21.1066 69.7783 21.0141 70.1166 20.9535C70.756 20.8389 71.3872 20.719 72.0108 20.5931C72.5752 19.6282 74.5594 18.6192 77.037 18.1297C78.6738 17.808 80.1966 17.776 81.2962 17.9873C82.1636 17.6582 83.0192 17.3045 83.8646 16.9231C84.1917 15.7086 85.6468 14.1009 87.7048 12.8293C89.8012 11.5324 91.9259 10.9595 93.1364 11.2579C94.3932 10.3133 95.6308 9.44608 96.8775 8.63773C97.4734 7.53197 98.9279 6.24901 100.832 5.26689C102.566 4.37241 104.281 3.92871 105.508 3.97626C106.003 3.7541 106.506 3.53408 107.019 3.31555C108.545 2.66616 110.157 2.26487 111.818 2.03014C114.082 0.802843 116.392 -0.156884 118.98 0.0229018C120.109 0.100044 121.494 0.17835 123.04 0.265658C124.18 0.330003 125.407 0.399327 126.684 0.476787C127.675 0.169724 128.912 -0.00846355 130.252 0.000309509Z" fill="#17633C"></path></svg> 