<svg width="525" height="600" viewBox="0 0 525 600" fill="none" xmlns="http://www.w3.org/2000/svg">
<path fill-rule="evenodd" clip-rule="evenodd" d="M440.636 108.846C427.904 108.174 423.87 101.015 428.727 88.0682C426.065 87.1445 423.481 86.2481 420.806 85.3153C421.605 84.6286 422.808 83.5955 424.415 82.219C422.621 81.2315 421.159 80.4202 420.984 80.3229C424.415 76.3091 428.44 72.4288 431.531 67.7981C438.824 56.8593 447.86 54.4741 457.288 63.7295C458.62 65.0391 460.098 66.6222 461.72 67.0354C472.812 69.9068 480.274 77.9681 488.173 86.5034C504.403 104.048 515.718 124.655 521.157 148.189C528.007 177.848 526.264 206.924 511.328 233.748C506.794 245.811 500.124 260.599 486.259 277.08C474.536 291.003 451.252 305.503 447.751 310.471C438.323 323.859 426.354 338.65 415.717 350.762C409.922 357.356 400.802 361.081 392.547 364.174C389.152 365.447 381.859 363.068 380.18 359.941C373.987 348.38 365.674 341.03 353.12 339.206C357.432 324.655 367.411 318.675 377.97 314.129C384.916 311.136 392.526 308.772 399.961 308.447C414.99 307.8 429.001 300.982 431.362 289.83C431.778 287.87 431.718 279.25 431.127 273.933C424.34 253.033 427.726 249.296 430.111 231.733C430.982 225.301 430.822 218.643 430.711 212.086C430.617 206.492 428.763 204.201 423.001 206.747C417.749 209.069 411.873 210.163 406.157 210.819C398.869 211.652 397.362 208.871 398.245 200.983C400.024 185.061 408.282 177.137 422.181 172.874C432.535 169.699 438.595 159.842 442.02 148.678C441.534 148.019 441.058 147.356 440.579 146.691C437.627 149.246 434.63 151.732 431.742 154.366C426.848 158.845 422.359 163.986 417.008 167.66C414.834 169.155 409.877 168.799 407.969 167.012C406.132 165.29 406.069 160.583 406.232 157.268C406.353 154.773 407.522 151.783 409.157 150.091C416.251 142.798 423.408 135.5 431.142 129.061C434.072 126.627 438.628 126.509 443.97 124.865C442.948 119.949 441.827 114.543 440.636 108.846Z" fill="#2D71C1"/>
<path fill-rule="evenodd" clip-rule="evenodd" d="M332.525 584.181C330.382 590.388 326.655 594.566 319.926 595.694C315.518 596.432 311.761 595.01 308.246 592.792C307.528 592.336 307.085 590.641 307.293 589.677C309.88 577.575 307.79 572.549 297.482 566.092C296.532 565.497 295.749 564.26 295.402 563.163C293.728 557.806 291.374 553.197 285.669 550.769C284.156 550.125 282.989 547.913 282.35 546.181C279.202 537.618 271.659 532.811 262.49 533.534C261.197 533.641 259.285 532.993 258.541 532.033C251.341 522.763 242.329 520.858 232.166 526.667C230.999 527.339 229.79 527.925 228.439 528.639C225.584 524.27 225.343 519.897 227.685 515.771C236.082 501.001 244.642 486.315 253.277 471.682C256.59 466.054 261.92 463.642 268.412 463.59C272.536 463.563 276.655 463.587 280.541 463.587C275.642 471.545 270.637 479.306 266.048 487.294C263.98 490.895 261.893 494.835 261.311 498.828C260.09 507.233 267.221 514.78 276.037 515.78C282.917 516.555 288.76 514.294 293.641 509.931C298.082 505.963 302.071 501.463 306.009 496.99C307.54 495.249 308.818 494.93 311.131 495.167C320.61 496.151 328.265 501.125 336.167 505.622C352.774 515.087 369.423 524.464 385.966 534.027C393.244 538.241 395.617 545.594 392.46 552.844C389.65 559.307 382.773 562.644 375.929 561.434C373.122 564.989 371.153 569.064 367.879 571.191C364.58 573.324 359.992 573.518 355.189 574.764C349.617 585.639 345.164 587.705 332.525 584.181Z" fill="#266E5B"/>
<path fill-rule="evenodd" clip-rule="evenodd" d="M273.202 496.047C273.362 495.558 273.555 494.3 274.152 493.257C277.978 486.597 281.759 479.903 285.805 473.364C291.566 464.051 301.425 458.928 311.718 458.755C331.421 458.421 349.427 458.256 368.852 460.666C375.901 460.721 397.235 451.951 400.772 457.962C408.068 470.35 427.096 502.261 434.184 514.764C438.637 522.619 415.678 525.736 407.182 529.343C406.142 529.787 404.342 529.261 403.211 528.623C383.083 517.31 355.867 502.081 335.832 490.614C327.505 485.843 318.716 483.218 309.032 483.397C306.587 483.443 305.272 484.43 303.762 486.162C299.279 491.288 294.898 496.618 289.691 500.951C287.24 502.987 283.019 503.497 279.552 503.643C275.792 503.801 273.109 500.334 273.202 496.047Z" fill="#2D71C1"/>
<path fill-rule="evenodd" clip-rule="evenodd" d="M262.378 464.447C261.594 466.264 260.647 474.253 259.972 475.407C246.416 498.628 245.937 502.013 232.343 525.212C230.235 528.804 227.615 529.508 223.843 527.409C220.693 525.659 210.023 517.008 197.149 510.742C183.298 504.006 167.207 499.628 163.833 497.704C159.178 495.061 160.363 491.788 161.352 488.364C166.052 470.406 163.309 454.314 163.309 445.706C163.309 436.332 165.151 433.497 167.352 429.765C169.143 426.721 171.802 426.204 174.72 427.806C181.935 431.765 220.05 454.01 233.012 459.847C234.531 460.531 251.886 466.921 262.378 464.447Z" fill="#266E5B"/>
<path fill-rule="evenodd" clip-rule="evenodd" d="M252.204 548.162C253.853 547.496 255.044 547.153 256.108 546.572C260.39 544.221 264.526 544.215 268.316 547.423C271.994 550.538 272.516 554.512 270.981 558.885C270.818 559.349 270.734 559.845 270.547 560.607C275 560.036 279.091 560.607 282.112 564.156C285.118 567.687 285.158 571.58 282.854 576.043C284.573 576.043 285.875 576.025 287.172 576.049C291.712 576.128 295.466 578.921 296.645 583.087C297.917 587.574 296.352 591.901 292.252 594.268C287.772 596.869 283.602 600.239 277.873 599.987C272.253 599.741 268.153 597.374 265.229 592.625C264.541 591.509 262.91 590.379 261.632 590.285C256.458 589.929 252.768 587.495 249.662 583.548C248.571 582.16 246.68 580.908 244.956 580.555C236.484 578.82 232.429 574.819 230.906 566.338C230.71 565.284 229.908 564.144 229.067 563.418C219.693 555.354 220.61 544.208 231.446 538.101C234.268 536.515 237.629 535.233 240.822 535.041C246.596 534.692 250.142 537.992 251.29 543.561C251.562 544.877 251.812 546.199 252.204 548.162Z" fill="#2D71C1"/>
<path fill-rule="evenodd" clip-rule="evenodd" d="M440.054 518.548C436.734 518.596 433.533 515.467 433.514 512.155C433.496 508.754 436.481 505.941 440.063 505.965C443.841 505.995 446.334 508.569 446.235 512.346C446.141 515.743 443.395 518.499 440.054 518.548ZM467.656 514.838C456.196 471.052 483.099 451.119 469.586 420.889C468.922 419.403 468.081 417.556 465.636 417.556C463.773 418.318 462.464 418.704 461.304 419.355C454.779 423.019 396.023 444.827 389.538 448.567C385.302 451.004 384.657 453.262 387.078 457.409C400.645 480.627 416.121 506.539 429.713 529.739C431.826 533.342 434.205 533.546 438.197 531.984C445.882 528.988 458.099 525.758 465.54 522.543C469.347 520.896 468.693 518.8 467.656 514.838Z" fill="#2D71C1"/>
<path fill-rule="evenodd" clip-rule="evenodd" d="M206.506 524.631C204.636 528.335 198.015 528.821 191.714 525.721C185.419 522.625 181.828 517.11 183.7 513.412L216.337 448.84C218.207 445.13 224.825 444.647 231.126 447.74C237.424 450.846 241.012 456.352 239.14 460.062L206.506 524.631Z" fill="#266E5B"/>
<path fill-rule="evenodd" clip-rule="evenodd" d="M341.383 314.721C320.206 326.273 290.774 336.346 267.986 324.247C276.859 332.001 287.433 337.653 299.402 338.54C326.987 340.573 341.009 338.431 353.199 357.917C348.634 350.609 357.16 366.285 365.895 384.856C342.294 383.535 328.174 388.098 308.83 374.471C302.728 370.174 298.426 358.117 297.829 350.521C297.358 344.574 291.102 342.305 285.663 339.704C277.658 335.872 269.964 331.387 262.137 327.185C261.561 327.504 260.992 327.829 260.419 328.16C261.661 331.162 262.415 334.514 264.221 337.121C282.16 356.066 279.024 371.824 271.43 391.742C235.126 372.189 238.334 358.081 255.317 332.916C258.598 328.06 249.541 326.058 244.56 322.989C233.983 316.459 228.991 311.67 216.491 302.71C217.82 313.584 222.885 324.879 222.481 334.231C222.065 343.897 216.252 351.627 214.25 361.539C193.622 352.955 189.573 335.228 198.6 318.522C201.132 313.828 206.686 310.348 209.173 305.642C210.455 303.229 211.516 298.96 210.295 297.228C202.076 285.569 197.267 272.789 187.568 260.061C187.227 264.591 186.528 268.146 186.769 271.634C188.032 289.984 181.312 305.28 170.012 319.294C156.61 303.317 158.368 281.935 173.735 268.17C187.471 255.852 187.462 255.858 178.824 239.465C176.274 234.625 181.185 221.787 182.825 227.57C184.333 232.89 177.736 228.144 192.66 257.414C196.984 265.746 200.216 265.892 205.269 257.797C217.283 238.563 232.084 232.212 250.382 242.009C252.251 243.008 259.225 247.682 262.954 249.96C247.617 252.908 245.434 258.465 235.551 264.305C224.438 270.875 212.342 271.431 200.737 265.36C200.306 266.663 199.881 267.964 199.453 269.267C207.014 276.958 210.247 286.544 218.197 293.797C222.454 297.684 225.71 293.536 228.948 290.665C234.909 285.381 240.532 279.276 247.385 275.548C259.294 269.058 271.849 270.683 284.756 276.113C278.261 286.961 270.287 296.49 258.993 299.085C248.458 301.509 236.857 299.239 225.135 299.027C225.683 299.856 226.371 301.619 227.583 302.609C235.144 308.762 239.018 313.211 247.114 318.777C251.075 321.494 263.684 320.853 267.426 317.364C288.341 294.709 294.126 291.856 322.781 306.11C326.411 307.918 337.834 312.758 341.383 314.721Z" fill="#266E5B"/>
<path fill-rule="evenodd" clip-rule="evenodd" d="M182.379 235.541C180.28 237.102 176.689 237.503 175.013 239.439C166.191 253.565 151.505 256.361 136.403 254.443C140.633 237.695 161.117 225.805 176.566 231.596C180.974 233.246 180.651 221.053 182.08 216.528C185.113 206.908 186.853 205.091 192.557 195.091C184.354 198.239 177.443 201.937 170.093 203.426C162.495 204.964 158.051 205.432 149.953 205.769C152.096 191.467 165.938 182.63 176.744 185.493C180.88 186.587 184.724 188.82 188.864 189.877C190.986 190.421 194.511 190.43 195.624 189.139C203.104 180.397 212.106 174.129 220.138 164.007C216.551 164.615 213.65 164.749 210.982 165.612C196.959 170.154 196.257 170.504 183.184 164.287C190.507 154.102 203.327 148.581 211.16 154.649C223.391 163.12 224.694 161.558 236.208 154.196C240.574 152.002 246.435 153.576 241.463 154.864C237.064 156.004 228.194 163.056 223.177 167.523C217.536 172.549 218.043 175.125 225.318 177.553C237.589 183.156 241.364 185.867 244.27 200.664C244.825 203.46 245.256 209.649 244.204 213.043C236.359 204.973 229.364 203.648 222.52 196.559C215.263 189.051 214.986 185.687 217.464 175.344C216.37 175.259 216.37 175.265 215.275 175.174C208.871 181.91 204.123 184.839 199.82 194.715C197.616 198.829 201.467 200.6 204.328 202.606C209.586 206.292 211.253 206.027 215.673 210.533C222.146 217.13 223.355 220.381 221.625 231.624C211.938 228.591 205.353 226.89 201.15 218.47C197.234 210.615 199.187 210.509 197.098 201.211C196.549 201.801 194.707 200.789 193.917 201.782C188.18 209.02 188.976 208.634 186.211 216.106C184.866 219.758 182.744 235.929 182.379 235.541Z" fill="#266E5B"/>
<path fill-rule="evenodd" clip-rule="evenodd" d="M237.626 155.415C235.995 154.367 234.723 152.094 232.962 151.395C221.032 148.536 215.05 139.493 212.116 129.195C224.511 128.503 238.208 139.469 238.648 150.79C238.775 154.02 246.855 151.286 250.286 151.286C257.576 151.286 259.286 152.045 267.577 153.71C263.175 148.991 258.767 145.227 255.713 140.718C252.559 136.056 251 133.237 248.513 128.004C258.698 126.449 268.481 133.689 269.591 141.365C270.013 144.303 269.591 147.284 270.04 150.216C270.266 151.72 271.243 154.032 272.422 154.491C280.375 157.584 287.087 162.188 296.114 165.36C294.709 163.13 293.804 161.261 292.477 159.69C285.519 151.434 285.085 151.049 285.597 141.192C294.47 143.887 301.752 151.149 299.873 157.539C297.618 167.305 297.618 167.299 307.411 172.495C312.575 175.229 304.607 173.455 294.609 168.08C289.664 165.421 288.079 166.287 288.486 171.556C288.163 180.762 287.4 183.798 278.298 188.766C276.576 189.705 272.548 191.267 269.986 191.279C273.2 184.472 272.132 179.611 274.966 173.658C277.975 167.35 280.149 166.469 287.768 165.953C287.521 165.217 287.521 165.22 287.271 164.482C280.969 161.683 277.674 159.171 269.859 158.393C266.488 157.803 266.374 160.693 265.831 162.984C264.83 167.195 265.472 168.231 263.693 172.063C261.076 177.672 259.243 179.134 251.224 180.328C250.545 173.345 249.846 168.681 254.314 164.184C258.484 159.991 259.102 161.252 264.746 157.952C264.197 157.721 264.36 156.302 263.476 155.989C257.021 153.726 257.501 154.175 251.727 153.908C248.899 153.777 237.472 155.734 237.626 155.415Z" fill="#266E5B"/>
<path fill-rule="evenodd" clip-rule="evenodd" d="M96.3137 415.607C99.2021 411.839 102.063 408.05 104.994 404.313C106.329 402.617 107.798 401.019 109.2 399.378C110.822 400.794 112.953 401.918 113.981 403.684C119.586 413.252 121.422 423.613 120.198 434.677C119.089 444.789 121.438 449.797 126.907 450.344C131.839 450.83 135.792 446.172 137.013 437.062C137.694 432.012 139.738 431.34 144.24 432.109C153.294 433.662 158.751 431.131 159.345 425.856C159.894 421.055 155.44 417.953 146.67 415.935C142.633 415.011 138.24 413.51 135.165 410.888C129.358 405.941 131.11 399.241 138.33 396.783C141.945 395.55 146.004 395.218 149.221 393.356C151.364 392.11 153.683 388.807 153.547 386.58C153.405 384.267 150.755 380.807 148.56 380.208C144.617 379.123 140.097 379.178 136.006 379.862C122.776 382.083 112.815 375.283 110.439 361.864C109.652 357.425 111.44 355.644 115.697 357.234C118.013 358.097 120.002 359.862 122.33 360.667C125.686 361.837 129.34 363.505 132.626 363.083C135.436 362.724 139.06 360.248 140.194 357.729C141.192 355.496 140.203 350.986 138.406 349.163C135.707 346.41 131.737 344.441 127.965 343.36C121.441 341.482 114.566 340.871 108.024 339.066C105.277 338.307 102.998 335.842 100.505 334.153C100.773 333.378 101.032 332.603 101.3 331.825C103.595 331.403 105.928 331.13 108.187 330.534C112.926 329.276 118.097 327.72 116.93 321.364C115.851 315.472 110.222 314.512 106.257 316.435C94.4535 322.163 87.1301 316.958 78.6098 308.957C64.6293 295.825 49.4911 297.338 37.2624 312.382C31.4766 319.501 27.9883 328.477 22.9472 336.283C20.3785 340.257 16.9655 343.806 13.438 346.988C9.94062 350.136 5.06841 351.983 2.22529 355.547C0.298716 357.975 -0.78969 363.651 0.684634 365.577C2.35795 367.756 7.31156 367.881 10.8572 367.941C13.7485 367.993 16.664 366.641 19.5705 365.912C19.9986 370.09 21.6809 374.663 20.5443 378.351C18.9946 383.411 15.2862 387.798 12.5184 392.478C10.7878 395.404 8.01706 398.211 7.65225 401.301C7.26332 404.62 8.1256 409.18 10.2693 411.456C13.6038 414.996 17.9544 412.793 21.1443 409.882C22.7814 408.396 23.502 405.874 25.1482 404.404C26.8155 402.915 29.5892 400.867 31.0153 401.405C32.6555 402.022 34.3408 405.242 34.2625 407.26C34.0544 412.228 32.7339 417.135 32.0796 422.097C31.5851 425.898 30.6264 429.909 31.3711 433.519C31.9047 436.102 34.5489 439.38 36.9156 440.085C38.7608 440.632 42.5024 438.259 43.8229 436.166C45.6711 433.24 46.0782 429.368 47.046 425.898C47.7515 423.361 48.3695 420.8 49.5574 416.193C52.7443 420.143 54.9754 422.495 56.724 425.163C63.5831 435.619 67.6141 446.737 63.966 459.489C63.5922 460.784 63.1128 462.461 63.6072 463.522C65.1479 466.791 67.1287 469.848 68.9437 472.984C72.0703 470.884 76.1104 469.398 78.055 466.496C79.873 463.78 79.469 459.559 80.0419 455.995C81.0579 456.074 82.0679 456.153 83.09 456.223C85.2729 458.353 87.4014 460.538 89.6536 462.592C91.8154 464.555 93.8897 467.487 96.3951 467.991C99.7297 468.666 105.03 468.648 106.604 466.636C108.539 464.16 108.696 458.839 107.409 455.667C106.239 452.783 102.151 451.051 99.2232 449C97.9388 448.101 95.9971 448.031 94.954 446.971C92.0988 444.078 89.5602 440.872 86.901 437.785C90.3953 436.749 93.8806 435.661 97.4021 434.716C98.4755 434.431 99.6754 434.656 100.785 434.467C106.278 433.531 111.358 431.584 111.268 424.96C111.178 418.484 106.037 417.187 100.797 416.488C99.3106 416.294 97.8634 415.811 96.3831 415.491C89.4938 419.448 83.1503 416.716 77.1113 413.538C68.4252 408.974 68.6181 406.039 75.9807 399.819C78.3565 397.81 79.8037 393.125 79.4118 389.953C79.1886 388.218 74.3104 386.206 71.3798 385.93C68.4493 385.653 65.374 387.75 62.2837 388.108C59.525 388.427 56.0698 388.743 53.9623 387.412C47.6912 383.447 43.6089 366.273 46.7264 358.391C48.3122 359.835 49.8378 361.105 51.2368 362.508C55.0929 366.392 59.1511 369.986 64.8042 366.067C68.9407 363.198 68.5729 356.547 64.2555 350.652C62.1058 347.714 59.0757 345.171 57.8064 341.91C56.7663 339.252 57.7521 335.794 57.8366 332.679C60.8455 333.372 64.8012 333.08 66.7096 334.934C73.8521 341.865 75.6068 351.002 75.1878 360.725C75.0642 363.66 74.7566 366.817 75.6521 369.488C76.3365 371.506 78.5766 373.803 80.5484 374.322C82.0408 374.711 84.3081 372.624 86.0387 371.372C86.9552 370.713 87.4678 369.476 88.5411 367.975C92.6204 374.568 91.7913 380.752 90.1662 386.972C88.731 392.493 86.5995 397.898 85.8156 403.504C84.7181 411.38 88.8064 415.628 96.3137 415.607Z" fill="#2D71C1"/>
<path fill-rule="evenodd" clip-rule="evenodd" d="M44.825 317.416C46.1033 320.494 47.0771 322.667 47.9002 324.891C48.5032 326.532 48.7294 328.318 49.4168 329.907C51.6448 335.034 53.9453 334.666 57.8376 332.682C62.1068 330.506 66.2072 327.683 63.2676 322.898C61.2536 319.613 58.2356 316.906 56.499 313.515C55.3291 311.214 55.6065 308.164 55.2327 305.45C57.5964 305.684 60.0114 305.69 62.3028 306.216C65.4625 306.945 68.595 308.984 71.601 308.744C74.1577 308.544 78.047 306.304 78.5716 304.247C79.1957 301.798 77.649 297.599 75.6109 295.949C72.7798 293.655 68.7156 292.667 65.0253 291.756C58.0637 290.036 54.8377 285.32 53.4779 278.702C52.676 274.782 54.1081 272.722 58.0758 272.412C61.9953 272.114 66.572 271.966 66.6232 266.712C66.6775 261.395 62.5832 259.207 57.8738 258.25C45.8048 255.804 38.7317 242.215 43.8843 230.824C44.8069 228.791 47.1796 226.324 49.061 226.163C50.6529 226.032 52.7001 228.776 54.1623 230.569C55.4859 232.188 55.8447 234.892 57.4155 235.956C60.0174 237.727 63.8555 240.213 66.0323 239.377C68.378 238.478 70.8925 233.975 70.6693 231.273C70.2864 226.631 68.5317 221.729 66.0775 217.725C61.8596 210.845 60.4365 204.726 64.7268 197.078C66.4062 194.085 66.0836 188.299 64.2324 185.334C61.5732 181.092 56.4507 182.988 52.691 185.1C49.2027 187.063 45.7264 189.409 42.9949 192.307C35.6745 200.08 27.5431 206.236 17.0902 209.132C14.44 209.864 11.4491 211.523 9.94165 213.693C8.41607 215.874 7.27641 219.915 8.31959 221.872C9.33866 223.78 13.2551 224.397 16.0229 224.959C17.5364 225.272 19.3092 224.285 20.8981 223.905C24.1784 231.978 21.8478 238.417 14.8621 242.255C11.6843 244.002 7.90654 245.637 5.99203 248.435C4.376 250.787 3.83933 255.412 5.11768 257.779C6.06137 259.523 10.6652 259.48 13.6863 259.766C14.8289 259.878 16.056 258.541 17.3314 258.14C19.1675 257.56 21.088 257.232 22.9724 256.797C23.3673 259.176 24.7753 262.027 23.9492 263.834C22.2096 267.63 19.2489 270.85 16.8671 274.354C14.7113 277.529 12.1456 280.562 10.6954 284.053C9.01002 288.109 9.66427 292.473 14.045 294.597C18.4137 296.721 21.4347 293.734 23.6568 290.361C26.2979 286.341 28.532 282.051 31.0314 277.936C31.3872 277.344 32.2344 277.067 33.5369 276.192C34.4595 277.76 35.8162 279.064 35.9911 280.51C37.4292 292.227 38.2764 303.879 29.4395 313.575C28.2848 314.845 24.8296 317.027 24.6638 318.577C24.3352 321.564 23.91 323.642 27.2506 326.839C30.3561 329.81 34.0675 328.37 36.98 325.733C39.5005 323.448 41.6864 320.777 44.825 317.416Z" fill="#2D71C1"/>
<path fill-rule="evenodd" clip-rule="evenodd" d="M215.962 3.73917C205.352 3.3168 193.437 1.50584 183.614 5.68382C174.235 9.67342 166.773 13.9395 158.75 20.0926C147.027 29.0897 134.904 33.3041 120.3 35.9203C114.312 36.9929 95.6914 43.86 89.5348 44.7169C78.9703 46.1936 76.1814 65.227 78.4487 68.7183C79.1844 69.8486 72.874 97.949 88.2564 91.325C90.1559 90.5046 92.2844 89.8209 94.3226 89.7784C109.376 89.4685 124.153 87.3962 138.649 83.2759C139.767 82.9569 141.127 82.9356 142.231 83.2638C150.651 85.7858 154.17 94.5793 149.846 102.285C149.319 103.224 148.348 104.069 147.386 104.573C144.398 106.141 141.875 108.189 140.195 111.148C138.507 114.129 137.877 117.323 138.516 120.404C141.163 117.818 143.81 115.232 146.458 112.646C146.657 112.795 146.844 112.944 147.043 113.093C144.076 117.356 143.039 121.841 145.161 126.912C147.938 123.129 150.567 119.55 153.178 115.992C153.534 118.62 153.844 120.945 154.212 123.643C157.097 120.109 159.576 117.022 162.12 113.986C163.221 112.683 164.722 111.656 165.597 110.225C172.275 99.2951 173.001 88.0343 166.866 76.6306C165.289 73.6985 163.142 71.0792 161.171 68.1835C166.525 70.745 168.033 73.899 171.141 75.9682C171.82 76.421 172.929 76.6458 173.719 76.4574C194.619 71.459 238.318 59.3535 229.976 43.6716C229.388 42.5626 241.686 4.76315 215.962 3.73917Z" fill="#266E5B"/>
<path fill-rule="evenodd" clip-rule="evenodd" d="M89.1441 45.2231C80.9464 49.6502 81.0097 54.1746 72.5648 57.0399C63.2605 60.1909 58.9461 70.0115 56.314 79.595C55.9975 80.7618 55.105 81.8921 54.2005 82.749C52.6991 84.171 50.9835 85.3561 49.2529 86.7204C47.9294 89.4125 46.9736 100.789 48.7223 102.275C48.1615 103.183 44.3687 110.594 43.9315 111.235C32.3329 127.972 30.0716 127.036 18.479 143.781C17.0228 145.884 15.4791 147.573 12.9375 148.719C5.29756 152.164 3.90765 162.413 9.97982 168.071C10.9748 169.001 11.7164 169.183 12.6752 168.098C16.655 163.58 21.5875 160.776 27.527 159.806C27.6536 159.785 27.7652 159.642 27.9401 159.509C27.3521 158.093 26.7582 156.664 26.11 155.097C29.6887 154.218 33.1409 153.371 36.8553 152.459C35.571 150.578 34.4132 148.889 33.0866 146.95C35.8242 146.795 38.2573 146.659 41.3145 146.479C40.3799 144.45 39.5809 142.712 38.6945 140.788C41.8451 140.42 44.4199 140.123 47.6249 139.755C46.642 137.494 45.7827 135.519 44.839 133.359C47.8269 132.997 50.3836 132.693 53.097 132.374C52.2649 130.263 51.5293 128.412 50.7303 126.376C54.0317 125.89 57.116 125.428 60.339 124.951C59.7993 123.055 59.2808 121.496 58.9371 119.901C58.7923 119.205 58.72 118.172 59.1089 117.732C61.7108 114.796 64.8977 116.118 67.9518 113.73C72.821 104.997 69.1729 100.424 73.614 101.91C75.0521 102.393 78.6822 110.357 78.4651 111.901C79.5475 120.412 76.8068 128.515 72.3537 136.926C70.4332 140.548 68.1297 143.605 63.9359 144.635C63.8364 144.656 63.7761 144.842 63.3239 145.483C64.0203 147.127 64.8615 149.114 65.7961 151.292C63.5922 151.526 61.6807 151.736 59.5702 151.967C60.9601 154.404 62.145 156.482 63.3932 158.682C60.6405 159.834 58.0476 160.912 55.3553 162.04C56.7542 163.963 57.9783 165.652 59.2989 167.47C56.6004 169.004 54.0226 170.462 51.276 172.021C58.9732 175.181 67.5448 172.201 71.193 165.343C78.8751 150.906 87.5794 134.45 98.0444 115.006C99.1539 112.934 100.571 110.822 102.344 109.348C115.462 98.4218 127.115 86.14 137.088 72.2326C137.851 71.1631 108.814 34.6034 89.1441 45.2231Z" fill="#266E5B"/>
<path fill-rule="evenodd" clip-rule="evenodd" d="M248.82 4.66705C238.666 1.54648 214.769 0.765564 204.135 0.0393524C193.981 -0.665588 186.314 8.84808 176.403 10.6985C161.91 13.4059 159.438 58.4431 161.289 61.7035C161.693 62.4175 162.586 63.1164 163.373 63.3078C184.263 68.3366 205.368 61.5971 226.627 58.668C227.86 58.5008 228.517 58.753 229.162 59.7254C231.14 62.6758 231.996 65.9331 231.285 69.3758C230.558 72.8518 229.301 75.9268 225.406 77.3914C221.127 78.9927 218.465 82.4111 217.304 86.9142C216.701 89.2691 216.876 92.414 217.663 93.7935C219.759 88.9956 221.761 86.3977 224.037 85.5226C220.241 90.6941 219.994 97.1024 223.476 100.217C225.354 92.2955 228.24 88.2208 232.587 87.3518C229.811 90.4298 229.452 93.3498 231.553 96.6102C235.488 91.8609 240.535 88.8042 246.119 86.4979C248.971 85.3159 250.487 82.8335 251.443 79.9924C253.71 73.2681 254.096 66.3068 253.535 59.3303C253.119 54.1344 252.17 48.9841 251.464 43.8429C251.73 44.32 252.058 44.8791 252.354 45.4564C254.015 48.7046 255.622 51.9832 257.361 55.1949C257.681 55.7783 258.501 56.386 259.149 56.465C260.473 56.623 311.302 65.6596 322.28 94.3586C342.393 146.91 309.029 173.391 312.729 180.957C315.792 187.216 379.595 126.91 356.597 72.5267C322.178 -8.85141 249.921 5.00433 248.82 4.66705Z" fill="#266E5B"/>
<path fill-rule="evenodd" clip-rule="evenodd" d="M120.562 38.7153C122.006 42.0303 118.943 46.5881 113.721 48.8974C108.502 51.2037 103.099 50.3924 101.658 47.0743C100.217 43.7593 103.28 39.2045 108.502 36.8922C113.721 34.589 119.118 35.4033 120.562 38.7153Z" fill="#266E5B"/>
<path fill-rule="evenodd" clip-rule="evenodd" d="M142.412 32.7022C142.792 34.6377 138.818 37.0534 133.536 38.0956C128.259 39.1408 123.674 38.4116 123.297 36.476C122.92 34.5374 126.894 32.1218 132.173 31.0796C137.449 30.0434 142.035 30.7605 142.412 32.7022Z" fill="#266E5B"/>
<path fill-rule="evenodd" clip-rule="evenodd" d="M161.255 20.2583C162.449 22.2334 159.575 26.2138 154.818 29.1491C150.066 32.0813 145.239 32.8561 144.039 30.881C142.842 28.909 145.721 24.9285 150.476 21.9933C155.225 19.0581 160.058 18.2863 161.255 20.2583Z" fill="#266E5B"/>
<path fill-rule="evenodd" clip-rule="evenodd" d="M183.88 8.1297C184.926 10.1898 181.754 13.9363 176.789 16.4948C171.826 19.0532 166.957 19.4543 165.908 17.3942C164.858 15.328 168.039 11.5845 172.999 9.02911C177.962 6.47066 182.834 6.0635 183.88 8.1297Z" fill="#266E5B"/>
<path fill-rule="evenodd" clip-rule="evenodd" d="M233.538 4.26058C233.523 6.58203 228.991 8.42338 223.42 8.38692C217.845 8.35046 213.335 6.43922 213.353 4.12385C213.371 1.81152 217.899 -0.0359097 223.474 0.000553131C229.049 0.0370159 233.556 1.94522 233.538 4.26058Z" fill="#266E5B"/>
<path fill-rule="evenodd" clip-rule="evenodd" d="M258.423 6.03309C258.42 8.34846 253.9 10.2263 248.322 10.2202C242.754 10.2141 238.231 8.33631 238.234 6.0179C238.234 3.6995 242.763 1.82776 248.329 1.8308C253.903 1.83687 258.423 3.71469 258.423 6.03309Z" fill="#266E5B"/>
<path fill-rule="evenodd" clip-rule="evenodd" d="M283.048 8.05742C282.761 10.3546 278.055 11.6642 272.52 10.9744C266.987 10.2938 262.73 7.86903 263.013 5.57493C263.291 3.27172 268.006 1.96515 273.536 2.65186C279.068 3.33553 283.328 5.75725 283.048 8.05742Z" fill="#266E5B"/>
<path fill-rule="evenodd" clip-rule="evenodd" d="M307.018 17.5199C306.174 19.6742 301.29 19.7471 296.101 17.69C290.915 15.6269 287.394 12.2085 288.238 10.0603C289.079 7.89986 293.969 7.82694 299.155 9.88403C304.338 11.9472 307.856 15.3625 307.018 17.5199Z" fill="#266E5B"/>
<path fill-rule="evenodd" clip-rule="evenodd" d="M328.765 32.9165C327.405 34.7822 322.662 33.6063 318.164 30.2821C313.672 26.958 311.13 22.7496 312.493 20.8839C313.85 19.0152 318.595 20.1942 323.091 23.5183C327.586 26.8425 330.124 31.0539 328.765 32.9165Z" fill="#266E5B"/>
<path fill-rule="evenodd" clip-rule="evenodd" d="M346.386 54.8551C344.562 56.2589 340.332 53.7947 336.931 49.3402C333.539 44.8887 332.261 40.1334 334.085 38.7205C335.909 37.3106 340.139 39.7749 343.537 44.2294C346.932 48.6839 348.207 53.4392 346.386 54.8551Z" fill="#266E5B"/>
<path fill-rule="evenodd" clip-rule="evenodd" d="M358.199 81.8825C356.107 82.8396 352.531 79.482 350.212 74.3712C347.894 69.2665 347.71 64.341 349.802 63.3748C351.892 62.4176 355.467 65.7782 357.78 70.883C360.104 75.9968 360.285 80.9193 358.199 81.8825Z" fill="#266E5B"/>
<path fill-rule="evenodd" clip-rule="evenodd" d="M357.596 112.552C355.302 112.415 353.713 107.757 354.045 102.148C354.379 96.542 356.508 92.1057 358.799 92.2425C361.097 92.3853 362.683 97.0434 362.351 102.649C362.022 108.259 359.891 112.695 357.596 112.552Z" fill="#266E5B"/>
<path fill-rule="evenodd" clip-rule="evenodd" d="M347.988 138.897C345.826 138.104 345.609 133.184 347.503 127.9C349.396 122.622 352.685 118.97 354.841 119.76C357.009 120.55 357.223 125.469 355.333 130.75C353.436 136.037 350.15 139.687 347.988 138.897Z" fill="#266E5B"/>
<path fill-rule="evenodd" clip-rule="evenodd" d="M331.671 162.759C329.741 161.501 330.636 156.657 333.669 151.939C336.703 147.232 340.728 144.43 342.651 145.694C344.581 146.952 343.685 151.799 340.652 156.506C337.622 161.221 333.597 164.023 331.671 162.759Z" fill="#266E5B"/>
</svg>
