<svg width="1080" height="1080" viewBox="0 0 1080 1080" fill="none" xmlns="http://www.w3.org/2000/svg">
<path d="M613.59 515.735C616.124 514.841 618.607 513.947 621.141 513.102C618.607 513.897 616.074 514.741 613.59 515.735Z" fill="white"/>
<path d="M275.516 542.508C275.516 397.811 392.794 280.533 537.492 280.533C662.767 280.533 767.428 368.504 793.307 485.981C795.245 485.981 797.132 485.981 799.119 486.08C809.501 486.428 819.783 487.173 830.016 488.266C826.141 467.204 820.031 446.59 811.637 426.671C796.635 391.254 775.226 359.414 747.906 332.094C720.586 304.774 688.795 283.364 653.329 268.363C616.621 252.816 577.677 244.967 537.541 244.967C497.405 244.967 458.412 252.816 421.704 268.363C386.287 283.364 354.447 304.774 327.126 332.094C299.806 359.414 278.348 391.205 263.396 426.671C247.848 463.379 240 502.373 240 542.508C240 570.574 243.924 598.043 251.524 624.568C263.992 623.724 276.013 622.83 287.736 621.787C279.788 596.751 275.467 570.127 275.467 542.508H275.516Z" fill="white"/>
<path d="M525.223 553.039C514.592 526.911 493.034 506.396 466.211 497.207C466.112 497.207 466.012 497.157 465.913 497.107C464.87 496.859 463.777 496.611 462.585 496.362C461.889 496.213 457.568 495.17 456.972 495.021C435.513 489.408 426.671 485.881 419.32 480.119C417.084 478.381 415.594 476.592 414.849 475.847C414.849 475.847 414.799 475.798 414.75 475.748C414.65 475.698 414.601 475.599 414.551 475.549C414.551 475.549 414.551 475.549 414.501 475.5C411.074 471.973 408.789 467.403 408.292 462.535C407.2 451.806 415.147 443.411 426.224 443.311C426.373 443.311 426.473 443.311 426.572 443.311C426.622 443.311 426.671 443.311 426.771 443.311C426.87 443.311 426.969 443.311 427.019 443.311C428.857 443.361 430.595 443.659 432.334 444.106C443.212 446.391 454.19 452.7 464.224 461.69C464.671 462.088 465.118 462.485 465.516 462.883C466.062 463.379 466.559 463.876 467.055 464.373C467.701 464.969 468.794 465.962 470.135 467.204C470.135 467.204 470.235 467.155 470.284 467.105C470.88 467.751 471.576 468.396 472.172 469.042C474.357 471.029 476.891 473.364 479.176 475.45C496.214 489.656 518.07 498.25 541.962 498.25C545.588 498.25 549.215 498.051 552.741 497.654C594.566 492.289 580.31 454.935 664.605 452.402C684.872 451.806 704.294 456.177 722.126 463.032C723.169 463.181 724.213 463.28 725.305 463.28C737.972 463.28 748.205 452.998 748.205 440.331C748.205 428.658 739.512 419.071 728.236 417.631C715.023 423.591 700.419 426.919 685.021 426.919C626.804 426.919 579.614 379.73 579.614 321.513C579.614 317.49 579.863 313.566 580.31 309.641C573.505 306.76 566.252 304.625 558.752 303.333C558.007 314.41 548.817 323.153 537.541 323.153C526.266 323.153 517.871 315.106 516.48 304.724C515.288 304.923 514.096 305.171 512.804 305.419C495.568 308.847 478.729 314.261 462.684 321.464C462.535 334.279 452.104 344.611 439.288 344.611C434.867 344.611 430.745 343.369 427.168 341.233C412.316 351.267 398.507 363.09 386.138 376.551C386.486 378.439 386.685 380.376 386.685 382.363C386.685 398.208 374.515 411.223 358.967 412.514C356.434 416.637 354 420.859 351.715 425.231C344.363 439.089 338.601 453.296 334.23 467.751C337.955 473.364 340.141 480.069 340.141 487.272C340.141 499.194 334.18 509.774 325.04 516.132C324.146 527.458 323.997 538.733 324.742 549.959C321.017 547.972 317.44 547.376 314.162 548.37C300.552 552.592 298.018 583.439 308.499 617.266C308.748 618.111 309.046 618.905 309.294 619.7C374.167 612.796 430.844 600.129 496.412 567.196C506.148 562.328 515.735 557.609 525.272 553.039H525.223ZM537.442 387.876C549.215 387.876 558.702 397.414 558.702 409.186C558.702 420.959 549.165 430.446 537.442 430.446C525.719 430.446 516.182 420.909 516.182 409.186C516.182 397.463 525.719 387.876 537.442 387.876Z" fill="white"/>
<path d="M327.126 752.874C354.446 780.194 386.237 801.652 421.704 816.604C458.412 832.102 497.356 840 537.541 840C577.727 840 616.67 832.152 653.329 816.604C688.746 801.603 720.586 780.194 747.906 752.874C775.226 725.553 796.685 693.763 811.637 658.296C827.135 621.588 835.033 582.644 835.033 542.508C835.033 524.129 833.294 506.048 830.016 488.266C819.783 487.173 809.501 486.428 799.119 486.08C797.132 486.03 795.245 486.08 793.307 485.981C797.331 504.211 799.516 523.086 799.516 542.508C799.516 687.206 682.238 804.484 537.541 804.484C420.512 804.484 321.414 727.689 287.785 621.787C276.063 622.78 264.042 623.724 251.574 624.568C254.852 635.993 258.727 647.269 263.446 658.296C278.447 693.713 299.856 725.553 327.176 752.874H327.126Z" fill="white"/>
<path d="M352.013 670.913C355.937 669.721 358.917 666.244 360.954 661.177C367.858 671.956 375.607 682.239 384.3 691.875C389.714 692.074 395.178 693.266 400.444 695.601C414.551 701.76 423.79 714.427 426.274 728.534C433.377 733.352 440.778 737.872 448.527 741.995C459.505 747.807 470.731 752.675 482.156 756.649C491.395 751.483 502.919 750.539 513.35 755.159C519.609 757.94 524.676 762.311 528.252 767.577C549.115 770.309 570.077 770.16 590.542 767.279C598.589 754.662 614.832 749.396 628.989 755.606C630.231 756.152 631.373 756.748 632.466 757.443C652.037 750.887 670.814 741.796 688.15 730.223C687.852 726.448 688.398 722.523 690.037 718.798C694.855 707.82 707.125 702.406 718.351 705.833C719.344 704.79 720.288 703.697 721.232 702.654C721.232 702.604 721.331 702.555 721.331 702.505C721.878 701.859 722.424 701.164 722.97 700.469C727.987 694.259 732.458 687.554 736.332 680.252C739.561 674.192 742.194 667.982 744.379 661.674C740.108 655.763 738.965 647.815 742.095 640.613C743.982 636.341 747.062 633.013 750.787 630.877C752.277 612.448 749.694 594.019 743.386 576.932C742.641 576.683 741.846 576.435 741.151 576.087C730.968 571.617 726.05 560.093 729.577 549.761C728.832 548.718 728.136 547.625 727.391 546.582C717.109 533.369 703.648 523.086 688.15 516.579C682.586 519.609 675.682 520.156 669.373 517.424C665.35 515.685 662.171 512.804 659.985 509.377C646.871 507.986 633.708 509.228 621.141 513.052C618.608 513.897 616.124 514.791 613.591 515.685C611.753 516.43 609.915 517.175 608.126 518.02C608.027 518.268 607.928 518.566 607.828 518.814C604.202 527.06 595.957 531.878 587.413 531.481C576.833 541.068 569.084 553.387 565.06 567.494C564.563 569.133 564.216 570.772 563.868 572.412C565.507 576.286 565.606 580.806 563.769 584.979C563.321 586.022 562.725 587.015 562.129 587.86C561.98 601.073 565.259 614.187 571.865 626.058C579.614 640.066 592.43 650.199 607.828 654.571C623.227 658.942 639.42 657.104 653.379 649.305C664.158 643.345 671.956 633.46 675.334 621.638C678.712 609.766 677.271 597.298 671.261 586.519C666.691 578.323 659.24 572.362 650.199 569.779C646.573 568.736 642.848 568.338 639.172 568.487C638.924 568.487 638.675 568.487 638.377 568.487C621.24 568.487 607.381 582.346 607.381 599.483C607.381 616.621 621.24 630.479 638.377 630.479C639.768 630.479 641.109 630.38 642.451 630.181C633.013 635.397 621.24 635.894 611.008 630.479C603.805 626.655 598.639 620.495 595.857 613.491C586.966 592.976 594.913 568.587 614.882 557.46C627.251 550.605 641.507 548.966 655.067 552.84C668.628 556.715 679.904 565.656 686.759 577.975C694.607 592.082 696.793 608.275 693.067 623.873C692.819 624.221 692.62 624.568 692.372 624.966C682.735 659.29 651.193 684.474 613.789 684.474C568.686 684.474 532.176 647.915 532.176 602.861C532.176 602.315 532.176 601.719 532.176 601.172C532.077 601.172 531.928 601.172 531.829 601.123C532.226 597.496 532.475 593.821 532.475 590.095C532.475 576.982 529.892 564.514 525.222 553.039C515.685 557.609 506.098 562.328 496.362 567.196C430.744 600.129 374.117 612.796 309.244 619.7C319.874 652.236 338.75 675.036 352.013 670.913Z" fill="white"/>
<path d="M280.484 537.442C280.484 392.744 397.762 275.467 542.459 275.467C667.735 275.467 772.396 363.437 798.275 480.914C800.212 480.914 802.1 480.914 804.087 481.013C814.469 481.361 824.751 482.156 834.984 483.199C831.109 462.138 824.999 441.523 816.604 421.654C801.603 386.237 780.145 354.397 752.874 327.126C725.554 299.806 693.763 278.348 658.297 263.396C621.588 247.848 582.645 240 542.509 240C502.373 240 463.38 247.848 426.672 263.396C391.255 278.397 359.414 299.806 332.094 327.126C304.774 354.447 283.315 386.237 268.364 421.654C252.816 458.362 244.968 497.306 244.968 537.442C244.968 565.507 248.892 592.976 256.492 619.502C268.96 618.657 280.981 617.763 292.704 616.72C284.756 591.685 280.484 565.06 280.484 537.442Z" fill="#C7DDF4"/>
<path d="M530.141 549.264C519.511 523.136 497.953 502.621 471.129 493.432C471.03 493.432 470.931 493.382 470.831 493.332C469.788 493.084 468.695 492.836 467.503 492.587C466.808 492.438 462.486 491.395 461.89 491.246C440.431 485.633 431.59 482.106 424.238 476.394C422.003 474.655 420.513 472.867 419.767 472.122C419.767 472.122 419.718 472.072 419.668 472.023C419.569 471.973 419.519 471.874 419.469 471.824C419.469 471.824 419.469 471.824 419.42 471.774C415.992 468.247 413.707 463.678 413.211 458.81C412.118 448.08 420.066 439.636 431.143 439.586C431.292 439.586 431.391 439.586 431.49 439.586C431.54 439.586 431.59 439.586 431.689 439.586C431.788 439.586 431.888 439.586 431.937 439.586C433.726 439.636 435.514 439.934 437.252 440.431C448.131 442.716 459.108 449.024 469.142 458.015C469.589 458.412 470.037 458.81 470.434 459.207C470.931 459.704 471.477 460.2 471.974 460.697C472.62 461.293 473.712 462.287 475.054 463.529C475.054 463.529 475.153 463.479 475.203 463.429C475.799 464.075 476.494 464.721 477.09 465.366C479.276 467.353 481.809 469.638 484.094 471.774C501.132 485.981 522.988 494.524 546.881 494.524C550.507 494.524 554.133 494.326 557.66 493.928C599.484 488.564 585.228 451.21 669.523 448.676C689.79 448.08 709.212 452.451 727.045 459.306C728.088 459.455 729.131 459.555 730.174 459.555C742.841 459.555 753.073 449.272 753.073 436.606C753.073 424.933 744.38 415.346 733.105 413.905C719.892 419.866 705.288 423.194 689.84 423.194C631.623 423.194 584.433 376.005 584.433 317.788C584.433 313.764 584.682 309.791 585.129 305.916C578.324 303.035 571.071 300.899 563.571 299.608C562.826 310.685 553.636 319.427 542.36 319.427C531.085 319.427 522.69 311.38 521.299 300.999C520.107 301.197 518.915 301.446 517.623 301.694C500.387 305.121 483.548 310.536 467.503 317.738C467.354 330.554 456.923 340.886 444.107 340.886C439.686 340.886 435.563 339.644 431.987 337.508C417.135 347.542 403.326 359.364 390.957 372.826C391.305 374.713 391.504 376.65 391.504 378.637C391.504 394.483 379.334 407.497 363.786 408.789C361.253 412.912 358.819 417.134 356.534 421.505C349.182 435.364 343.37 449.57 339.049 464.025C342.774 469.638 344.96 476.344 344.96 483.547C344.96 495.468 338.999 506.049 329.909 512.407C329.015 523.732 328.866 535.008 329.611 546.234C325.886 544.247 322.259 543.651 319.031 544.645C305.42 548.867 302.887 579.714 313.368 613.541C313.616 614.385 313.914 615.18 314.163 615.975C379.036 609.07 435.712 596.404 501.281 563.471C511.017 558.603 520.604 553.884 530.141 549.314V549.264ZM542.36 384.101C554.133 384.101 563.62 393.639 563.62 405.361C563.62 417.084 554.083 426.621 542.36 426.621C530.638 426.621 521.1 417.084 521.1 405.361C521.1 393.639 530.638 384.101 542.36 384.101Z" fill="#C7DDF4"/>
<path d="M332.095 747.807C359.416 775.127 391.206 796.586 426.673 811.537C463.381 827.035 502.325 834.933 542.51 834.933C582.696 834.933 621.639 827.085 658.298 811.537C693.715 796.536 725.555 775.127 752.875 747.807C780.195 720.487 801.654 688.696 816.606 653.229C832.104 616.571 840.002 577.577 840.002 537.442C840.002 519.063 838.263 500.982 834.985 483.199C824.752 482.106 814.47 481.361 804.088 481.013C802.101 480.963 800.214 481.013 798.276 480.914C802.3 499.144 804.436 518.02 804.436 537.442C804.436 682.139 687.158 799.417 542.461 799.417C425.431 799.417 326.284 722.623 292.705 616.72C280.982 617.763 268.961 618.657 256.493 619.501C259.772 630.926 263.646 642.202 268.365 653.229C283.366 688.646 304.775 720.487 332.095 747.807Z" fill="#176AA2"/>
<path d="M356.982 667.138C360.906 665.946 363.886 662.469 365.923 657.402C372.778 668.181 380.577 678.464 389.269 688.1C394.684 688.299 400.148 689.491 405.413 691.826C419.52 698.035 428.759 710.652 431.193 724.808C438.297 729.627 445.698 734.147 453.447 738.27C464.425 744.082 475.651 748.95 487.075 752.923C496.315 747.757 507.839 746.814 518.27 751.433C524.529 754.215 529.596 758.586 533.172 763.851C554.035 766.583 574.997 766.434 595.462 763.553C603.509 750.936 619.752 745.671 633.909 751.88C635.151 752.427 636.293 753.023 637.386 753.718C656.957 747.161 675.733 738.071 693.069 726.497C692.722 722.722 693.318 718.798 694.957 715.073C699.775 704.095 712.044 698.68 723.27 702.108C724.264 701.065 725.208 699.972 726.152 698.929C726.152 698.879 726.251 698.829 726.251 698.78C726.797 698.134 727.344 697.439 727.89 696.743C732.907 690.534 737.378 683.828 741.252 676.526C744.481 670.466 747.114 664.257 749.299 657.949C745.027 652.038 743.885 644.09 747.014 636.887C748.902 632.615 751.981 629.287 755.707 627.151C757.197 608.723 754.614 590.294 748.306 573.207C747.561 572.958 746.766 572.71 746.021 572.362C735.838 567.892 730.92 556.367 734.447 546.035C733.702 544.992 733.006 543.899 732.261 542.856C721.979 529.643 708.518 519.361 693.02 512.854C687.456 515.884 680.552 516.43 674.243 513.698C670.22 511.96 667.041 509.079 664.855 505.651C651.741 504.26 638.578 505.502 626.011 509.327C623.477 510.171 620.994 511.066 618.461 511.96C616.623 512.705 614.785 513.45 612.996 514.294C612.897 514.543 612.798 514.841 612.698 515.089C609.072 523.335 600.827 528.153 592.283 527.756C581.703 537.343 573.954 549.662 569.93 563.769C569.483 565.408 569.086 567.047 568.738 568.686C570.377 572.561 570.476 577.081 568.639 581.254C568.191 582.297 567.645 583.24 566.999 584.135C566.85 597.348 570.129 610.461 576.735 622.383C584.484 636.391 597.3 646.474 612.698 650.895C628.097 655.316 644.29 653.428 658.249 645.63C669.028 639.669 676.826 629.784 680.204 617.962C683.582 606.09 682.141 593.622 676.131 582.843C671.561 574.647 664.11 568.686 655.069 566.153C651.443 565.11 647.718 564.712 644.042 564.861C643.794 564.861 643.545 564.861 643.247 564.861C626.11 564.861 612.251 578.72 612.251 595.857C612.251 612.995 626.11 626.853 643.247 626.853C644.638 626.853 645.979 626.754 647.32 626.555C637.883 631.771 626.11 632.268 615.878 626.853C608.675 623.028 603.509 616.869 600.727 609.865C591.836 589.35 599.783 564.961 619.752 553.834C632.121 546.979 646.377 545.34 659.937 549.214C673.498 553.089 684.774 562.03 691.629 574.349C699.477 588.456 701.663 604.65 697.937 620.247C697.689 620.595 697.49 620.992 697.242 621.34C687.605 655.664 656.063 680.848 618.659 680.848C573.556 680.848 536.997 644.289 536.997 599.235C536.997 598.689 536.997 598.093 536.997 597.546C536.897 597.546 536.748 597.546 536.649 597.497C537.046 593.87 537.295 590.195 537.295 586.469C537.295 573.356 534.712 560.888 530.043 549.413C520.505 553.983 510.918 558.702 501.183 563.57C435.565 596.503 378.937 609.17 314.064 616.074C324.694 648.61 343.57 671.36 356.833 667.287L356.982 667.138Z" fill="#176AA2"/>
</svg>
