<svg width="2160" height="540" viewBox="0 0 2160 540" fill="none" xmlns="http://www.w3.org/2000/svg">
<path d="M569.648 202.609C604.835 154.964 622.359 128.608 622.359 123.611H516.458C516.458 130.73 508.38 151.473 492.156 185.838C475.932 220.202 463.747 242.519 455.601 252.787H450.877C441.636 240.397 428.492 217.738 411.378 184.811C393.717 150.857 384.886 130.457 384.886 123.543H262.007C262.007 129.635 279.669 157.018 314.924 205.69C318.826 211.098 322.591 216.164 326.219 221.092C388.993 235.263 450.193 256.279 511.255 277.705C524.057 262.919 543.498 237.864 569.58 202.541L569.648 202.609Z" fill="white"/>
<path d="M777.062 313.57C777.062 275.098 777.336 238.405 777.883 203.356C802.87 203.356 835.455 204.177 875.433 205.752L878.582 127.164C834.565 129.287 801.569 130.313 779.389 130.313C779.389 101.63 781.375 90.9512 785.345 38.514L691.697 49.9461C689.849 109.503 688.822 116.348 688.548 130.245C671.161 130.245 652.335 129.423 632.072 127.849L629.334 205.683C652.267 204.109 670.407 203.287 683.825 203.287C683.346 251.344 683.072 294.539 683.003 333.011C714.425 341.226 746.188 347.935 778.431 352.316C777.541 340.815 776.993 328.014 776.993 313.502L777.062 313.57Z" fill="white"/>
<path d="M993.05 303.712C993.05 270.785 1002.29 243.061 1020.71 220.538C1039.12 198.016 1064.31 186.79 1096.14 186.79C1126.2 186.79 1153.31 191.787 1177.54 201.782L1190.96 121.209C1165.7 113.816 1136.81 110.119 1104.43 110.119C1038.03 110.119 985.793 130.724 947.595 171.935C909.397 213.145 890.297 261.407 890.297 316.719C890.297 330.753 891.598 344.238 894.131 357.177C929.249 355.397 964.024 351.016 998.663 344.991C994.966 332.122 993.05 318.362 993.05 303.644V303.712Z" fill="white"/>
<path d="M1512.07 228.143C1512.07 187.549 1512.89 151.267 1514.53 119.093H1481.06C1482.84 150.172 1483.66 186.453 1483.66 228.143C1483.66 240.533 1483.59 252.719 1483.39 264.698C1493.04 264.972 1502.69 265.314 1512.28 265.794C1512.14 253.403 1512 240.876 1512 228.074L1512.07 228.143Z" fill="white"/>
<path d="M1690.82 233.756C1720.53 167.08 1735.38 128.882 1735.38 119.093H1703.62C1703.62 129.84 1692.8 162.562 1671.17 217.464C1661.18 242.792 1653.51 263.192 1648.1 278.8C1655.36 279.759 1662.68 280.717 1669.94 281.675C1675.83 267.779 1682.74 251.829 1690.75 233.756H1690.82Z" fill="white"/>
<path d="M1604.77 217.121C1583.34 160.988 1572.66 128.266 1572.66 119.093H1539.12C1539.12 129.087 1553.15 167.628 1581.22 234.646C1587.1 248.611 1592.24 261.207 1596.89 272.708C1606.75 273.803 1616.61 274.898 1626.4 276.13C1621.2 260.865 1613.94 241.218 1604.77 217.121Z" fill="white"/>
<path d="M1790.16 239.78C1819.8 239.78 1847.66 240.328 1873.74 241.355V215.068C1849.3 216.505 1821.44 217.19 1790.16 217.19C1790.16 186.179 1789.82 161.535 1789.06 143.258C1825.28 143.258 1859.57 143.942 1891.88 145.38L1893.32 119.093H1759.97C1761.61 150.377 1762.43 186.727 1762.43 228.143C1762.43 251.349 1762.16 273.461 1761.75 294.614C1771.47 295.983 1781.19 297.352 1790.91 298.653C1790.43 279.896 1790.16 260.317 1790.16 239.78Z" fill="white"/>
<path d="M1289.19 228.136C1289.19 199.179 1288.71 171.043 1287.75 143.661C1296.31 142.497 1303.08 141.881 1308.01 141.881C1342.79 141.881 1368.53 150.643 1385.16 168.168C1401.8 185.693 1410.15 207.53 1410.15 233.612C1410.15 245.113 1408.57 255.86 1405.56 265.923C1415.49 265.376 1425.41 264.965 1435.34 264.691C1438.97 252.369 1440.82 239.362 1440.82 225.671C1440.82 194.729 1430.89 169.058 1411.18 148.658C1391.39 128.258 1360.79 118.058 1319.24 118.058C1316.16 118.058 1309.79 118.195 1300.21 118.606C1290.56 118.948 1283.37 119.154 1278.71 119.154H1259.34C1261.12 150.438 1262.01 186.788 1262.01 228.204C1262.01 248.33 1261.8 267.566 1261.46 286.118C1270.91 284.201 1280.36 282.284 1289.8 280.504C1289.39 262.911 1289.19 245.455 1289.19 228.136Z" fill="white"/>
<path d="M383.707 300.569C368.715 315.835 342.154 351.158 304.092 406.471C266.031 461.783 247 492.588 247 498.886H356.803C356.803 491.493 366.661 467.396 386.445 426.597C406.229 385.797 420.399 359.441 429.093 347.599H434.638C445.454 362.864 461.13 389.63 481.667 427.829C503.231 468.149 514.047 491.835 514.047 498.955H637.678C637.678 491.288 618.168 459.182 579.217 402.569C541.566 347.804 515.21 312.138 500.219 295.504V289.548C503.094 286.878 506.79 282.976 511.24 277.842C450.177 256.415 388.978 235.399 326.204 221.229C353.312 258.127 372.548 282.634 383.707 294.751V300.706V300.569Z" fill="white"/>
<path d="M715.452 472.395C737.016 495.601 769.19 507.17 811.838 507.17C839.768 507.17 862.907 503.2 881.39 495.327L888.098 425.023C871.464 429.473 855.992 431.732 841.48 431.732C817.52 431.732 800.817 423.791 791.302 407.841C784.73 396.819 780.486 378.199 778.5 352.391C746.258 348.01 714.494 341.302 683.073 333.087V338.495C683.073 404.623 693.889 449.257 715.452 472.395Z" fill="white"/>
<path d="M1101.68 510.389C1142.76 510.389 1175.27 504.091 1199.23 491.427L1205.94 415.988C1171.17 426.53 1142.07 431.801 1118.66 431.801C1078.61 431.801 1047.67 419.411 1025.83 394.698C1012.96 380.117 1004 363.551 998.725 345.136C964.154 351.16 929.31 355.541 894.192 357.321C901.243 393.535 918.22 425.572 945.055 453.502C981.542 491.427 1033.77 510.389 1101.68 510.389Z" fill="white"/>
<path d="M1514.53 348.761C1513.37 322.269 1512.69 294.613 1512.34 265.861C1502.76 265.382 1493.11 264.971 1483.46 264.766C1483.11 293.791 1482.29 321.858 1481.06 348.83H1514.53V348.761Z" fill="white"/>
<path d="M1646.24 348.768C1646.24 341.512 1654.18 319.059 1669.92 281.682C1662.67 280.723 1655.34 279.765 1648.08 278.807C1641.85 296.947 1638.71 308.585 1638.71 313.514H1636.93C1636.93 308.859 1633.43 296.4 1626.45 276.137C1616.59 274.973 1606.8 273.809 1596.95 272.714C1614.54 316.252 1623.37 341.649 1623.37 348.768H1646.3H1646.24Z" fill="white"/>
<path d="M1902.13 348.766L1903.16 322.137C1867.9 323.917 1830.73 324.806 1791.64 324.806C1791.3 316.318 1791.03 307.556 1790.82 298.656C1781.1 297.356 1771.38 295.987 1761.66 294.617C1761.25 313.511 1760.7 331.584 1759.88 348.766H1902.06H1902.13Z" fill="white"/>
<path d="M1320.6 351.226C1358.11 351.226 1387.55 338.631 1408.91 313.507C1421.5 298.652 1430.26 282.36 1435.4 264.698C1425.47 264.903 1415.55 265.314 1405.62 265.93C1401.92 278.458 1395.9 289.821 1387.55 300.021C1372.42 318.436 1349.35 327.609 1318.34 327.609C1309.65 327.609 1300.61 326.651 1291.16 324.802C1290.55 309.947 1290.14 295.161 1289.79 280.511C1280.35 282.291 1270.9 284.14 1261.45 286.125C1261.04 308.099 1260.36 329.115 1259.4 348.83C1287.95 350.473 1308.41 351.295 1320.6 351.295V351.226Z" fill="white"/>
<path d="M575.653 193.027C610.84 145.381 628.364 119.026 628.364 114.029H522.463C522.463 121.148 514.385 141.89 498.161 176.255C481.937 210.62 469.752 232.937 461.606 243.205H456.882C447.641 230.814 434.497 208.156 417.383 175.228C399.721 141.274 390.891 120.874 390.891 114.029H268.012C268.012 120.121 285.674 147.504 320.929 196.176C324.831 201.515 328.596 206.65 332.224 211.578C394.998 225.749 456.198 246.765 517.26 268.191C530.062 253.405 549.503 228.35 575.585 193.027H575.653Z" fill="#C7DDF4"/>
<path d="M783.077 304.056C783.077 265.584 783.351 228.891 783.899 193.842C808.885 193.842 841.47 194.663 881.517 196.238L884.666 117.65C840.649 119.773 807.653 120.799 785.473 120.799C785.473 92.1164 787.459 81.4373 791.429 29L697.781 40.4321C695.933 99.9888 694.906 106.766 694.632 120.731C677.245 120.731 658.419 119.91 638.156 118.335L635.418 196.169C658.351 194.595 676.491 193.773 689.909 193.773C689.43 241.83 689.156 285.025 689.087 323.497C720.509 331.712 752.272 338.421 784.515 342.802C783.625 331.301 783.077 318.5 783.077 303.987V304.056Z" fill="#C7DDF4"/>
<path d="M998.986 294.197C998.986 261.27 1008.23 233.545 1026.64 211.023C1045.06 188.501 1070.25 177.274 1102.08 177.274C1132.13 177.274 1159.24 182.272 1183.47 192.266L1196.89 111.694C1171.63 104.3 1142.74 100.604 1110.36 100.604C1043.96 100.604 991.729 121.209 953.531 162.42C915.333 203.63 896.233 251.891 896.233 307.204C896.233 321.237 897.534 334.723 900.067 347.661C935.185 345.882 970.029 341.5 1004.6 335.476C1000.9 322.606 998.917 308.847 998.917 294.129L998.986 294.197Z" fill="#C7DDF4"/>
<path d="M1518.09 218.56C1518.09 177.965 1518.92 141.615 1520.56 109.51H1487.01C1488.79 140.589 1489.68 176.87 1489.68 218.56C1489.68 230.95 1489.62 243.136 1489.41 255.115C1499.06 255.389 1508.65 255.731 1518.3 256.211C1518.16 243.82 1518.03 231.293 1518.03 218.491L1518.09 218.56Z" fill="#C7DDF4"/>
<path d="M1696.84 224.242C1726.55 157.566 1741.41 119.368 1741.41 109.579H1709.65C1709.65 120.326 1698.83 153.048 1677.2 207.95C1667.2 233.278 1659.54 253.678 1654.13 269.286C1661.38 270.245 1668.71 271.203 1675.96 272.161C1681.85 258.265 1688.77 242.315 1696.78 224.242H1696.84Z" fill="#C7DDF4"/>
<path d="M1610.77 207.538C1589.41 151.405 1578.66 118.683 1578.66 109.51H1545.12C1545.12 119.504 1559.16 158.045 1587.22 225.063C1593.04 239.028 1598.24 251.624 1602.9 263.125C1612.76 264.152 1622.61 265.315 1632.4 266.547C1627.13 251.282 1619.94 231.635 1610.77 207.538Z" fill="#C7DDF4"/>
<path d="M1796.15 237.031C1825.79 237.031 1853.66 237.579 1879.74 238.606V212.319C1855.3 213.756 1827.44 214.441 1796.15 214.441C1796.15 183.43 1795.81 158.786 1795.06 140.508C1831.27 140.508 1865.57 141.193 1897.88 142.63L1899.32 116.343H1765.96C1767.61 147.628 1768.43 183.978 1768.43 225.394C1768.43 248.6 1768.15 270.712 1767.74 291.864C1777.46 293.234 1787.18 294.603 1796.91 295.903C1796.43 277.146 1796.15 257.568 1796.15 237.031Z" fill="#C7DDF4"/>
<path d="M1295.2 218.551C1295.2 189.594 1294.72 161.459 1293.83 134.076C1302.39 132.912 1309.17 132.296 1314.17 132.296C1348.94 132.296 1374.68 141.059 1391.32 158.583C1407.95 176.108 1416.3 197.946 1416.3 224.027C1416.3 235.528 1414.73 246.275 1411.72 256.338C1421.64 255.791 1431.57 255.38 1441.49 255.106C1445.12 242.784 1446.97 229.778 1446.97 216.086C1446.97 185.144 1437.11 159.473 1417.33 139.073C1397.61 118.674 1366.94 108.474 1325.46 108.474C1322.38 108.474 1316.08 108.611 1306.43 109.021C1296.78 109.364 1289.59 109.569 1284.93 109.569H1265.56C1267.34 140.853 1268.23 177.203 1268.23 218.619C1268.23 238.745 1268.03 257.981 1267.68 276.533C1277.13 274.616 1286.58 272.699 1296.02 270.988C1295.61 253.395 1295.41 235.939 1295.41 218.619L1295.2 218.551Z" fill="#C7DDF4"/>
<path d="M389.731 290.981C374.739 306.247 348.178 341.57 310.117 396.882C272.055 452.195 253.024 483 253.024 489.298H362.828C362.828 481.905 372.685 457.808 392.469 417.008C412.253 376.209 426.423 349.853 435.117 338.01H440.662C451.478 353.276 467.155 380.042 487.691 418.172C509.255 458.493 520.071 482.178 520.071 489.298H643.702C643.702 481.699 624.193 449.525 585.241 392.912C547.59 338.147 521.235 302.413 506.243 285.847V279.891C509.118 277.221 512.815 273.319 517.264 268.117C456.202 246.69 395.002 225.674 332.228 211.504C359.405 248.401 378.573 272.909 389.731 285.025V290.981Z" fill="#176AA2"/>
<path d="M721.468 462.881C743.031 486.087 775.205 497.656 817.854 497.656C845.784 497.656 868.922 493.686 887.405 485.814L894.113 415.509C877.547 419.959 862.008 422.218 847.495 422.218C823.535 422.218 806.764 414.277 797.317 398.327C790.745 387.305 786.501 368.685 784.515 342.877C752.273 338.496 720.509 331.788 689.088 323.573V328.981C689.088 395.109 699.904 439.743 721.468 462.881Z" fill="#176AA2"/>
<path d="M1107.63 500.804C1148.7 500.804 1181.22 494.506 1205.18 481.842L1211.89 406.403C1177.11 416.945 1148.02 422.217 1124.61 422.217C1084.56 422.217 1053.62 409.826 1031.78 385.113C1018.91 370.532 1009.94 353.966 1004.67 335.551C970.1 341.575 935.256 345.957 900.138 347.737C907.189 383.95 924.166 415.987 951.001 443.917C987.488 481.842 1039.72 500.804 1107.63 500.804Z" fill="#176AA2"/>
<path d="M1520.56 339.245C1519.39 312.753 1518.71 285.096 1518.3 256.276C1508.65 255.797 1499.06 255.386 1489.41 255.181C1489.07 284.206 1488.25 312.273 1487.01 339.245H1520.56Z" fill="#176AA2"/>
<path d="M1652.26 339.236C1652.26 331.98 1660.2 309.526 1675.95 272.149C1668.69 271.191 1661.36 270.232 1654.11 269.274C1647.88 287.415 1644.66 299.052 1644.66 303.981H1642.88C1642.88 299.326 1639.39 286.867 1632.41 266.604C1622.55 265.441 1612.69 264.277 1602.9 263.181C1620.5 306.719 1629.33 332.117 1629.33 339.236H1652.26Z" fill="#176AA2"/>
<path d="M1908.16 339.249L1909.25 312.62C1874 314.399 1836.82 315.289 1797.74 315.289C1797.39 306.801 1797.12 298.039 1796.92 289.139C1787.19 287.839 1777.47 286.469 1767.75 285.1C1767.34 303.994 1766.79 322.067 1765.97 339.249H1908.16Z" fill="#176AA2"/>
<path d="M1326.62 341.709C1364.14 341.709 1393.57 329.113 1414.93 303.99C1427.53 289.135 1436.29 272.843 1441.49 255.181C1431.57 255.386 1421.64 255.797 1411.71 256.413C1408.02 268.941 1401.99 280.304 1393.64 290.504C1378.51 308.919 1355.44 318.092 1324.43 318.092C1315.74 318.092 1306.7 317.134 1297.26 315.285C1296.64 300.43 1296.23 285.644 1295.89 270.994C1286.44 272.774 1276.99 274.623 1267.55 276.539C1267.07 298.514 1266.45 319.53 1265.49 339.245C1294.11 340.888 1314.51 341.709 1326.69 341.709H1326.62Z" fill="#176AA2"/>
<path d="M1294.4 467.868C1288.72 461.16 1285.84 453.287 1285.84 444.114C1285.84 434.941 1288.24 427.616 1293.03 421.387C1297.82 415.157 1305.15 412.008 1315 412.008C1320.21 412.008 1325.75 412.898 1331.43 414.747L1333.97 397.906C1328.7 396.537 1323.08 395.853 1317.13 395.853C1301.04 395.853 1288.31 400.918 1279.13 410.982C1269.89 421.045 1265.24 432.956 1265.24 446.579C1265.24 460.201 1269.62 470.88 1278.31 480.122C1287.01 489.295 1299.67 493.95 1316.37 493.95C1323.08 493.95 1329.86 493.129 1336.7 491.486L1337.94 474.714C1330.82 476.836 1324.31 477.863 1318.29 477.863C1308.02 477.863 1300.01 474.509 1294.26 467.8L1294.4 467.868Z" fill="white"/>
<path fill-rule="evenodd" clip-rule="evenodd" d="M1274.06 406.346C1284.77 394.6 1299.49 388.985 1317.12 388.985C1323.61 388.985 1329.8 389.731 1335.69 391.259L1341.67 392.814L1337.02 423.788L1329.3 421.28C1324.25 419.636 1319.42 418.878 1315 418.878C1306.7 418.878 1301.65 421.446 1298.47 425.576C1294.71 430.462 1292.71 436.267 1292.71 444.115C1292.71 451.707 1295.03 457.995 1299.64 463.43L1299.6 463.477C1303.82 468.317 1309.75 470.995 1318.29 470.995C1323.53 470.995 1329.36 470.102 1335.97 468.132L1345.51 465.288L1343.18 496.995L1338.3 498.166C1330.96 499.929 1323.64 500.82 1316.37 500.82C1298.38 500.82 1283.68 495.773 1273.32 484.848L1273.3 484.83C1263.4 474.303 1258.36 461.937 1258.36 446.58C1258.36 431.232 1263.67 417.668 1274.06 406.346ZM1289.08 472.223C1282.37 464.258 1278.97 454.831 1278.97 444.115C1278.97 433.618 1281.76 424.773 1287.58 417.2C1293.99 408.871 1303.59 405.141 1315 405.141C1318.51 405.141 1322.11 405.492 1325.77 406.198L1326.2 403.349C1323.3 402.934 1320.28 402.723 1317.12 402.723C1302.58 402.723 1291.84 407.237 1284.21 415.61L1284.19 415.629C1276.1 424.431 1272.1 434.686 1272.1 446.58C1272.1 458.463 1275.82 467.453 1283.3 475.408C1290.34 482.823 1300.96 487.082 1316.37 487.082C1320.93 487.082 1325.55 486.667 1330.23 485.829L1330.39 483.593C1326.23 484.35 1322.2 484.733 1318.29 484.733C1306.37 484.733 1296.32 480.756 1289.04 472.271L1289.08 472.223Z" fill="white"/>
<path d="M1401.05 449.6C1411.39 449.6 1422.2 449.873 1433.57 450.353V435.155C1422 435.703 1411.18 435.908 1401.05 435.908C1401.05 426.735 1400.78 418.794 1400.3 412.017C1412.14 412.017 1425.35 412.428 1439.86 413.181L1440.69 397.231H1381.54C1382.16 409.69 1382.5 424.75 1382.5 442.48C1382.5 460.21 1382.16 477.393 1381.54 492.042H1443.49L1444.11 476.024C1429.05 476.845 1414.88 477.256 1401.6 477.256C1401.19 468.63 1400.98 459.457 1400.98 449.6H1401.05Z" fill="white"/>
<path fill-rule="evenodd" clip-rule="evenodd" d="M1374.31 390.362H1447.91L1446.36 420.396L1439.5 420.04C1427.99 419.443 1417.33 419.064 1407.56 418.935C1407.7 422.097 1407.8 425.454 1407.85 429.008C1415.89 428.932 1424.33 428.715 1433.23 428.294L1440.42 427.954V457.517L1433.27 457.215C1424.46 456.844 1416.01 456.598 1407.87 456.507C1407.92 461.287 1408.02 465.897 1408.18 470.353C1419.4 470.241 1431.24 469.846 1443.72 469.165L1451.25 468.754L1450.09 498.911H1374.36L1374.67 491.753C1375.28 477.214 1375.62 460.128 1375.62 442.48C1375.62 424.832 1375.28 409.889 1374.67 397.57L1374.31 390.362ZM1388.7 404.099C1389.13 415.158 1389.36 427.941 1389.36 442.48C1389.36 457.485 1389.11 472.112 1388.66 485.173H1436.87L1436.94 483.262C1424.55 483.836 1412.76 484.124 1401.59 484.124H1395.04L1394.72 477.582C1394.31 468.835 1394.1 459.552 1394.1 449.599V442.731H1394.17V435.908C1394.17 426.868 1393.9 419.091 1393.43 412.502L1392.91 405.148H1400.28C1410.37 405.148 1421.41 405.442 1433.35 405.986L1433.44 404.099H1388.7ZM1406.62 442.756C1413.13 442.815 1419.81 442.972 1426.69 443.213V442.318C1419.72 442.572 1413.04 442.708 1406.62 442.756Z" fill="white"/>
<path d="M1549.19 397.221C1549.88 411.049 1550.22 424.535 1550.22 437.678C1550.22 446.235 1550.77 455.956 1552 466.772H1550.9C1548.99 459.995 1541.66 447.057 1528.93 427.958C1516.95 410.022 1510.92 399.754 1510.92 397.152H1489.29C1490.05 409.611 1490.39 424.672 1490.39 442.402C1490.39 460.132 1490.05 476.904 1489.29 491.964H1507.16C1506.47 474.713 1506.13 460.132 1506.13 448.152C1506.13 439.595 1505.52 429.943 1504.28 419.332H1505.45C1507.36 426.725 1515.37 440.417 1529.34 460.474C1542.69 479.505 1549.33 489.979 1549.33 491.964H1567.33C1566.65 477.177 1566.31 460.611 1566.31 442.402C1566.31 424.193 1566.65 409.201 1567.33 397.152H1549.12L1549.19 397.221Z" fill="white"/>
<path fill-rule="evenodd" clip-rule="evenodd" d="M1481.99 390.284H1517.78V396.512C1517.88 396.757 1518.03 397.123 1518.27 397.632C1518.89 398.965 1519.9 400.847 1521.35 403.336C1524.25 408.293 1528.66 415.211 1534.63 424.142C1537.86 428.994 1540.77 433.479 1543.34 437.583C1543.34 425.427 1543.04 412.967 1542.45 400.204L1532.51 390.284H1574.59L1574.18 397.542C1573.51 409.414 1573.16 424.265 1573.16 442.402C1573.16 460.528 1573.5 476.987 1574.18 491.646L1574.52 498.833H1542.45V492.974C1542.35 492.758 1542.2 492.474 1542.01 492.114C1541.3 490.781 1540.16 488.859 1538.53 486.291C1535.29 481.181 1530.36 473.907 1523.71 464.418L1523.69 464.399C1519.65 458.594 1516.08 453.284 1512.99 448.473C1513 460.272 1513.34 474.65 1514.01 491.691L1514.3 498.833H1482.06L1482.42 491.621C1483.17 476.703 1483.51 460.05 1483.51 442.402C1483.51 424.746 1483.17 409.836 1482.43 397.567L1481.99 390.284ZM1542.69 493.537C1542.69 493.535 1542.67 493.493 1542.65 493.415C1542.68 493.5 1542.69 493.539 1542.69 493.537ZM1556.37 404.021C1556.84 415.471 1557.08 426.69 1557.08 437.678C1557.08 445.947 1557.61 455.407 1558.81 465.994L1559.68 473.641H1546.69C1547.98 475.585 1549.13 477.348 1550.13 478.931C1551.66 481.338 1552.9 483.406 1553.83 485.095H1560.16C1559.67 472.069 1559.43 457.809 1559.43 442.402C1559.43 427.581 1559.65 414.831 1560.11 404.021H1556.37ZM1544.97 471.067L1544.28 468.641C1543.56 466.094 1541.61 461.767 1537.98 455.37C1534.44 449.102 1529.52 441.246 1523.2 431.77C1517.19 422.767 1512.6 415.584 1509.5 410.273C1508.1 407.89 1506.95 405.792 1506.09 404.021H1496.52C1496.64 406.733 1496.75 409.547 1496.84 412.463H1510.75L1512.09 417.608C1512.79 420.339 1514.86 424.927 1518.8 431.7C1522.66 438.327 1528.03 446.592 1534.96 456.54M1496.93 415.624C1497.14 423.784 1497.25 432.709 1497.25 442.402C1497.25 457.444 1497 471.829 1496.47 485.095H1500.02C1499.51 470.856 1499.25 458.552 1499.25 448.152C1499.25 439.913 1498.66 430.531 1497.45 420.124L1496.93 415.624Z" fill="white"/>
<path d="M1608.55 412.976C1620.53 412.223 1629.91 411.812 1636.76 411.812C1636.96 421.19 1637.03 431.39 1637.03 442.48C1637.03 460.073 1636.69 476.64 1636.07 492.042H1656.47C1655.92 476.503 1655.65 459.936 1655.65 442.48C1655.65 431.253 1655.65 420.985 1655.79 411.812C1664.41 411.812 1673.52 412.154 1683.24 412.907L1683.72 397.231H1609.1L1608.48 412.976H1608.55Z" fill="white"/>
<path fill-rule="evenodd" clip-rule="evenodd" d="M1602.48 390.362H1690.78L1689.87 420.311L1682.69 419.755C1675.66 419.211 1668.97 418.886 1662.56 418.752C1662.5 426.051 1662.5 433.971 1662.5 442.48C1662.5 459.866 1662.78 476.351 1663.32 491.8L1663.57 498.911H1628.91L1629.19 491.768C1629.8 476.459 1630.15 459.985 1630.15 442.48C1630.15 434.062 1630.11 426.178 1630 418.789C1624.28 418.955 1617.29 419.308 1608.97 419.831L1608.75 419.844H1601.33L1602.48 390.362ZM1615.69 404.099L1615.63 405.674C1624.17 405.201 1631.22 404.943 1636.74 404.943H1643.46L1643.61 411.661C1643.81 421.111 1643.88 431.366 1643.88 442.48C1643.88 457.475 1643.64 471.734 1643.18 485.173H1649.36C1648.96 471.634 1648.77 457.375 1648.77 442.48C1648.77 431.269 1648.77 420.942 1648.9 411.709L1649 404.943H1655.77C1662.42 404.943 1669.33 405.142 1676.57 405.569L1676.62 404.099H1615.69Z" fill="white"/>
<path d="M1744.36 449.6C1754.69 449.6 1765.51 449.873 1776.87 450.353V435.155C1765.3 435.703 1754.49 435.908 1744.36 435.908C1744.36 426.735 1744.08 418.794 1743.67 412.017C1755.52 412.017 1768.73 412.428 1783.24 413.181L1784.06 397.231H1724.98C1725.6 409.69 1725.94 424.75 1725.94 442.48C1725.94 460.21 1725.6 477.393 1724.98 492.042H1786.94L1787.48 476.024C1772.42 476.845 1758.25 477.256 1744.97 477.256C1744.56 468.63 1744.43 459.457 1744.43 449.6H1744.36Z" fill="white"/>
<path fill-rule="evenodd" clip-rule="evenodd" d="M1717.77 390.362H1791.29L1789.75 420.396L1782.88 420.04C1771.35 419.442 1760.68 419.063 1750.9 418.935C1751.02 422.092 1751.12 425.448 1751.17 429.008C1759.21 428.932 1767.65 428.715 1776.55 428.294L1783.74 427.954V457.517L1776.58 457.215C1767.83 456.846 1759.42 456.6 1751.32 456.508C1751.36 461.298 1751.44 465.905 1751.58 470.353C1762.79 470.241 1774.63 469.845 1787.11 469.165L1794.6 468.756L1793.57 498.911H1717.82L1718.12 491.753C1718.73 477.214 1719.07 460.128 1719.07 442.48C1719.07 424.832 1718.73 409.889 1718.12 397.57L1717.77 390.362ZM1744.36 449.599V442.777H1737.49V435.908C1737.49 426.872 1737.22 419.07 1736.82 412.433L1736.37 405.148H1743.67C1753.76 405.148 1764.8 405.442 1776.73 405.986L1776.83 404.099H1732.16C1732.58 415.158 1732.81 427.941 1732.81 442.48C1732.81 457.485 1732.57 472.112 1732.12 485.173H1780.3L1780.36 483.26C1767.96 483.836 1756.16 484.124 1744.97 484.124H1738.42L1738.11 477.582C1737.69 468.806 1737.56 459.513 1737.56 449.599H1744.36ZM1751.29 442.77C1757.37 442.837 1763.61 442.989 1770 443.213V442.318C1763.53 442.554 1757.29 442.688 1751.29 442.745V442.77Z" fill="white"/>
<path d="M1875.25 446.032V444.936C1887.99 440.144 1894.35 431.793 1894.35 419.676C1894.35 404.41 1883.26 396.812 1860.95 396.812C1857.05 396.812 1852.73 396.88 1848.08 397.017C1843.42 397.154 1840.41 397.222 1838.9 397.222H1826.31C1826.92 409.681 1827.27 424.742 1827.27 442.472C1827.27 460.202 1826.99 477.384 1826.31 492.034H1846.57C1846.09 479.301 1845.89 466.705 1845.89 454.246C1848.49 454.246 1851.16 454.178 1853.96 454.178C1860.67 454.178 1865.53 456.231 1868.55 460.202C1871.56 464.241 1875.87 474.851 1881.55 492.034H1903.12C1896.89 475.331 1891.89 463.762 1888.19 457.464C1884.5 451.166 1880.18 447.401 1875.32 446.032H1875.25ZM1852.6 441.171C1850.75 441.171 1848.49 441.171 1845.82 441.034C1845.82 428.986 1845.54 419.128 1845 411.598C1848.49 410.914 1852.53 410.571 1857.05 410.571C1869.44 410.571 1875.67 415.432 1875.67 425.084C1875.67 435.832 1867.93 441.171 1852.53 441.171H1852.6Z" fill="white"/>
<path fill-rule="evenodd" clip-rule="evenodd" d="M1847.87 390.152C1852.58 390.014 1856.96 389.944 1860.94 389.944C1872.66 389.944 1882.65 391.9 1889.89 396.852C1897.6 402.129 1901.21 410.132 1901.21 419.677C1901.21 427.003 1899.26 433.636 1895.04 439.202C1893.08 441.788 1890.72 444.03 1888.02 445.963C1890.3 448.231 1892.32 450.942 1894.11 453.988C1898.14 460.857 1903.31 472.936 1909.54 489.635L1913 498.904H1876.58L1875.02 494.191C1872.2 485.671 1869.76 478.887 1867.68 473.785C1865.54 468.538 1863.98 465.601 1863.05 464.332C1861.71 462.592 1859.22 461.048 1853.95 461.048C1853.56 461.048 1853.16 461.049 1852.77 461.051C1852.83 471.209 1853.04 481.45 1853.42 491.777L1853.69 498.904H1819.1L1819.44 491.714C1820.11 477.212 1820.39 460.145 1820.39 442.473C1820.39 424.825 1820.05 409.882 1819.44 397.563L1819.08 390.355H1838.89C1840.28 390.355 1843.19 390.29 1847.87 390.152ZM1880.8 434.211C1882.14 433.164 1883.22 432.057 1884.09 430.906C1886.24 428.069 1887.47 424.467 1887.47 419.677C1887.47 413.957 1885.55 410.528 1882.13 408.188C1878.24 405.525 1871.53 403.682 1860.94 403.682C1859.67 403.682 1858.36 403.689 1857 403.704C1857.01 403.704 1857.02 403.704 1857.03 403.704C1863.94 403.704 1870.39 405.027 1875.21 408.792C1880.37 412.807 1882.52 418.668 1882.52 425.085C1882.52 428.358 1881.96 431.436 1880.8 434.211ZM1854.47 403.739C1852.49 403.772 1850.42 403.821 1848.27 403.884C1843.64 404.02 1840.52 404.092 1838.89 404.092H1833.47C1833.9 415.151 1834.13 427.934 1834.13 442.473C1834.13 457.451 1833.93 472.083 1833.46 485.166H1839.46C1839.14 474.762 1839.01 464.456 1839.01 454.247V447.564L1838.94 447.561V441.035C1838.94 429.067 1838.67 419.394 1838.14 412.097L1837.69 406.029L1843.66 404.859C1846.97 404.21 1850.6 403.848 1854.47 403.739ZM1859.2 447.696C1862.54 448.212 1865.65 449.263 1868.38 450.939V445.603C1865.58 446.661 1862.49 447.331 1859.2 447.696ZM1871.06 452.901C1872.13 453.824 1873.11 454.872 1874.01 456.052L1874.04 456.096C1876.12 458.879 1878.22 463.263 1880.4 468.595C1882.22 473.07 1884.25 478.603 1886.48 485.166H1893.13C1888.59 473.554 1884.95 465.534 1882.26 460.942C1879.41 456.086 1876.63 453.829 1874.22 452.901H1871.06ZM1852.65 434.303C1859.69 434.288 1863.78 433.022 1865.95 431.516C1867.67 430.318 1868.79 428.576 1868.79 425.085C1868.79 421.85 1867.83 420.454 1866.77 419.626C1865.38 418.548 1862.52 417.441 1857.03 417.441C1855.33 417.441 1853.72 417.494 1852.22 417.596C1852.45 422.503 1852.59 428.083 1852.65 434.303Z" fill="white"/>
<path d="M1294.46 467.801C1288.78 461.093 1285.9 453.22 1285.9 444.047C1285.9 434.874 1288.3 427.549 1293.09 421.32C1297.88 415.09 1305.21 411.941 1315.06 411.941C1320.27 411.941 1325.81 412.831 1331.49 414.679L1334.03 397.839C1328.75 396.47 1323.14 395.786 1317.19 395.786C1301.1 395.786 1288.37 400.851 1279.19 410.914C1269.95 420.977 1265.3 432.889 1265.3 446.511C1265.3 460.134 1269.68 470.813 1278.37 480.055C1287.06 489.228 1299.73 493.883 1316.43 493.883C1323.14 493.883 1329.92 493.061 1336.76 491.419L1338 474.647C1330.88 476.769 1324.37 477.796 1318.35 477.796C1308.08 477.796 1300.07 474.441 1294.32 467.733L1294.46 467.801Z" fill="#176AA2"/>
<path d="M1401.11 449.521C1411.44 449.521 1422.26 449.795 1433.62 450.274V435.077C1422.06 435.625 1411.24 435.83 1401.11 435.83C1401.11 426.657 1400.83 418.716 1400.36 411.939C1412.2 411.939 1425.41 412.35 1439.92 413.103L1440.74 397.152H1381.6C1382.21 409.611 1382.56 424.672 1382.56 442.402C1382.56 460.132 1382.21 477.314 1381.6 491.964H1443.55L1444.17 475.945C1429.11 476.767 1414.94 477.177 1401.66 477.177C1401.25 468.552 1401.04 459.379 1401.04 449.521H1401.11Z" fill="#176AA2"/>
<path d="M1549.24 397.152C1549.93 410.98 1550.27 424.466 1550.27 437.609C1550.27 446.166 1550.82 455.887 1552.05 466.703H1550.95C1549.04 459.926 1541.71 446.988 1528.98 427.889C1517 409.953 1510.97 399.685 1510.97 397.083H1489.34C1490.09 409.542 1490.44 424.603 1490.44 442.333C1490.44 460.063 1490.09 476.835 1489.34 491.895H1507.21C1506.52 474.644 1506.18 460.063 1506.18 448.083C1506.18 439.526 1505.57 429.874 1504.33 419.263H1505.5C1507.41 426.656 1515.42 440.348 1529.39 460.405C1542.74 479.436 1549.38 489.91 1549.38 491.895H1567.38C1566.7 477.108 1566.35 460.542 1566.35 442.333C1566.35 424.124 1566.7 409.132 1567.38 397.083H1549.17L1549.24 397.152Z" fill="#176AA2"/>
<path d="M1608.59 412.897C1620.57 412.144 1629.95 411.734 1636.8 411.734C1637 421.112 1637.07 431.312 1637.07 442.402C1637.07 459.995 1636.73 476.561 1636.11 491.964H1656.51C1655.96 476.424 1655.69 459.858 1655.69 442.402C1655.69 431.175 1655.69 420.907 1655.83 411.734C1664.45 411.734 1673.56 412.076 1683.28 412.829L1683.76 397.152H1609.14L1608.52 412.897H1608.59Z" fill="#176AA2"/>
<path d="M1744.42 449.521C1754.75 449.521 1765.57 449.795 1776.93 450.274V435.077C1765.36 435.625 1754.55 435.83 1744.42 435.83C1744.42 426.657 1744.14 418.716 1743.73 411.939C1755.57 411.939 1768.79 412.35 1783.3 413.103L1784.12 397.152H1725.04C1725.66 409.611 1726 424.672 1726 442.402C1726 460.132 1725.66 477.314 1725.04 491.964H1787L1787.54 475.945C1772.48 476.767 1758.31 477.177 1745.03 477.177C1744.62 468.552 1744.48 459.379 1744.48 449.521H1744.42Z" fill="#176AA2"/>
<path d="M1875.29 445.972V444.876C1888.03 440.084 1894.39 431.733 1894.39 419.616C1894.39 404.351 1883.3 396.752 1860.99 396.752C1857.08 396.752 1852.77 396.82 1848.12 396.957C1843.46 397.094 1840.45 397.163 1838.94 397.163H1826.35C1826.96 409.622 1827.31 424.682 1827.31 442.412C1827.31 460.142 1827.03 477.325 1826.35 491.974H1846.61C1846.13 479.241 1845.93 466.645 1845.93 454.186C1848.53 454.186 1851.2 454.118 1854 454.118C1860.71 454.118 1865.57 456.172 1868.59 460.142C1871.6 464.181 1875.91 474.792 1881.59 491.974H1903.16C1896.93 475.271 1891.93 463.702 1888.23 457.404C1884.54 451.106 1880.22 447.341 1875.36 445.972H1875.29ZM1852.63 441.111C1850.79 441.111 1848.53 441.111 1845.86 440.974C1845.86 428.926 1845.58 419.069 1845.04 411.538C1848.53 410.854 1852.57 410.512 1857.08 410.512C1869.48 410.512 1875.7 415.372 1875.7 425.024C1875.7 435.772 1867.97 441.111 1852.57 441.111H1852.63Z" fill="#176AA2"/>
</svg>
