<svg width="1080" height="1080" viewBox="0 0 1080 1080" fill="none" xmlns="http://www.w3.org/2000/svg">
<circle cx="540" cy="540" r="300" fill="#D43E1E"/>
<path d="M725.748 839.513C742.362 843.7 760.969 846.146 772.854 844.46C794.4 841.404 819.579 836.717 830.035 810.091C834.577 798.6 837.343 792.185 836.639 783.547C836.299 779.38 835.181 774.841 833.451 769.076C831.722 763.313 829.246 755.903 826.082 746.043L826.081 746.044C819.459 725.341 807.578 707.592 797.478 695.104C792.41 688.837 787.746 683.842 784.34 680.403C782.636 678.683 781.243 677.349 780.268 676.438C779.78 675.982 779.396 675.631 779.129 675.391C778.996 675.27 778.891 675.177 778.818 675.112C778.782 675.08 778.753 675.054 778.732 675.036C778.722 675.027 778.713 675.019 778.707 675.014C778.704 675.011 778.701 675.009 778.699 675.007C778.698 675.006 778.697 675.004 778.696 675.004L775.403 678.767L778.693 675.002L778.648 674.963L778.604 674.925C773.98 671.073 764.396 663.992 752.829 657.223C741.316 650.485 727.452 643.827 714.348 641.158H714.345C682.667 634.733 654.515 645.359 649.193 646.672L649.181 646.675C645.655 647.554 641.453 646.467 635.519 643.568C632.617 642.151 629.628 640.476 626.274 638.653C622.984 636.865 619.429 634.984 615.67 633.34L615.668 633.339C608.842 630.357 600.841 626.037 593.766 620.812C586.618 615.534 580.821 609.628 577.866 603.599L577.862 603.591C570.318 588.262 555.024 575.476 541.247 566.347L541.248 566.346C535.399 562.46 529.367 554.922 523.836 545.94C518.388 537.094 513.754 527.396 510.535 519.785L510.531 519.777L510.528 519.77C507.273 512.145 507.121 509.101 508.021 506.607C508.536 505.183 509.543 503.54 511.444 501.249C513.357 498.944 515.895 496.305 519.275 492.781L520.515 491.499C526.827 485.001 534.794 477.229 541.434 468.48C548.346 459.372 554.23 448.714 555.697 436.376L555.825 435.177V435.174C558.092 411.116 553.211 386.138 540.59 363.306L540.586 363.3C533.736 350.948 521.226 342.804 509.39 336.807C503.412 333.778 497.373 331.187 492.073 328.883C486.663 326.53 482.171 324.535 478.868 322.593C475.308 320.5 474.366 319.466 474.077 319.007C473.947 318.8 473.784 318.578 473.802 316.35C473.819 314.209 473.944 310.98 473.263 306.467C472.583 301.966 471.13 296.304 468.135 288.891L468.134 288.892C461.3 271.874 444.864 266.878 429.848 267.271C414.927 267.663 399.417 273.31 391.53 280.021L390.566 280.841L390.108 282.02V282.021L390.075 282.104C390.051 282.167 390.013 282.263 389.963 282.388C389.863 282.638 389.715 283.005 389.525 283.461C389.146 284.376 388.606 285.64 387.968 287.031C386.635 289.937 385.071 292.958 383.757 294.683V294.684C381.839 297.2 381.503 300.567 381.616 303.343C381.739 306.365 382.444 309.829 383.653 313.447C386.077 320.7 390.712 329.126 397.813 336.7C405.398 344.823 412.89 347.04 420.178 347.531C423.517 347.756 427.068 347.621 429.958 347.628C433.022 347.635 435.832 347.782 438.642 348.43H438.644C440.498 348.857 441.262 349.34 441.528 349.552C441.506 349.677 441.456 349.874 441.342 350.162C440.947 351.162 440.077 352.478 438.777 353.939C437.52 355.353 436.074 356.666 434.819 357.666V357.667C434.055 358.273 432.26 359.191 429.324 360.265C426.534 361.285 423.179 362.285 419.704 363.213C412.748 365.071 405.693 366.544 402.252 367.31L402.236 367.313C397.878 368.297 392.367 371.31 387.862 374.773C385.549 376.552 383.319 378.587 381.511 380.757C379.751 382.867 378.12 385.426 377.469 388.249L377.463 388.276C376.967 390.481 375.673 391.82 374.577 392.285C373.777 392.624 372.412 392.808 370.471 391.019L370.457 391.006L370.443 390.994C368.103 388.868 368.099 387.52 368.242 386.79C368.456 385.698 369.429 383.998 371.946 381.951L372.471 381.537L372.479 381.531L372.488 381.524C377.238 377.846 379.052 372.796 379.5 367.729C379.93 362.862 379.143 357.52 378.333 352.613C377.648 348.372 374.396 344.267 370.75 341.048C366.887 337.637 361.73 334.459 355.847 332.289C344.033 327.932 328.683 327.476 315.059 338.259C308.459 343.482 304.675 349.077 303.128 354.792C301.583 360.501 302.419 365.778 304.073 370.106C305.711 374.391 308.191 377.872 310.184 380.232C310.346 380.424 310.505 380.61 310.661 380.789C309.83 381.955 308.863 383.339 307.873 384.822C306.499 386.88 305.041 389.183 303.828 391.379C302.689 393.442 301.529 395.824 301.039 397.957V397.956C300.487 400.289 299.101 404.595 300.996 409.306C302.829 413.86 307.239 417.879 314.671 422.256L314.678 422.26L314.686 422.265C322.701 426.948 332.093 429.24 340.109 430.697C344.122 431.427 347.989 431.979 351.142 432.476C354.425 432.993 356.804 433.434 358.374 433.934C359.26 434.224 359.485 434.561 359.604 434.785C359.804 435.159 360.026 435.94 359.947 437.376C359.785 440.342 358.47 444.224 356.787 448.212C356.476 447.661 356.148 447.176 355.849 446.773C354.673 445.193 353.076 443.662 351.305 442.252C347.736 439.412 342.859 436.589 337.439 434.447C326.926 430.292 312.427 428.001 301.396 435.975C298.517 438.056 296.438 440.599 295.283 443.563C294.133 446.515 294.035 449.533 294.542 452.361C295.522 457.829 298.837 463.044 302.235 467.263C305.72 471.588 309.745 475.413 312.842 478.122C313.67 478.846 314.439 479.496 315.123 480.062C314.689 481.072 314.205 482.236 313.724 483.484C312.967 485.445 312.187 487.678 311.603 489.87C311.041 491.975 310.565 494.388 310.631 496.604L310.646 496.995C310.838 501.036 312.347 504.834 315.01 508.814C317.707 512.847 321.751 517.309 327.259 522.675C334.308 529.557 343.141 529.917 350.087 529.121C353.549 528.725 356.909 527.992 359.473 527.491C362.365 526.926 363.875 526.748 364.644 526.842L364.657 526.844C364.991 526.884 365.015 526.947 365.087 527.042C365.274 527.289 365.581 527.908 365.766 529.117C366.139 531.567 365.771 534.804 365.193 537.333C364.609 539.894 365.007 543.316 365.762 546.72C366.569 550.363 367.97 554.773 370.013 559.682C374.103 569.508 380.868 581.574 390.979 593.797L390.981 593.799C401.547 606.562 412.641 611.879 422.979 615.878C433.432 619.922 442.018 622.352 449.988 629.183C458.505 636.511 462.754 641.525 469.374 648.811C476.04 656.147 484.819 665.447 502.14 680.966H502.141C537.455 712.604 593.46 729.086 616.663 735.918L616.674 735.921C627.82 739.175 631.075 742.294 632.982 745.469C634.124 747.369 634.913 749.501 636.152 752.675C637.347 755.735 638.834 759.386 641.272 763.564L641.277 763.573C650.549 779.389 676.055 809.831 686.478 821.761L686.48 821.765C689.898 825.668 695.867 829.041 702.446 831.866C709.219 834.775 717.347 837.395 725.748 839.513ZM356.79 473.36C355.569 472.173 354.505 470.826 353.929 469.617L353.924 469.607L353.803 469.335C353.26 468.01 353.398 466.561 354.404 463.954C354.633 463.362 354.886 462.759 355.167 462.1C355.256 463.251 355.377 464.372 355.512 465.44C355.861 468.2 356.345 470.895 356.768 473.232C356.775 473.275 356.782 473.318 356.79 473.36Z" fill="#DEDEDE" stroke="white" stroke-width="10"/>
</svg>
