<svg width="4200" height="1080" viewBox="0 0 4200 1080" fill="none" xmlns="http://www.w3.org/2000/svg">
<circle cx="540" cy="540" r="400" fill="#D43E1E"/>
<path d="M754.071 915.734C776.164 921.302 800.718 924.498 816.237 922.297C845.054 918.21 877.612 912.022 891.164 877.509C897.267 862.069 900.759 853.914 899.857 842.865C899.419 837.492 897.972 831.58 895.672 823.914C893.373 816.251 890.084 806.414 885.856 793.239L885.857 793.238C877.114 765.902 861.404 742.418 848.007 725.853C841.291 717.548 835.113 710.93 830.603 706.377C828.347 704.1 826.505 702.337 825.219 701.135C824.575 700.534 824.07 700.073 823.722 699.758C823.548 699.601 823.412 699.48 823.318 699.396C823.271 699.355 823.234 699.322 823.208 699.299C823.195 699.287 823.185 699.278 823.177 699.271C823.173 699.268 823.17 699.265 823.167 699.263C823.166 699.262 823.165 699.26 823.164 699.26L819.871 703.022L823.161 699.258L823.116 699.219L823.071 699.181C816.978 694.105 804.275 684.715 788.931 675.735C773.64 666.787 755.34 658.015 738.132 654.511H738.128C696.356 646.037 659.291 660.046 651.99 661.848L651.978 661.851C646.659 663.177 640.581 661.474 632.627 657.589C628.715 655.678 624.68 653.418 620.237 651.003C615.857 648.623 611.169 646.143 606.226 643.98L606.223 643.979C597.031 639.964 586.25 634.145 576.697 627.091C567.072 619.983 559.101 611.916 554.992 603.531L554.988 603.523C545.13 583.493 525.046 566.646 506.74 554.517L506.741 554.516C498.631 549.127 490.434 538.818 483.029 526.795C475.708 514.906 469.492 501.895 465.179 491.696L465.175 491.688L465.172 491.681C460.811 481.468 460.362 476.88 461.795 472.91C462.575 470.748 464.056 468.384 466.643 465.268C469.241 462.137 472.675 458.567 477.166 453.887L478.829 452.166C487.287 443.458 497.804 433.203 506.584 421.634C516.003 409.223 523.859 394.777 525.44 378.078L525.441 378.075C528.433 346.33 521.992 313.362 505.327 283.214L505.324 283.208C496.445 267.196 480.149 256.525 464.433 248.562C456.515 244.551 448.512 241.117 441.433 238.038C434.243 234.911 428.155 232.21 423.646 229.56C418.882 226.758 417.308 225.21 416.691 224.229C416.234 223.502 416.046 222.75 416.069 219.786C416.092 216.91 416.253 212.737 415.368 206.872C414.485 201.021 412.588 193.602 408.638 183.823L408.639 183.822C399.905 162.056 378.876 155.512 359.174 156.028C339.571 156.542 319.285 163.982 309.12 172.63L308.156 173.45L307.698 174.63H307.697C307.697 174.631 307.698 174.632 307.697 174.633C307.696 174.637 307.692 174.644 307.688 174.654C307.681 174.675 307.668 174.707 307.651 174.75C307.618 174.836 307.566 174.966 307.498 175.135C307.362 175.474 307.162 175.971 306.906 176.587C306.394 177.821 305.667 179.526 304.806 181.403C303.027 185.282 300.876 189.459 299.002 191.92V191.921C296.805 194.803 296.341 198.801 296.487 202.39C296.643 206.226 297.542 210.686 299.118 215.401C302.275 224.847 308.331 235.867 317.627 245.785L318.543 246.745C328.003 256.436 337.266 259.1 346.349 259.712C350.731 260.007 355.327 259.827 359.281 259.837C363.41 259.847 367.303 260.043 371.23 260.948L371.231 260.949C375.114 261.843 376.087 263.01 376.265 263.301C376.338 263.42 376.626 263.927 376.006 265.496C375.377 267.087 374.075 269.011 372.282 271.026C370.532 272.995 368.531 274.81 366.798 276.191V276.192C365.553 277.18 362.938 278.479 359.005 279.918C355.218 281.303 350.692 282.65 346.036 283.894C336.718 286.382 327.26 288.358 322.698 289.373L322.683 289.377C317.199 290.615 310.072 294.477 304.166 299.019C301.152 301.336 298.275 303.967 295.961 306.743C293.696 309.46 291.702 312.635 290.916 316.04L290.912 316.054L290.909 316.067C290.15 319.442 288.121 321.718 286.087 322.581C284.349 323.318 281.843 323.361 278.831 320.584L278.804 320.559C275.382 317.451 275.022 315.1 275.354 313.4C275.746 311.399 277.377 308.821 280.886 305.969L281.613 305.395L281.631 305.381C287.488 300.845 289.769 294.611 290.34 288.158C290.893 281.907 289.882 274.98 288.799 268.417L288.8 268.416C287.981 263.344 284.007 258.197 279.23 253.979C274.237 249.571 267.541 245.44 259.886 242.616C244.529 236.952 224.712 236.391 207.113 250.318C198.526 257.114 193.728 264.29 191.779 271.491C189.832 278.687 190.877 285.357 192.988 290.881C195.083 296.361 198.268 300.842 200.852 303.902C201.375 304.523 201.88 305.09 202.352 305.603C201.1 307.336 199.515 309.579 197.884 312.022C196.065 314.746 194.15 317.772 192.563 320.644C191.052 323.38 189.603 326.389 189.007 328.993C188.233 332.262 186.585 337.427 188.875 343.118C191.102 348.654 196.565 353.774 206.406 359.571L206.414 359.576L206.422 359.58C216.851 365.674 229.137 368.689 239.777 370.624C245.102 371.592 250.212 372.32 254.447 372.987C258.813 373.675 262.111 374.28 264.345 374.991C265.903 375.501 266.564 376.218 266.943 376.931C267.402 377.793 267.708 379.17 267.594 381.26C267.359 385.543 265.488 390.975 263.228 396.322V396.323C262.524 397.984 262.019 399.747 261.671 401.567C261.768 398.774 260.348 396.334 259.128 394.692C257.676 392.739 255.664 390.8 253.369 388.974C248.755 385.301 242.398 381.616 235.307 378.813C221.45 373.337 202.837 370.531 188.838 380.65C185.216 383.268 182.67 386.414 181.264 390.023C179.862 393.62 179.731 397.323 180.363 400.854C181.595 407.728 185.802 414.415 190.278 419.972C194.841 425.635 200.129 430.663 204.22 434.241C205.722 435.555 207.077 436.685 208.194 437.593C207.507 439.152 206.677 441.106 205.853 443.245C204.857 445.828 203.839 448.744 203.081 451.589C202.39 454.182 201.83 457.02 201.833 459.605L201.841 460.119C201.983 465.287 203.857 470.196 207.399 475.492C210.896 480.721 216.186 486.574 223.508 493.706C232.368 502.358 243.51 502.879 252.594 501.839C257.125 501.32 261.512 500.363 264.978 499.686C268.771 498.944 271.058 498.638 272.395 498.802L272.408 498.804C273.312 498.912 273.749 499.238 274.111 499.717C274.589 500.348 275.066 501.473 275.335 503.239C275.877 506.802 275.34 511.35 274.549 514.815C273.857 517.845 274.312 522.094 275.311 526.6C276.362 531.345 278.196 537.13 280.89 543.602C286.281 556.555 295.217 572.5 308.591 588.667L308.592 588.669C322.423 605.376 336.917 612.333 350.572 617.615C364.343 622.943 376.164 626.299 387.069 635.645C398.52 645.496 404.258 652.266 413.065 661.959C421.919 671.703 433.583 684.063 456.632 704.713H456.633C503.391 746.604 577.682 768.497 608.688 777.625L608.698 777.628C623.754 782.023 628.555 786.357 631.405 791.101C633.018 793.785 634.127 796.789 635.756 800.96C637.34 805.017 639.284 809.788 642.47 815.246L642.475 815.254C654.743 836.182 688.639 876.653 702.559 892.585L702.562 892.589C706.857 897.496 714.518 901.871 723.253 905.623C732.182 909.458 742.931 912.927 754.071 915.734ZM264.137 433.254C261.089 431.237 257.822 427.857 256.4 424.873L256.396 424.864L256.392 424.854C255.183 422.345 255.508 419.829 256.983 416.005C257.349 415.057 257.759 414.094 258.208 413.045C258.645 412.022 259.125 410.907 259.569 409.779C260.205 408.167 260.831 406.373 261.248 404.451C260.758 409.125 261.116 414.005 261.669 418.378C262.128 422.008 262.766 425.56 263.33 428.68C263.635 430.364 263.91 431.888 264.137 433.254Z" fill="#DEDEDE" stroke="white" stroke-width="10"/>
<path d="M1310.57 220.434C1280.16 249.557 1254.85 283.141 1240.94 325.528H1235.85C1220.66 276.151 1197.88 243.216 1174.46 219.798C1142.17 187.498 1097.84 167.217 1055.44 153.305L1006.67 283.75C1026.93 289.455 1052.9 299.569 1078.23 316.686C1125.05 347.715 1160.51 413.573 1160.51 495.25V523.102C1160.51 531.376 1157.98 598.478 1157.36 613.053H1306.16C1304.86 600.371 1302.98 544.018 1302.98 535.149V494.006C1302.98 421.793 1335.9 362.29 1373.88 331.261C1403.01 306.545 1441.62 289.455 1469.46 283.75L1429.6 153.305C1380.84 167.217 1340.95 191.27 1310.57 220.434Z" fill="#4D82A4"/>
<path d="M1784.85 157.104C1785.47 180.535 1788.02 224.22 1788.02 267.931V291.997C1788.02 435.72 1786.76 462.328 1769.66 488.3C1755.72 509.203 1735.47 518.046 1713.32 518.046C1693.68 518.046 1674.05 512.367 1659.48 495.25C1635.43 466.749 1630.38 421.158 1630.38 319.836V276.787C1630.38 219.136 1631.63 183.077 1634.17 166.623H1486.63C1486.63 181.157 1486.01 233.738 1486.01 262.875V297.041C1486.01 450.93 1496.78 497.778 1527.82 544.018C1575.91 614.297 1653.17 623.194 1705.09 623.194C1775.34 623.194 1836.77 599.114 1875.39 552.266C1923.5 494.615 1930.48 419.914 1930.48 298.325V269.175C1930.48 219.136 1929.81 171.03 1929.81 157.104H1784.85Z" fill="#4D82A4"/>
<path d="M1951.44 432.583C1951.44 517.437 2028.07 623.194 2235.73 623.194C2265.46 623.194 2288.27 620.638 2310.42 618.124L2304.11 502.227C2288.9 503.484 2268.64 505.39 2243.32 505.39C2159.11 505.39 2105.93 465.519 2105.93 416.71C2105.93 357.22 2159.76 298.934 2293.32 274.881L2265.46 153.305C2047.04 200.153 1951.44 327.462 1951.44 432.583Z" fill="#4D82A4"/>
<path d="M2545.99 140C2484.6 236.874 2309.23 533.904 2290.23 566.15L2410.52 633.333C2424.44 603.548 2447.23 554.171 2452.3 545.288L2642.86 534.54C2649.21 545.288 2681.49 601.641 2699.86 632.671L2825.2 558.579C2798.62 522.466 2628.31 254.599 2552.33 140H2545.99ZM2546.61 338.858C2558.04 364.831 2582.08 409.786 2599.82 445.872L2492.82 451.578C2509.28 416.114 2531.43 369.266 2546.61 338.858Z" fill="#4D82A4"/>
<path d="M2965.2 169.786H2910.11C2903.15 169.786 2753.12 167.217 2724.61 164.716V275.543C2744.24 274.88 2834.14 271.716 2864.54 271.716V437.653C2864.54 506.648 2863.91 596.572 2862.63 613.053H3008.87C3007.63 600.371 3006.98 512.988 3006.98 447.766V271.716C3017.1 271.716 3134.23 274.88 3146.26 275.543V164.716C3115.24 167.217 2977.23 169.786 2965.2 169.786Z" fill="#4D82A4"/>
<path d="M3322.34 140C3260.92 236.874 3085.54 533.904 3066.56 566.15L3186.85 633.333C3200.79 603.548 3223.57 554.171 3228.64 545.288L3419.22 534.54C3425.53 545.288 3457.81 601.641 3476.17 632.671L3601.56 558.579C3574.94 522.466 3404.63 254.599 3328.67 140H3322.34ZM3322.97 338.858C3334.36 364.831 3358.43 409.786 3376.15 445.872L3269.16 451.578C3285.63 416.114 3307.78 369.266 3322.97 338.858Z" fill="#4D82A4"/>
<path d="M3610.49 159.646C3604.15 243.851 3588.97 568.084 3585.16 613.053L3714.33 617.502C3713.7 596.572 3713.05 413.573 3713.05 387.614C3722.55 395.212 3951.12 576.318 4027.07 625.736L4033.41 622.558C4035.32 581.389 4039.75 491.478 4044.81 399.66C4050.52 307.181 4056.21 212.822 4060 163.418L3930.84 160.254C3930.21 187.498 3932.12 357.22 3932.12 392.049C3909.96 375.581 3706.72 221.691 3616.82 155.833L3610.49 159.646Z" fill="#4D82A4"/>
<path d="M1303.46 726.672C1304.48 733.798 1304.74 787.558 1304.74 792.905V824.504C1304.74 831.385 1304.23 894.566 1303.21 906.272C1361.14 906.272 1461.24 873.422 1461.24 794.434C1461.24 776.608 1451.08 739.662 1368.25 729.213C1349.55 726.846 1326.49 726.667 1311.06 726.667C1308.25 726.667 1305.69 726.672 1303.46 726.672ZM1327.61 745.776C1393.41 745.009 1436.34 762.334 1436.34 801.059C1436.34 836.727 1396.95 877.747 1327.61 883.856V745.776Z" fill="#505E67"/>
<path d="M1656.11 726.667C1656.62 732.775 1657.38 795.712 1657.38 800.036V827.555C1657.38 834.175 1657.13 893.794 1656.62 905.005H1681.27C1681.01 899.141 1680.25 853.529 1680.25 828.056V800.537C1680.25 769.966 1681.01 731.241 1681.52 726.667H1656.11Z" fill="#505E67"/>
<path d="M1966.59 870.616C1961.51 862.706 1902.31 738.128 1898.25 726.667L1876.39 738.89C1884.01 750.601 1958.47 909.585 1963.79 917.489H1964.31C1973.44 899.913 2050.94 752.146 2059.84 738.89L2039 726.667C2035.94 734.815 1970.9 864.496 1966.59 870.616Z" fill="#505E67"/>
<path d="M2254.71 731.513C2254.96 736.36 2255.46 797.746 2255.46 801.826V835.959C2255.46 841.829 2255.46 896.361 2254.71 909.851C2259.79 909.851 2336.26 912.392 2340.32 912.392L2339.3 890.486C2318.47 892.009 2284.42 891.248 2278.33 891.248V829.089C2283.41 829.089 2323.05 830.106 2328.63 830.106L2327.87 809.985C2315.42 811.503 2282.9 812.792 2278.33 812.792V748.066C2282.39 748.066 2328.12 746.793 2336.26 746.793L2335.23 726.667C2327.12 727.678 2260.8 731.513 2254.71 731.513Z" fill="#505E67"/>
<path d="M2728.48 728.707H2706.37C2703.59 728.707 2643.37 727.673 2631.93 726.667V771.255C2639.82 770.989 2675.89 769.716 2688.08 769.716V836.476C2688.08 864.235 2687.83 900.414 2687.32 907.045H2746.01C2745.5 901.942 2745.25 866.786 2745.25 840.545V769.716C2749.32 769.716 2789.56 770.989 2794.39 771.255V726.667C2781.93 727.673 2733.3 728.707 2728.48 728.707Z" fill="#505E67"/>
<path d="M3015.64 794.439V815.327C3015.64 820.696 3016.15 901.458 3015.13 907.567H3071.79C3071.28 903.743 3070.52 839.283 3070.52 829.595V761.834C3097.96 762.078 3106.34 773.551 3106.34 785.529C3106.34 802.598 3088.31 816.611 3077.13 823.231C3083.99 834.442 3133.27 906.033 3139.12 915.726L3185.62 880.548C3179.01 872.399 3140.13 832.924 3132.51 824.253C3152.33 810.235 3165.3 794.194 3165.3 773.3C3165.3 749.856 3144.96 735.082 3107.36 730.235C3084.5 727.189 3049.18 726.666 3014.36 726.666C3015.13 731.513 3015.64 786.802 3015.64 794.439Z" fill="#505E67"/>
<path d="M3405.59 731.241C3405.85 738.65 3406.36 800.036 3406.36 804.116V838.249C3406.36 844.119 3406.36 898.651 3405.59 912.141C3418.81 912.141 3510.53 914.682 3519.67 914.682L3518.66 870.855C3506.72 871.883 3468.35 871.377 3461.75 871.377V841.056C3467.33 841.056 3501.12 842.074 3507.99 842.074L3507.21 801.309C3496.03 802.326 3466.83 803.604 3461.75 803.604V769.966C3466.32 769.966 3506.21 768.693 3515.61 768.693L3514.59 726.666C3505.19 727.439 3419.82 731.241 3405.59 731.241Z" fill="#505E67"/>
<path d="M3798.09 812.025H3797.58V805.383C3797.58 783.233 3798.6 732.519 3798.86 728.451H3739.65C3739.65 734.315 3740.66 785.768 3740.66 807.94V834.942C3740.66 863.995 3739.91 907.044 3739.65 914.431H3798.86C3798.34 909.606 3797.58 852.534 3797.58 832.897V828.322H3798.09C3814.61 852.534 3861.09 912.653 3865.41 918L3910.12 878.764C3899.71 867.808 3863.38 829.595 3854.23 819.407C3867.96 804.883 3898.45 774.062 3908.1 763.873L3865.93 726.666C3860.08 733.798 3812.82 792.91 3798.09 812.025Z" fill="#505E67"/>
</svg>
