<?xml version="1.0" encoding="UTF-8"?> <svg xmlns="http://www.w3.org/2000/svg" width="930" height="1402" viewBox="0 0 930 1402" fill="none"><rect width="440" height="50" rx="5" transform="matrix(0 -1 -1 0 70 460)" fill="#F5F6F7"></rect><path d="M55.5 366.72H34.5V363.57H55.5V366.72ZM52.02 362.168L49.8 360.248C52.02 357.968 53.1 355.628 53.1 353.018C53.1 349.988 51.66 347.918 49.59 347.918C47.73 347.918 46.8 349.118 46.29 352.178L45.72 355.688C45.09 359.528 43.29 361.418 40.26 361.418C36.6 361.418 34.23 358.358 34.23 353.678C34.23 350.678 35.25 347.588 37.08 345.218L39.48 346.958C37.74 349.238 36.9 351.488 36.9 353.828C36.9 356.558 38.16 358.388 40.02 358.388C41.73 358.388 42.54 357.338 42.99 354.638L43.53 351.248C44.25 346.808 46.08 344.798 49.35 344.798C53.22 344.798 55.8 348.158 55.8 353.168C55.8 356.528 54.45 359.768 52.02 362.168ZM52.02 344.477L49.8 342.557C52.02 340.277 53.1 337.937 53.1 335.327C53.1 332.297 51.66 330.227 49.59 330.227C47.73 330.227 46.8 331.427 46.29 334.487L45.72 337.997C45.09 341.837 43.29 343.727 40.26 343.727C36.6 343.727 34.23 340.667 34.23 335.987C34.23 332.987 35.25 329.897 37.08 327.527L39.48 329.267C37.74 331.547 36.9 333.797 36.9 336.137C36.9 338.867 38.16 340.697 40.02 340.697C41.73 340.697 42.54 339.647 42.99 336.947L43.53 333.557C44.25 329.117 46.08 327.107 49.35 327.107C53.22 327.107 55.8 330.467 55.8 335.477C55.8 338.837 54.45 342.077 52.02 344.477ZM46.53 307.698C52.2 307.698 55.83 311.178 55.83 316.638C55.83 322.098 52.23 325.548 46.53 325.548H34.5V322.398H46.53C50.43 322.398 52.92 320.148 52.92 316.638C52.92 313.098 50.43 310.848 46.53 310.848H34.5V307.698H46.53ZM55.5 304.831H34.5V301.681H55.5V304.831ZM34.5 298.39L34.5 295.3L50.07 283.6H34.5V280.63H55.5V283.39L39.42 295.42H55.5V298.39H34.5ZM45.27 256.929C51.27 256.929 55.83 261.399 55.83 267.279C55.83 273.399 51.06 278.229 45 278.229C38.94 278.229 34.17 273.429 34.17 267.309C34.17 263.979 35.52 260.889 37.8 258.849L39.9 261.009C38.1 262.569 37.08 264.879 37.08 267.309C37.08 271.689 40.5 275.019 45 275.019C49.5 275.019 52.95 271.659 52.95 267.249C52.95 263.529 50.43 260.649 46.95 260.229V267.219H44.19V256.929H45.27ZM52.92 239.158C52.92 236.728 51.9 234.448 50.1 232.918L52.2 230.848C54.45 232.918 55.83 236.038 55.83 239.248C55.83 245.458 51.06 250.258 45 250.258C38.91 250.258 34.17 245.458 34.17 239.248C34.17 235.948 35.55 232.768 37.8 230.788L39.96 232.888C38.1 234.478 37.08 236.818 37.08 239.248C37.08 243.688 40.5 247.048 45 247.048C49.47 247.048 52.92 243.658 52.92 239.158ZM45 208.382C51.06 208.382 55.83 213.212 55.83 219.332C55.83 225.452 51.06 230.252 45 230.252C38.94 230.252 34.17 225.452 34.17 219.332C34.17 213.212 38.94 208.382 45 208.382ZM45 211.592C40.5 211.592 37.08 214.952 37.08 219.332C37.08 223.682 40.5 227.042 45 227.042C49.47 227.042 52.92 223.682 52.92 219.332C52.92 214.952 49.47 211.592 45 211.592ZM46.53 188.546C52.2 188.546 55.83 192.026 55.83 197.486C55.83 202.946 52.23 206.396 46.53 206.396H34.5V203.246H46.53C50.43 203.246 52.92 200.996 52.92 197.486C52.92 193.946 50.43 191.696 46.53 191.696H34.5V188.546H46.53ZM34.5 185.679V182.589L50.07 170.889H34.5V167.919H55.5V170.679L39.42 182.709H55.5V185.679H34.5ZM37.29 166.238H34.5L34.5 148.328H37.29L37.29 155.708H55.5V158.858H37.29V166.238ZM55.5 146.692H34.5V137.152C34.5 132.982 37.02 130.162 40.71 130.162C43.47 130.162 45.6 131.842 46.47 134.482L55.5 129.802V133.282L46.89 137.632V143.542H55.5V146.692ZM37.26 137.422V143.542H44.28V137.422C44.28 134.962 42.87 133.342 40.77 133.342C38.64 133.342 37.26 134.962 37.26 137.422ZM55.5 122.73H47.22L34.5 131.19V127.53L44.4 121.08L34.5 114.6V111.12L47.19 119.58H55.5V122.73Z" fill="#04232D"></path><rect width="912" height="50" rx="5" transform="matrix(0 -1 -1 0 70 1382)" fill="#F5F6F7"></rect><path d="M55.5 1036.07H34.5V1032.92H43.5V1021.76H34.5V1018.61H55.5V1021.76H46.35V1032.92H55.5V1036.07ZM45 994.362C51.06 994.362 55.83 999.192 55.83 1005.31C55.83 1011.43 51.06 1016.23 45 1016.23C38.94 1016.23 34.17 1011.43 34.17 1005.31C34.17 999.192 38.94 994.362 45 994.362ZM45 997.572C40.5 997.572 37.08 1000.93 37.08 1005.31C37.08 1009.66 40.5 1013.02 45 1013.02C49.47 1013.02 52.92 1009.66 52.92 1005.31C52.92 1000.93 49.47 997.572 45 997.572ZM52.02 993.906L49.8 991.986C52.02 989.706 53.1 987.366 53.1 984.756C53.1 981.726 51.66 979.656 49.59 979.656C47.73 979.656 46.8 980.856 46.29 983.916L45.72 987.426C45.09 991.266 43.29 993.156 40.26 993.156C36.6 993.156 34.23 990.096 34.23 985.416C34.23 982.416 35.25 979.326 37.08 976.956L39.48 978.696C37.74 980.976 36.9 983.226 36.9 985.566C36.9 988.296 38.16 990.126 40.02 990.126C41.73 990.126 42.54 989.076 42.99 986.376L43.53 982.986C44.25 978.546 46.08 976.536 49.35 976.536C53.22 976.536 55.8 979.896 55.8 984.906C55.8 988.266 54.45 991.506 52.02 993.906ZM37.29 976.823H34.5L34.5 958.913H37.29V966.293H55.5V969.443H37.29V976.823ZM52.92 941.808C52.92 939.378 51.9 937.098 50.1 935.568L52.2 933.498C54.45 935.568 55.83 938.688 55.83 941.898C55.83 948.108 51.06 952.908 45 952.908C38.91 952.908 34.17 948.108 34.17 941.898C34.17 938.598 35.55 935.418 37.8 933.438L39.96 935.538C38.1 937.128 37.08 939.468 37.08 941.898C37.08 946.338 40.5 949.698 45 949.698C49.47 949.698 52.92 946.308 52.92 941.808ZM45 911.032C51.06 911.032 55.83 915.862 55.83 921.982C55.83 928.102 51.06 932.902 45 932.902C38.94 932.902 34.17 928.102 34.17 921.982C34.17 915.862 38.94 911.032 45 911.032ZM45 914.242C40.5 914.242 37.08 917.602 37.08 921.982C37.08 926.332 40.5 929.692 45 929.692C49.47 929.692 52.92 926.332 52.92 921.982C52.92 917.602 49.47 914.242 45 914.242ZM46.53 891.195C52.2 891.195 55.83 894.675 55.83 900.135C55.83 905.595 52.23 909.045 46.53 909.045H34.5V905.895H46.53C50.43 905.895 52.92 903.645 52.92 900.135C52.92 896.595 50.43 894.345 46.53 894.345H34.5V891.195H46.53ZM34.5 888.328V885.238L50.07 873.538H34.5L34.5 870.568H55.5V873.328L39.42 885.358H55.5V888.328H34.5ZM37.29 868.887H34.5V850.977H37.29V858.357H55.5V861.507H37.29V868.887ZM55.5 849.342H34.5V839.802C34.5 835.632 37.02 832.812 40.71 832.812C43.47 832.812 45.6 834.492 46.47 837.132L55.5 832.452V835.932L46.89 840.282V846.192H55.5V849.342ZM37.26 840.072V846.192H44.28V840.072C44.28 837.612 42.87 835.992 40.77 835.992C38.64 835.992 37.26 837.612 37.26 840.072ZM55.5 825.38H47.22L34.5 833.84V830.18L44.4 823.73L34.5 817.25V813.77L47.19 822.23H55.5V825.38Z" fill="#04232D"></path><rect width="273" height="50" rx="5" transform="matrix(0 -1 -1 0 840 293)" fill="#FEF8E8"></rect><path d="M825.5 184.185H823.34L815.81 176.085C813.5 173.655 812.24 172.875 810.56 172.875C808.37 172.875 806.81 174.735 806.81 177.255C806.81 179.295 807.53 180.885 809.39 182.985L807.35 184.695C805.25 182.355 804.23 179.865 804.23 177.195C804.23 172.935 806.78 169.965 810.38 169.965C812.81 169.965 814.46 170.925 817.49 174.165L822.95 180.075V169.635H825.5V184.185ZM825.8 159.604C825.8 164.854 821.42 168.424 815 168.424C808.58 168.424 804.2 164.824 804.2 159.604C804.2 154.354 808.58 150.754 815 150.754C821.42 150.754 825.8 154.354 825.8 159.604ZM823.16 159.604C823.16 155.974 820.01 153.694 815 153.694C809.99 153.694 806.81 155.974 806.81 159.604C806.81 163.204 809.99 165.514 815 165.514C820.01 165.514 823.16 163.204 823.16 159.604ZM815.15 145.187C815.15 147.947 812.96 149.777 809.75 149.777C806.54 149.777 804.35 147.917 804.35 145.187C804.35 142.457 806.54 140.597 809.75 140.597C812.96 140.597 815.15 142.457 815.15 145.187ZM813.44 145.187C813.44 143.537 812.03 142.517 809.75 142.517C807.47 142.517 806.03 143.537 806.06 145.187C806.03 146.807 807.47 147.857 809.75 147.857C812.03 147.857 813.44 146.837 813.44 145.187ZM825.5 143.927V146.267L804.5 134.447V132.077L825.5 143.927ZM825.65 133.007C825.65 135.767 823.46 137.597 820.25 137.597C817.04 137.597 814.85 135.737 814.85 133.007C814.85 130.277 817.04 128.417 820.25 128.417C823.46 128.417 825.65 130.277 825.65 133.007ZM823.94 133.007C823.94 131.357 822.53 130.337 820.25 130.337C817.97 130.337 816.53 131.357 816.56 133.007C816.53 134.627 817.97 135.677 820.25 135.677C822.53 135.677 823.94 134.657 823.94 133.007Z" fill="#D8A117"></path><rect width="273" height="50" rx="5" transform="matrix(0 -1 -1 0 840 576)" fill="#F7E3AE"></rect><path d="M825.5 467.185H823.34L815.81 459.085C813.5 456.655 812.24 455.875 810.56 455.875C808.37 455.875 806.81 457.735 806.81 460.255C806.81 462.295 807.53 463.885 809.39 465.985L807.35 467.695C805.25 465.355 804.23 462.865 804.23 460.195C804.23 455.935 806.78 452.965 810.38 452.965C812.81 452.965 814.46 453.925 817.49 457.165L822.95 463.075V452.635H825.5V467.185ZM825.8 442.604C825.8 447.854 821.42 451.424 815 451.424C808.58 451.424 804.2 447.824 804.2 442.604C804.2 437.354 808.58 433.754 815 433.754C821.42 433.754 825.8 437.354 825.8 442.604ZM823.16 442.604C823.16 438.974 820.01 436.694 815 436.694C809.99 436.694 806.81 438.974 806.81 442.604C806.81 446.204 809.99 448.514 815 448.514C820.01 448.514 823.16 446.204 823.16 442.604ZM815.15 428.187C815.15 430.947 812.96 432.777 809.75 432.777C806.54 432.777 804.35 430.917 804.35 428.187C804.35 425.457 806.54 423.597 809.75 423.597C812.96 423.597 815.15 425.457 815.15 428.187ZM813.44 428.187C813.44 426.537 812.03 425.517 809.75 425.517C807.47 425.517 806.03 426.537 806.06 428.187C806.03 429.807 807.47 430.857 809.75 430.857C812.03 430.857 813.44 429.837 813.44 428.187ZM825.5 426.927V429.267L804.5 417.447V415.077L825.5 426.927ZM825.65 416.007C825.65 418.767 823.46 420.597 820.25 420.597C817.04 420.597 814.85 418.737 814.85 416.007C814.85 413.277 817.04 411.417 820.25 411.417C823.46 411.417 825.65 413.277 825.65 416.007ZM823.94 416.007C823.94 414.357 822.53 413.337 820.25 413.337C817.97 413.337 816.53 414.357 816.56 416.007C816.53 417.627 817.97 418.677 820.25 418.677C822.53 418.677 823.94 417.657 823.94 416.007Z" fill="#A67F1F"></path><rect width="796" height="50" rx="5" transform="matrix(0 -1 -1 0 840 1382)" fill="#D8A117"></rect><path d="M825.8 1003.79C825.8 1009.01 821.63 1012.61 815.63 1012.61C808.7 1012.61 804.2 1008.62 804.2 1002.62C804.2 1000.61 804.83 998.536 805.85 997.096L808.07 998.686C807.23 999.946 806.84 1001.3 806.84 1002.8C806.84 1006.94 809.87 1009.46 815.15 1009.64C813.44 1008.14 812.39 1005.89 812.39 1003.52C812.39 999.286 815.12 996.226 818.9 996.226C822.89 996.226 825.8 999.436 825.8 1003.79ZM814.79 1004.03C814.79 1006.1 815.81 1008.08 817.61 1009.49C821 1008.95 823.25 1006.79 823.25 1003.88C823.25 1001.18 821.42 999.196 818.99 999.196C816.5 999.196 814.79 1001.18 814.79 1004.03ZM825.8 986.094C825.8 991.344 821.42 994.914 815 994.914C808.58 994.914 804.2 991.314 804.2 986.094C804.2 980.844 808.58 977.244 815 977.244C821.42 977.244 825.8 980.844 825.8 986.094ZM823.16 986.094C823.16 982.464 820.01 980.184 815 980.184C809.99 980.184 806.81 982.464 806.81 986.094C806.81 989.694 809.99 992.004 815 992.004C820.01 992.004 823.16 989.694 823.16 986.094ZM815.15 971.677C815.15 974.437 812.96 976.267 809.75 976.267C806.54 976.267 804.35 974.407 804.35 971.677C804.35 968.947 806.54 967.087 809.75 967.087C812.96 967.087 815.15 968.947 815.15 971.677ZM813.44 971.677C813.44 970.027 812.03 969.007 809.75 969.007C807.47 969.007 806.03 970.027 806.06 971.677C806.03 973.297 807.47 974.347 809.75 974.347C812.03 974.347 813.44 973.327 813.44 971.677ZM825.5 970.417V972.757L804.5 960.937V958.567L825.5 970.417ZM825.65 959.497C825.65 962.257 823.46 964.087 820.25 964.087C817.04 964.087 814.85 962.227 814.85 959.497C814.85 956.767 817.04 954.907 820.25 954.907C823.46 954.907 825.65 956.767 825.65 959.497ZM823.94 959.497C823.94 957.847 822.53 956.827 820.25 956.827C817.97 956.827 816.53 957.847 816.56 959.497C816.53 961.117 817.97 962.167 820.25 962.167C822.53 962.167 823.94 961.147 823.94 959.497Z" fill="white"></path><rect width="1362" height="50" rx="5" transform="matrix(0 -1 -1 0 910 1382)" fill="#F5F6F7"></rect><path d="M885.27 851.856C891.27 851.856 895.83 856.326 895.83 862.206C895.83 868.326 891.06 873.156 885 873.156C878.94 873.156 874.17 868.356 874.17 862.236C874.17 858.906 875.52 855.816 877.8 853.776L879.9 855.936C878.1 857.496 877.08 859.806 877.08 862.236C877.08 866.616 880.5 869.946 885 869.946C889.5 869.946 892.95 866.586 892.95 862.176C892.95 858.456 890.43 855.576 886.95 855.156V862.146H884.19V851.856H885.27ZM895.5 849.555H874.5V840.015C874.5 835.845 877.02 833.025 880.71 833.025C883.47 833.025 885.6 834.705 886.47 837.345L895.5 832.665V836.145L886.89 840.495V846.405H895.5V849.555ZM877.26 840.285V846.405H884.28V840.285C884.28 837.825 882.87 836.205 880.77 836.205C878.64 836.205 877.26 837.825 877.26 840.285ZM885 809.809C891.06 809.809 895.83 814.639 895.83 820.759C895.83 826.879 891.06 831.679 885 831.679C878.94 831.679 874.17 826.879 874.17 820.759C874.17 814.639 878.94 809.809 885 809.809ZM885 813.019C880.5 813.019 877.08 816.379 877.08 820.759C877.08 825.109 880.5 828.469 885 828.469C889.47 828.469 892.92 825.109 892.92 820.759C892.92 816.379 889.47 813.019 885 813.019ZM892.02 809.353L889.8 807.433C892.02 805.153 893.1 802.813 893.1 800.203C893.1 797.173 891.66 795.103 889.59 795.103C887.73 795.103 886.8 796.303 886.29 799.363L885.72 802.873C885.09 806.713 883.29 808.603 880.26 808.603C876.6 808.603 874.23 805.543 874.23 800.863C874.23 797.863 875.25 794.773 877.08 792.403L879.48 794.143C877.74 796.423 876.9 798.673 876.9 801.013C876.9 803.743 878.16 805.573 880.02 805.573C881.73 805.573 882.54 804.523 882.99 801.823L883.53 798.433C884.25 793.993 886.08 791.983 889.35 791.983C893.22 791.983 895.8 795.343 895.8 800.353C895.8 803.713 894.45 806.953 892.02 809.353ZM892.02 791.661L889.8 789.741C892.02 787.461 893.1 785.121 893.1 782.511C893.1 779.481 891.66 777.411 889.59 777.411C887.73 777.411 886.8 778.611 886.29 781.671L885.72 785.181C885.09 789.021 883.29 790.911 880.26 790.911C876.6 790.911 874.23 787.851 874.23 783.171C874.23 780.171 875.25 777.081 877.08 774.711L879.48 776.451C877.74 778.731 876.9 780.981 876.9 783.321C876.9 786.051 878.16 787.881 880.02 787.881C881.73 787.881 882.54 786.831 882.99 784.131L883.53 780.741C884.25 776.301 886.08 774.291 889.35 774.291C893.22 774.291 895.8 777.651 895.8 782.661C895.8 786.021 894.45 789.261 892.02 791.661ZM892.92 756.903C892.92 754.473 891.9 752.193 890.1 750.663L892.2 748.593C894.45 750.663 895.83 753.783 895.83 756.993C895.83 763.203 891.06 768.003 885 768.003C878.91 768.003 874.17 763.203 874.17 756.993C874.17 753.693 875.55 750.513 877.8 748.533L879.96 750.633C878.1 752.223 877.08 754.563 877.08 756.993C877.08 761.433 880.5 764.793 885 764.793C889.47 764.793 892.92 761.403 892.92 756.903ZM895.5 746.512H874.5V743.362H892.71V731.272H895.5V746.512ZM895.5 729.084H874.5V725.934H895.5V729.084ZM895.5 722.642H874.5V707.162H877.26V719.492H883.56V711.392H886.26V719.492H892.74V707.042H895.5V722.642ZM874.5 704.805V701.715L890.07 690.015H874.5V687.045H895.5V689.805L879.42 701.835H895.5V704.805H874.5ZM877.29 685.364H874.5V667.454H877.29V674.834H895.5V677.984H877.29V685.364ZM895.5 660.549H874.5V651.009C874.5 646.839 877.02 644.019 880.71 644.019C883.47 644.019 885.6 645.699 886.47 648.339L895.5 643.659V647.139L886.89 651.489V657.399H895.5V660.549ZM877.26 651.279V657.399H884.28V651.279C884.28 648.819 882.87 647.199 880.77 647.199C878.64 647.199 877.26 648.819 877.26 651.279ZM895.5 641.773H874.5V626.293H877.26V638.623H883.56V630.523H886.26V638.623H892.74V626.173H895.5V641.773ZM895.5 617.133L874.5 625.713V622.323L892.38 615.213L874.5 607.983V604.743L895.5 613.443V617.133ZM895.5 603.578H874.5V588.098H877.26V600.428H883.56V592.328H886.26V600.428H892.74V587.978H895.5V603.578ZM874.5 585.74V582.65L890.07 570.95H874.5V567.98H895.5V570.74L879.42 582.77H895.5V585.74H874.5ZM886.53 547.19C892.2 547.19 895.83 550.67 895.83 556.13C895.83 561.59 892.23 565.04 886.53 565.04H874.5V561.89H886.53C890.43 561.89 892.92 559.64 892.92 556.13C892.92 552.59 890.43 550.34 886.53 550.34H874.5V547.19H886.53ZM895.5 544.322H874.5V528.842H877.26V541.172H883.56V533.072H886.26V541.172H892.74V528.722H895.5V544.322Z" fill="#735C24"></path><rect width="500" height="80" rx="5" transform="matrix(1 0 0 -1 90 590)" fill="#8756D1"></rect><path d="M125.607 557.5V542.826H129.08L134.048 553.912L138.97 542.826H142.351V557.5H139.269V548.576L135.405 557.5H132.599L128.689 548.576V557.5H125.607ZM145.797 542.826H148.879V550.784C148.879 553.061 149.661 554.947 152.352 554.947C155.043 554.947 155.756 553.038 155.756 550.784V542.826H158.792V550.853C158.792 554.648 156.998 557.73 152.329 557.73C147.66 557.73 145.797 554.648 145.797 550.853V542.826ZM172.866 557.5H162.286V542.826H165.368V554.832H172.866V557.5ZM179.385 557.5H176.326V545.494H171.22V542.826H184.468V545.494H179.385V557.5ZM189.896 557.5H186.814V542.826H189.896V557.5ZM198.084 552.9H192.058V550.853H198.084V552.9ZM207.536 557.5H200.245V542.826H207.536C212.251 542.826 215.218 545.701 215.218 550.163C215.218 554.625 212.251 557.5 207.536 557.5ZM203.327 545.471V554.855H207.467C210.181 554.855 212.113 553.383 212.113 550.163C212.113 546.943 210.181 545.471 207.467 545.471H203.327ZM228.873 557.5H217.81V542.826H228.965V545.471H220.892V548.875H227.953V551.313H220.892V554.855H228.873V557.5ZM240.152 547.61C240.106 546.138 238.841 545.241 237.3 545.218C235.989 545.218 234.402 545.402 234.402 546.782C234.402 548.024 236.012 548.461 237.484 548.76C239.991 549.266 243.464 550.002 243.464 553.475C243.464 556.695 240.405 557.776 237.231 557.799C233.988 557.845 230.975 556.327 230.791 553.084L233.919 552.716C234.103 554.211 235.391 555.223 237.254 555.2C238.496 555.2 240.221 554.924 240.221 553.544C240.221 552.003 237.783 551.727 236.15 551.336C233.804 550.807 231.159 549.91 231.159 546.805C231.159 543.608 234.586 542.573 237.346 542.619C240.336 542.642 243.211 544.137 243.211 547.38L240.152 547.61ZM252.832 557.5H249.773V545.494H244.667V542.826H257.915V545.494H252.832V557.5ZM263.343 557.5H260.261V542.826H263.343V557.5ZM270.014 557.5H266.932V542.826H269.922L277.374 552.532V542.826H280.456V557.5H277.466L270.014 547.817V557.5ZM285.887 557.5H282.69L288.187 542.826H292.097L297.617 557.5H294.374L293.04 553.889H287.244L285.887 557.5ZM288.049 551.589H292.235L290.142 545.885L288.049 551.589ZM304.919 557.5H301.86V545.494H296.754V542.826H310.002V545.494H304.919V557.5ZM315.43 557.5H312.348V542.826H315.43V557.5ZM318.053 550.163C318.053 545.632 321.733 542.596 326.149 542.596C330.565 542.596 334.199 545.632 334.199 550.163C334.199 554.694 330.565 557.73 326.149 557.73C321.756 557.73 318.053 554.671 318.053 550.163ZM326.149 555.062C328.955 555.062 331.094 552.946 331.094 550.163C331.094 547.357 328.955 545.241 326.149 545.241C323.32 545.241 321.158 547.334 321.158 550.163C321.158 552.969 323.32 555.062 326.149 555.062ZM339.912 557.5H336.83V542.826H339.82L347.272 552.532V542.826H350.354V557.5H347.364L339.912 547.817V557.5ZM366.462 557.5H363.403V545.494H358.297V542.826H371.545V545.494H366.462V557.5ZM387.116 557.5H383.551C383.022 557.178 382.769 556.465 382.447 555.66C381.274 552.785 380.538 552.509 379.595 552.509H376.973V557.5H373.891V542.826H380.745C384.103 542.826 386.426 544.091 386.403 547.288C386.403 549.496 385.023 551.451 382.746 551.497C384.517 551.842 385.092 553.429 385.805 555.361C386.012 555.913 386.357 556.856 387.116 557.5ZM376.973 545.448V549.956H380.032C381.964 549.956 383.321 549.542 383.321 547.564C383.321 545.747 382.102 545.448 380.055 545.448H376.973ZM390.982 557.5H387.785L393.282 542.826H397.192L402.712 557.5H399.469L398.135 553.889H392.339L390.982 557.5ZM393.144 551.589H397.33L395.237 545.885L393.144 551.589ZM405.945 557.5L401.138 542.826H404.335L408.682 555.775L413.029 542.826H416.226L411.442 557.5H405.945ZM428.73 557.5H417.667V542.826H428.822V545.471H420.749V548.875H427.81V551.313H420.749V554.855H428.73V557.5ZM442.24 557.5H431.66V542.826H434.742V554.832H442.24V557.5ZM453.07 557.5H449.988V542.826H456.635C459.648 542.826 462.569 544.045 462.569 547.725C462.569 551.52 459.901 552.946 456.796 552.946H453.07V557.5ZM453.07 545.471V550.439H456.543C458.015 550.439 459.464 549.91 459.464 547.84C459.464 545.701 457.9 545.471 456.543 545.471H453.07ZM465.597 557.5H462.4L467.897 542.826H471.807L477.327 557.5H474.084L472.75 553.889H466.954L465.597 557.5ZM467.759 551.589H471.945L469.852 545.885L467.759 551.589ZM480.786 550.117C480.809 552.854 482.672 554.993 485.708 554.993C487.985 554.993 489.572 554.027 490.193 552.187L493.068 552.578C492.539 555.867 489.618 557.73 485.662 557.73C480.901 557.73 477.635 554.671 477.704 550.117C477.75 545.931 480.901 542.596 485.777 542.596C489.664 542.596 492.539 544.459 493.068 547.748L490.193 548.139C489.572 546.299 487.939 545.333 485.57 545.333C482.603 545.333 480.786 547.334 480.786 550.117ZM495.607 557.5V542.826L498.689 542.849V549.634L505.634 542.826H509.545L502.875 549.404L509.614 557.5H505.681L500.69 551.566L498.689 553.498V557.5H495.607ZM513.192 557.5H509.995L515.492 542.826H519.402L524.922 557.5H521.679L520.345 553.889H514.549L513.192 557.5ZM515.354 551.589H519.54L517.447 545.885L515.354 551.589ZM538.616 557.5V555.361C537.742 556.718 536.109 557.73 533.671 557.73C528.634 557.73 525.322 554.671 525.299 550.14C525.368 545.931 528.588 542.596 533.648 542.596C537.65 542.596 540.64 544.275 541.192 547.564L538.317 547.955C537.673 546.115 535.764 545.333 533.395 545.333C530.29 545.333 528.358 547.334 528.358 550.14C528.404 552.854 530.382 554.993 533.533 554.993C535.971 554.993 537.949 553.958 538.547 552.463L538.616 551.497H531.371V549.335H541.33V557.5H538.616ZM555.05 557.5H543.987V542.826H555.142V545.471H547.069V548.875H554.13V551.313H547.069V554.855H555.05V557.5Z" fill="white"></path><rect x="240" y="20" width="200" height="80" rx="10" fill="#F5F6F7"></rect><path d="M308.96 59.686C308.983 62.929 311.237 65.39 314.296 65.39C316.642 65.39 318.505 64.47 319.241 62.446L321.15 62.745C320.529 65.597 317.93 67.23 314.434 67.23C309.811 67.23 306.936 64.125 306.89 59.686C306.844 55.707 309.811 52.28 314.434 52.28C317.93 52.28 320.529 53.913 321.15 56.765L319.241 57.041C318.505 55.04 316.642 54.12 314.296 54.12C311.237 54.12 308.983 56.42 308.96 59.686ZM322.532 51.682H324.51V65.505H326.396V67.23H325.131C323.728 67.207 322.532 66.448 322.532 64.677V51.682ZM329.64 54.718L327.731 54.166V52.326H329.64V54.718ZM327.731 56.029H328.674C329.295 56.029 329.709 56.443 329.709 57.064V67H327.731V56.029ZM342.68 61.894H333.319C333.48 63.872 334.791 65.367 337.091 65.367C338.954 65.367 340.081 64.608 340.771 63.504L342.45 64.355C341.415 66.103 339.575 67.23 337.022 67.23C333.595 67.23 331.272 64.792 331.272 61.503C331.272 58.191 333.71 55.776 336.999 55.776C340.265 55.776 342.68 58.214 342.68 61.503C342.68 61.641 342.68 61.756 342.68 61.894ZM333.457 60.307L340.518 60.307C340.104 58.743 338.816 57.639 336.999 57.639C335.182 57.639 333.894 58.743 333.457 60.307ZM346.195 67H344.217V56.029H346.126V58.766C346.816 57.202 348.104 55.799 350.197 55.799C353.072 55.799 354.613 57.777 354.613 60.698V67H352.635V60.905C352.635 58.95 351.715 57.57 349.622 57.57C347.391 57.57 346.195 60.008 346.195 61.342V67ZM354.934 55.914H355.072C356.268 55.914 357.188 55.477 357.395 54.304L357.74 52.28L359.235 52.28L358.614 56.029L362.501 56.029V57.662L359.005 57.662V65.505L362.961 65.505V67.23L359.626 67.23C358.223 67.207 357.027 66.448 357.027 64.631V57.662H354.934V55.914ZM365.057 62.998C365.264 65.091 366.621 65.62 368.3 65.62C369.22 65.62 371.313 65.574 371.244 64.125C371.198 62.814 368.254 62.4 367.15 62.101C365.609 61.687 363.746 60.836 363.746 58.95C363.746 56.236 366.552 55.799 368.576 55.799C370.554 55.799 373.061 56.489 373.176 59.525L371.405 59.732C371.198 57.892 370.025 57.409 368.599 57.409C367.656 57.409 365.609 57.455 365.678 58.904C365.701 59.64 366.368 60.077 368.484 60.606C370.301 61.043 373.176 61.618 373.176 64.079C373.176 66.793 370.324 67.23 368.231 67.23C366.161 67.23 363.401 66.494 363.286 63.205L365.057 62.998Z" fill="#04232D"></path><path d="M340.75 127.5L344.33 120H335.67L339.25 127.5H340.75ZM339.47 180.53C339.763 180.823 340.237 180.823 340.53 180.53L345.303 175.757C345.596 175.464 345.596 174.99 345.303 174.697C345.01 174.404 344.536 174.404 344.243 174.697L340 178.939L335.757 174.697C335.464 174.404 334.99 174.404 334.697 174.697C334.404 174.99 334.404 175.464 334.697 175.757L339.47 180.53ZM340 126.75H339.25V180H340H340.75V126.75H340Z" fill="#0D3D5D"></path><path d="M340.53 609.47C340.237 609.177 339.763 609.177 339.47 609.47L334.697 614.243C334.404 614.536 334.404 615.01 334.697 615.303C334.99 615.596 335.464 615.596 335.757 615.303L340 611.061L344.243 615.303C344.536 615.596 345.01 615.596 345.303 615.303C345.596 615.01 345.596 614.536 345.303 614.243L340.53 609.47ZM339.47 670.53C339.763 670.823 340.237 670.823 340.53 670.53L345.303 665.757C345.596 665.464 345.596 664.99 345.303 664.697C345.01 664.404 344.536 664.404 344.243 664.697L340 668.939L335.757 664.697C335.464 664.404 334.99 664.404 334.697 664.697C334.404 664.99 334.404 665.464 334.697 665.757L339.47 670.53ZM340 610H339.25V670H340H340.75V610H340Z" fill="#0D3D5D"></path><path d="M340.75 923.5L344.33 916H335.67L339.25 923.5H340.75ZM339.47 976.53C339.763 976.823 340.237 976.823 340.53 976.53L345.303 971.757C345.596 971.464 345.596 970.99 345.303 970.697C345.01 970.404 344.536 970.404 344.243 970.697L340 974.939L335.757 970.697C335.464 970.404 334.99 970.404 334.697 970.697C334.404 970.99 334.404 971.464 334.697 971.757L339.47 976.53ZM340 922.75H339.25V976H340H340.75V922.75H340Z" fill="#0D3D5D"></path><path d="M271.631 404L265.181 385.1H267.941L274.061 402.56L279.101 385.1H281.921L286.961 402.56L293.081 385.1H295.841L289.391 404H284.711L280.511 389.69L276.311 404H271.631ZM299.654 404H297.074V382.91H299.654V392.93C300.944 390.59 302.804 389.39 304.904 389.39C308.624 389.39 310.634 391.97 310.634 395.78V404H308.054V396.05C308.054 393.5 306.854 391.7 304.124 391.7C301.214 391.7 299.654 394.07 299.654 396.95V404ZM312.69 396.83C312.69 392.51 315.87 389.36 320.13 389.36C324.39 389.36 327.54 392.54 327.54 396.83C327.54 401.12 324.39 404.3 320.13 404.3C315.87 404.3 312.69 401.12 312.69 396.83ZM320.13 401.87C323.07 401.87 324.93 399.68 324.93 396.83C324.93 393.98 323.07 391.79 320.13 391.79C317.22 391.79 315.33 393.98 315.33 396.83C315.33 399.65 317.22 401.87 320.13 401.87ZM329.878 384.02H332.458V402.05H334.918V404.3H333.268C331.438 404.27 329.878 403.28 329.878 400.97V384.02ZM350.794 397.34H338.584C338.794 399.92 340.504 401.87 343.504 401.87C345.934 401.87 347.404 400.88 348.304 399.44L350.494 400.55C349.144 402.83 346.744 404.3 343.414 404.3C338.944 404.3 335.914 401.12 335.914 396.83C335.914 392.51 339.094 389.36 343.384 389.36C347.644 389.36 350.794 392.54 350.794 396.83C350.794 397.01 350.794 397.16 350.794 397.34ZM338.764 395.27H347.974C347.434 393.23 345.754 391.79 343.384 391.79C341.014 391.79 339.334 393.23 338.764 395.27ZM354.243 398.78C354.513 401.51 356.283 402.2 358.473 402.2C359.673 402.2 362.403 402.14 362.313 400.25C362.253 398.54 358.413 398 356.973 397.61C354.963 397.07 352.533 395.96 352.533 393.5C352.533 389.96 356.193 389.39 358.833 389.39C361.413 389.39 364.683 390.29 364.833 394.25L362.523 394.52C362.253 392.12 360.723 391.49 358.863 391.49C357.633 391.49 354.963 391.55 355.053 393.44C355.083 394.4 355.953 394.97 358.713 395.66C361.083 396.23 364.833 396.98 364.833 400.19C364.833 403.73 361.113 404.3 358.383 404.3C355.683 404.3 352.083 403.34 351.933 399.05L354.243 398.78ZM380.577 404.03H378.927C377.337 404.03 376.857 403.04 376.857 401.9V400.49C376.167 402.95 373.797 404.3 371.337 404.3C368.697 404.3 365.817 403.1 365.817 400.07C365.817 396.98 368.787 395.96 371.337 395.6L376.857 394.76V393.83C376.857 391.85 374.397 391.49 372.867 391.49C370.767 391.49 369.237 392.12 369.057 394.43L366.777 394.19C366.777 390.8 370.017 389.39 372.927 389.39C375.687 389.39 379.257 390.41 379.257 393.8V401.93H380.577V404.03ZM376.857 396.59L371.307 397.52C370.017 397.73 368.427 398.51 368.427 400.04C368.427 401.57 370.107 402.05 371.367 402.05C373.947 402.05 376.857 400.88 376.857 397.88V396.59ZM382.539 384.02H385.119V402.05H387.579V404.3H385.929C384.099 404.27 382.539 403.28 382.539 400.97V384.02ZM403.455 397.34H391.245C391.455 399.92 393.165 401.87 396.165 401.87C398.595 401.87 400.065 400.88 400.965 399.44L403.155 400.55C401.805 402.83 399.405 404.3 396.075 404.3C391.605 404.3 388.575 401.12 388.575 396.83C388.575 392.51 391.755 389.36 396.045 389.36C400.305 389.36 403.455 392.54 403.455 396.83C403.455 397.01 403.455 397.16 403.455 397.34ZM391.425 395.27H400.635C400.095 393.23 398.415 391.79 396.045 391.79C393.675 391.79 391.995 393.23 391.425 395.27ZM404.473 389.69H406.093C407.323 389.69 408.193 390.53 408.163 391.79V391.94C409.003 390.68 410.413 389.54 411.733 389.54H414.913V391.85H411.673C409.453 391.85 408.283 393.74 408.283 396.62V404H405.703V391.97H404.473V389.69Z" fill="#CED2D7"></path><path d="M265.181 394.46L415.813 394.46V395.96L265.181 395.96V394.46Z" fill="#CED2D7"></path><rect x="190" y="200" width="300" height="80" rx="5" fill="#E9F1F5"></rect><path d="M235.102 246.977H232.963L238.368 232.487H241.542L246.993 246.977H244.785L243.175 242.607H236.735L235.102 246.977ZM237.356 240.951H242.554L239.955 233.959L237.356 240.951ZM246.976 249.001L248.333 247.759C248.862 248.518 249.851 249.806 252.059 249.806C254.06 249.806 256.36 249.185 256.36 246.241V243.826C255.693 245.758 253.922 246.54 252.381 246.54C249.276 246.54 246.838 244.424 246.838 241.204C246.838 238.007 249.276 235.799 252.289 235.799C253.876 235.799 255.233 236.374 256.36 238.628V236.052H258.361V246.172C258.361 250.358 255.21 251.646 252.036 251.646C249.644 251.646 247.689 250.427 246.976 249.001ZM252.634 244.792C254.543 244.792 256.36 243.642 256.36 241.779V240.606C256.36 238.72 254.566 237.547 252.611 237.547C250.472 237.547 248.839 238.973 248.839 241.181C248.839 243.412 250.518 244.792 252.634 244.792ZM270.949 241.894H261.588C261.749 243.872 263.06 245.367 265.36 245.367C267.223 245.367 268.35 244.608 269.04 243.504L270.719 244.355C269.684 246.103 267.844 247.23 265.291 247.23C261.864 247.23 259.541 244.792 259.541 241.503C259.541 238.191 261.979 235.776 265.268 235.776C268.534 235.776 270.949 238.214 270.949 241.503C270.949 241.641 270.949 241.756 270.949 241.894ZM261.726 240.307H268.787C268.373 238.743 267.085 237.639 265.268 237.639C263.451 237.639 262.163 238.743 261.726 240.307ZM274.464 247H272.486V236.029L274.395 236.029V238.766C275.085 237.202 276.373 235.799 278.466 235.799C281.341 235.799 282.882 237.777 282.882 240.698V247H280.904V240.905C280.904 238.95 279.984 237.57 277.891 237.57C275.66 237.57 274.464 240.008 274.464 241.342V247ZM286.249 241.526C286.249 243.711 287.629 245.436 289.929 245.436C291.447 245.436 292.597 244.677 293.172 243.527L294.736 244.355C294.023 246.149 292.183 247.299 289.929 247.299C286.663 247.299 284.225 244.884 284.225 241.572C284.225 238.191 286.663 235.776 289.929 235.776C292.183 235.776 294.023 236.926 294.736 238.72L293.172 239.548C292.597 238.398 291.447 237.639 289.929 237.639C287.629 237.639 286.249 239.364 286.249 241.526ZM297.865 247L294.53 236.029H296.6L299.682 246.586L303.293 236.029H305.248L299.889 251.853H297.911L299.544 247H297.865ZM305.447 247H303.63L308.943 232.51H310.737L305.447 247ZM318.193 247H316.146V234.327H311.178V232.51H323.161V234.327H318.193V247ZM321.216 241.503C321.216 238.191 323.654 235.776 326.92 235.776C330.186 235.776 332.601 238.214 332.601 241.503C332.601 244.792 330.186 247.23 326.92 247.23C323.654 247.23 321.216 244.792 321.216 241.503ZM326.92 245.367C329.174 245.367 330.6 243.688 330.6 241.503C330.6 239.318 329.174 237.639 326.92 237.639C324.689 237.639 323.24 239.318 323.24 241.503C323.24 243.665 324.689 245.367 326.92 245.367ZM345.361 247H344.05C343.107 247 342.463 246.356 342.463 245.39V244.194C341.819 246.287 340.048 247.253 338.254 247.23C336.115 247.184 333.999 245.666 333.999 242.86V236.029H335.977V242.906C335.977 244.516 337.104 245.39 338.415 245.551C340.209 245.758 342.348 244.631 342.348 242.17V236.029H344.326V245.39H345.361V247ZM345.918 236.029H347.16C348.103 236.029 348.77 236.673 348.747 237.639V237.754C349.391 236.788 350.472 235.914 351.484 235.914H353.922V237.685H351.438C349.736 237.685 348.839 239.134 348.839 241.342V247H346.861V237.777H345.918V236.029ZM358.969 239.755C358.969 235.362 362.396 232.28 366.697 232.28C370.998 232.28 374.379 235.362 374.379 239.755C374.379 244.148 370.998 247.23 366.697 247.23C362.396 247.23 358.969 244.148 358.969 239.755ZM366.697 245.39C369.894 245.39 372.309 242.952 372.309 239.755C372.309 236.558 369.894 234.12 366.697 234.12C363.477 234.12 361.039 236.535 361.039 239.755C361.039 242.975 363.477 245.39 366.697 245.39ZM377.824 251.83H375.846V236.029H377.755V238.559C378.514 236.742 380.354 235.799 382.033 235.799C385.184 235.799 387.208 238.237 387.208 241.503C387.208 244.769 384.954 247.23 381.826 247.23C380.147 247.23 378.537 246.034 377.824 244.631V251.83ZM381.504 245.482C383.735 245.482 385.207 243.665 385.207 241.503C385.207 239.318 383.735 237.547 381.527 237.547C379.273 237.547 377.801 239.364 377.801 241.503C377.801 243.665 379.25 245.482 381.504 245.482ZM399.51 241.894H390.149C390.31 243.872 391.621 245.367 393.921 245.367C395.784 245.367 396.911 244.608 397.601 243.504L399.28 244.355C398.245 246.103 396.405 247.23 393.852 247.23C390.425 247.23 388.102 244.792 388.102 241.503C388.102 238.191 390.54 235.776 393.829 235.776C397.095 235.776 399.51 238.214 399.51 241.503C399.51 241.641 399.51 241.756 399.51 241.894ZM390.287 240.307H397.348C396.934 238.743 395.646 237.639 393.829 237.639C392.012 237.639 390.724 238.743 390.287 240.307ZM400.057 236.029H401.299C402.242 236.029 402.909 236.673 402.886 237.639V237.754C403.53 236.788 404.611 235.914 405.623 235.914H408.061V237.685H405.577C403.875 237.685 402.978 239.134 402.978 241.342V247H401V237.777H400.057V236.029ZM419.158 247.023H417.893C416.674 247.023 416.306 246.264 416.306 245.39V244.309C415.777 246.195 413.96 247.23 412.074 247.23C410.05 247.23 407.842 246.31 407.842 243.987C407.842 241.618 410.119 240.836 412.074 240.56L416.306 239.916V239.203C416.306 237.685 414.42 237.409 413.247 237.409C411.637 237.409 410.464 237.892 410.326 239.663L408.578 239.479C408.578 236.88 411.062 235.799 413.293 235.799C415.409 235.799 418.146 236.581 418.146 239.18V245.413H419.158V247.023ZM416.306 241.319L412.051 242.032C411.062 242.193 409.843 242.791 409.843 243.964C409.843 245.137 411.131 245.505 412.097 245.505C414.075 245.505 416.306 244.608 416.306 242.308V241.319ZM418.67 235.914H418.808C420.004 235.914 420.924 235.477 421.131 234.304L421.476 232.28H422.971L422.35 236.029L426.237 236.029V237.662L422.741 237.662V245.505H426.697V247.23H423.362C421.959 247.207 420.763 246.448 420.763 244.631V237.662H418.67V235.914ZM426.935 241.503C426.935 238.191 429.373 235.776 432.639 235.776C435.905 235.776 438.32 238.214 438.32 241.503C438.32 244.792 435.905 247.23 432.639 247.23C429.373 247.23 426.935 244.792 426.935 241.503ZM432.639 245.367C434.893 245.367 436.319 243.688 436.319 241.503C436.319 239.318 434.893 237.639 432.639 237.639C430.408 237.639 428.959 239.318 428.959 241.503C428.959 243.665 430.408 245.367 432.639 245.367ZM438.89 236.029H440.132C441.075 236.029 441.742 236.673 441.719 237.639V237.754C442.363 236.788 443.444 235.914 444.456 235.914H446.894V237.685H444.41C442.708 237.685 441.811 239.134 441.811 241.342V247H439.833V237.777H438.89V236.029Z" fill="#04232D"></path><rect width="500" height="80" rx="5" transform="matrix(1 0 0 -1 90 770)" fill="#0D3D5D"></rect><path d="M234.953 737.5H231.894V725.494H226.788V722.826H240.036V725.494H234.953V737.5ZM244.25 730.117C244.273 732.854 246.136 734.993 249.172 734.993C251.449 734.993 253.036 734.027 253.657 732.187L256.532 732.578C256.003 735.867 253.082 737.73 249.126 737.73C244.365 737.73 241.099 734.671 241.168 730.117C241.214 725.931 244.365 722.596 249.241 722.596C253.128 722.596 256.003 724.459 256.532 727.748L253.657 728.139C253.036 726.299 251.403 725.333 249.034 725.333C246.067 725.333 244.25 727.334 244.25 730.117ZM271.398 737.5V735.361C270.524 736.718 268.891 737.73 266.453 737.73C261.416 737.73 258.104 734.671 258.081 730.14C258.15 725.931 261.37 722.596 266.43 722.596C270.432 722.596 273.422 724.275 273.974 727.564L271.099 727.955C270.455 726.115 268.546 725.333 266.177 725.333C263.072 725.333 261.14 727.334 261.14 730.14C261.186 732.854 263.164 734.993 266.315 734.993C268.753 734.993 270.731 733.958 271.329 732.463L271.398 731.497H264.153V729.335H274.112V737.5H271.398ZM281.374 730.163C281.374 725.632 285.054 722.596 289.47 722.596C293.886 722.596 297.52 725.632 297.52 730.163C297.52 734.694 293.886 737.73 289.47 737.73C285.077 737.73 281.374 734.671 281.374 730.163ZM289.47 735.062C292.276 735.062 294.415 732.946 294.415 730.163C294.415 727.357 292.276 725.241 289.47 725.241C286.641 725.241 284.479 727.334 284.479 730.163C284.479 732.969 286.641 735.062 289.47 735.062ZM306.873 737.5H303.814V725.494H298.708V722.826H311.956V725.494H306.873V737.5ZM314.547 737.5H311.35L316.847 722.826H320.757L326.277 737.5H323.034L321.7 733.889H315.904L314.547 737.5ZM316.709 731.589H320.895L318.802 725.885L316.709 731.589ZM347.023 737.5H343.458C342.929 737.178 342.676 736.465 342.354 735.66C341.181 732.785 340.445 732.509 339.502 732.509H336.88V737.5H333.798V722.826H340.652C344.01 722.826 346.333 724.091 346.31 727.288C346.31 729.496 344.93 731.451 342.653 731.497C344.424 731.842 344.999 733.429 345.712 735.361C345.919 735.913 346.264 736.856 347.023 737.5ZM336.88 725.448V729.956H339.939C341.871 729.956 343.228 729.542 343.228 727.564C343.228 725.747 342.009 725.448 339.962 725.448H336.88ZM360.112 737.5H349.049V722.826H360.204V725.471H352.131V728.875H359.192V731.313H352.131V734.855H360.112V737.5ZM365.068 730.117C365.091 732.854 366.954 734.993 369.99 734.993C372.267 734.993 373.854 734.027 374.475 732.187L377.35 732.578C376.821 735.867 373.9 737.73 369.944 737.73C365.183 737.73 361.917 734.671 361.986 730.117C362.032 725.931 365.183 722.596 370.059 722.596C373.946 722.596 376.821 724.459 377.35 727.748L374.475 728.139C373.854 726.299 372.221 725.333 369.852 725.333C366.885 725.333 365.068 727.334 365.068 730.117ZM390.951 737.5H379.888V722.826H391.043V725.471H382.97V728.875H390.031V731.313H382.97V734.855H390.951V737.5ZM396.963 737.5H393.881V722.826H400.528C403.541 722.826 406.462 724.045 406.462 727.725C406.462 731.52 403.794 732.946 400.689 732.946H396.963V737.5ZM396.963 725.471V730.439H400.436C401.908 730.439 403.357 729.91 403.357 727.84C403.357 725.701 401.793 725.471 400.436 725.471H396.963ZM415.314 737.5H412.255V725.494H407.149V722.826H420.397V725.494H415.314V737.5ZM421.553 730.163C421.553 725.632 425.233 722.596 429.649 722.596C434.065 722.596 437.699 725.632 437.699 730.163C437.699 734.694 434.065 737.73 429.649 737.73C425.256 737.73 421.553 734.671 421.553 730.163ZM429.649 735.062C432.455 735.062 434.594 732.946 434.594 730.163C434.594 727.357 432.455 725.241 429.649 725.241C426.82 725.241 424.658 727.334 424.658 730.163C424.658 732.969 426.82 735.062 429.649 735.062ZM453.555 737.5H449.99C449.461 737.178 449.208 736.465 448.886 735.66C447.713 732.785 446.977 732.509 446.034 732.509H443.412V737.5H440.33V722.826H447.184C450.542 722.826 452.865 724.091 452.842 727.288C452.842 729.496 451.462 731.451 449.185 731.497C450.956 731.842 451.531 733.429 452.244 735.361C452.451 735.913 452.796 736.856 453.555 737.5ZM443.412 725.448V729.956H446.471C448.403 729.956 449.76 729.542 449.76 727.564C449.76 725.747 448.541 725.448 446.494 725.448H443.412Z" fill="white"></path><rect width="245" height="53" rx="5" transform="matrix(1 0 0 -1 90 833)" fill="#F5F6F7"></rect><path d="M167.486 813H165.706V801.98H161.386V800.4H171.806V801.98H167.486V813ZM170.825 803.46H171.905C172.725 803.46 173.305 804.02 173.285 804.86V804.96C173.845 804.12 174.785 803.36 175.665 803.36H177.785V804.9H175.625C174.145 804.9 173.365 806.16 173.365 808.08V813H171.645V804.98H170.825V803.46ZM181.372 802.32L179.712 801.84V800.24H181.372V802.32ZM179.712 803.46H180.532C181.072 803.46 181.432 803.82 181.432 804.36V813H179.712V803.46ZM186.08 817.2H184.36V803.46H186.02V805.66C186.68 804.08 188.28 803.26 189.74 803.26C192.48 803.26 194.24 805.38 194.24 808.22C194.24 811.06 192.28 813.2 189.56 813.2C188.1 813.2 186.7 812.16 186.08 810.94V817.2ZM189.28 811.68C191.22 811.68 192.5 810.1 192.5 808.22C192.5 806.32 191.22 804.78 189.3 804.78C187.34 804.78 186.06 806.36 186.06 808.22C186.06 810.1 187.32 811.68 189.28 811.68ZM207.591 813H201.691V800.4H207.591C210.991 800.4 213.791 802.32 213.791 806.7C213.791 811.08 210.991 813 207.591 813ZM203.491 801.96V811.44H207.491C209.971 811.44 211.991 810.12 211.991 806.7C211.991 803.28 209.971 801.96 207.491 801.96H203.491ZM225.162 808.56H217.022C217.162 810.28 218.302 811.58 220.302 811.58C221.922 811.58 222.902 810.92 223.502 809.96L224.962 810.7C224.062 812.22 222.462 813.2 220.242 813.2C217.262 813.2 215.242 811.08 215.242 808.22C215.242 805.34 217.362 803.24 220.222 803.24C223.062 803.24 225.162 805.36 225.162 808.22C225.162 808.34 225.162 808.44 225.162 808.56ZM217.142 807.18H223.282C222.922 805.82 221.802 804.86 220.222 804.86C218.642 804.86 217.522 805.82 217.142 807.18ZM228.128 809.52C228.308 811.34 229.488 811.8 230.948 811.8C231.748 811.8 233.568 811.76 233.508 810.5C233.468 809.36 230.908 809 229.948 808.74C228.608 808.38 226.988 807.64 226.988 806C226.988 803.64 229.428 803.26 231.188 803.26C232.908 803.26 235.088 803.86 235.188 806.5L233.648 806.68C233.468 805.08 232.448 804.66 231.208 804.66C230.388 804.66 228.608 804.7 228.668 805.96C228.688 806.6 229.268 806.98 231.108 807.44C232.688 807.82 235.188 808.32 235.188 810.46C235.188 812.82 232.708 813.2 230.888 813.2C229.088 813.2 226.688 812.56 226.588 809.7L228.128 809.52ZM238.931 802.32L237.271 801.84V800.24H238.931V802.32ZM237.271 803.46H238.091C238.631 803.46 238.991 803.82 238.991 804.36V813H237.271V803.46ZM241.259 814.74L242.439 813.66C242.899 814.32 243.759 815.44 245.679 815.44C247.419 815.44 249.419 814.9 249.419 812.34V810.24C248.839 811.92 247.299 812.6 245.959 812.6C243.259 812.6 241.139 810.76 241.139 807.96C241.139 805.18 243.259 803.26 245.879 803.26C247.259 803.26 248.439 803.76 249.419 805.72V803.48H251.159V812.28C251.159 815.92 248.419 817.04 245.659 817.04C243.579 817.04 241.879 815.98 241.259 814.74ZM246.179 811.08C247.839 811.08 249.419 810.08 249.419 808.46V807.44C249.419 805.8 247.859 804.78 246.159 804.78C244.299 804.78 242.879 806.02 242.879 807.94C242.879 809.88 244.339 811.08 246.179 811.08ZM255.475 813H253.755V803.46H255.415V805.84C256.015 804.48 257.135 803.26 258.955 803.26C261.455 803.26 262.795 804.98 262.795 807.52V813H261.075V807.7C261.075 806 260.275 804.8 258.455 804.8C256.515 804.8 255.475 806.92 255.475 808.08V813Z" fill="#0D3D5D"></path><rect width="245" height="53" rx="5" transform="matrix(1 0 0 -1 345 833)" fill="#F5F6F7"></rect><path d="M451.55 804.18C451.53 802.76 450.29 801.84 448.93 801.82C447.53 801.8 445.87 801.96 445.87 803.6C445.87 804.92 447.45 805.4 448.61 805.66C450.67 806.1 453.51 806.78 453.51 809.6C453.51 812.28 451.07 813.14 448.63 813.2C446.35 813.26 443.85 812.04 443.61 809.48L445.43 809.22C445.55 810.68 447.05 811.6 448.61 811.6C450.15 811.6 451.65 811.3 451.65 809.66C451.65 807.9 448.99 807.62 447.65 807.28C445.85 806.82 444.01 806.02 444.01 803.6C444.01 800.94 446.65 800.14 448.95 800.2C451.17 800.26 453.29 801.42 453.29 803.98L451.55 804.18ZM464.837 813.02H463.737C462.677 813.02 462.357 812.36 462.357 811.6V810.66C461.897 812.3 460.317 813.2 458.677 813.2C456.917 813.2 454.997 812.4 454.997 810.38C454.997 808.32 456.977 807.64 458.677 807.4L462.357 806.84V806.22C462.357 804.9 460.717 804.66 459.697 804.66C458.297 804.66 457.277 805.08 457.157 806.62L455.637 806.46C455.637 804.2 457.797 803.26 459.737 803.26C461.577 803.26 463.957 803.94 463.957 806.2V811.62H464.837V813.02ZM462.357 808.06L458.657 808.68C457.797 808.82 456.737 809.34 456.737 810.36C456.737 811.38 457.857 811.7 458.697 811.7C460.417 811.7 462.357 810.92 462.357 808.92V808.06ZM466.812 799.68H468.532V811.7H470.172V813.2H469.072C467.852 813.18 466.812 812.52 466.812 810.98V799.68ZM481.422 808.56H473.282C473.422 810.28 474.562 811.58 476.562 811.58C478.182 811.58 479.162 810.92 479.762 809.96L481.222 810.7C480.322 812.22 478.722 813.2 476.502 813.2C473.522 813.2 471.502 811.08 471.502 808.22C471.502 805.34 473.622 803.24 476.482 803.24C479.322 803.24 481.422 805.36 481.422 808.22C481.422 808.34 481.422 808.44 481.422 808.56ZM473.402 807.18H479.542C479.182 805.82 478.062 804.86 476.482 804.86C474.902 804.86 473.782 805.82 473.402 807.18ZM484.388 809.52C484.568 811.34 485.748 811.8 487.208 811.8C488.008 811.8 489.828 811.76 489.768 810.5C489.728 809.36 487.168 809 486.208 808.74C484.868 808.38 483.248 807.64 483.248 806C483.248 803.64 485.688 803.26 487.448 803.26C489.168 803.26 491.348 803.86 491.448 806.5L489.908 806.68C489.728 805.08 488.708 804.66 487.468 804.66C486.648 804.66 484.868 804.7 484.928 805.96C484.948 806.6 485.528 806.98 487.368 807.44C488.948 807.82 491.448 808.32 491.448 810.46C491.448 812.82 488.968 813.2 487.148 813.2C485.348 813.2 482.948 812.56 482.848 809.7L484.388 809.52Z" fill="#0D3D5D"></path><rect width="245" height="53" rx="5" transform="matrix(1 0 0 -1 90 896)" fill="#F5F6F7"></rect><path d="M167.394 876V863.4H169.554L174.094 874.14L178.734 863.4H180.754V876H178.934V866.96L175.094 876H173.054L169.214 866.96V876H167.394ZM192.991 876.02H191.891C190.831 876.02 190.511 875.36 190.511 874.6V873.66C190.051 875.3 188.471 876.2 186.831 876.2C185.071 876.2 183.151 875.4 183.151 873.38C183.151 871.32 185.131 870.64 186.831 870.4L190.511 869.84V869.22C190.511 867.9 188.871 867.66 187.851 867.66C186.451 867.66 185.431 868.08 185.311 869.62L183.791 869.46C183.791 867.2 185.951 866.26 187.891 866.26C189.731 866.26 192.111 866.94 192.111 869.2V874.62H192.991V876.02ZM190.511 871.06L186.811 871.68C185.951 871.82 184.891 872.34 184.891 873.36C184.891 874.38 186.011 874.7 186.851 874.7C188.571 874.7 190.511 873.92 190.511 871.92V871.06ZM194.106 866.46H195.186C196.006 866.46 196.586 867.02 196.566 867.86V867.96C197.126 867.12 198.066 866.36 198.946 866.36H201.066V867.9H198.906C197.426 867.9 196.646 869.16 196.646 871.08V876H194.926V867.98H194.106V866.46ZM202.993 876V862.66H204.713V873.42L210.113 866.46H212.013L208.493 871.04L212.393 876H210.273L207.433 872.46L204.713 876H202.993ZM222.506 871.56H214.366C214.506 873.28 215.646 874.58 217.646 874.58C219.266 874.58 220.246 873.92 220.846 872.96L222.306 873.7C221.406 875.22 219.806 876.2 217.586 876.2C214.606 876.2 212.586 874.08 212.586 871.22C212.586 868.34 214.706 866.24 217.566 866.24C220.406 866.24 222.506 868.36 222.506 871.22C222.506 871.34 222.506 871.44 222.506 871.56ZM214.486 870.18H220.626C220.266 868.82 219.146 867.86 217.566 867.86C215.986 867.86 214.866 868.82 214.486 870.18ZM223.612 866.36H223.732C224.772 866.36 225.572 865.98 225.752 864.96L226.052 863.2H227.352L226.812 866.46H230.192V867.88H227.152V874.7H230.592V876.2H227.692C226.472 876.18 225.432 875.52 225.432 873.94V867.88H223.612V866.36ZM234.184 865.32L232.524 864.84V863.24H234.184V865.32ZM232.524 866.46H233.344C233.884 866.46 234.244 866.82 234.244 867.36V876H232.524V866.46ZM238.893 876H237.173V866.46H238.833V868.84C239.433 867.48 240.553 866.26 242.373 866.26C244.873 866.26 246.213 867.98 246.213 870.52V876H244.493V870.7C244.493 869 243.693 867.8 241.873 867.8C239.933 867.8 238.893 869.92 238.893 871.08V876ZM248.29 877.74L249.47 876.66C249.93 877.32 250.79 878.44 252.71 878.44C254.45 878.44 256.45 877.9 256.45 875.34V873.24C255.87 874.92 254.33 875.6 252.99 875.6C250.29 875.6 248.17 873.76 248.17 870.96C248.17 868.18 250.29 866.26 252.91 866.26C254.29 866.26 255.47 866.76 256.45 868.72V866.48H258.19V875.28C258.19 878.92 255.45 880.04 252.69 880.04C250.61 880.04 248.91 878.98 248.29 877.74ZM253.21 874.08C254.87 874.08 256.45 873.08 256.45 871.46V870.44C256.45 868.8 254.89 867.78 253.19 867.78C251.33 867.78 249.91 869.02 249.91 870.94C249.91 872.88 251.37 874.08 253.21 874.08Z" fill="#0D3D5D"></path><rect width="245" height="53" rx="5" transform="matrix(1 0 0 -1 345 896)" fill="#F5F6F7"></rect><path d="M404.326 869.64C404.346 872.46 406.306 874.6 408.966 874.6C411.006 874.6 412.626 873.8 413.266 872.04L414.926 872.3C414.386 874.78 412.126 876.2 409.086 876.2C405.066 876.2 402.566 873.5 402.526 869.64C402.486 866.18 405.066 863.2 409.086 863.2C412.126 863.2 414.386 864.62 414.926 867.1L413.266 867.34C412.626 865.6 411.006 864.8 408.966 864.8C406.306 864.8 404.346 866.8 404.326 869.64ZM416.997 862.68H418.717V874.7H420.357V876.2H419.257C418.037 876.18 416.997 875.52 416.997 873.98V862.68ZM424.048 865.32L422.388 864.84V863.24H424.048V865.32ZM422.388 866.46H423.208C423.748 866.46 424.108 866.82 424.108 867.36V876H422.388V866.46ZM436.256 871.56H428.116C428.256 873.28 429.396 874.58 431.396 874.58C433.016 874.58 433.996 873.92 434.596 872.96L436.056 873.7C435.156 875.22 433.556 876.2 431.336 876.2C428.356 876.2 426.336 874.08 426.336 871.22C426.336 868.34 428.456 866.24 431.316 866.24C434.156 866.24 436.256 868.36 436.256 871.22C436.256 871.34 436.256 871.44 436.256 871.56ZM428.236 870.18H434.376C434.016 868.82 432.896 867.86 431.316 867.86C429.736 867.86 428.616 868.82 428.236 870.18ZM440.182 876H438.462V866.46H440.122V868.84C440.722 867.48 441.842 866.26 443.662 866.26C446.162 866.26 447.502 867.98 447.502 870.52V876H445.782V870.7C445.782 869 444.982 867.8 443.162 867.8C441.222 867.8 440.182 869.92 440.182 871.08V876ZM448.651 866.36H448.771C449.811 866.36 450.611 865.98 450.791 864.96L451.091 863.2H452.391L451.851 866.46H455.231V867.88H452.191V874.7H455.631V876.2H452.731C451.511 876.18 450.471 875.52 450.471 873.94V867.88H448.651V866.36ZM463.427 869.64C463.447 872.46 465.407 874.6 468.067 874.6C470.107 874.6 471.727 873.8 472.367 872.04L474.027 872.3C473.487 874.78 471.227 876.2 468.187 876.2C464.167 876.2 461.667 873.5 461.627 869.64C461.587 866.18 464.167 863.2 468.187 863.2C471.227 863.2 473.487 864.62 474.027 867.1L472.367 867.34C471.727 865.6 470.107 864.8 468.067 864.8C465.407 864.8 463.447 866.8 463.427 869.64ZM475.36 871.22C475.36 868.34 477.48 866.24 480.32 866.24C483.16 866.24 485.26 868.36 485.26 871.22C485.26 874.08 483.16 876.2 480.32 876.2C477.48 876.2 475.36 874.08 475.36 871.22ZM480.32 874.58C482.28 874.58 483.52 873.12 483.52 871.22C483.52 869.32 482.28 867.86 480.32 867.86C478.38 867.86 477.12 869.32 477.12 871.22C477.12 873.1 478.38 874.58 480.32 874.58ZM489.205 876H487.485V866.46H489.145V868.72C489.645 867.4 490.965 866.26 492.445 866.26C494.045 866.26 495.405 866.9 495.905 868.88C496.545 867.44 498.005 866.26 499.545 866.26C502.045 866.26 503.325 868 503.325 870.52V876H501.605V870.7C501.605 869.08 500.905 867.8 499.105 867.8C497.185 867.8 496.265 868.86 496.265 870.7V876H494.545V870.7C494.545 869.08 493.845 867.8 492.045 867.8C490.125 867.8 489.205 869.26 489.205 871.08V876ZM507.819 876H506.099V866.46H507.759V868.72C508.259 867.4 509.579 866.26 511.059 866.26C512.659 866.26 514.019 866.9 514.519 868.88C515.159 867.44 516.619 866.26 518.159 866.26C520.659 866.26 521.939 868 521.939 870.52V876H520.219V870.7C520.219 869.08 519.519 867.8 517.719 867.8C515.799 867.8 514.879 868.86 514.879 870.7V876H513.159V870.7C513.159 869.08 512.459 867.8 510.659 867.8C508.739 867.8 507.819 869.26 507.819 871.08V876ZM525.472 872.52C525.652 874.34 526.832 874.8 528.292 874.8C529.092 874.8 530.912 874.76 530.852 873.5C530.812 872.36 528.252 872 527.292 871.74C525.952 871.38 524.332 870.64 524.332 869C524.332 866.64 526.772 866.26 528.532 866.26C530.252 866.26 532.432 866.86 532.532 869.5L530.992 869.68C530.812 868.08 529.792 867.66 528.552 867.66C527.732 867.66 525.952 867.7 526.012 868.96C526.032 869.6 526.612 869.98 528.452 870.44C530.032 870.82 532.532 871.32 532.532 873.46C532.532 875.82 530.052 876.2 528.232 876.2C526.432 876.2 524.032 875.56 523.932 872.7L525.472 872.52Z" fill="#0D3D5D"></path><path d="M340.75 307.5L344.33 300H335.67L339.25 307.5H340.75ZM339.47 490.53C339.763 490.823 340.237 490.823 340.53 490.53L345.303 485.757C345.596 485.464 345.596 484.99 345.303 484.697C345.01 484.404 344.536 484.404 344.243 484.697L340 488.939L335.757 484.697C335.464 484.404 334.99 484.404 334.697 484.697C334.404 484.99 334.404 485.464 334.697 485.757L339.47 490.53ZM340 306.75H339.25V490H340H340.75V306.75H340Z" fill="#0D3D5D"></path><rect width="160" height="80" rx="5" transform="matrix(1 0 0 -1 90 1256)" fill="#1F1F1F"></rect><path d="M119.874 1192.85H129.833L129.81 1195.26L125.67 1198.35C129.005 1198.62 130.385 1200.53 130.385 1202.85C130.385 1206.19 127.74 1207.73 124.842 1207.73C122.197 1207.73 119.483 1206.19 119.207 1203.11L121.852 1202.55C121.99 1204.26 123.255 1205.06 124.819 1205.06C125.946 1205.06 127.349 1204.65 127.349 1202.88C127.349 1201.34 126.107 1200.32 124.106 1200.32H121.898V1198.46L125.969 1195.33H119.874V1192.85ZM131.536 1196.18H133.767C134.733 1196.18 135.377 1196.8 135.377 1197.77V1197.98C136.113 1196.94 137.217 1196.09 138.298 1196.09H140.805V1198.78H137.907C136.159 1198.78 135.423 1199.86 135.423 1201.84V1207.5H132.571V1198.78H131.536V1196.18ZM153.977 1207.5H151.125V1205.08C150.619 1206.6 149.032 1207.75 147.238 1207.75C144.018 1207.78 141.649 1205.27 141.649 1201.96C141.649 1198.71 143.903 1196.02 147.192 1196.02C148.871 1196.02 150.297 1196.9 151.056 1198.64V1191.19H153.977V1207.5ZM144.616 1201.89C144.616 1203.68 145.881 1205.2 147.859 1205.2C149.837 1205.2 151.079 1203.68 151.079 1201.89C151.079 1200.07 149.86 1198.58 147.859 1198.58C145.881 1198.58 144.616 1200.07 144.616 1201.89ZM165.914 1207.5H162.832V1192.83H169.479C172.492 1192.83 175.413 1194.04 175.413 1197.72C175.413 1201.52 172.745 1202.95 169.64 1202.95H165.914V1207.5ZM165.914 1195.47V1200.44H169.387C170.859 1200.44 172.308 1199.91 172.308 1197.84C172.308 1195.7 170.744 1195.47 169.387 1195.47H165.914ZM188.358 1207.5H186.495C185.207 1207.5 184.517 1206.81 184.517 1205.82V1204.88C184.057 1206.86 182.194 1207.73 180.377 1207.73C178.33 1207.73 176.306 1206.74 176.306 1204.44C176.306 1202.14 178.422 1201.22 180.584 1200.9L184.517 1200.35V1199.82C184.517 1198.64 183.16 1198.39 182.217 1198.37C180.883 1198.37 179.871 1198.71 179.733 1200.16L176.95 1199.91C176.973 1197.2 179.48 1196.02 182.125 1196.02C185.506 1196.02 187.369 1197.31 187.369 1199.79V1205.06L188.358 1205.08V1207.5ZM184.517 1202.09L181.297 1202.62C180.331 1202.78 179.181 1203.24 179.273 1204.21C179.342 1205.11 180.423 1205.38 181.366 1205.25C182.815 1205.15 184.494 1204.37 184.517 1202.72V1202.09ZM189.485 1196.18H191.716C192.682 1196.18 193.326 1196.8 193.326 1197.77V1197.98C194.062 1196.94 195.166 1196.09 196.247 1196.09H198.754V1198.78H195.856C194.108 1198.78 193.372 1199.86 193.372 1201.84V1207.5H190.52V1198.78H189.485V1196.18ZM199.454 1196.09H200.006C201.087 1196.09 201.961 1195.52 202.191 1194.32L202.605 1192.09H205.043L204.284 1196.16H208.355V1198.67H204.675V1205.25H208.769V1207.73L204.836 1207.78C202.996 1207.75 201.754 1206.74 201.754 1204.69V1198.67H199.454V1196.09ZM212.602 1207.5L209.221 1196.25H212.211L215.017 1205.96L218.352 1196.25H221.273L215.799 1212.58H212.993L214.626 1207.5H212.602ZM127.124 1229.61C127.078 1228.14 125.813 1227.24 124.272 1227.22C122.961 1227.22 121.374 1227.4 121.374 1228.78C121.374 1230.02 122.984 1230.46 124.456 1230.76C126.963 1231.27 130.436 1232 130.436 1235.47C130.436 1238.69 127.377 1239.78 124.203 1239.8C120.96 1239.85 117.947 1238.33 117.763 1235.08L120.891 1234.72C121.075 1236.21 122.363 1237.22 124.226 1237.2C125.468 1237.2 127.193 1236.92 127.193 1235.54C127.193 1234 124.755 1233.73 123.122 1233.34C120.776 1232.81 118.131 1231.91 118.131 1228.8C118.131 1225.61 121.558 1224.57 124.318 1224.62C127.308 1224.64 130.183 1226.14 130.183 1229.38L127.124 1229.61ZM144.836 1239.5H142.743C141.777 1239.5 141.11 1238.86 141.064 1237.89L141.041 1237.06C140.374 1238.88 138.603 1239.82 136.855 1239.75C134.739 1239.68 132.646 1238.12 132.646 1234.9V1228.25H135.59V1234.9C135.59 1236.46 136.602 1237.18 137.775 1237.29C139.293 1237.41 140.949 1236.56 140.949 1234.46V1228.25H143.801V1237.15H144.836V1239.5ZM149.853 1244.49H147.001V1228.25H149.761V1230.58C150.451 1228.99 152.268 1228.02 153.878 1228.02C156.799 1228.02 159.191 1230.21 159.191 1233.84C159.191 1237.22 157.006 1239.73 153.694 1239.73C152.061 1239.73 150.635 1238.74 149.853 1237.45V1244.49ZM153.027 1237.27C154.982 1237.27 156.224 1235.75 156.224 1233.93C156.224 1232.09 154.982 1230.6 153.05 1230.6C151.095 1230.6 149.83 1232.14 149.83 1233.93C149.83 1235.75 151.072 1237.27 153.027 1237.27ZM164.363 1244.49H161.511V1228.25H164.271V1230.58C164.961 1228.99 166.778 1228.02 168.388 1228.02C171.309 1228.02 173.701 1230.21 173.701 1233.84C173.701 1237.22 171.516 1239.73 168.204 1239.73C166.571 1239.73 165.145 1238.74 164.363 1237.45V1244.49ZM167.537 1237.27C169.492 1237.27 170.734 1235.75 170.734 1233.93C170.734 1232.09 169.492 1230.6 167.56 1230.6C165.605 1230.6 164.34 1232.14 164.34 1233.93C164.34 1235.75 165.582 1237.27 167.537 1237.27ZM175.883 1223.72H178.735V1237.06H180.736V1239.66H179.011C177.125 1239.64 175.883 1238.67 175.883 1236.72V1223.72ZM185.61 1227.01L182.85 1226.27V1223.86H185.61V1227.01ZM182.827 1228.25H184.368C185.15 1228.25 185.679 1228.76 185.679 1229.52V1239.5H182.827V1228.25ZM199.845 1234.39H190.76C190.944 1236.12 192.14 1237.31 194.026 1237.31C195.613 1237.31 196.648 1236.62 197.177 1235.64L199.661 1236.42C198.833 1238.3 196.947 1239.75 193.98 1239.75C190.438 1239.75 187.839 1237.36 187.839 1233.84C187.839 1230.37 190.461 1228.02 193.865 1228.02C197.269 1228.02 199.822 1230.28 199.845 1233.73C199.845 1233.89 199.845 1234.23 199.845 1234.39ZM190.944 1232.53H196.832C196.464 1231.24 195.337 1230.37 193.865 1230.37C192.439 1230.37 191.358 1231.22 190.944 1232.53ZM201.064 1228.18H203.295C204.261 1228.18 204.905 1228.8 204.905 1229.77V1229.98C205.641 1228.94 206.745 1228.09 207.826 1228.09H210.333V1230.78H207.435C205.687 1230.78 204.951 1231.86 204.951 1233.84V1239.5H202.099V1230.78H201.064V1228.18ZM214.318 1235.41C214.479 1237.08 215.79 1237.43 217.101 1237.43C217.768 1237.43 219.424 1237.41 219.378 1236.39C219.355 1235.29 217.009 1234.97 215.698 1234.65C213.95 1234.23 211.903 1233.45 211.903 1231.38C211.903 1228.48 215.008 1228.02 217.17 1228.02C219.562 1228.02 222.184 1228.78 222.345 1231.96L219.631 1232.16C219.493 1230.67 218.343 1230.25 217.124 1230.25C216.457 1230.25 214.824 1230.3 214.87 1231.38C214.893 1232.02 215.767 1232.35 217.147 1232.69C219.102 1233.13 222.391 1233.73 222.391 1236.3C222.391 1239.2 219.332 1239.73 217.078 1239.73C214.663 1239.73 211.788 1239.2 211.558 1235.7L214.318 1235.41Z" fill="white"></path><rect width="330" height="80" rx="5" transform="matrix(1 0 0 -1 260 1256)" fill="#33A6F2"></rect><path d="M366.806 1223.5H363.747V1211.49H358.641V1208.83H371.889V1211.49H366.806V1223.5ZM376.104 1216.12C376.127 1218.85 377.99 1220.99 381.026 1220.99C383.303 1220.99 384.89 1220.03 385.511 1218.19L388.386 1218.58C387.857 1221.87 384.936 1223.73 380.98 1223.73C376.219 1223.73 372.953 1220.67 373.022 1216.12C373.068 1211.93 376.219 1208.6 381.095 1208.6C384.982 1208.6 387.857 1210.46 388.386 1213.75L385.511 1214.14C384.89 1212.3 383.257 1211.33 380.888 1211.33C377.921 1211.33 376.104 1213.33 376.104 1216.12ZM403.252 1223.5V1221.36C402.378 1222.72 400.745 1223.73 398.307 1223.73C393.27 1223.73 389.958 1220.67 389.935 1216.14C390.004 1211.93 393.224 1208.6 398.284 1208.6C402.286 1208.6 405.276 1210.27 405.828 1213.56L402.953 1213.95C402.309 1212.11 400.4 1211.33 398.031 1211.33C394.926 1211.33 392.994 1213.33 392.994 1216.14C393.04 1218.85 395.018 1220.99 398.169 1220.99C400.607 1220.99 402.585 1219.96 403.183 1218.46L403.252 1217.5H396.007V1215.33H405.966V1223.5H403.252ZM422.082 1223.5H414.193V1208.83H421.484C424.014 1208.83 426.728 1209.75 426.728 1212.83C426.728 1213.82 426.268 1215.68 423.899 1215.84C426.314 1215.96 427.487 1217.43 427.487 1219.45C427.487 1222.67 424.773 1223.5 422.082 1223.5ZM417.275 1211.47V1214.94H421.507C422.818 1214.94 423.715 1214.55 423.715 1213.15C423.715 1211.77 422.657 1211.47 421.323 1211.47H417.275ZM417.275 1217.24V1220.85H421.576C423.025 1220.85 424.451 1220.69 424.451 1219.11C424.451 1217.47 422.933 1217.24 421.507 1217.24H417.275ZM428.808 1212.18H431.039C432.005 1212.18 432.649 1212.8 432.649 1213.77V1213.98C433.385 1212.94 434.489 1212.09 435.57 1212.09H438.077V1214.78H435.179C433.431 1214.78 432.695 1215.86 432.695 1217.84V1223.5H429.843V1214.78H428.808V1212.18ZM450.748 1223.5H448.885C447.597 1223.5 446.907 1222.81 446.907 1221.82V1220.88C446.447 1222.86 444.584 1223.73 442.767 1223.73C440.72 1223.73 438.696 1222.74 438.696 1220.44C438.696 1218.14 440.812 1217.22 442.974 1216.9L446.907 1216.35V1215.82C446.907 1214.64 445.55 1214.39 444.607 1214.37C443.273 1214.37 442.261 1214.71 442.123 1216.16L439.34 1215.91C439.363 1213.2 441.87 1212.02 444.515 1212.02C447.896 1212.02 449.759 1213.31 449.759 1215.79V1221.06L450.748 1221.08V1223.5ZM446.907 1218.09L443.687 1218.62C442.721 1218.78 441.571 1219.24 441.663 1220.21C441.732 1221.11 442.813 1221.38 443.756 1221.25C445.205 1221.15 446.884 1220.37 446.907 1218.72V1218.09ZM455.716 1223.5H452.864V1212.25H455.67V1214.74C456.429 1213.03 457.832 1212.02 459.327 1212.02C463.007 1212.02 463.927 1214.62 463.927 1217.17V1223.5H461.167V1217.59C461.167 1215.86 460.431 1214.64 458.66 1214.64C456.659 1214.64 455.716 1216.69 455.716 1217.86V1223.5ZM478.269 1223.5H475.417V1221.08C474.911 1222.6 473.324 1223.75 471.53 1223.75C468.31 1223.78 465.941 1221.27 465.941 1217.96C465.941 1214.71 468.195 1212.02 471.484 1212.02C473.163 1212.02 474.589 1212.9 475.348 1214.64V1207.19H478.269V1223.5ZM468.908 1217.89C468.908 1219.68 470.173 1221.2 472.151 1221.2C474.129 1221.2 475.371 1219.68 475.371 1217.89C475.371 1216.07 474.152 1214.58 472.151 1214.58C470.173 1214.58 468.908 1216.07 468.908 1217.89ZM483.233 1219.41C483.394 1221.08 484.705 1221.43 486.016 1221.43C486.683 1221.43 488.339 1221.41 488.293 1220.39C488.27 1219.29 485.924 1218.97 484.613 1218.65C482.865 1218.23 480.818 1217.45 480.818 1215.38C480.818 1212.48 483.923 1212.02 486.085 1212.02C488.477 1212.02 491.099 1212.78 491.26 1215.96L488.546 1216.16C488.408 1214.67 487.258 1214.25 486.039 1214.25C485.372 1214.25 483.739 1214.3 483.785 1215.38C483.808 1216.02 484.682 1216.35 486.062 1216.69C488.017 1217.13 491.306 1217.73 491.306 1220.3C491.306 1223.2 488.247 1223.73 485.993 1223.73C483.578 1223.73 480.703 1223.2 480.473 1219.7L483.233 1219.41Z" fill="white"></path><path d="M350.75 1103.5L354.33 1096H345.67L349.25 1103.5H350.75ZM424.47 1156.53C424.763 1156.82 425.237 1156.82 425.53 1156.53L430.303 1151.76C430.596 1151.46 430.596 1150.99 430.303 1150.7C430.01 1150.4 429.536 1150.4 429.243 1150.7L425 1154.94L420.757 1150.7C420.464 1150.4 419.99 1150.4 419.697 1150.7C419.404 1150.99 419.404 1151.46 419.697 1151.76L424.47 1156.53ZM420 1126L420 1125.25L420 1126ZM350 1102.75H349.25V1121H350H350.75V1102.75H350ZM355 1126V1126.75L420 1126.75L420 1126L420 1125.25L355 1125.25V1126ZM425 1131H424.25V1156H425H425.75V1131H425ZM420 1126L420 1126.75C422.347 1126.75 424.25 1128.65 424.25 1131H425H425.75C425.75 1127.82 423.176 1125.25 420 1125.25L420 1126ZM350 1121H349.25C349.25 1124.18 351.824 1126.75 355 1126.75V1126V1125.25C352.653 1125.25 350.75 1123.35 350.75 1121H350Z" fill="#0D3D5D"></path><path d="M329.25 1103.5L325.67 1096H334.33L330.75 1103.5H329.25ZM170.53 1156.53C170.237 1156.82 169.763 1156.82 169.47 1156.53L164.697 1151.76C164.404 1151.46 164.404 1150.99 164.697 1150.7C164.99 1150.4 165.464 1150.4 165.757 1150.7L170 1154.94L174.243 1150.7C174.536 1150.4 175.01 1150.4 175.303 1150.7C175.596 1150.99 175.596 1151.46 175.303 1151.76L170.53 1156.53ZM175 1126L175 1126.75L175 1126ZM325 1126V1125.25V1126ZM330 1102.75H330.75V1121H330H329.25V1102.75H330ZM325 1126V1126.75L175 1126.75L175 1126L175 1125.25L325 1125.25V1126ZM170 1131H170.75V1156H170H169.25V1131H170ZM175 1126L175 1126.75C172.653 1126.75 170.75 1128.65 170.75 1131H170H169.25C169.25 1127.82 171.824 1125.25 175 1125.25L175 1126ZM330 1121H330.75C330.75 1124.18 328.176 1126.75 325 1126.75V1126V1125.25C327.347 1125.25 329.25 1123.35 329.25 1121H330Z" fill="#0D3D5D"></path><rect width="160" height="53" rx="5" transform="matrix(1 0 0 -1 90 1319)" fill="#F5F6F7"></rect><path d="M132.066 1299H130.286V1287.98H125.966V1286.4H136.386V1287.98H132.066V1299ZM135.405 1289.46H136.485C137.305 1289.46 137.885 1290.02 137.865 1290.86V1290.96C138.425 1290.12 139.365 1289.36 140.245 1289.36H142.365V1290.9H140.205C138.725 1290.9 137.945 1292.16 137.945 1294.08V1299H136.225V1290.98H135.405V1289.46ZM152.884 1299.02H151.784C150.724 1299.02 150.404 1298.36 150.404 1297.6V1296.66C149.944 1298.3 148.364 1299.2 146.724 1299.2C144.964 1299.2 143.044 1298.4 143.044 1296.38C143.044 1294.32 145.024 1293.64 146.724 1293.4L150.404 1292.84V1292.22C150.404 1290.9 148.764 1290.66 147.744 1290.66C146.344 1290.66 145.324 1291.08 145.204 1292.62L143.684 1292.46C143.684 1290.2 145.844 1289.26 147.784 1289.26C149.624 1289.26 152.004 1289.94 152.004 1292.2V1297.62H152.884V1299.02ZM150.404 1294.06L146.704 1294.68C145.844 1294.82 144.784 1295.34 144.784 1296.36C144.784 1297.38 145.904 1297.7 146.744 1297.7C148.464 1297.7 150.404 1296.92 150.404 1294.92V1294.06ZM156.578 1299H154.858V1289.46H156.518V1291.84C157.118 1290.48 158.238 1289.26 160.058 1289.26C162.558 1289.26 163.898 1290.98 163.898 1293.52V1299H162.178V1293.7C162.178 1292 161.378 1290.8 159.558 1290.8C157.618 1290.8 156.578 1292.92 156.578 1294.08V1299ZM167.337 1295.52C167.517 1297.34 168.697 1297.8 170.157 1297.8C170.957 1297.8 172.777 1297.76 172.717 1296.5C172.677 1295.36 170.117 1295 169.157 1294.74C167.817 1294.38 166.197 1293.64 166.197 1292C166.197 1289.64 168.637 1289.26 170.397 1289.26C172.117 1289.26 174.297 1289.86 174.397 1292.5L172.857 1292.68C172.677 1291.08 171.657 1290.66 170.417 1290.66C169.597 1290.66 167.817 1290.7 167.877 1291.96C167.897 1292.6 168.477 1292.98 170.317 1293.44C171.897 1293.82 174.397 1294.32 174.397 1296.46C174.397 1298.82 171.917 1299.2 170.097 1299.2C168.297 1299.2 165.897 1298.56 165.797 1295.7L167.337 1295.52ZM178.2 1303.2H176.48V1289.46H178.14V1291.66C178.8 1290.08 180.4 1289.26 181.86 1289.26C184.6 1289.26 186.36 1291.38 186.36 1294.22C186.36 1297.06 184.4 1299.2 181.68 1299.2C180.22 1299.2 178.82 1298.16 178.2 1296.94V1303.2ZM181.4 1297.68C183.34 1297.68 184.62 1296.1 184.62 1294.22C184.62 1292.32 183.34 1290.78 181.42 1290.78C179.46 1290.78 178.18 1292.36 178.18 1294.22C178.18 1296.1 179.44 1297.68 181.4 1297.68ZM188.006 1294.22C188.006 1291.34 190.126 1289.24 192.966 1289.24C195.806 1289.24 197.906 1291.36 197.906 1294.22C197.906 1297.08 195.806 1299.2 192.966 1299.2C190.126 1299.2 188.006 1297.08 188.006 1294.22ZM192.966 1297.58C194.926 1297.58 196.166 1296.12 196.166 1294.22C196.166 1292.32 194.926 1290.86 192.966 1290.86C191.026 1290.86 189.766 1292.32 189.766 1294.22C189.766 1296.1 191.026 1297.58 192.966 1297.58ZM199.272 1289.46H200.352C201.172 1289.46 201.752 1290.02 201.732 1290.86V1290.96C202.292 1290.12 203.232 1289.36 204.112 1289.36H206.232V1290.9H204.072C202.592 1290.9 201.812 1292.16 201.812 1294.08V1299H200.092V1290.98H199.272V1289.46ZM206.981 1289.36H207.101C208.141 1289.36 208.941 1288.98 209.121 1287.96L209.421 1286.2H210.721L210.181 1289.46H213.561V1290.88H210.521V1297.7H213.961V1299.2H211.061C209.841 1299.18 208.801 1298.52 208.801 1296.94V1290.88H206.981V1289.36Z" fill="#1F1F1F"></path><rect width="160" height="53" rx="5" transform="matrix(1 0 0 -1 90 1382)" fill="#F5F6F7"></rect><path d="M148.442 1362H146.642V1349.4H148.442V1354.82H155.662V1349.4H157.462V1362H155.662V1356.38H148.442V1362ZM159.94 1357.22C159.94 1354.34 162.06 1352.24 164.9 1352.24C167.74 1352.24 169.84 1354.36 169.84 1357.22C169.84 1360.08 167.74 1362.2 164.9 1362.2C162.06 1362.2 159.94 1360.08 159.94 1357.22ZM164.9 1360.58C166.86 1360.58 168.1 1359.12 168.1 1357.22C168.1 1355.32 166.86 1353.86 164.9 1353.86C162.96 1353.86 161.7 1355.32 161.7 1357.22C161.7 1359.1 162.96 1360.58 164.9 1360.58ZM170.965 1352.36H171.085C172.125 1352.36 172.925 1351.98 173.105 1350.96L173.405 1349.2H174.705L174.165 1352.46H177.545V1353.88H174.505V1360.7H177.945V1362.2H175.045C173.825 1362.18 172.785 1361.52 172.785 1359.94V1353.88H170.965V1352.36ZM188.942 1357.56H180.802C180.942 1359.28 182.082 1360.58 184.082 1360.58C185.702 1360.58 186.682 1359.92 187.282 1358.96L188.742 1359.7C187.842 1361.22 186.242 1362.2 184.022 1362.2C181.042 1362.2 179.022 1360.08 179.022 1357.22C179.022 1354.34 181.142 1352.24 184.002 1352.24C186.842 1352.24 188.942 1354.36 188.942 1357.22C188.942 1357.34 188.942 1357.44 188.942 1357.56ZM180.922 1356.18H187.062C186.702 1354.82 185.582 1353.86 184.002 1353.86C182.422 1353.86 181.302 1354.82 180.922 1356.18ZM191.148 1348.68H192.868V1360.7H194.508V1362.2H193.408C192.188 1362.18 191.148 1361.52 191.148 1359.98V1348.68Z" fill="#1F1F1F"></path><rect width="103.333" height="116" rx="5" transform="matrix(1 0 0 -1 260 1382)" fill="#F5F6F7"></rect><path d="M275.89 1316.5H274.09V1303.9H275.91L283.11 1313.54V1303.9H284.91V1316.5H283.09L275.89 1306.86V1316.5ZM288.228 1303.9H290.028V1310.98C290.028 1313.4 290.988 1315.1 293.588 1315.1C296.168 1315.1 297.148 1313.38 297.148 1310.98V1303.9H298.888V1311.06C298.888 1314.52 297.088 1316.7 293.568 1316.7C290.028 1316.7 288.228 1314.5 288.228 1311.06V1303.9ZM302.975 1310.14C302.995 1312.96 304.955 1315.1 307.615 1315.1C309.655 1315.1 311.275 1314.3 311.915 1312.54L313.575 1312.8C313.035 1315.28 310.775 1316.7 307.735 1316.7C303.715 1316.7 301.215 1314 301.175 1310.14C301.135 1306.68 303.715 1303.7 307.735 1303.7C310.775 1303.7 313.035 1305.12 313.575 1307.6L311.915 1307.84C311.275 1306.1 309.655 1305.3 307.615 1305.3C304.955 1305.3 302.995 1307.3 302.975 1310.14ZM324.526 1316.5H315.906V1303.9H317.706V1314.92H324.526V1316.5ZM335.193 1316.5H326.453V1303.9H335.353V1305.46H328.253V1309.32H334.453V1310.86H328.253V1314.94H335.193V1316.5ZM336.878 1310.2C336.878 1306.38 339.858 1303.7 343.598 1303.7C347.338 1303.7 350.278 1306.38 350.278 1310.2C350.278 1314.02 347.338 1316.7 343.598 1316.7C339.858 1316.7 336.878 1314.02 336.878 1310.2ZM343.598 1315.1C346.378 1315.1 348.478 1312.98 348.478 1310.2C348.478 1307.42 346.378 1305.3 343.598 1305.3C340.798 1305.3 338.678 1307.4 338.678 1310.2C338.678 1313 340.798 1315.1 343.598 1315.1ZM295.472 1335.68C295.452 1334.26 294.212 1333.34 292.852 1333.32C291.452 1333.3 289.792 1333.46 289.792 1335.1C289.792 1336.42 291.372 1336.9 292.532 1337.16C294.592 1337.6 297.432 1338.28 297.432 1341.1C297.432 1343.78 294.992 1344.64 292.552 1344.7C290.272 1344.76 287.772 1343.54 287.532 1340.98L289.352 1340.72C289.472 1342.18 290.972 1343.1 292.532 1343.1C294.072 1343.1 295.572 1342.8 295.572 1341.16C295.572 1339.4 292.912 1339.12 291.572 1338.78C289.772 1338.32 287.932 1337.52 287.932 1335.1C287.932 1332.44 290.572 1331.64 292.872 1331.7C295.092 1331.76 297.212 1332.92 297.212 1335.48L295.472 1335.68ZM301.339 1333.82L299.679 1333.34V1331.74H301.339V1333.82ZM299.679 1334.96H300.499C301.039 1334.96 301.399 1335.32 301.399 1335.86V1344.5H299.679V1334.96ZM303.228 1334.86H303.348C304.388 1334.86 305.188 1334.48 305.368 1333.46L305.668 1331.7H306.968L306.428 1334.96H309.808V1336.38H306.768V1343.2H310.208V1344.7H307.308C306.088 1344.68 305.048 1344.02 305.048 1342.44V1336.38H303.228V1334.86ZM321.204 1340.06H313.064C313.204 1341.78 314.344 1343.08 316.344 1343.08C317.964 1343.08 318.944 1342.42 319.544 1341.46L321.004 1342.2C320.104 1343.72 318.504 1344.7 316.284 1344.7C313.304 1344.7 311.284 1342.58 311.284 1339.72C311.284 1336.84 313.404 1334.74 316.264 1334.74C319.104 1334.74 321.204 1336.86 321.204 1339.72C321.204 1339.84 321.204 1339.94 321.204 1340.06ZM313.184 1338.68H319.324C318.964 1337.32 317.844 1336.36 316.264 1336.36C314.684 1336.36 313.564 1337.32 313.184 1338.68ZM328.234 1331.9H331.094C332.034 1331.9 332.654 1332.52 332.654 1333.46V1342.9H336.034V1344.5H327.334V1342.9H330.934V1333.44H328.234V1331.9Z" fill="#1F1F1F"></path><rect width="103.333" height="116" rx="5" transform="matrix(1 0 0 -1 373.334 1382)" fill="#F5F6F7"></rect><path d="M389.224 1316.5H387.424V1303.9H389.244L396.444 1313.54V1303.9H398.244V1316.5H396.424L389.224 1306.86V1316.5ZM401.562 1303.9H403.362V1310.98C403.362 1313.4 404.322 1315.1 406.922 1315.1C409.502 1315.1 410.482 1313.38 410.482 1310.98V1303.9H412.222V1311.06C412.222 1314.52 410.422 1316.7 406.902 1316.7C403.362 1316.7 401.562 1314.5 401.562 1311.06V1303.9ZM416.309 1310.14C416.329 1312.96 418.289 1315.1 420.949 1315.1C422.989 1315.1 424.609 1314.3 425.249 1312.54L426.909 1312.8C426.369 1315.28 424.109 1316.7 421.069 1316.7C417.049 1316.7 414.549 1314 414.509 1310.14C414.469 1306.68 417.049 1303.7 421.069 1303.7C424.109 1303.7 426.369 1305.12 426.909 1307.6L425.249 1307.84C424.609 1306.1 422.989 1305.3 420.949 1305.3C418.289 1305.3 416.329 1307.3 416.309 1310.14ZM437.86 1316.5H429.24V1303.9H431.04V1314.92H437.86V1316.5ZM448.527 1316.5H439.787V1303.9H448.687V1305.46H441.587V1309.32H447.787V1310.86H441.587V1314.94H448.527V1316.5ZM450.212 1310.2C450.212 1306.38 453.192 1303.7 456.932 1303.7C460.672 1303.7 463.612 1306.38 463.612 1310.2C463.612 1314.02 460.672 1316.7 456.932 1316.7C453.192 1316.7 450.212 1314.02 450.212 1310.2ZM456.932 1315.1C459.712 1315.1 461.812 1312.98 461.812 1310.2C461.812 1307.42 459.712 1305.3 456.932 1305.3C454.132 1305.3 452.012 1307.4 452.012 1310.2C452.012 1313 454.132 1315.1 456.932 1315.1ZM408.718 1335.68C408.698 1334.26 407.458 1333.34 406.098 1333.32C404.698 1333.3 403.038 1333.46 403.038 1335.1C403.038 1336.42 404.618 1336.9 405.778 1337.16C407.838 1337.6 410.678 1338.28 410.678 1341.1C410.678 1343.78 408.238 1344.64 405.798 1344.7C403.518 1344.76 401.018 1343.54 400.778 1340.98L402.598 1340.72C402.718 1342.18 404.218 1343.1 405.778 1343.1C407.318 1343.1 408.818 1342.8 408.818 1341.16C408.818 1339.4 406.158 1339.12 404.818 1338.78C403.018 1338.32 401.178 1337.52 401.178 1335.1C401.178 1332.44 403.818 1331.64 406.118 1331.7C408.338 1331.76 410.458 1332.92 410.458 1335.48L408.718 1335.68ZM414.585 1333.82L412.925 1333.34V1331.74H414.585V1333.82ZM412.925 1334.96H413.745C414.285 1334.96 414.645 1335.32 414.645 1335.86V1344.5H412.925V1334.96ZM416.474 1334.86H416.594C417.634 1334.86 418.434 1334.48 418.614 1333.46L418.914 1331.7H420.214L419.674 1334.96H423.054V1336.38H420.014V1343.2H423.454V1344.7H420.554C419.334 1344.68 418.294 1344.02 418.294 1342.44V1336.38H416.474V1334.86ZM434.45 1340.06H426.31C426.45 1341.78 427.59 1343.08 429.59 1343.08C431.21 1343.08 432.19 1342.42 432.79 1341.46L434.25 1342.2C433.35 1343.72 431.75 1344.7 429.53 1344.7C426.55 1344.7 424.53 1342.58 424.53 1339.72C424.53 1336.84 426.65 1334.74 429.51 1334.74C432.35 1334.74 434.45 1336.86 434.45 1339.72C434.45 1339.84 434.45 1339.94 434.45 1340.06ZM426.43 1338.68H432.57C432.21 1337.32 431.09 1336.36 429.51 1336.36C427.93 1336.36 426.81 1337.32 426.43 1338.68ZM440.52 1344.5V1340.64C440.52 1339.46 440.68 1339.08 442.12 1339.08H444.9C446.78 1339.08 447.64 1338.02 447.64 1336.02C447.64 1333.72 446.04 1333.3 444.94 1333.3C443.62 1333.3 442.14 1333.96 441.98 1335.84L440.42 1335.48C440.66 1332.84 442.9 1331.66 444.92 1331.66C447.34 1331.66 449.4 1333.02 449.4 1336.22C449.4 1338.92 448 1340.7 445.16 1340.7H442.22V1342.84H449.4V1344.5H440.52Z" fill="#1F1F1F"></path><rect width="103.333" height="116" rx="5" transform="matrix(1 0 0 -1 486.666 1382)" fill="#F5F6F7"></rect><path d="M502.556 1316.5H500.756V1303.9H502.576L509.776 1313.54V1303.9H511.576V1316.5H509.756L502.556 1306.86V1316.5ZM514.894 1303.9H516.694V1310.98C516.694 1313.4 517.654 1315.1 520.254 1315.1C522.834 1315.1 523.814 1313.38 523.814 1310.98V1303.9H525.554V1311.06C525.554 1314.52 523.754 1316.7 520.234 1316.7C516.694 1316.7 514.894 1314.5 514.894 1311.06V1303.9ZM529.641 1310.14C529.661 1312.96 531.621 1315.1 534.281 1315.1C536.321 1315.1 537.941 1314.3 538.581 1312.54L540.241 1312.8C539.701 1315.28 537.441 1316.7 534.401 1316.7C530.381 1316.7 527.881 1314 527.841 1310.14C527.801 1306.68 530.381 1303.7 534.401 1303.7C537.441 1303.7 539.701 1305.12 540.241 1307.6L538.581 1307.84C537.941 1306.1 536.321 1305.3 534.281 1305.3C531.621 1305.3 529.661 1307.3 529.641 1310.14ZM551.192 1316.5H542.572V1303.9H544.372V1314.92H551.192V1316.5ZM561.859 1316.5H553.119V1303.9H562.019V1305.46H554.919V1309.32H561.119V1310.86H554.919V1314.94H561.859V1316.5ZM563.544 1310.2C563.544 1306.38 566.524 1303.7 570.264 1303.7C574.004 1303.7 576.944 1306.38 576.944 1310.2C576.944 1314.02 574.004 1316.7 570.264 1316.7C566.524 1316.7 563.544 1314.02 563.544 1310.2ZM570.264 1315.1C573.044 1315.1 575.144 1312.98 575.144 1310.2C575.144 1307.42 573.044 1305.3 570.264 1305.3C567.464 1305.3 565.344 1307.4 565.344 1310.2C565.344 1313 567.464 1315.1 570.264 1315.1ZM513.408 1335.68C513.388 1334.26 512.148 1333.34 510.788 1333.32C509.388 1333.3 507.728 1333.46 507.728 1335.1C507.728 1336.42 509.308 1336.9 510.468 1337.16C512.528 1337.6 515.368 1338.28 515.368 1341.1C515.368 1343.78 512.928 1344.64 510.488 1344.7C508.208 1344.76 505.708 1343.54 505.468 1340.98L507.288 1340.72C507.408 1342.18 508.908 1343.1 510.468 1343.1C512.008 1343.1 513.508 1342.8 513.508 1341.16C513.508 1339.4 510.848 1339.12 509.508 1338.78C507.708 1338.32 505.868 1337.52 505.868 1335.1C505.868 1332.44 508.508 1331.64 510.808 1331.7C513.028 1331.76 515.148 1332.92 515.148 1335.48L513.408 1335.68ZM519.275 1333.82L517.615 1333.34V1331.74H519.275V1333.82ZM517.615 1334.96H518.435C518.975 1334.96 519.335 1335.32 519.335 1335.86V1344.5H517.615V1334.96ZM521.163 1334.86H521.283C522.323 1334.86 523.123 1334.48 523.303 1333.46L523.603 1331.7H524.903L524.363 1334.96H527.743V1336.38H524.703V1343.2H528.143V1344.7H525.243C524.023 1344.68 522.983 1344.02 522.983 1342.44V1336.38H521.163V1334.86ZM539.14 1340.06H531C531.14 1341.78 532.28 1343.08 534.28 1343.08C535.9 1343.08 536.88 1342.42 537.48 1341.46L538.94 1342.2C538.04 1343.72 536.44 1344.7 534.22 1344.7C531.24 1344.7 529.22 1342.58 529.22 1339.72C529.22 1336.84 531.34 1334.74 534.2 1334.74C537.04 1334.74 539.14 1336.86 539.14 1339.72C539.14 1339.84 539.14 1339.94 539.14 1340.06ZM531.12 1338.68H537.26C536.9 1337.32 535.78 1336.36 534.2 1336.36C532.62 1336.36 531.5 1337.32 531.12 1338.68ZM546.169 1331.02L547.109 1331.22L546.629 1332.58C547.089 1332.64 547.789 1332.96 547.789 1333.66C547.789 1334.36 547.289 1334.88 546.549 1334.88C545.769 1334.88 545.269 1334.24 545.369 1333.5C545.609 1332.18 545.929 1331.64 546.169 1331.02ZM549.569 1331.02L550.509 1331.22L550.029 1332.58C550.489 1332.64 551.189 1332.96 551.189 1333.66C551.189 1334.36 550.689 1334.88 549.949 1334.88C549.169 1334.88 548.669 1334.24 548.769 1333.5C549.009 1332.18 549.329 1331.64 549.569 1331.02ZM555.995 1344.5H554.275V1334.96H555.935V1337.34C556.535 1335.98 557.655 1334.76 559.475 1334.76C561.975 1334.76 563.315 1336.48 563.315 1339.02V1344.5H561.595V1339.2C561.595 1337.5 560.795 1336.3 558.975 1336.3C557.035 1336.3 555.995 1338.42 555.995 1339.58V1344.5ZM566.637 1334.9L565.697 1334.7L566.177 1333.34C565.737 1333.28 565.017 1332.96 565.017 1332.26C565.017 1331.56 565.517 1331.04 566.257 1331.04C567.037 1331.04 567.537 1331.68 567.437 1332.4C567.197 1333.74 566.877 1334.28 566.637 1334.9ZM570.017 1334.92L569.077 1334.72L569.557 1333.36C569.117 1333.3 568.397 1332.98 568.397 1332.28C568.397 1331.58 568.897 1331.06 569.637 1331.06C570.417 1331.06 570.917 1331.7 570.817 1332.42C570.577 1333.76 570.257 1334.3 570.017 1334.92Z" fill="#1F1F1F"></path><path d="M609.47 1035.47C609.177 1035.76 609.177 1036.24 609.47 1036.53L614.243 1041.3C614.535 1041.6 615.01 1041.6 615.303 1041.3C615.596 1041.01 615.596 1040.54 615.303 1040.24L611.061 1036L615.303 1031.76C615.596 1031.46 615.596 1030.99 615.303 1030.7C615.01 1030.4 614.535 1030.4 614.243 1030.7L609.47 1035.47ZM762.5 984.75L770 988.33L770 979.67L762.5 983.25V984.75ZM690 989L689.25 989L690 989ZM610 1036V1036.75H685V1036V1035.25H610V1036ZM690 1031H690.75L690.75 989L690 989L689.25 989L689.25 1031L690 1031ZM695 984V984.75H763.25V984V983.25H695V984ZM690 989L690.75 989C690.75 986.653 692.653 984.75 695 984.75V984V983.25C691.825 983.25 689.25 985.824 689.25 989L690 989ZM685 1036V1036.75C688.176 1036.75 690.75 1034.18 690.75 1031H690L689.25 1031C689.25 1033.35 687.347 1035.25 685 1035.25V1036Z" fill="#D8A117"></path><path d="M602.49 729.47C602.198 729.763 602.198 730.237 602.49 730.53L607.263 735.303C607.556 735.596 608.031 735.596 608.324 735.303C608.617 735.01 608.617 734.536 608.324 734.243L604.081 730L608.324 725.757C608.617 725.464 608.617 724.99 608.324 724.697C608.031 724.404 607.556 724.404 607.263 724.697L602.49 729.47ZM755.5 440.75L763 444.33L763 435.67L755.5 439.25V440.75ZM723.001 445L723.751 445L723.001 445ZM603.021 730V730.75H718.021V730V729.25H603.021V730ZM723.021 725L723.771 725L723.751 445L723.001 445L722.251 445L722.271 725L723.021 725ZM728.001 440V440.75H756.25V440V439.25H728.001V440ZM723.001 445L723.751 445C723.75 442.653 725.653 440.75 728.001 440.75V440V439.25C724.825 439.25 722.25 441.825 722.251 445L723.001 445ZM718.021 730V730.75C721.196 730.75 723.771 728.175 723.771 725L723.021 725L722.271 725C722.271 727.347 720.368 729.25 718.021 729.25V730Z" fill="#D8A117"></path><path d="M602.49 549.47C602.197 549.763 602.197 550.237 602.49 550.53L607.263 555.303C607.556 555.596 608.031 555.596 608.324 555.303C608.617 555.01 608.617 554.536 608.324 554.243L604.081 550L608.324 545.757C608.617 545.464 608.617 544.99 608.324 544.697C608.031 544.404 607.556 544.404 607.263 544.697L602.49 549.47ZM755.5 157.75L763 161.33L763 152.67L755.5 156.25V157.75ZM643 162L642.25 162L643 162ZM643.02 545L643.77 545L643.02 545ZM603.02 550V550.75H638.02V550V549.25H603.02V550ZM643.02 545L643.77 545L643.75 162L643 162L642.25 162L642.27 545L643.02 545ZM648 157V157.75L756.25 157.75V157V156.25L648 156.25V157ZM643 162L643.75 162C643.75 159.653 645.653 157.75 648 157.75V157V156.25C644.825 156.25 642.25 158.825 642.25 162L643 162ZM638.02 550V550.75C641.196 550.75 643.77 548.175 643.77 545L643.02 545L642.27 545C642.27 547.347 640.368 549.25 638.02 549.25V550Z" fill="#D8A117"></path><rect width="500" height="80" rx="5" transform="matrix(1 0 0 -1 90 1076)" fill="#33A6F2"></rect><path d="M284.979 1036.16C284.979 1031.63 288.659 1028.6 293.075 1028.6C297.491 1028.6 301.125 1031.63 301.125 1036.16C301.125 1040.69 297.491 1043.73 293.075 1043.73C288.682 1043.73 284.979 1040.67 284.979 1036.16ZM293.075 1041.06C295.881 1041.06 298.02 1038.95 298.02 1036.16C298.02 1033.36 295.881 1031.24 293.075 1031.24C290.246 1031.24 288.084 1033.33 288.084 1036.16C288.084 1038.97 290.246 1041.06 293.075 1041.06ZM306.309 1048.49H303.457V1032.25H306.217V1034.58C306.907 1032.99 308.724 1032.02 310.334 1032.02C313.255 1032.02 315.647 1034.21 315.647 1037.84C315.647 1041.22 313.462 1043.73 310.15 1043.73C308.517 1043.73 307.091 1042.74 306.309 1041.45V1048.49ZM309.483 1041.27C311.438 1041.27 312.68 1039.75 312.68 1037.93C312.68 1036.09 311.438 1034.6 309.506 1034.6C307.551 1034.6 306.286 1036.14 306.286 1037.93C306.286 1039.75 307.528 1041.27 309.483 1041.27ZM329.168 1038.39H320.083C320.267 1040.12 321.463 1041.31 323.349 1041.31C324.936 1041.31 325.971 1040.62 326.5 1039.64L328.984 1040.42C328.156 1042.3 326.27 1043.75 323.303 1043.75C319.761 1043.75 317.162 1041.36 317.162 1037.84C317.162 1034.37 319.784 1032.02 323.188 1032.02C326.592 1032.02 329.145 1034.28 329.168 1037.73C329.168 1037.89 329.168 1038.23 329.168 1038.39ZM320.267 1036.53H326.155C325.787 1035.24 324.66 1034.37 323.188 1034.37C321.762 1034.37 320.681 1035.22 320.267 1036.53ZM330.387 1032.18H332.618C333.584 1032.18 334.228 1032.8 334.228 1033.77V1033.98C334.964 1032.94 336.068 1032.09 337.149 1032.09H339.656V1034.78H336.758C335.01 1034.78 334.274 1035.86 334.274 1037.84V1043.5H331.422V1034.78H330.387V1032.18ZM352.328 1043.5H350.465C349.177 1043.5 348.487 1042.81 348.487 1041.82V1040.88C348.027 1042.86 346.164 1043.73 344.347 1043.73C342.3 1043.73 340.276 1042.74 340.276 1040.44C340.276 1038.14 342.392 1037.22 344.554 1036.9L348.487 1036.35V1035.82C348.487 1034.64 347.13 1034.39 346.187 1034.37C344.853 1034.37 343.841 1034.71 343.703 1036.16L340.92 1035.91C340.943 1033.2 343.45 1032.02 346.095 1032.02C349.476 1032.02 351.339 1033.31 351.339 1035.79V1041.06L352.328 1041.08V1043.5ZM348.487 1038.09L345.267 1038.62C344.301 1038.78 343.151 1039.24 343.243 1040.21C343.312 1041.11 344.393 1041.38 345.336 1041.25C346.785 1041.15 348.464 1040.37 348.487 1038.72V1038.09ZM352.845 1032.09H353.397C354.478 1032.09 355.352 1031.52 355.582 1030.32L355.996 1028.09H358.434L357.675 1032.16H361.746V1034.67H358.066V1041.25H362.16V1043.73L358.227 1043.78C356.387 1043.75 355.145 1042.74 355.145 1040.69V1034.67H352.845V1032.09ZM366.952 1031.01L364.192 1030.27V1027.86H366.952V1031.01ZM364.169 1032.25H365.71C366.492 1032.25 367.021 1032.76 367.021 1033.52V1043.5H364.169V1032.25ZM369.159 1037.93C369.159 1034.83 371.39 1032.02 375.277 1032.02C379.187 1032.02 381.395 1034.85 381.395 1037.93C381.395 1041.31 378.727 1043.73 375.277 1043.73C371.85 1043.73 369.159 1041.31 369.159 1037.93ZM375.277 1041.11C377.278 1041.11 378.52 1039.7 378.52 1037.89C378.52 1036.07 377.278 1034.64 375.277 1034.64C373.276 1034.64 372.034 1036.07 372.034 1037.89C372.034 1039.68 373.299 1041.11 375.277 1041.11ZM386.405 1043.5H383.553V1032.25H386.359V1034.74C387.118 1033.03 388.521 1032.02 390.016 1032.02C393.696 1032.02 394.616 1034.62 394.616 1037.17V1043.5H391.856V1037.59C391.856 1035.86 391.12 1034.64 389.349 1034.64C387.348 1034.64 386.405 1036.69 386.405 1037.86V1043.5Z" fill="white"></path></svg> 